<?xml version="1.0" encoding="iso-8859-1"?>
<!-- Generator: Adobe Illustrator 14.0.0, SVG Export Plug-In . SVG Version: 6.00 Build 43363)  -->
<!DOCTYPE svg PUBLIC "-//W3C//DTD SVG 1.1//EN" "http://www.w3.org/Graphics/SVG/1.1/DTD/svg11.dtd">
<svg version="1.1" id="Calque_1" xmlns="http://www.w3.org/2000/svg" xmlns:xlink="http://www.w3.org/1999/xlink" x="0px" y="0px"
	 width="739.67px" height="189.735px" viewBox="0 0 739.67 189.735" style="enable-background:new 0 0 739.67 189.735;"
	 xml:space="preserve">
<g>
	<path style="fill:#FBD200;" d="M28.276,107.221H12.173V73.162h9.199v25.896h6.904V107.221z"/>
	<path style="fill:#FBD200;" d="M41.282,73.162l-5.956,16.39h-7.257l4.169-16.39H41.282z"/>
	<path style="fill:#FBD200;" d="M68.221,107.221h-9.507l-0.684-4.323h-6.199l-0.75,4.323h-9.507l8.184-34.059h11.25L68.221,107.221z
		 M56.949,95.729l-0.596-3.971c-0.015-0.015-0.044-0.213-0.088-0.596c-0.03-0.323-0.184-1.603-0.463-3.839
		c-0.03-0.249-0.066-0.592-0.11-1.025s-0.103-0.981-0.176-1.644l-0.287-3.221c-0.029,0.31-0.07,0.655-0.121,1.037
		c-0.052,0.383-0.107,0.802-0.166,1.258c-0.103,0.911-0.176,1.544-0.221,1.896c-0.044,0.354-0.074,0.566-0.088,0.64l-0.64,4.125
		l-0.926,5.339H56.949z"/>
	<path style="fill:#FBD200;" d="M82.736,87.522h12.838v1.37c0,6.366-0.978,10.948-2.934,13.746
		c-2.132,3.055-5.287,4.582-9.463,4.582c-4.103,0-7.323-1.491-9.662-4.473c-2.324-3.011-3.485-7.143-3.485-12.397
		c0-5.324,1.169-9.521,3.507-12.588c2.338-3.067,5.537-4.601,9.596-4.601c5.382,0,9.287,2.794,11.713,8.382l-8.912,3.265
		c-0.132-1.073-0.438-1.922-0.915-2.548c-0.479-0.624-1.078-0.938-1.798-0.938c-2.53,0-3.794,3.268-3.794,9.801
		c0,2.776,0.279,4.793,0.838,6.05c0.559,1.257,1.448,1.885,2.669,1.885c0.485,0,0.927-0.104,1.324-0.312s0.731-0.5,1.003-0.877
		s0.485-0.835,0.64-1.375c0.154-0.54,0.231-1.141,0.231-1.804h-3.397V87.522z"/>
	<path style="fill:#FBD200;" d="M99.5,107.221V73.162h17.096v8.161h-7.897v4.346h7.081v8.162h-7.081v5.228h7.897v8.162H99.5z"/>
	<path style="fill:#FBD200;" d="M120.522,107.221V73.162h8.779l4.61,11.956c0.25,0.705,0.533,1.515,0.849,2.426
		c0.316,0.912,0.666,1.964,1.048,3.154l0.949,3c-0.338-2.955-0.596-5.484-0.772-7.588c-0.177-2.103-0.265-3.867-0.265-5.294v-7.654
		h8.868v34.059h-8.868l-4.911-12.529c-0.515-1.338-0.979-2.592-1.391-3.761c-0.414-1.17-0.776-2.283-1.087-3.343
		c0.367,2.397,0.635,4.486,0.804,6.266s0.254,3.338,0.254,4.676v8.691H120.522z"/>
	<path style="fill:#FBD200;" d="M168.683,96.854l-0.529,9.23c-2.044,0.758-3.875,1.137-5.493,1.137
		c-3.809,0-7.015-1.349-9.618-4.047c-2.912-3.024-4.368-7.306-4.368-12.844c0-5.184,1.368-9.344,4.103-12.482
		c2.735-3.124,6.39-4.686,10.963-4.686c1.485,0,3,0.268,4.544,0.804v9.409c-1.368-1.367-2.772-2.052-4.213-2.052
		c-1.882,0-3.353,0.795-4.412,2.384c-1.059,1.604-1.588,3.82-1.588,6.648c0,1.37,0.132,2.595,0.397,3.674
		c0.265,1.079,0.643,1.99,1.136,2.733c0.493,0.744,1.099,1.312,1.82,1.706c0.72,0.394,1.544,0.59,2.471,0.59
		C165.485,99.059,167.08,98.324,168.683,96.854z"/>
	<path style="fill:#FBD200;" d="M172.278,107.221V73.162h17.096v8.161h-7.897v4.346h7.081v8.162h-7.081v5.228h7.897v8.162H172.278z"
		/>
	<path style="fill:#FBD200;" d="M235.609,107.221h-8.901l-2.136-11.934c-0.416-2.309-0.727-4.309-0.935-6
		c-0.104-0.839-0.193-1.537-0.267-2.096s-0.126-0.985-0.156-1.279c-0.074,0.603-0.186,1.728-0.333,3.375
		c-0.067,0.838-0.148,1.721-0.243,2.646c-0.094,0.927-0.209,1.905-0.343,2.935l-1.596,12.353h-8.605l-7.588-34.059h9.088l1.5,9.375
		c0.573,3.735,0.97,6.669,1.191,8.801l0.309,3.11l0.287-2.669c0.298-3.117,0.682-6.08,1.151-8.89l1.662-9.728h7.65l1.492,8.184
		c0.71,3.809,1.328,8.316,1.854,13.522c0.162-2.339,0.338-4.412,0.53-6.221c0.191-1.81,0.404-3.448,0.64-4.919l1.676-10.566h8.978
		L235.609,107.221z"/>
	<path style="fill:#FBD200;" d="M245.381,107.221V73.162h17.096v8.161h-7.897v4.346h7.081v8.162h-7.081v5.228h7.897v8.162H245.381z"
		/>
	<path style="fill:#FBD200;" d="M266.403,107.221V73.162h10.699c4,0,6.963,0.882,8.89,2.646c1.956,1.81,2.934,4.147,2.934,7.015
		c0,4.266-2.118,6.574-6.353,6.927c2.412,0.354,4.18,1.147,5.305,2.383s1.688,3.015,1.688,5.338c0,2.927-0.948,5.279-2.845,7.059
		c-1.883,1.795-4.361,2.691-7.434,2.691H266.403z M275.602,86.133h0.618c1.103,0,1.974-0.258,2.614-0.772s0.959-1.235,0.959-2.162
		c0-1.97-1.081-2.955-3.243-2.955c-0.103,0-0.231,0.003-0.386,0.011c-0.155,0.008-0.342,0.019-0.562,0.033V86.133z M275.602,100.007
		c0.176,0.015,0.331,0.025,0.463,0.033s0.243,0.012,0.331,0.012c1.147,0,2.062-0.31,2.746-0.929
		c0.684-0.619,1.026-1.449,1.026-2.491s-0.342-1.857-1.026-2.447c-0.684-0.588-1.621-0.883-2.812-0.883h-0.728V100.007z"/>
	<path style="fill:#FBD200;" d="M321.881,107.221h-9.375l-7.809-34.059h9.662l1.677,9.728c0.632,3.721,1.139,7.883,1.522,12.485
		c0.162-2.044,0.36-3.956,0.596-5.735c0.235-1.779,0.515-3.515,0.838-5.206l2.184-11.271h9.993L321.881,107.221z"/>
	<path style="fill:#FBD200;" d="M357.771,107.221h-9.948l-4.544-12.133c-0.044-0.205-0.121-0.478-0.231-0.815
		c-0.11-0.339-0.247-0.743-0.408-1.214l0.066,2.25v11.912h-9.155V73.162h9.419c4.146,0,7.249,0.816,9.309,2.448
		c2.617,2.089,3.927,5.06,3.927,8.912c0,4.117-1.758,6.963-5.272,8.536L357.771,107.221z M342.749,88.448h0.617
		c1.06,0,1.941-0.404,2.647-1.213s1.059-1.838,1.059-3.088c0-2.544-1.331-3.816-3.992-3.816h-0.331V88.448z"/>
	<path style="fill:#FBD200;" d="M385.345,107.221h-9.508l-0.684-4.323h-6.198l-0.75,4.323h-9.508l8.184-34.059h11.25
		L385.345,107.221z M374.072,95.729l-0.596-3.971c-0.015-0.015-0.044-0.213-0.088-0.596c-0.03-0.323-0.185-1.603-0.464-3.839
		c-0.029-0.249-0.065-0.592-0.109-1.025c-0.045-0.434-0.104-0.981-0.177-1.644l-0.287-3.221c-0.029,0.31-0.069,0.655-0.121,1.037
		c-0.052,0.383-0.106,0.802-0.165,1.258c-0.104,0.911-0.177,1.544-0.221,1.896c-0.045,0.354-0.074,0.566-0.089,0.64l-0.64,4.125
		l-0.926,5.339H374.072z"/>
	<path style="fill:#FBD200;" d="M397.212,107.221h-9.198V73.162h9.198V107.221z"/>
	<path style="fill:#FBD200;" d="M436.72,107.221h-9.309l-0.375-15.529l-0.299-6.198c-0.107,1.19-0.229,2.327-0.367,3.407
		c-0.139,1.081-0.307,2.129-0.506,3.144l-3.009,15.177h-7.644l-2.47-15.198c-0.147-0.883-0.346-2.397-0.596-4.544
		c-0.03-0.324-0.096-0.985-0.199-1.985l-0.22,6.286l-0.816,15.441h-9.794l3.97-34.059h11.449l1.919,11.471
		c0.161,0.941,0.305,1.963,0.43,3.065c0.125,1.104,0.239,2.302,0.343,3.596c0.187-2.161,0.445-4.095,0.776-5.801l2.289-12.331
		h11.118L436.72,107.221z"/>
	<path style="fill:#FBD200;" d="M441.109,107.221V73.162h17.095v8.161h-7.896v4.346h7.081v8.162h-7.081v5.228h7.896v8.162H441.109z"
		/>
	<path style="fill:#FBD200;" d="M462.132,107.221V73.162h8.779l4.61,11.956c0.249,0.705,0.532,1.515,0.849,2.426
		c0.316,0.912,0.665,1.964,1.048,3.154l0.948,3c-0.338-2.955-0.595-5.484-0.771-7.588c-0.177-2.103-0.265-3.867-0.265-5.294v-7.654
		h8.867v34.059h-8.867l-4.911-12.529c-0.515-1.338-0.979-2.592-1.392-3.761c-0.413-1.17-0.775-2.283-1.087-3.343
		c0.366,2.397,0.635,4.486,0.805,6.266c0.169,1.779,0.254,3.338,0.254,4.676v8.691H462.132z"/>
	<path style="fill:#FBD200;" d="M502.764,107.221h-9.199V81.323h-5.073v-8.161h19.544v8.161h-5.271V107.221z"/>
	<path style="fill:#FBD200;" d="M535.896,107.221h-9.199V81.323h-5.073v-8.161h19.544v8.161h-5.271V107.221z"/>
	<path style="fill:#FBD200;" d="M567.771,107.221h-9.948l-4.544-12.133c-0.044-0.205-0.121-0.478-0.231-0.815
		c-0.11-0.339-0.247-0.743-0.408-1.214l0.066,2.25v11.912h-9.154V73.162h9.419c4.146,0,7.249,0.816,9.309,2.448
		c2.617,2.089,3.927,5.06,3.927,8.912c0,4.117-1.758,6.963-5.272,8.536L567.771,107.221z M552.749,88.448h0.617
		c1.06,0,1.941-0.404,2.647-1.213s1.059-1.838,1.059-3.088c0-2.544-1.331-3.816-3.992-3.816h-0.331V88.448z"/>
	<path style="fill:#FBD200;" d="M570.815,107.221V73.162h17.095v8.161h-7.896v4.346h7.081v8.162h-7.081v5.228h7.896v8.162H570.815z
		 M585.925,62.265l-4.301,8.162h-5.14l2.228-8.162H585.925z"/>
	<path style="fill:#FBD200;" d="M591.108,105.832V95.354c1.809,2.47,3.765,3.705,5.868,3.705c0.794,0,1.44-0.201,1.94-0.605
		s0.75-0.912,0.75-1.522c0-0.879-0.544-1.737-1.632-2.574l-1.5-1.128c-1-0.724-1.854-1.443-2.559-2.16
		c-0.706-0.716-1.28-1.454-1.721-2.213c-0.441-0.759-0.765-1.543-0.971-2.352s-0.309-1.659-0.309-2.553
		c0-1.532,0.367-3.136,1.103-4.81c0.367-0.78,0.794-1.493,1.279-2.139s1.044-1.217,1.677-1.713c1.735-1.419,3.83-2.128,6.286-2.128
		c2.191,0,4.397,0.564,6.618,1.692v10.219c-0.75-1.161-1.604-2.076-2.559-2.746c-0.956-0.669-1.897-1.004-2.824-1.004
		c-0.705,0-1.286,0.199-1.742,0.596c-0.471,0.383-0.706,0.844-0.706,1.382c0,0.879,0.625,1.751,1.875,2.615l1.456,1.042
		c1.941,1.347,3.331,2.729,4.169,4.146c0.853,1.418,1.279,3.076,1.279,4.976c0,3.232-1.022,5.897-3.066,7.995
		s-4.632,3.146-7.765,3.146C595.896,107.221,593.579,106.758,591.108,105.832z"/>
	<path style="fill:#FBD200;" d="M645.219,96.854l-0.529,9.23c-2.044,0.758-3.875,1.137-5.492,1.137c-3.81,0-7.016-1.349-9.618-4.047
		c-2.912-3.024-4.367-7.306-4.367-12.844c0-5.184,1.367-9.344,4.103-12.482c2.735-3.124,6.39-4.686,10.963-4.686
		c1.485,0,3,0.268,4.545,0.804v9.409c-1.368-1.367-2.772-2.052-4.214-2.052c-1.883,0-3.353,0.795-4.411,2.384
		c-1.06,1.604-1.589,3.82-1.589,6.648c0,1.37,0.133,2.595,0.397,3.674s0.643,1.99,1.136,2.733c0.492,0.744,1.1,1.312,1.82,1.706
		c0.72,0.394,1.544,0.59,2.47,0.59C642.021,99.059,643.616,98.324,645.219,96.854z"/>
	<path style="fill:#FBD200;" d="M673.852,90.309c0,5.013-1.184,9.088-3.552,12.226c-2.353,3.124-5.419,4.687-9.198,4.687
		c-3.353,0-6.228-1.2-8.625-3.6c-3.015-3.039-4.521-7.597-4.521-13.675c0-5.822,1.573-10.273,4.72-13.354
		c2.339-2.286,5.11-3.43,8.316-3.43c3.927,0,7.052,1.548,9.375,4.644S673.852,85.068,673.852,90.309z M664.3,90.386
		c0-6.041-1.088-9.062-3.265-9.062c-1.088,0-1.956,0.794-2.603,2.38c-0.633,1.471-0.948,3.633-0.948,6.488
		c0,2.812,0.298,4.992,0.894,6.542c0.595,1.551,1.422,2.325,2.481,2.325c1.088,0,1.926-0.764,2.515-2.292
		C663.991,95.238,664.3,93.111,664.3,90.386z"/>
	<path style="fill:#FBD200;" d="M712.521,107.221h-9.309l-0.375-15.529l-0.299-6.198c-0.107,1.19-0.229,2.327-0.367,3.407
		c-0.139,1.081-0.307,2.129-0.506,3.144l-3.009,15.177h-7.644l-2.47-15.198c-0.147-0.883-0.346-2.397-0.596-4.544
		c-0.03-0.324-0.096-0.985-0.199-1.985l-0.22,6.286l-0.816,15.441h-9.794l3.97-34.059h11.449l1.919,11.471
		c0.161,0.941,0.305,1.963,0.43,3.065c0.125,1.104,0.239,2.302,0.343,3.596c0.187-2.161,0.445-4.095,0.776-5.801l2.289-12.331
		h11.118L712.521,107.221z"/>
</g>
<g>
	<path style="fill:#FBD200;" d="M729.23,73.162l-5.956,16.39h-7.258l4.169-16.39H729.23z"/>
</g>
</svg>
