<?xml version="1.0" encoding="iso-8859-1"?>
<!-- Generator: Adobe Illustrator 14.0.0, SVG Export Plug-In . SVG Version: 6.00 Build 43363)  -->
<!DOCTYPE svg PUBLIC "-//W3C//DTD SVG 1.1//EN" "http://www.w3.org/Graphics/SVG/1.1/DTD/svg11.dtd">
<svg version="1.1" id="Calque_1" xmlns="http://www.w3.org/2000/svg" xmlns:xlink="http://www.w3.org/1999/xlink" x="0px" y="0px"
	 width="473.25px" height="43px" viewBox="316.25 19.013 473.25 43" style="enable-background:new 316.25 19.013 473.25 43;"
	 xml:space="preserve">
<g>
	<path style="fill:#FBD200;" d="M334.177,52.522h-10.312V30.704h5.893v16.589h4.423L334.177,52.522L334.177,52.522z"/>
	<path style="fill:#FFFFFF;" d="M342.509,30.704l-3.812,10.5h-4.649l2.671-10.5H342.509z"/>
	<path style="fill:#FBD200;" d="M359.764,52.522h-6.092l-0.438-2.771h-3.972l-0.479,2.771h-6.09l5.241-21.818h7.207L359.764,52.522z
		 M352.544,45.16l-0.381-2.545c-0.01-0.008-0.028-0.135-0.057-0.381c-0.021-0.207-0.118-1.027-0.298-2.459
		c-0.021-0.16-0.043-0.379-0.07-0.656s-0.065-0.629-0.112-1.053l-0.184-2.062c-0.021,0.197-0.046,0.419-0.078,0.664
		c-0.033,0.245-0.068,0.514-0.106,0.806c-0.062,0.585-0.109,0.988-0.141,1.217c-0.028,0.226-0.048,0.361-0.058,0.409l-0.409,2.643
		l-0.594,3.42h2.487V45.16z"/>
	<path style="fill:#FBD200;" d="M369.064,39.903h8.225v0.879c0,4.078-0.627,7.014-1.88,8.805c-1.366,1.957-3.387,2.938-6.062,2.938
		c-2.629,0-4.688-0.955-6.188-2.865c-1.489-1.928-2.233-4.574-2.233-7.938c0-3.412,0.749-6.102,2.247-8.064s3.547-2.947,6.147-2.947
		c3.446,0,5.948,1.79,7.503,5.37l-5.709,2.091c-0.084-0.688-0.28-1.229-0.586-1.632c-0.31-0.399-0.69-0.601-1.151-0.601
		c-1.621,0-2.431,2.093-2.431,6.276c0,1.777,0.179,3.07,0.537,3.875c0.354,0.808,0.928,1.209,1.709,1.209
		c0.312,0,0.594-0.065,0.849-0.2c0.254-0.134,0.468-0.318,0.645-0.562c0.175-0.24,0.312-0.535,0.408-0.881
		c0.102-0.346,0.148-0.729,0.148-1.154h-2.177L369.064,39.903L369.064,39.903z"/>
	<path style="fill:#FBD200;" d="M379.802,52.522V30.704h10.951v5.229h-5.059v2.782h4.536v5.229h-4.536v3.35h5.059v5.23h-10.951
		V52.522z"/>
	<path style="fill:#FBD200;" d="M393.269,52.522V30.704h5.624l2.952,7.659c0.159,0.452,0.344,0.971,0.545,1.555
		s0.428,1.258,0.672,2.021l0.605,1.922c-0.217-1.896-0.382-3.517-0.495-4.86c-0.11-1.348-0.169-2.479-0.169-3.393v-4.903h5.684
		v21.818h-5.684l-3.146-8.025c-0.329-0.856-0.628-1.66-0.895-2.408c-0.265-0.75-0.496-1.463-0.694-2.143
		c0.233,1.535,0.405,2.873,0.517,4.014c0.108,1.142,0.163,2.142,0.163,2.996v5.566L393.269,52.522L393.269,52.522z"/>
	<path style="fill:#FBD200;" d="M424.123,45.881l-0.34,5.912c-1.31,0.486-2.481,0.73-3.52,0.73c-2.438,0-4.492-0.865-6.16-2.594
		c-1.865-1.938-2.799-4.681-2.799-8.229c0-3.321,0.877-5.986,2.629-7.997c1.752-2.001,4.094-3.002,7.021-3.002
		c0.952,0,1.922,0.172,2.911,0.515v6.028c-0.876-0.876-1.775-1.312-2.698-1.312c-1.206,0-2.146,0.51-2.826,1.525
		c-0.679,1.027-1.018,2.447-1.018,4.259c0,0.877,0.084,1.662,0.254,2.354c0.17,0.688,0.412,1.272,0.729,1.752
		c0.314,0.477,0.702,0.84,1.166,1.092c0.462,0.252,0.987,0.379,1.582,0.379C422.074,47.293,423.095,46.823,424.123,45.881z"/>
	<path style="fill:#FBD200;" d="M426.425,52.522V30.704h10.951v5.229h-5.059v2.782h4.536v5.229h-4.536v3.35h5.059v5.23h-10.951
		V52.522z"/>
	<path style="fill:#FBD200;" d="M466.996,52.522h-5.702l-1.368-7.646c-0.267-1.479-0.466-2.762-0.599-3.846
		c-0.066-0.537-0.124-0.982-0.171-1.342c-0.048-0.357-0.081-0.631-0.102-0.82c-0.049,0.388-0.117,1.107-0.215,2.162
		c-0.044,0.537-0.096,1.104-0.154,1.695c-0.062,0.594-0.136,1.221-0.222,1.881l-1.021,7.912h-5.513l-4.86-21.818h5.821l0.962,6.006
		c0.366,2.395,0.62,4.273,0.763,5.638l0.198,1.992l0.184-1.711c0.189-1.996,0.438-3.895,0.737-5.691l1.062-6.232h4.9l0.956,5.243
		c0.455,2.438,0.851,5.328,1.188,8.662c0.104-1.498,0.219-2.826,0.34-3.984s0.261-2.208,0.409-3.149l1.074-6.771h5.751
		L466.996,52.522z"/>
	<path style="fill:#FBD200;" d="M473.255,52.522V30.704h10.951v5.229h-5.06v2.782h4.536v5.229h-4.536v3.35h5.06v5.23h-10.951V52.522
		z"/>
	<path style="fill:#FBD200;" d="M486.72,52.522V30.704h6.854c2.562,0,4.46,0.565,5.694,1.696c1.252,1.158,1.88,2.655,1.88,4.493
		c0,2.731-1.356,4.21-4.07,4.437c1.545,0.229,2.678,0.734,3.397,1.525c0.722,0.793,1.081,1.932,1.081,3.42
		c0,1.875-0.606,3.383-1.821,4.521c-1.206,1.148-2.794,1.726-4.764,1.726L486.72,52.522L486.72,52.522z M492.615,39.01h0.396
		c0.706,0,1.268-0.163,1.677-0.492c0.407-0.329,0.612-0.791,0.612-1.387c0-1.262-0.689-1.894-2.075-1.894
		c-0.065,0-0.147,0.003-0.247,0.007c-0.102,0.005-0.222,0.013-0.359,0.021L492.615,39.01L492.615,39.01z M492.615,47.901
		c0.113,0.01,0.212,0.018,0.297,0.021c0.084,0.004,0.155,0.006,0.212,0.006c0.734,0,1.321-0.196,1.759-0.594
		c0.438-0.396,0.657-0.93,0.657-1.598s-0.219-1.189-0.657-1.566c-0.438-0.377-1.038-0.563-1.802-0.563h-0.466V47.901z"/>
	<path style="fill:#FBD200;" d="M522.261,52.522h-6.008l-5.002-21.818h6.189l1.073,6.232c0.402,2.382,0.729,5.048,0.976,7.998
		c0.104-1.312,0.229-2.533,0.382-3.677c0.15-1.141,0.329-2.25,0.537-3.334l1.397-7.221h6.399L522.261,52.522z"/>
	<path style="fill:#FBD200;" d="M545.253,52.522h-6.373l-2.911-7.771c-0.025-0.133-0.076-0.307-0.146-0.521
		c-0.07-0.214-0.158-0.478-0.263-0.777l0.043,1.441v7.631h-5.863V30.706h6.033c2.655,0,4.645,0.523,5.964,1.568
		c1.677,1.338,2.516,3.24,2.516,5.709c0,2.638-1.126,4.46-3.378,5.468L545.253,52.522z M535.629,40.496h0.396
		c0.678,0,1.242-0.258,1.693-0.777c0.451-0.518,0.681-1.177,0.681-1.978c0-1.629-0.854-2.444-2.561-2.444h-0.212L535.629,40.496
		L535.629,40.496z"/>
	<path style="fill:#FBD200;" d="M562.916,52.522h-6.09l-0.438-2.771h-3.971l-0.479,2.771h-6.092l5.242-21.818h7.207L562.916,52.522z
		 M555.695,45.16l-0.381-2.545c-0.012-0.008-0.028-0.135-0.06-0.381c-0.02-0.207-0.116-1.027-0.297-2.459
		c-0.021-0.16-0.043-0.379-0.069-0.656s-0.064-0.629-0.111-1.053l-0.187-2.062c-0.02,0.197-0.045,0.419-0.076,0.664
		c-0.032,0.245-0.067,0.514-0.105,0.806c-0.065,0.585-0.112,0.988-0.142,1.217c-0.027,0.226-0.05,0.361-0.059,0.409l-0.41,2.643
		l-0.593,3.42h2.489V45.16z"/>
	<path style="fill:#FBD200;" d="M570.517,52.522h-5.895V30.704h5.895V52.522z"/>
	<path style="fill:#FBD200;" d="M595.827,52.522h-5.963l-0.24-9.947l-0.189-3.971c-0.068,0.762-0.146,1.49-0.234,2.184
		c-0.089,0.691-0.196,1.363-0.324,2.014l-1.927,9.724h-4.896l-1.584-9.736c-0.094-0.563-0.222-1.533-0.382-2.91
		c-0.019-0.207-0.061-0.631-0.127-1.271l-0.141,4.024l-0.523,9.896h-6.271l2.544-21.819h7.334l1.229,7.35
		c0.104,0.604,0.195,1.259,0.275,1.964c0.08,0.707,0.152,1.475,0.219,2.305c0.12-1.385,0.286-2.625,0.498-3.717l1.466-7.899h7.123
		L595.827,52.522z"/>
	<path style="fill:#FBD200;" d="M598.638,52.522V30.704h10.949v5.229h-5.059v2.782h4.535v5.229h-4.535v3.35h5.059v5.23h-10.949
		V52.522z"/>
	<path style="fill:#FBD200;" d="M612.106,52.522V30.704h5.624l2.952,7.659c0.158,0.452,0.343,0.971,0.544,1.555
		c0.203,0.584,0.428,1.258,0.673,2.021l0.604,1.922c-0.217-1.896-0.382-3.517-0.494-4.86c-0.11-1.348-0.17-2.479-0.17-3.393v-4.903
		h5.684v21.818h-5.684l-3.146-8.025c-0.329-0.856-0.627-1.66-0.895-2.408c-0.265-0.75-0.494-1.463-0.693-2.143
		c0.232,1.535,0.406,2.873,0.516,4.014c0.109,1.142,0.163,2.142,0.163,2.996v5.566L612.106,52.522L612.106,52.522z"/>
	<path style="fill:#FBD200;" d="M638.134,52.522h-5.893v-16.59h-3.25v-5.229h12.521v5.229h-3.378V52.522z"/>
	<path style="fill:#FBD200;" d="M659.359,52.522h-5.896v-16.59h-3.25v-5.229h12.521v5.229h-3.377L659.359,52.522L659.359,52.522z"/>
	<path style="fill:#FBD200;" d="M679.778,52.522h-6.373l-2.911-7.771c-0.028-0.133-0.078-0.307-0.146-0.521
		c-0.069-0.217-0.157-0.478-0.264-0.777l0.043,1.441v7.631h-5.863V30.706h6.032c2.657,0,4.646,0.523,5.965,1.568
		c1.679,1.338,2.518,3.24,2.518,5.709c0,2.638-1.126,4.46-3.378,5.468L679.778,52.522z M670.155,40.496h0.396
		c0.681,0,1.243-0.258,1.695-0.777c0.452-0.518,0.679-1.177,0.679-1.978c0-1.629-0.853-2.444-2.558-2.444h-0.212V40.496
		L670.155,40.496z"/>
	<path style="fill:#FBD200;" d="M681.728,52.522V30.704h10.948v5.229h-5.059v2.782h4.536v5.229h-4.536v3.35h5.059v5.23h-10.948
		V52.522z M691.408,23.722l-2.756,5.229h-3.292l1.427-5.229H691.408z"/>
	<path style="fill:#FBD200;" d="M694.728,51.631v-6.713c1.156,1.584,2.41,2.375,3.759,2.375c0.509,0,0.924-0.129,1.244-0.389
		c0.316-0.26,0.479-0.584,0.479-0.978c0-0.562-0.349-1.11-1.046-1.647l-0.961-0.723c-0.641-0.464-1.188-0.925-1.641-1.384
		c-0.451-0.459-0.818-0.934-1.104-1.418c-0.283-0.485-0.49-0.987-0.622-1.508c-0.132-0.518-0.198-1.062-0.198-1.636
		c0-0.981,0.235-2.008,0.707-3.08c0.235-0.5,0.512-0.957,0.819-1.37c0.312-0.413,0.669-0.779,1.074-1.098
		c1.108-0.908,2.454-1.363,4.024-1.363c1.403,0,2.816,0.361,4.239,1.084v6.547c-0.479-0.744-1.025-1.33-1.64-1.759
		c-0.613-0.429-1.216-0.646-1.812-0.646c-0.452,0-0.822,0.128-1.114,0.384c-0.304,0.244-0.451,0.54-0.451,0.885
		c0,0.562,0.397,1.122,1.199,1.677l0.935,0.667c1.243,0.863,2.134,1.748,2.671,2.656c0.546,0.908,0.819,1.971,0.819,3.188
		c0,2.07-0.654,3.777-1.966,5.121c-1.311,1.345-2.969,2.019-4.976,2.019C697.794,52.522,696.31,52.225,694.728,51.631z"/>
	<path style="fill:#FBD200;" d="M729.391,45.881l-0.342,5.912c-1.309,0.486-2.479,0.73-3.519,0.73c-2.439,0-4.493-0.865-6.16-2.594
		c-1.866-1.938-2.799-4.681-2.799-8.229c0-3.321,0.877-5.986,2.629-7.997c1.752-2.001,4.093-3.002,7.021-3.002
		c0.95,0,1.923,0.172,2.909,0.515v6.028c-0.876-0.876-1.772-1.312-2.695-1.312c-1.206,0-2.148,0.51-2.826,1.525
		c-0.68,1.027-1.021,2.447-1.021,4.259c0,0.877,0.084,1.662,0.255,2.354c0.171,0.688,0.411,1.272,0.729,1.752
		c0.316,0.477,0.704,0.84,1.166,1.092s0.989,0.379,1.583,0.379C727.343,47.293,728.365,46.823,729.391,45.881z"/>
	<path style="fill:#FBD200;" d="M747.734,41.688c0,3.211-0.759,5.821-2.274,7.832c-1.508,2.002-3.472,3.002-5.893,3.002
		c-2.148,0-3.99-0.771-5.525-2.308c-1.932-1.944-2.896-4.864-2.896-8.762c0-3.728,1.009-6.581,3.021-8.554
		c1.498-1.465,3.273-2.197,5.327-2.197c2.518,0,4.52,0.992,6.006,2.975C746.99,35.662,747.734,38.332,747.734,41.688z
		 M741.616,41.739c0-3.871-0.697-5.807-2.092-5.807c-0.697,0-1.253,0.509-1.667,1.523c-0.405,0.942-0.608,2.328-0.608,4.156
		c0,1.803,0.191,3.199,0.573,4.19c0.381,0.992,0.911,1.488,1.589,1.488c0.697,0,1.234-0.488,1.611-1.469
		C741.418,44.846,741.616,43.485,741.616,41.739z"/>
	<path style="fill:#FBD200;" d="M772.505,52.522h-5.963l-0.24-9.947l-0.188-3.971c-0.069,0.762-0.147,1.49-0.235,2.184
		c-0.089,0.691-0.194,1.363-0.323,2.014l-1.928,9.724h-4.896l-1.583-9.736c-0.095-0.563-0.225-1.533-0.383-2.91
		c-0.021-0.207-0.062-0.631-0.128-1.271l-0.142,4.024l-0.521,9.896H749.7l2.544-21.819h7.334l1.229,7.35
		c0.104,0.604,0.193,1.259,0.273,1.964c0.08,0.707,0.153,1.475,0.219,2.305c0.12-1.385,0.286-2.625,0.498-3.717l1.468-7.899h7.122
		L772.505,52.522z"/>
</g>
<g>
	<path style="fill:#FFFFFF;" d="M783.21,30.704l-3.812,10.5h-4.649l2.671-10.5H783.21z"/>
</g>
</svg>
