<?xml version="1.0" encoding="UTF-8" standalone="no"?>
<!-- Created with Inkscape (http://www.inkscape.org/) -->

<svg
   xmlns:dc="http://purl.org/dc/elements/1.1/"
   xmlns:cc="http://creativecommons.org/ns#"
   xmlns:rdf="http://www.w3.org/1999/02/22-rdf-syntax-ns#"
   xmlns:svg="http://www.w3.org/2000/svg"
   xmlns="http://www.w3.org/2000/svg"
   xmlns:sodipodi="http://sodipodi.sourceforge.net/DTD/sodipodi-0.dtd"
   xmlns:inkscape="http://www.inkscape.org/namespaces/inkscape"
   id="svg2575"
   sodipodi:version="0.32"
   inkscape:version="0.92.4 (5da689c313, 2019-01-14)"
   width="639.96826"
   height="272.73105"
   xml:space="preserve"
   sodipodi:docname="logo-colombbus.svg"
   inkscape:output_extension="org.inkscape.output.svg.inkscape"
   version="1.1"><metadata
     id="metadata2580"><rdf:RDF><cc:Work
         rdf:about=""><dc:format>image/svg+xml</dc:format><dc:type
           rdf:resource="http://purl.org/dc/dcmitype/StillImage" /><dc:title /></cc:Work></rdf:RDF></metadata><defs
     id="defs2578"><inkscape:perspective
       sodipodi:type="inkscape:persp3d"
       inkscape:vp_x="0 : 561.25983 : 1"
       inkscape:vp_y="0 : 1066.6667 : 0"
       inkscape:vp_z="793.70078 : 561.25983 : 1"
       inkscape:persp3d-origin="396.85039 : 374.17322 : 1"
       id="perspective2582" /></defs><sodipodi:namedview
     inkscape:window-height="1016"
     inkscape:window-width="1850"
     inkscape:pageshadow="2"
     inkscape:pageopacity="0.0"
     guidetolerance="10.0"
     gridtolerance="10.0"
     objecttolerance="10.0"
     borderopacity="1.0"
     bordercolor="#666666"
     pagecolor="#ffffff"
     id="base"
     showgrid="false"
     inkscape:zoom="1.0338645"
     inkscape:cx="332.90211"
     inkscape:cy="137.67363"
     inkscape:window-x="70"
     inkscape:window-y="27"
     inkscape:current-layer="g2584"
     fit-margin-top="0"
     fit-margin-left="0"
     fit-margin-right="0"
     fit-margin-bottom="0"
     inkscape:window-maximized="1" /><g
     id="g2584"
     inkscape:groupmode="layer"
     inkscape:label="colombbus DEF"
     transform="matrix(1.25,0,0,-1.25,-252.94003,547.67)"><path
       inkscape:connector-curvature="0"
       id="path2588"
       style="fill:#bfbebf;fill-opacity:1;fill-rule:nonzero;stroke:none;stroke-width:1.06666672;font-variant-east_asian:normal;opacity:1;vector-effect:none;stroke-linecap:butt;stroke-linejoin:miter;stroke-miterlimit:4;stroke-dasharray:none;stroke-dashoffset:0;stroke-opacity:1"
       d="m 322.69635,279.74688 c -11.51614,0 -20.81198,9.60103 -20.81198,21.11666 0,0 0,10.20417 0,10.20417 0,11.72239 9.69792,21.21927 21.51823,21.21927 6.46667,0 12.22293,-3.02969 16.06146,-7.78021 0.91198,-1.11302 0.91198,-2.42292 -0.29947,-3.33438 0,0 -4.95157,-3.64061 -4.95157,-3.64061 -0.91146,-0.60417 -2.02032,-0.7073 -3.02968,0.71197 -1.92188,2.62447 -4.84896,4.1401 -8.28594,4.1401 -5.96146,0 -10.40365,-5.25469 -10.40365,-11.21926 0,0 0,-10.20105 0,-10.20105 0,-6.06146 4.64791,-11.31666 10.70781,-11.31666 3.73646,0 7.06979,1.92083 8.88906,5.15207 0.70573,1.41772 2.1224,1.72188 3.33386,1.01043 0,0 4.95156,-3.03021 4.95156,-3.03021 0.80886,-0.50417 1.21094,-1.71563 0.70573,-2.62813 -3.73594,-6.15729 -10.60468,-10.40416 -18.38542,-10.40416 z" /><path
       inkscape:connector-curvature="0"
       id="path2590"
       style="fill:#bfbebf;fill-opacity:1;fill-rule:nonzero;stroke:none;stroke-width:1.06666672;font-variant-east_asian:normal;opacity:1;vector-effect:none;stroke-linecap:butt;stroke-linejoin:miter;stroke-miterlimit:4;stroke-dasharray:none;stroke-dashoffset:0;stroke-opacity:1"
       d="m 375.02813,311.06771 c 0,6.06145 -4.6474,11.31614 -10.70782,11.31614 -5.96197,0 -10.30573,-5.25469 -10.30573,-11.21926 0,0 0,-10.20105 0,-10.20105 0,-6.06146 4.55001,-11.31666 10.6099,-11.31666 5.95729,0 10.40365,5.2552 10.40365,11.21666 0,0 0,10.20417 0,10.20417 z m -10.90938,-31.32083 c -11.51615,0 -20.81145,9.60103 -20.81145,21.11666 0,0 0,10.20417 0,10.20417 0,11.72239 9.80051,21.21927 21.51823,21.21927 11.51666,0 20.81197,-9.59948 20.81197,-21.12239 0,0 0,-10.20105 0,-10.20105 0,-11.71979 -9.69792,-21.21666 -21.51875,-21.21666 z" /><path
       inkscape:connector-curvature="0"
       id="path2592"
       style="fill:#bfbebf;fill-opacity:1;fill-rule:nonzero;stroke:none;stroke-width:1.06666672;font-variant-east_asian:normal;opacity:1;vector-effect:none;stroke-linecap:butt;stroke-linejoin:miter;stroke-miterlimit:4;stroke-dasharray:none;stroke-dashoffset:0;stroke-opacity:1"
       d="m 399.7776,281.06146 c 0,0 -4.44687,0 -4.44687,0 -1.81458,0 -3.02968,1.61875 -3.02968,2.93229 0,0 0,61.52604 0,61.52604 0,2.22135 0.80885,3.23073 2.93124,3.23073 0,0 5.05,0 5.05,0 2.02031,0 2.62813,-1.41198 2.62813,-3.12812 0,0 0,-61.73282 0,-61.73282 0,-1.61666 -1.21147,-2.82812 -3.13282,-2.82812 z" /><path
       inkscape:connector-curvature="0"
       id="path2594"
       style="fill:#bfbebf;fill-opacity:1;fill-rule:nonzero;stroke:none;stroke-width:1.06666672;font-variant-east_asian:normal;opacity:1;vector-effect:none;stroke-linecap:butt;stroke-linejoin:miter;stroke-miterlimit:4;stroke-dasharray:none;stroke-dashoffset:0;stroke-opacity:1"
       d="m 441.74636,311.06771 c 0,6.06145 -4.64844,11.31614 -10.70834,11.31614 -5.96145,0 -10.30521,-5.25469 -10.30521,-11.21926 0,0 0,-10.20105 0,-10.20105 0,-6.06146 4.54896,-11.31666 10.60885,-11.31666 5.95729,0 10.4047,5.2552 10.4047,11.21666 0,0 0,10.20417 0,10.20417 z m -10.90938,-31.32083 c -11.51667,0 -20.8125,9.60103 -20.8125,21.11666 0,0 0,10.20417 0,10.20417 0,11.72239 9.80105,21.21927 21.51875,21.21927 11.51666,0 20.81198,-9.59948 20.81198,-21.12239 0,0 0,-10.20105 0,-10.20105 0,-11.71979 -9.6974,-21.21666 -21.51823,-21.21666 z" /><path
       inkscape:connector-curvature="0"
       id="path2596"
       style="fill:#bfbebf;fill-opacity:1;fill-rule:nonzero;stroke:none;stroke-width:1.06666672;font-variant-east_asian:normal;opacity:1;vector-effect:none;stroke-linecap:butt;stroke-linejoin:miter;stroke-miterlimit:4;stroke-dasharray:none;stroke-dashoffset:0;stroke-opacity:1"
       d="m 529.7375,281.06146 c 0,0 -4.44271,0 -4.44271,0 -1.81875,0 -3.03437,1.61875 -3.03437,2.93229 0,0 0,27.07396 0,27.07396 0,6.06145 -4.54479,11.31614 -10.60521,11.31614 -5.96146,0 -10.40312,-5.25469 -10.40312,-11.21926 0,0 0,-27.27501 0,-27.27501 0,-1.61666 -1.31459,-2.82812 -3.13334,-2.82812 0,0 -4.54479,0 -4.54479,0 -1.81875,0 -3.03021,1.61875 -3.03021,2.93229 0,0 0,27.07396 0,27.07396 0,6.06145 -4.54896,11.31614 -10.60937,11.31614 -6.06042,0 -10.40313,-5.25469 -10.40313,-11.21926 0,0 0,-27.27501 0,-27.27501 0,-1.61666 -1.31458,-2.82812 -3.13333,-2.82812 0,0 -4.5448,0 -4.5448,0 -1.81874,0 -2.93229,1.61875 -2.93229,2.93229 0,0 0,27.07396 0,27.07396 0,11.72239 9.69896,21.21927 21.41563,21.21927 5.35416,0 10.20729,-2.01979 13.84063,-5.45677 1.01041,-0.9073 2.32396,-1.0099 3.53541,0 3.83854,3.33385 8.89375,5.45677 14.34584,5.45677 11.51666,0 20.81145,-9.59948 20.81145,-21.12239 0,0 0,-27.27501 0,-27.27501 0,-1.61666 -1.21145,-2.82812 -3.13229,-2.82812 z" /><path
       inkscape:connector-curvature="0"
       id="path2598"
       style="fill:#bfbebf;fill-opacity:1;fill-rule:nonzero;stroke:none;stroke-width:1.06666672;font-variant-east_asian:normal;opacity:1;vector-effect:none;stroke-linecap:butt;stroke-linejoin:miter;stroke-miterlimit:4;stroke-dasharray:none;stroke-dashoffset:0;stroke-opacity:1"
       d="m 570.45001,311.16459 c 0,5.96457 -4.34271,11.21926 -10.40313,11.21926 -3.74063,0 -8.89376,-1.91718 -8.89376,-7.98385 0,0 0,-20.81042 0,-20.81042 0,-1.71771 1.11355,-3.33437 2.82917,-3.43854 0,0 3.23542,-0.50416 5.85834,-0.50416 6.06458,0 10.60938,5.2552 10.60938,11.31666 0,0 0,10.20105 0,10.20105 z m -10.09897,-31.41771 c -4.64896,0 -16.66979,1.31458 -16.66979,1.31458 -1.81875,0.10411 -3.13229,1.21146 -3.13229,2.82812 0,0 0,61.73282 0,61.73282 0,1.71614 0.60729,3.12812 2.62708,3.12812 0,0 5.05,0 5.05,0 2.12397,0 2.92708,-1.00938 2.92708,-3.23073 0,0 0,-12.12447 0,-12.12447 0,-1.30938 0.60834,-2.62293 2.53022,-2.02032 1.91666,0.50573 3.93645,0.91198 5.95729,0.91198 11.71666,0 21.51771,-9.49688 21.51771,-21.21927 0,0 0,-10.20417 0,-10.20417 0,-11.51563 -9.2948,-21.11666 -20.8073,-21.11666 z" /><path
       inkscape:connector-curvature="0"
       id="path2600"
       style="fill:#bfbebf;fill-opacity:1;fill-rule:nonzero;stroke:none;stroke-width:1.06666672;font-variant-east_asian:normal;opacity:1;vector-effect:none;stroke-linecap:butt;stroke-linejoin:miter;stroke-miterlimit:4;stroke-dasharray:none;stroke-dashoffset:0;stroke-opacity:1"
       d="m 617.63125,311.16459 c 0,5.96457 -4.3448,11.21926 -10.40417,11.21926 -3.74063,0 -8.8927,-1.91718 -8.8927,-7.98385 0,0 0,-20.81042 0,-20.81042 0,-1.71771 1.1125,-3.33437 2.82812,-3.43854 0,0 3.23645,-0.50416 5.85938,-0.50416 6.06457,0 10.60937,5.2552 10.60937,11.31666 0,0 0,10.20105 0,10.20105 z m -10.1,-31.41771 c -4.64791,0 -16.66979,1.31458 -16.66979,1.31458 -1.81875,0.10411 -3.1323,1.21146 -3.1323,2.82812 0,0 0,61.73282 0,61.73282 0,1.71614 0.60834,3.12812 2.62813,3.12812 0,0 5.05001,0 5.05001,0 2.12186,0 2.92708,-1.00938 2.92708,-3.23073 0,0 0,-12.12447 0,-12.12447 0,-1.30938 0.60728,-2.62293 2.52916,-2.02032 1.91771,0.50573 3.93646,0.91198 5.95625,0.91198 11.71875,0 21.51979,-9.49688 21.51979,-21.21927 0,0 0,-10.20417 0,-10.20417 0,-11.51563 -9.29583,-21.11666 -20.80833,-21.11666 z" /><path
       inkscape:connector-curvature="0"
       id="path2602"
       style="fill:#bfbebf;fill-opacity:1;fill-rule:nonzero;stroke:none;stroke-width:1.06666672;font-variant-east_asian:normal;opacity:1;vector-effect:none;stroke-linecap:butt;stroke-linejoin:miter;stroke-miterlimit:4;stroke-dasharray:none;stroke-dashoffset:0;stroke-opacity:1"
       d="m 655.62083,280.45417 c -11.51666,0 -20.8125,9.6 -20.8125,21.11667 0,0 0,27.27917 0,27.27917 0,1.61821 1.31355,2.82916 3.13333,2.82916 0,0 4.54479,0 4.54479,0 1.81772,0 3.02918,-1.61771 3.02918,-2.92708 0,0 0,-27.08438 0,-27.08438 0,-6.05833 4.54999,-10.90834 10.61041,-10.90834 5.96041,0 10.40312,4.85001 10.40312,10.81147 0,0 0,27.27917 0,27.27917 0,1.61821 1.21147,2.82916 3.1323,2.82916 0,0 4.44687,0 4.44687,0 1.81458,0 3.03021,-1.61771 3.03021,-2.92708 0,0 0,-27.08438 0,-27.08438 0,-11.81562 -9.69791,-21.21354 -21.51771,-21.21354 z" /><path
       inkscape:connector-curvature="0"
       id="path2604"
       style="fill:#bfbebf;fill-opacity:1;fill-rule:nonzero;stroke:none;stroke-width:1.06666672;font-variant-east_asian:normal;opacity:1;vector-effect:none;stroke-linecap:butt;stroke-linejoin:miter;stroke-miterlimit:4;stroke-dasharray:none;stroke-dashoffset:0;stroke-opacity:1"
       d="m 696.83854,279.74688 c -5.55417,0.20313 -10.50625,3.13437 -12.92916,6.86979 -0.6073,1.01041 -0.71043,2.32291 0.5052,3.23542 0,0 4.94792,3.33436 4.94792,3.33436 1.1125,0.80417 2.62812,0.7073 3.43645,-0.40728 0.80938,-1.10833 2.42188,-2.22083 4.44168,-2.32396 3.33437,-0.0969 6.1625,2.62813 6.26667,5.85834 0.0979,3.33436 -2.82918,6.36562 -5.76042,6.46874 -8.28126,0.30208 -14.74793,7.17083 -14.4448,15.35885 0.30313,8.28751 7.17292,14.74948 15.45417,14.44948 4.44688,-0.10261 8.78958,-2.62708 10.50625,-4.95208 0.71042,-0.80833 0.60834,-2.12187 -0.50521,-3.13177 0,0 -3.83854,-3.5349 -3.83854,-3.5349 -1.21145,-1.11301 -2.62292,-1.11301 -3.83854,0.10262 -0.50521,0.40156 -1.4125,1.00937 -2.72604,1.10781 -2.42292,0.10315 -4.44687,-1.91718 -4.54479,-4.34583 -0.10315,-2.52813 2.01978,-4.34792 4.24063,-4.44479 9.29582,-0.30417 16.56666,-8.18437 16.2677,-17.47917 -0.30416,-9.19271 -8.18333,-16.56666 -17.47917,-16.16562 z" /><path
       inkscape:connector-curvature="0"
       id="path2606"
       style="fill:#bfbebf;fill-opacity:1;fill-rule:nonzero;stroke:none;stroke-width:1.06666672;font-variant-east_asian:normal;opacity:1;vector-effect:none;stroke-linecap:butt;stroke-linejoin:miter;stroke-miterlimit:4;stroke-dasharray:none;stroke-dashoffset:0;stroke-opacity:1"
       d="m 428.91979,335.46198 c 0,0 4.44219,0 4.44219,0 1.92187,0 3.13229,1.21146 3.13229,2.82917 0,0 0,6.25468 0,6.25468 0.01,0 0.0229,-0.004 0.0313,-0.004 0,0 0,10.76302 0,10.76302 0,16.17396 -4.05678,20.32396 -32.31043,27.00209 0,0 -172.79375,53.87552 -172.79375,53.87552 -21.99166,5.25989 -33.09739,0.76927 -27.73437,-24.2349 0,0 38.17239,-161.99323 38.17239,-161.99323 5.94793,-30.98854 13.27241,-31.39583 31.69844,-29.24271 0,0 141.33802,25.84688 141.33802,25.84688 20.99896,3.73333 21.44219,6.27604 21.62552,25.0802 0,0 0.004,0 0.004,0 0,0 0,1.67189 0,2.46251 0,1.78645 -0.58489,2.17292 -1.80052,2.17292 -2.47552,0 -6.46199,0 -7.0073,0 -1.14426,0 -1.69792,-0.88647 -1.69792,-2.36042 0,-0.78646 0,-2.27501 0,-2.27501 0,0 -0.0677,-0.54583 -0.0677,-0.54583 0,-9.41041 -1.86667,-9.5677 -19.67709,-11.51249 0,0 -128.33749,-10.80417 -128.33749,-10.80417 -5.09897,-0.30417 -8.79949,3.97916 -9.85886,10.45833 0,0 -25.3974,135.8776 -25.3974,135.8776 -2.12291,7.43594 1.22448,12.21823 7.21771,10.63178 0,0 159.53593,-40.36146 159.53593,-40.36146 13.50887,-3.22605 16.44636,-3.17969 16.44636,-14.65365 0,0 0,-9.28281 0,-9.28281 0,0 0.004,0 0.004,0 0,0 0,-3.05261 0,-3.05261 0,-1.31354 1.21563,-2.93124 3.03437,-2.93124 z" /><path
       inkscape:connector-curvature="0"
       id="path2608"
       style="fill:#bfbebf;fill-opacity:1;fill-rule:nonzero;stroke:none;stroke-width:1.06666672;font-variant-east_asian:normal;opacity:1;vector-effect:none;stroke-linecap:butt;stroke-linejoin:miter;stroke-miterlimit:4;stroke-dasharray:none;stroke-dashoffset:0;stroke-opacity:1"
       d="m 436.68177,311.42396 c 0,3.1375 -2.40677,5.85989 -5.54375,5.85989 -3.08646,0 -5.33542,-2.72239 -5.33542,-5.80989 0,0 0,-11.02084 0,-11.02084 0,-3.13854 2.35521,-5.85937 5.49219,-5.85937 3.08438,0 5.38698,2.72083 5.38698,5.8073 0,0 0,11.02291 0,11.02291 z" /></g></svg>