<?xml version="1.0" encoding="utf-8"?>
<!-- Generator: Adobe Illustrator 14.0.0, SVG Export Plug-In . SVG Version: 6.00 Build 43363)  -->
<!DOCTYPE svg PUBLIC "-//W3C//DTD SVG 1.1//EN" "http://www.w3.org/Graphics/SVG/1.1/DTD/svg11.dtd">
<svg version="1.1" id="Calque_1" xmlns="http://www.w3.org/2000/svg" xmlns:xlink="http://www.w3.org/1999/xlink" x="0px" y="0px"
	 width="141.73px" height="141.73px" viewBox="0 0 141.73 141.73" enable-background="new 0 0 141.73 141.73" xml:space="preserve">
<line fill="#FFFFFF" stroke="#FFFFFF" stroke-width="20" x1="0.449" y1="32.567" x2="141.73" y2="32.567"/>
<line fill="#FFFFFF" stroke="#FFFFFF" stroke-width="20" x1="0.449" y1="71.451" x2="141.73" y2="71.451"/>
<line fill="#FFFFFF" stroke="#FFFFFF" stroke-width="20" x1="0.449" y1="110.334" x2="141.73" y2="110.334"/>
<g>
	<defs>
		<rect id="SVGID_1_" x="108.207" y="-246.899" width="309.595" height="534.95"/>
	</defs>
	<clipPath id="SVGID_2_">
		<use xlink:href="#SVGID_1_"  overflow="visible"/>
	</clipPath>
	<path clip-path="url(#SVGID_2_)" fill="none" stroke="#FFFFFF" stroke-width="0" stroke-miterlimit="1" d="M236.334,61.849
		c-3.869-1.629-8.963-2.984-15.288-4.055H191.98c-6.327,0-10.169-0.674-11.507-2.029c-1.399-1.4-2.077-5.234-2.017-11.479v-5.916
		h-24.892l-0.44,16.126c0,11.955,2.307,20.465,6.933,25.514c4.575,5.117,12.181,7.684,22.856,7.684h35.383
		c5.072,0,8.655,0.783,10.752,2.359c2.198,1.518,3.717,4.303,4.565,8.355h22.087c0.965-4.273,2.602-7.117,4.91-8.523
		c2.483-1.465,6.625-2.191,12.44-2.191l35.039-1.613c10.668,0,18.345-2.279,23.019-6.846c4.633-4.518,7.031-12.229,7.2-23.127
		l-0.677-16.132h-23.512l0.07,2.022l0.097,3.553c0,6.473-0.711,10.41-2.104,11.826c-1.342,1.346-5.206,2.021-11.596,2.021h-28.894
		c-6.836,0-11.949,0.873-15.365,2.609c-1.908,0.908-3.695,2.133-5.337,3.68c-1.658,1.547-3.211,3.395-4.661,5.535
		C243.136,66.605,239.811,63.482,236.334,61.849z"/>
	<path clip-path="url(#SVGID_2_)" fill="none" stroke="#FFFFFF" stroke-width="0" stroke-miterlimit="1" d="M255.554-0.669
		c3.056,1.576,8.121,2.361,15.188,2.361h28.792c6.289,0,10.098,0.703,11.432,2.109c1.453,1.351,2.128,5.153,2.01,11.4v5.915h24.892
		l0.442-16.046c0-11.947-2.302-20.45-6.905-25.509c-4.548-5.174-12.126-7.763-22.732-7.763h-35.096
		c-4.939,0-8.501-0.763-10.685-2.279c-2.195-1.636-3.711-4.449-4.553-8.444H236.37c-0.952,4.281-2.59,7.117-4.877,8.533
		c-2.476,1.458-6.594,2.19-12.377,2.19h-34.936c-10.604,0-18.23,2.588-22.89,7.763c-4.604,5.059-6.992,13.53-7.154,25.428
		l0.667,16.127h23.368l-0.082-1.944l-0.087-3.635c0-6.466,0.701-10.386,2.087-11.736c1.342-1.406,5.184-2.109,11.523-2.109h28.792
		c6.625,0,11.722-0.851,15.278-2.537c1.889-0.895,3.653-2.126,5.298-3.673c1.642-1.546,3.188-3.393,4.632-5.526
		C248.781-5.434,252.091-2.304,255.554-0.669z"/>
	<use xlink:href="#SVGID_1_"  overflow="visible" fill="none" stroke="#FFFFFF"/>
</g>
</svg>
