<?xml version="1.0" encoding="utf-8"?>
<!-- Generator: Adobe Illustrator 14.0.0, SVG Export Plug-In . SVG Version: 6.00 Build 43363)  -->
<!DOCTYPE svg PUBLIC "-//W3C//DTD SVG 1.1//EN" "http://www.w3.org/Graphics/SVG/1.1/DTD/svg11.dtd">
<svg version="1.1" id="Calque_1" xmlns="http://www.w3.org/2000/svg" xmlns:xlink="http://www.w3.org/1999/xlink" x="0px" y="0px"
	 width="135.717px" height="121.145px" viewBox="0 0 135.717 121.145" enable-background="new 0 0 135.717 121.145"
	 xml:space="preserve">
<g enable-background="new    ">
	<path fill="#FFFFFF" d="M22.356,58.206c0,2.597-0.949,4.82-2.847,6.671c-1.844,1.852-4.099,2.776-6.767,2.776
		c-2.641,0-4.938-0.939-6.89-2.817c-1.898-1.905-2.847-4.212-2.847-6.92c0-2.651,0.935-4.917,2.805-6.795
		c1.871-1.879,4.126-2.817,6.767-2.817c2.722,0,5.033,0.967,6.931,2.9C21.406,53.111,22.356,55.445,22.356,58.206z"/>
</g>
<g enable-background="new    ">
	<path fill="none" stroke="#FBD200" d="M22.356,58.206c0,2.597-0.949,4.82-2.847,6.671c-1.844,1.852-4.099,2.776-6.767,2.776
		c-2.641,0-4.938-0.939-6.89-2.817c-1.898-1.905-2.847-4.212-2.847-6.92c0-2.651,0.935-4.917,2.805-6.795
		c1.871-1.879,4.126-2.817,6.767-2.817c2.722,0,5.033,0.967,6.931,2.9C21.406,53.111,22.356,55.445,22.356,58.206z"/>
</g>
<g enable-background="new    ">
	<path fill="none" stroke="#FBD200" d="M43.453,49.23c1.042,0.71,1.941,1.468,2.696,2.272c0.755,0.806,1.352,1.673,1.791,2.601
		c0.851,1.666,1.276,4.164,1.276,7.495v14.088c0,3.112,0.33,4.996,0.988,5.651c0.686,0.682,2.607,1.023,5.764,1.023l1.729-0.04
		l0.988-0.041v11.467l-7.864,0.327c-5.316-0.082-9.075-1.252-11.275-3.507c-2.227-2.284-3.34-6.025-3.34-11.224l-0.782-17.084
		c0-2.833-0.357-4.854-1.07-6.065c-0.687-1.128-2.073-1.926-4.158-2.394V43.03c1.976-0.412,3.335-1.155,4.076-2.228
		c0.768-1.018,1.153-2.765,1.153-5.24V18.313c0-5.199,1.247-8.913,3.741-11.142c2.465-2.255,6.612-3.383,12.438-3.383l7.864,0.217
		v12.134h-2.882c-3.047-0.027-4.914,0.301-5.599,0.983c-0.659,0.655-0.988,2.525-0.988,5.61v14.169
		c-0.521,3.086-1.18,5.57-1.976,7.454C47.227,46.049,45.703,47.673,43.453,49.23z"/>
</g>
<g enable-background="new    ">
	<path fill="none" stroke="#FBD200" d="M110.964,48.882c-1.043-0.704-1.941-1.458-2.695-2.258c-0.756-0.801-1.354-1.662-1.791-2.584
		c-0.824-1.736-1.236-4.219-1.236-7.447V22.554c0-3.093-0.343-4.965-1.029-5.616c-0.658-0.678-2.566-1.018-5.722-1.018l-1.771,0.041
		l-0.947,0.041V4.608l7.863-0.326c5.799,0.083,9.93,1.245,12.395,3.489c2.523,2.271,3.785,5.991,3.785,11.162v17.03
		c0,2.818,0.357,4.829,1.07,6.033c0.687,1.122,2.072,1.915,4.158,2.38v10.711c-1.948,0.411-3.32,1.149-4.116,2.216
		c-0.741,1.067-1.112,2.805-1.112,5.212v17.113c0,5.171-1.262,8.863-3.785,11.08c-2.465,2.243-6.609,3.365-12.436,3.365
		l-7.822-0.217V81.723h2.883c3.046,0.055,4.898-0.271,5.557-0.977c0.687-0.651,1.029-2.51,1.029-5.575v-14.04
		c0-3.445,0.385-5.913,1.153-7.406C107.19,52.043,108.714,50.429,110.964,48.882z"/>
</g>
</svg>
