<?xml version="1.0" encoding="utf-8"?>
<!-- Generator: Adobe Illustrator 14.0.0, SVG Export Plug-In . SVG Version: 6.00 Build 43363)  -->
<!DOCTYPE svg PUBLIC "-//W3C//DTD SVG 1.1//EN" "http://www.w3.org/Graphics/SVG/1.1/DTD/svg11.dtd">
<svg version="1.1" id="Calque_1" xmlns="http://www.w3.org/2000/svg" xmlns:xlink="http://www.w3.org/1999/xlink" x="0px" y="0px"
	 width="739.479px" height="178.135px" viewBox="0 0 739.479 178.135" enable-background="new 0 0 739.479 178.135"
	 xml:space="preserve">
<text transform="matrix(1 0 0 1 0 118.6943)" fill="#FFFFFF" font-family="'Futura-CondensedExtraBold'" font-size="148">.</text>
<text transform="matrix(1 0 0 1 44.5156 118.6943)"><tspan x="0" y="0" fill="#FBD200" font-family="'Futura-CondensedExtraBold'" font-size="105">one</tspan><tspan x="173.291" y="0" fill="#FBD200" font-family="'Futura-CondensedExtraBold'" font-size="105" letter-spacing="1">T</tspan><tspan x="219.766" y="0" fill="#FBD200" font-family="'Futura-CondensedExtraBold'" font-size="105">w</tspan><tspan x="299.827" y="0" fill="#FBD200" font-family="'Futura-CondensedExtraBold'" font-size="105">oF</tspan><tspan x="403.803" y="0" fill="#FBD200" font-family="'Futura-CondensedExtraBold'" font-size="105">r</tspan><tspan x="445.399" y="0" fill="#FBD200" font-family="'Futura-CondensedExtraBold'" font-size="105">ee</tspan></text>
<text transform="matrix(1 0 0 1 609.3716 130.2949)"><tspan x="0" y="0" fill="#FFFFFF" font-family="'Futura-CondensedExtraBold'" font-size="148" letter-spacing="7">{</tspan><tspan x="68.754" y="0" fill="#FFFFFF" font-family="'Futura-CondensedExtraBold'" font-size="148">}</tspan></text>
<g>
	<g>
		<path fill="#FBD200" d="M30.464,160.164H17.144V131.98h7.612v21.429h5.713L30.464,160.164L30.464,160.164z"/>
		<path fill="#FFFFFF" d="M41.228,131.98l-4.925,13.562h-6.005l3.45-13.562H41.228z"/>
		<path fill="#FBD200" d="M63.518,160.164h-7.869l-0.564-3.579h-5.13l-0.62,3.579h-7.867l6.77-28.184h9.311L63.518,160.164z
			 M54.19,150.654l-0.492-3.288c-0.013-0.009-0.036-0.175-0.073-0.492c-0.027-0.268-0.152-1.327-0.385-3.176
			c-0.026-0.207-0.056-0.489-0.091-0.848c-0.035-0.358-0.084-0.812-0.145-1.36l-0.237-2.664c-0.028,0.256-0.059,0.541-0.101,0.857
			c-0.043,0.316-0.089,0.663-0.138,1.041c-0.081,0.756-0.141,1.276-0.182,1.572c-0.037,0.292-0.062,0.467-0.074,0.527l-0.528,3.415
			l-0.767,4.417h3.212V150.654z"/>
		<path fill="#FBD200" d="M75.531,143.863h10.624v1.134c0,5.27-0.81,9.062-2.428,11.376c-1.765,2.527-4.375,3.794-7.832,3.794
			c-3.396,0-6.057-1.232-7.993-3.7c-1.924-2.49-2.885-5.908-2.885-10.255c0-4.407,0.967-7.882,2.902-10.418
			c1.936-2.535,4.582-3.807,7.941-3.807c4.452,0,7.684,2.313,9.692,6.938l-7.375,2.7c-0.109-0.889-0.362-1.588-0.757-2.107
			c-0.4-0.516-0.892-0.775-1.487-0.775c-2.094,0-3.14,2.703-3.14,8.107c0,2.294,0.231,3.966,0.694,5.005
			c0.458,1.044,1.198,1.562,2.208,1.562c0.402,0,0.767-0.086,1.096-0.259c0.328-0.174,0.604-0.411,0.832-0.727
			c0.227-0.311,0.403-0.692,0.527-1.138c0.132-0.448,0.192-0.942,0.192-1.491h-2.811L75.531,143.863L75.531,143.863z"/>
		<path fill="#FBD200" d="M89.401,160.164V131.98h14.146v6.755h-6.534v3.594h5.86v6.756h-5.86v4.326h6.534v6.756H89.401V160.164z"/>
		<path fill="#FBD200" d="M106.798,160.164V131.98h7.265l3.813,9.894c0.206,0.584,0.444,1.255,0.705,2.009
			c0.259,0.754,0.552,1.623,0.868,2.61l0.782,2.483c-0.28-2.448-0.493-4.543-0.639-6.279c-0.143-1.739-0.218-3.201-0.218-4.382
			v-6.334h7.342v28.184h-7.342l-4.063-10.366c-0.425-1.107-0.811-2.145-1.156-3.111c-0.341-0.97-0.641-1.889-0.896-2.769
			c0.301,1.984,0.523,3.713,0.667,5.185c0.14,1.477,0.211,2.767,0.211,3.871v7.19L106.798,160.164L106.798,160.164z"/>
		<path fill="#FBD200" d="M146.653,151.585l-0.439,7.636c-1.691,0.63-3.206,0.944-4.546,0.944c-3.15,0-5.803-1.117-7.958-3.351
			c-2.41-2.503-3.616-6.045-3.616-10.629c0-4.292,1.133-7.734,3.396-10.331c2.264-2.585,5.288-3.878,9.07-3.878
			c1.23,0,2.483,0.221,3.761,0.665v7.786c-1.132-1.131-2.294-1.693-3.486-1.693c-1.558,0-2.772,0.658-3.65,1.97
			c-0.877,1.327-1.314,3.162-1.314,5.502c0,1.133,0.108,2.147,0.328,3.041c0.219,0.891,0.532,1.644,0.94,2.263
			c0.406,0.616,0.907,1.085,1.506,1.41c0.597,0.327,1.275,0.49,2.043,0.49C144.006,153.409,145.326,152.802,146.653,151.585z"/>
		<path fill="#FBD200" d="M149.627,160.164V131.98h14.146v6.755h-6.535v3.594h5.86v6.756h-5.86v4.326h6.535v6.756h-14.146V160.164z"
			/>
		<path fill="#FBD200" d="M202.034,160.164h-7.366l-1.767-9.877c-0.345-1.909-0.603-3.566-0.774-4.967
			c-0.086-0.693-0.16-1.27-0.221-1.733c-0.062-0.462-0.104-0.813-0.13-1.06c-0.063,0.5-0.152,1.431-0.278,2.793
			c-0.057,0.694-0.124,1.425-0.2,2.19c-0.079,0.767-0.175,1.576-0.287,2.43l-1.317,10.221h-7.121l-6.279-28.185h7.52l1.243,7.759
			c0.473,3.092,0.801,5.52,0.985,7.282l0.256,2.572l0.237-2.21c0.245-2.578,0.565-5.03,0.953-7.351l1.372-8.052h6.33l1.235,6.772
			c0.588,3.149,1.1,6.883,1.534,11.19c0.136-1.936,0.283-3.651,0.439-5.147s0.337-2.852,0.529-4.068l1.388-8.747h7.429
			L202.034,160.164z"/>
		<path fill="#FBD200" d="M210.12,160.164V131.98h14.146v6.755h-6.536v3.594h5.86v6.756h-5.86v4.326h6.536v6.756H210.12V160.164z"/>
		<path fill="#FBD200" d="M227.514,160.164V131.98h8.854c3.31,0,5.762,0.73,7.355,2.19c1.618,1.497,2.429,3.43,2.429,5.805
			c0,3.528-1.752,5.438-5.258,5.731c1.995,0.295,3.459,0.948,4.389,1.97c0.932,1.025,1.396,2.495,1.396,4.419
			c0,2.42-0.784,4.369-2.353,5.837c-1.558,1.485-3.609,2.23-6.154,2.23L227.514,160.164L227.514,160.164z M235.128,142.71h0.511
			c0.912,0,1.637-0.211,2.166-0.635c0.526-0.427,0.791-1.022,0.791-1.793c0-1.629-0.891-2.446-2.681-2.446
			c-0.084,0-0.19,0.005-0.319,0.011c-0.131,0.006-0.287,0.016-0.464,0.028L235.128,142.71L235.128,142.71z M235.128,154.195
			c0.146,0.012,0.273,0.022,0.383,0.025c0.108,0.006,0.201,0.009,0.274,0.009c0.948,0,1.707-0.254,2.271-0.769
			c0.566-0.511,0.848-1.199,0.848-2.062s-0.282-1.537-0.848-2.023c-0.565-0.486-1.341-0.728-2.328-0.728h-0.602V154.195z"/>
		<path fill="#FBD200" d="M273.424,160.164h-7.761l-6.461-28.184h7.995l1.386,8.051c0.52,3.076,0.943,6.52,1.26,10.332
			c0.134-1.694,0.295-3.272,0.493-4.75c0.194-1.474,0.425-2.906,0.693-4.308l1.806-9.326h8.267L273.424,160.164z"/>
		<path fill="#FBD200" d="M303.123,160.164h-8.232l-3.761-10.039c-0.032-0.171-0.098-0.396-0.188-0.672
			c-0.09-0.277-0.204-0.617-0.338-1.005l0.055,1.862v9.856h-7.574v-28.184h7.794c3.429,0,5.999,0.676,7.704,2.025
			c2.166,1.729,3.249,4.186,3.249,7.374c0,3.407-1.454,5.762-4.363,7.062L303.123,160.164z M290.691,144.63h0.512
			c0.875,0,1.604-0.334,2.188-1.005c0.583-0.67,0.879-1.521,0.879-2.554c0-2.104-1.104-3.159-3.308-3.159h-0.273L290.691,144.63
			L290.691,144.63z"/>
		<path fill="#FBD200" d="M325.939,160.164h-7.867l-0.566-3.579h-5.129l-0.62,3.579h-7.87l6.772-28.184h9.309L325.939,160.164z
			 M316.612,150.654l-0.492-3.288c-0.015-0.009-0.037-0.175-0.077-0.492c-0.024-0.268-0.149-1.327-0.383-3.176
			c-0.027-0.207-0.057-0.489-0.09-0.848c-0.034-0.358-0.083-0.812-0.144-1.36l-0.241-2.664c-0.025,0.256-0.058,0.541-0.099,0.857
			c-0.042,0.316-0.087,0.663-0.136,1.041c-0.084,0.756-0.145,1.276-0.183,1.572c-0.035,0.292-0.064,0.467-0.076,0.527l-0.53,3.415
			l-0.766,4.417h3.216V150.654z"/>
		<path fill="#FBD200" d="M335.759,160.164h-7.615V131.98h7.615V160.164z"/>
		<path fill="#FBD200" d="M368.451,160.164h-7.703l-0.311-12.85l-0.244-5.129c-0.088,0.984-0.189,1.926-0.303,2.82
			c-0.113,0.894-0.252,1.762-0.418,2.602l-2.488,12.56h-6.326l-2.045-12.575c-0.121-0.729-0.288-1.981-0.495-3.76
			c-0.022-0.269-0.078-0.814-0.164-1.641l-0.182,5.198l-0.676,12.782h-8.101l3.287-28.187h9.473l1.587,9.495
			c0.134,0.779,0.252,1.626,0.356,2.536c0.104,0.913,0.197,1.905,0.282,2.978c0.155-1.789,0.369-3.391,0.644-4.802l1.892-10.204
			h9.202L368.451,160.164z"/>
		<path fill="#FBD200" d="M372.084,160.164V131.98h14.143v6.755h-6.533v3.594h5.858v6.756h-5.858v4.326h6.533v6.756h-14.143V160.164
			z"/>
		<path fill="#FBD200" d="M389.48,160.164V131.98h7.267l3.811,9.894c0.206,0.584,0.444,1.255,0.705,2.009
			c0.262,0.754,0.552,1.623,0.866,2.61l0.782,2.483c-0.279-2.448-0.494-4.543-0.638-6.279c-0.145-1.739-0.219-3.201-0.219-4.382
			v-6.334h7.342v28.184h-7.342l-4.064-10.366c-0.425-1.107-0.81-2.145-1.156-3.111c-0.341-0.97-0.639-1.889-0.896-2.769
			c0.301,1.984,0.526,3.713,0.667,5.185c0.142,1.477,0.212,2.767,0.212,3.871v7.19L389.48,160.164L389.48,160.164z"/>
		<path fill="#FBD200" d="M423.101,160.164h-7.612v-21.43h-4.197v-6.755h16.174v6.755h-4.364V160.164z"/>
		<path fill="#FBD200" d="M450.521,160.164h-7.618v-21.43h-4.197v-6.755h16.175v6.755h-4.363v21.43H450.521z"/>
		<path fill="#FBD200" d="M476.896,160.164h-8.233l-3.76-10.039c-0.037-0.171-0.1-0.396-0.188-0.672
			c-0.092-0.279-0.205-0.617-0.342-1.005l0.057,1.862v9.856h-7.574v-28.184h7.791c3.433,0,6.001,0.676,7.705,2.025
			c2.17,1.729,3.251,4.186,3.251,7.374c0,3.407-1.452,5.762-4.36,7.062L476.896,160.164z M464.465,144.63h0.512
			c0.878,0,1.604-0.334,2.189-1.005c0.584-0.67,0.877-1.521,0.877-2.554c0-2.104-1.101-3.159-3.304-3.159h-0.274V144.63
			L464.465,144.63z"/>
		<path fill="#FBD200" d="M479.416,160.164V131.98h14.142v6.755h-6.535v3.594h5.86v6.756h-5.86v4.326h6.535v6.756h-14.142V160.164z
			 M491.919,122.962l-3.56,6.754h-4.254l1.845-6.754H491.919z"/>
		<path fill="#FBD200" d="M496.208,159.013v-8.672c1.492,2.047,3.113,3.068,4.854,3.068c0.658,0,1.193-0.167,1.608-0.502
			c0.408-0.336,0.617-0.755,0.617-1.264c0-0.725-0.449-1.434-1.349-2.127l-1.242-0.934c-0.827-0.6-1.537-1.195-2.119-1.789
			c-0.583-0.591-1.058-1.206-1.426-1.831c-0.366-0.626-0.633-1.274-0.805-1.946c-0.169-0.67-0.254-1.373-0.254-2.113
			c0-1.269,0.302-2.594,0.912-3.979c0.303-0.646,0.661-1.236,1.058-1.771c0.403-0.533,0.866-1.006,1.387-1.417
			c1.434-1.174,3.173-1.761,5.201-1.761c1.812,0,3.637,0.465,5.474,1.4v8.456c-0.617-0.961-1.325-1.718-2.116-2.272
			c-0.792-0.553-1.571-0.834-2.341-0.834c-0.582,0-1.063,0.167-1.438,0.496c-0.393,0.316-0.583,0.698-0.583,1.145
			c0,0.725,0.513,1.447,1.549,2.165l1.206,0.861c1.607,1.115,2.758,2.258,3.451,3.432c0.705,1.174,1.058,2.545,1.058,4.116
			c0,2.675-0.845,4.881-2.537,6.616c-1.694,1.736-3.836,2.607-6.43,2.607C500.167,160.164,498.252,159.78,496.208,159.013z"/>
		<path fill="#FBD200" d="M540.984,151.585l-0.442,7.636c-1.69,0.63-3.201,0.944-4.543,0.944c-3.151,0-5.807-1.117-7.958-3.351
			c-2.411-2.503-3.616-6.045-3.616-10.629c0-4.292,1.133-7.734,3.396-10.331c2.264-2.585,5.286-3.878,9.07-3.878
			c1.227,0,2.483,0.221,3.757,0.665v7.786c-1.13-1.131-2.288-1.693-3.482-1.693c-1.556,0-2.774,0.658-3.649,1.97
			c-0.879,1.327-1.317,3.162-1.317,5.502c0,1.133,0.108,2.147,0.328,3.041c0.223,0.891,0.531,1.644,0.944,2.263
			c0.407,0.616,0.907,1.085,1.505,1.41c0.596,0.327,1.277,0.49,2.043,0.49C538.337,153.409,539.659,152.802,540.984,151.585z"/>
		<path fill="#FBD200" d="M564.679,146.169c0,4.148-0.981,7.52-2.939,10.117c-1.947,2.587-4.483,3.878-7.612,3.878
			c-2.774,0-5.153-0.995-7.137-2.98c-2.496-2.512-3.739-6.283-3.739-11.318c0-4.815,1.302-8.501,3.902-11.05
			c1.936-1.892,4.229-2.838,6.882-2.838c3.251,0,5.836,1.281,7.757,3.842C563.717,138.385,564.679,141.833,564.679,146.169z
			 M556.775,146.235c0-5.001-0.901-7.501-2.702-7.501c-0.901,0-1.617,0.656-2.152,1.967c-0.524,1.218-0.786,3.007-0.786,5.37
			c0,2.328,0.247,4.132,0.74,5.412c0.493,1.282,1.176,1.922,2.051,1.922c0.901,0,1.595-0.629,2.081-1.896
			C556.52,150.25,556.775,148.49,556.775,146.235z"/>
		<path fill="#FBD200" d="M596.675,160.164h-7.702l-0.311-12.85l-0.242-5.129c-0.091,0.984-0.191,1.926-0.306,2.82
			c-0.113,0.894-0.25,1.762-0.416,2.602l-2.49,12.56h-6.326l-2.043-12.575c-0.123-0.729-0.29-1.981-0.494-3.76
			c-0.027-0.269-0.081-0.814-0.167-1.641l-0.181,5.198l-0.675,12.782h-8.105l3.287-28.187h9.475l1.586,9.495
			c0.135,0.779,0.25,1.626,0.354,2.536c0.104,0.913,0.196,1.905,0.282,2.978c0.153-1.789,0.368-3.391,0.644-4.802l1.895-10.204
			h9.201L596.675,160.164z"/>
	</g>
	<g>
		<path fill="#FFFFFF" d="M610.503,131.98l-4.925,13.562h-6.004l3.448-13.562H610.503z"/>
	</g>
</g>
</svg>
