<?xml version="1.0" encoding="utf-8"?>
<!-- Generator: Adobe Illustrator 14.0.0, SVG Export Plug-In . SVG Version: 6.00 Build 43363)  -->
<!DOCTYPE svg PUBLIC "-//W3C//DTD SVG 1.1//EN" "http://www.w3.org/Graphics/SVG/1.1/DTD/svg11.dtd">
<svg version="1.1" id="Calque_1" xmlns="http://www.w3.org/2000/svg" xmlns:xlink="http://www.w3.org/1999/xlink" x="0px" y="0px"
	 width="739.67px" height="178.135px" viewBox="0 0 739.67 178.135" enable-background="new 0 0 739.67 178.135"
	 xml:space="preserve">
<text transform="matrix(1 0 0 1 0 118.6943)" fill="#FFFFFF" font-family="'Futura-CondensedExtraBold'" font-size="148">.</text>
<g>
	<defs>
		<rect id="SVGID_1_" x="-99.209" y="-37.966" width="956.607" height="217.101"/>
	</defs>
	<clipPath id="SVGID_2_">
		<use xlink:href="#SVGID_1_"  overflow="visible"/>
	</clipPath>
	<path clip-path="url(#SVGID_2_)" fill="none" stroke="#FAD100" stroke-width="3" d="M77.741,99.953
		c-1.032,2.237-2.337,3.355-3.916,3.355c-1.677,0-3.014-1.134-4.014-3.403c-0.999-2.047-1.498-5.023-1.498-8.932
		c0-3.97,0.499-6.947,1.498-8.933c1-2.267,2.321-3.401,3.965-3.401c0.839,0,1.596,0.3,2.273,0.897
		c0.676,0.6,1.257,1.442,1.741,2.529c0.483,1.086,0.853,2.395,1.111,3.922c0.258,1.528,0.387,3.238,0.387,5.127
		C79.288,94.519,78.772,97.465,77.741,99.953z M92.892,70.886c-4.676-5.088-11.118-7.632-19.326-7.632
		c-7.792,0-14.043,2.56-18.754,7.681c-4.744,5.088-7.117,11.834-7.117,20.237c0,8.402,2.32,15.099,6.962,20.088
		c4.675,4.957,10.961,7.435,18.857,7.435c8.036,0,14.443-2.429,19.223-7.287c4.779-4.857,7.168-11.39,7.168-19.596
		C99.905,82.948,97.567,75.974,92.892,70.886z"/>
	<path clip-path="url(#SVGID_2_)" fill="none" stroke="#FAD100" stroke-width="3" d="M158.167,81.684
		c0-5.792-1.344-10.312-4.03-13.559c-2.65-3.247-6.367-4.871-11.151-4.871c-6.882,0-12.096,3.521-15.642,10.564l0.205-3.539
		c0.068-0.99,0.119-2.067,0.154-3.23c0.033-1.162,0.068-2.427,0.102-3.795h-20.617v55.44h20.617V90.743
		c0-5.437,1.831-8.154,5.494-8.154c1.569,0,2.67,0.496,3.302,1.487s0.949,2.753,0.949,5.282v29.336h20.617V81.684z"/>
	<path clip-path="url(#SVGID_2_)" fill="none" stroke="#FAD100" stroke-width="3" d="M184.682,83.665
		c0-1.467,0.444-2.672,1.334-3.612c0.888-0.942,2.051-1.413,3.487-1.413c0.684,0,1.316,0.129,1.898,0.385
		c0.581,0.257,1.085,0.606,1.513,1.046c0.427,0.441,0.76,0.967,1,1.578c0.239,0.612,0.359,1.284,0.359,2.017H184.682z
		 M189.298,103.309c-2.975,0-4.582-2.667-4.821-8.001h30.157l0.102-3.518c0-8.621-2.256-15.541-6.77-20.759
		c-4.513-5.185-10.565-7.778-18.155-7.778c-7.635,0-13.869,2.679-18.701,8.033c-4.834,5.322-7.25,12.205-7.25,20.648
		c0,8.312,2.244,14.867,6.735,19.663c4.525,4.73,10.758,7.097,18.703,7.097c6.701,0,12.129-1.538,16.284-4.614
		c4.154-3.076,6.949-7.657,8.385-13.747l-20.104-0.409C193.145,102.181,191.623,103.309,189.298,103.309z"/>
	<polygon clip-path="url(#SVGID_2_)" fill="none" stroke="#FAD100" stroke-width="3" points="251.047,58.483 263.306,58.483 
		263.306,39.508 217.865,39.508 217.865,58.483 229.661,58.483 229.661,118.694 251.047,118.694 	"/>
	<path clip-path="url(#SVGID_2_)" fill="none" stroke="#FAD100" stroke-width="3" d="M345.364,63.253h-20.566l-2.975,13.745
		c-0.581,2.701-1.146,5.667-1.692,8.898c-0.547,3.23-1.095,6.812-1.641,10.745c-0.274-2.906-0.564-5.65-0.872-8.232
		c-0.308-2.581-0.65-5.017-1.026-7.308l-2.975-17.849h-17.54l-3.641,16.155c-0.582,2.667-1.103,5.429-1.564,8.283
		c-0.462,2.854-0.83,5.839-1.103,8.95c-0.308-3.009-0.641-5.796-1-8.36c-0.359-2.563-0.727-4.975-1.103-7.23l-3.128-17.798h-20.207
		l13.796,55.441h20.156l6.359-33.234l4.206,33.234h20.36L345.364,63.253z"/>
	<path clip-path="url(#SVGID_2_)" fill="none" stroke="#FAD100" stroke-width="3" d="M377.564,99.953
		c-1.032,2.237-2.338,3.355-3.916,3.355c-1.678,0-3.015-1.134-4.015-3.403c-0.999-2.047-1.498-5.023-1.498-8.932
		c0-3.97,0.499-6.947,1.498-8.933c1-2.267,2.321-3.401,3.965-3.401c0.839,0,1.597,0.3,2.273,0.897
		c0.676,0.6,1.257,1.442,1.741,2.529c0.482,1.086,0.853,2.395,1.11,3.922c0.259,1.528,0.388,3.238,0.388,5.127
		C379.111,94.519,378.594,97.465,377.564,99.953z M392.715,70.886c-4.676-5.088-11.119-7.632-19.327-7.632
		c-7.792,0-14.043,2.56-18.754,7.681c-4.744,5.088-7.116,11.834-7.116,20.237c0,8.402,2.319,15.099,6.962,20.088
		c4.675,4.957,10.961,7.435,18.856,7.435c8.037,0,14.443-2.429,19.222-7.287c4.779-4.857,7.168-11.39,7.168-19.596
		C399.727,82.948,397.389,75.974,392.715,70.886z"/>
	<polygon clip-path="url(#SVGID_2_)" fill="none" stroke="#FAD100" stroke-width="3" points="429.166,87.563 444.449,87.563 
		444.449,68.587 429.166,68.587 429.166,58.483 445.578,58.483 445.578,39.507 407.779,39.507 407.779,118.694 429.166,118.694 	"/>
	<path clip-path="url(#SVGID_2_)" fill="none" stroke="#FAD100" stroke-width="3" d="M473.633,94.897
		c0-3.829,0.744-6.744,2.23-8.744c1.486-2.001,3.615-3.001,6.385-3.001c1.572,0,3.488,0.616,5.744,1.847V61.92
		c-7.18,0-12.326,4.052-15.438,12.155l1.078-10.822h-20.617v55.441h20.617V94.897z"/>
	<path clip-path="url(#SVGID_2_)" fill="none" stroke="#FAD100" stroke-width="3" d="M513.943,83.665
		c0-1.467,0.443-2.672,1.334-3.612c0.889-0.942,2.051-1.413,3.486-1.413c0.686,0,1.316,0.129,1.898,0.385
		c0.582,0.257,1.086,0.606,1.514,1.046c0.426,0.441,0.76,0.967,1,1.578c0.238,0.612,0.359,1.284,0.359,2.017H513.943z
		 M518.559,103.309c-2.975,0-4.582-2.667-4.82-8.001h30.158l0.102-3.518c0-8.621-2.256-15.541-6.771-20.759
		c-4.512-5.185-10.564-7.778-18.154-7.778c-7.635,0-13.869,2.679-18.701,8.033c-4.834,5.322-7.25,12.205-7.25,20.648
		c0,8.312,2.244,14.867,6.736,19.663c4.523,4.73,10.758,7.097,18.701,7.097c6.701,0,12.131-1.538,16.285-4.614
		s6.949-7.657,8.385-13.747l-20.104-0.409C522.406,102.181,520.885,103.309,518.559,103.309z"/>
	<path clip-path="url(#SVGID_2_)" fill="none" stroke="#FAD100" stroke-width="3" d="M571.129,83.665
		c0-1.467,0.443-2.672,1.334-3.612c0.887-0.942,2.051-1.413,3.486-1.413c0.684,0,1.316,0.129,1.898,0.385
		c0.58,0.257,1.084,0.606,1.512,1.046c0.428,0.441,0.762,0.967,1,1.578c0.24,0.612,0.359,1.284,0.359,2.017H571.129z
		 M575.744,103.309c-2.975,0-4.582-2.667-4.82-8.001h30.156l0.102-3.518c0-8.621-2.256-15.541-6.77-20.759
		c-4.514-5.185-10.564-7.778-18.154-7.778c-7.635,0-13.869,2.679-18.701,8.033c-4.834,5.322-7.25,12.205-7.25,20.648
		c0,8.312,2.244,14.867,6.734,19.663c4.525,4.73,10.758,7.097,18.703,7.097c6.701,0,12.129-1.538,16.285-4.614
		c4.152-3.076,6.947-7.657,8.385-13.747l-20.105-0.409C579.59,102.181,578.068,103.309,575.744,103.309z"/>
</g>
<text transform="matrix(1 0 0 1 609.5625 130.2949)"><tspan x="0" y="0" fill="#FFFFFF" font-family="'Futura-CondensedExtraBold'" font-size="148" letter-spacing="7">{</tspan><tspan x="68.754" y="0" fill="#FFFFFF" font-family="'Futura-CondensedExtraBold'" font-size="148">}</tspan></text>
<g>
	<g>
		<path fill="none" stroke="#FBD200" d="M35.781,157.244H22.46v-28.184h7.612v21.429h5.713L35.781,157.244L35.781,157.244z"/>
		<path fill="#FBD200" d="M46.545,129.061l-4.925,13.562h-6.005l3.45-13.562H46.545z"/>
		<path fill="none" stroke="#FBD200" d="M68.834,157.244h-7.869l-0.564-3.579h-5.13l-0.62,3.579h-7.867l6.77-28.184h9.311
			L68.834,157.244z M59.507,147.734l-0.492-3.288c-0.013-0.009-0.036-0.175-0.073-0.492c-0.027-0.268-0.152-1.327-0.385-3.176
			c-0.026-0.207-0.056-0.489-0.091-0.848c-0.035-0.358-0.084-0.812-0.145-1.36l-0.237-2.664c-0.028,0.256-0.059,0.541-0.101,0.857
			c-0.043,0.316-0.089,0.663-0.138,1.041c-0.081,0.756-0.141,1.276-0.182,1.572c-0.037,0.292-0.062,0.467-0.074,0.527l-0.528,3.415
			l-0.767,4.417h3.212V147.734z"/>
		<path fill="none" stroke="#FBD200" d="M80.848,140.943h10.624v1.134c0,5.27-0.81,9.062-2.428,11.376
			c-1.765,2.527-4.375,3.794-7.832,3.794c-3.396,0-6.057-1.232-7.993-3.7c-1.924-2.49-2.885-5.908-2.885-10.255
			c0-4.407,0.967-7.882,2.902-10.418c1.936-2.535,4.582-3.807,7.941-3.807c4.452,0,7.684,2.313,9.692,6.938l-7.375,2.7
			c-0.109-0.889-0.362-1.588-0.757-2.107c-0.4-0.516-0.892-0.775-1.487-0.775c-2.094,0-3.14,2.703-3.14,8.107
			c0,2.294,0.231,3.966,0.694,5.005c0.458,1.044,1.198,1.562,2.208,1.562c0.402,0,0.767-0.086,1.096-0.259
			c0.328-0.174,0.604-0.411,0.832-0.727c0.227-0.311,0.403-0.692,0.527-1.138c0.132-0.448,0.192-0.942,0.192-1.491H80.85
			L80.848,140.943L80.848,140.943z"/>
		<path fill="none" stroke="#FBD200" d="M94.718,157.244v-28.184h14.146v6.755h-6.534v3.594h5.86v6.756h-5.86v4.326h6.534v6.756
			H94.718V157.244z"/>
		<path fill="none" stroke="#FBD200" d="M112.115,157.244v-28.184h7.265l3.813,9.894c0.206,0.584,0.444,1.255,0.705,2.009
			c0.259,0.754,0.552,1.623,0.868,2.61l0.782,2.483c-0.28-2.448-0.493-4.543-0.639-6.279c-0.143-1.739-0.218-3.201-0.218-4.382
			v-6.334h7.342v28.184h-7.342l-4.063-10.366c-0.425-1.107-0.811-2.145-1.156-3.111c-0.341-0.97-0.641-1.889-0.896-2.769
			c0.301,1.984,0.523,3.713,0.667,5.185c0.14,1.477,0.211,2.767,0.211,3.871v7.19L112.115,157.244L112.115,157.244z"/>
		<path fill="none" stroke="#FBD200" d="M151.97,148.665l-0.439,7.636c-1.691,0.63-3.206,0.944-4.546,0.944
			c-3.15,0-5.803-1.117-7.958-3.351c-2.41-2.503-3.616-6.045-3.616-10.629c0-4.292,1.133-7.734,3.396-10.331
			c2.264-2.585,5.288-3.878,9.07-3.878c1.23,0,2.483,0.221,3.761,0.665v7.786c-1.132-1.131-2.294-1.693-3.486-1.693
			c-1.558,0-2.772,0.658-3.65,1.97c-0.877,1.327-1.314,3.162-1.314,5.502c0,1.133,0.108,2.147,0.328,3.041
			c0.219,0.891,0.532,1.644,0.94,2.263c0.406,0.616,0.907,1.085,1.506,1.41c0.597,0.327,1.275,0.49,2.043,0.49
			C149.323,150.489,150.643,149.882,151.97,148.665z"/>
		<path fill="none" stroke="#FBD200" d="M154.944,157.244v-28.184h14.146v6.755h-6.535v3.594h5.86v6.756h-5.86v4.326h6.535v6.756
			h-14.146V157.244z"/>
		<path fill="none" stroke="#FBD200" d="M207.351,157.244h-7.366l-1.767-9.877c-0.345-1.909-0.603-3.566-0.774-4.967
			c-0.086-0.693-0.16-1.27-0.221-1.733c-0.062-0.462-0.104-0.813-0.13-1.06c-0.063,0.5-0.152,1.431-0.278,2.793
			c-0.057,0.694-0.124,1.425-0.2,2.19c-0.079,0.767-0.175,1.576-0.287,2.43l-1.317,10.221h-7.121l-6.279-28.185h7.52l1.243,7.759
			c0.473,3.092,0.801,5.52,0.985,7.282l0.256,2.572l0.237-2.21c0.245-2.578,0.565-5.03,0.953-7.351l1.372-8.052h6.33l1.235,6.772
			c0.588,3.149,1.1,6.883,1.534,11.19c0.136-1.936,0.283-3.651,0.439-5.147s0.337-2.852,0.529-4.068l1.388-8.747h7.429
			L207.351,157.244z"/>
		<path fill="none" stroke="#FBD200" d="M215.437,157.244v-28.184h14.146v6.755h-6.536v3.594h5.86v6.756h-5.86v4.326h6.536v6.756
			h-14.146V157.244z"/>
		<path fill="none" stroke="#FBD200" d="M232.831,157.244v-28.184h8.854c3.31,0,5.762,0.73,7.355,2.19
			c1.618,1.497,2.429,3.43,2.429,5.805c0,3.528-1.752,5.438-5.258,5.731c1.995,0.295,3.459,0.948,4.389,1.97
			c0.932,1.025,1.396,2.495,1.396,4.419c0,2.42-0.784,4.369-2.353,5.837c-1.558,1.485-3.609,2.23-6.154,2.23L232.831,157.244
			L232.831,157.244z M240.445,139.79h0.511c0.912,0,1.637-0.211,2.166-0.635c0.526-0.427,0.791-1.022,0.791-1.793
			c0-1.629-0.891-2.446-2.681-2.446c-0.084,0-0.19,0.005-0.319,0.011c-0.131,0.006-0.287,0.016-0.464,0.028L240.445,139.79
			L240.445,139.79z M240.445,151.275c0.146,0.012,0.273,0.022,0.383,0.025c0.108,0.006,0.201,0.009,0.274,0.009
			c0.948,0,1.707-0.254,2.271-0.769c0.566-0.511,0.848-1.199,0.848-2.062s-0.282-1.537-0.848-2.023
			c-0.565-0.486-1.341-0.728-2.328-0.728h-0.602V151.275z"/>
		<path fill="none" stroke="#FBD200" d="M278.741,157.244h-7.761l-6.461-28.184h7.995l1.386,8.051
			c0.52,3.076,0.943,6.52,1.26,10.332c0.134-1.694,0.295-3.272,0.493-4.75c0.194-1.474,0.425-2.906,0.693-4.308l1.806-9.326h8.267
			L278.741,157.244z"/>
		<path fill="none" stroke="#FBD200" d="M308.439,157.244h-8.232l-3.761-10.039c-0.032-0.171-0.098-0.396-0.188-0.672
			c-0.09-0.277-0.204-0.617-0.338-1.005l0.055,1.862v9.856h-7.574v-28.184h7.794c3.429,0,5.999,0.676,7.704,2.025
			c2.166,1.729,3.249,4.186,3.249,7.374c0,3.407-1.454,5.762-4.363,7.062L308.439,157.244z M296.008,141.71h0.512
			c0.875,0,1.604-0.334,2.188-1.005c0.583-0.67,0.879-1.521,0.879-2.554c0-2.104-1.104-3.159-3.308-3.159h-0.273L296.008,141.71
			L296.008,141.71z"/>
		<path fill="none" stroke="#FBD200" d="M331.256,157.244h-7.867l-0.566-3.579h-5.129l-0.62,3.579h-7.87l6.772-28.184h9.309
			L331.256,157.244z M321.929,147.734l-0.492-3.288c-0.015-0.009-0.037-0.175-0.077-0.492c-0.024-0.268-0.149-1.327-0.383-3.176
			c-0.027-0.207-0.057-0.489-0.09-0.848c-0.034-0.358-0.083-0.812-0.144-1.36l-0.241-2.664c-0.025,0.256-0.058,0.541-0.099,0.857
			c-0.042,0.316-0.087,0.663-0.136,1.041c-0.084,0.756-0.145,1.276-0.183,1.572c-0.035,0.292-0.064,0.467-0.076,0.527l-0.53,3.415
			l-0.766,4.417h3.216V147.734z"/>
		<path fill="none" stroke="#FBD200" d="M341.076,157.244h-7.615v-28.184h7.615V157.244z"/>
		<path fill="none" stroke="#FBD200" d="M373.768,157.244h-7.703l-0.311-12.85l-0.244-5.129c-0.088,0.984-0.189,1.926-0.303,2.82
			c-0.113,0.894-0.252,1.762-0.418,2.602l-2.488,12.56h-6.326l-2.045-12.575c-0.121-0.729-0.288-1.981-0.495-3.76
			c-0.022-0.269-0.078-0.814-0.164-1.641l-0.182,5.198l-0.676,12.782h-8.101l3.287-28.187h9.473l1.587,9.495
			c0.134,0.779,0.252,1.626,0.356,2.536c0.104,0.913,0.197,1.905,0.282,2.978c0.155-1.789,0.369-3.391,0.644-4.802l1.892-10.204
			h9.202L373.768,157.244z"/>
		<path fill="none" stroke="#FBD200" d="M377.401,157.244v-28.184h14.143v6.755h-6.532v3.594h5.857v6.756h-5.857v4.326h6.532v6.756
			h-14.143V157.244z"/>
		<path fill="none" stroke="#FBD200" d="M394.797,157.244v-28.184h7.268l3.811,9.894c0.206,0.584,0.444,1.255,0.705,2.009
			c0.262,0.754,0.552,1.623,0.866,2.61l0.782,2.483c-0.279-2.448-0.494-4.543-0.638-6.279c-0.145-1.739-0.219-3.201-0.219-4.382
			v-6.334h7.342v28.184h-7.342l-4.064-10.366c-0.425-1.107-0.81-2.145-1.156-3.111c-0.341-0.97-0.639-1.889-0.896-2.769
			c0.302,1.984,0.526,3.713,0.667,5.185c0.143,1.477,0.212,2.767,0.212,3.871v7.19L394.797,157.244L394.797,157.244z"/>
		<path fill="none" stroke="#FBD200" d="M428.418,157.244h-7.612v-21.43h-4.197v-6.755h16.174v6.755h-4.364V157.244z"/>
		<path fill="none" stroke="#FBD200" d="M455.838,157.244h-7.618v-21.43h-4.197v-6.755h16.175v6.755h-4.363v21.43H455.838z"/>
		<path fill="none" stroke="#FBD200" d="M482.213,157.244h-8.233l-3.76-10.039c-0.037-0.171-0.1-0.396-0.188-0.672
			c-0.092-0.279-0.205-0.617-0.342-1.005l0.057,1.862v9.856h-7.574v-28.184h7.791c3.433,0,6.001,0.676,7.705,2.025
			c2.17,1.729,3.251,4.186,3.251,7.374c0,3.407-1.452,5.762-4.36,7.062L482.213,157.244z M469.782,141.71h0.512
			c0.878,0,1.604-0.334,2.189-1.005c0.584-0.67,0.877-1.521,0.877-2.554c0-2.104-1.101-3.159-3.304-3.159h-0.274V141.71
			L469.782,141.71z"/>
		<path fill="none" stroke="#FBD200" d="M484.732,157.244v-28.184h14.142v6.755h-6.535v3.594h5.86v6.756h-5.86v4.326h6.535v6.756
			h-14.142V157.244z M497.236,120.042l-3.56,6.754h-4.254l1.845-6.754H497.236z"/>
		<path fill="none" stroke="#FBD200" d="M501.525,156.093v-8.672c1.492,2.047,3.113,3.068,4.854,3.068
			c0.658,0,1.193-0.167,1.608-0.502c0.408-0.336,0.617-0.755,0.617-1.264c0-0.725-0.449-1.434-1.349-2.127l-1.242-0.934
			c-0.827-0.6-1.537-1.195-2.119-1.789c-0.583-0.591-1.058-1.206-1.426-1.831c-0.366-0.626-0.633-1.274-0.805-1.946
			c-0.169-0.67-0.254-1.373-0.254-2.113c0-1.269,0.302-2.594,0.912-3.979c0.303-0.646,0.661-1.236,1.058-1.771
			c0.403-0.533,0.866-1.006,1.387-1.417c1.434-1.174,3.173-1.761,5.201-1.761c1.812,0,3.637,0.465,5.474,1.4v8.456
			c-0.617-0.961-1.325-1.718-2.116-2.272c-0.792-0.553-1.571-0.834-2.341-0.834c-0.582,0-1.063,0.167-1.438,0.496
			c-0.393,0.316-0.583,0.698-0.583,1.145c0,0.725,0.513,1.447,1.549,2.165l1.206,0.861c1.607,1.115,2.758,2.258,3.451,3.432
			c0.705,1.174,1.058,2.545,1.058,4.116c0,2.675-0.845,4.881-2.537,6.616c-1.694,1.736-3.836,2.607-6.43,2.607
			C505.484,157.244,503.569,156.86,501.525,156.093z"/>
		<path fill="none" stroke="#FBD200" d="M546.301,148.665l-0.442,7.636c-1.69,0.63-3.201,0.944-4.543,0.944
			c-3.151,0-5.807-1.117-7.958-3.351c-2.411-2.503-3.616-6.045-3.616-10.629c0-4.292,1.133-7.734,3.396-10.331
			c2.264-2.585,5.286-3.878,9.07-3.878c1.227,0,2.483,0.221,3.757,0.665v7.786c-1.13-1.131-2.288-1.693-3.482-1.693
			c-1.556,0-2.774,0.658-3.649,1.97c-0.879,1.327-1.317,3.162-1.317,5.502c0,1.133,0.108,2.147,0.328,3.041
			c0.223,0.891,0.531,1.644,0.944,2.263c0.407,0.616,0.907,1.085,1.505,1.41c0.596,0.327,1.277,0.49,2.043,0.49
			C543.654,150.489,544.976,149.882,546.301,148.665z"/>
		<path fill="none" stroke="#FBD200" d="M569.996,143.249c0,4.148-0.981,7.52-2.939,10.117c-1.947,2.587-4.483,3.878-7.612,3.878
			c-2.774,0-5.153-0.995-7.137-2.98c-2.496-2.512-3.739-6.283-3.739-11.318c0-4.815,1.302-8.501,3.902-11.05
			c1.936-1.892,4.229-2.838,6.882-2.838c3.251,0,5.836,1.281,7.757,3.842C569.034,135.465,569.996,138.913,569.996,143.249z
			 M562.092,143.315c0-5.001-0.901-7.501-2.702-7.501c-0.901,0-1.617,0.656-2.152,1.967c-0.524,1.218-0.786,3.007-0.786,5.37
			c0,2.328,0.247,4.132,0.74,5.412c0.493,1.282,1.176,1.922,2.051,1.922c0.901,0,1.595-0.629,2.081-1.896
			C561.837,147.33,562.092,145.57,562.092,143.315z"/>
		<path fill="none" stroke="#FBD200" d="M601.992,157.244h-7.702l-0.311-12.85l-0.242-5.129c-0.091,0.984-0.191,1.926-0.306,2.82
			c-0.113,0.894-0.25,1.762-0.416,2.602l-2.49,12.56h-6.326l-2.043-12.575c-0.123-0.729-0.29-1.981-0.494-3.76
			c-0.027-0.269-0.081-0.814-0.167-1.641l-0.181,5.198l-0.675,12.782h-8.105l3.287-28.187h9.475l1.586,9.495
			c0.135,0.779,0.25,1.626,0.354,2.536c0.104,0.913,0.196,1.905,0.282,2.978c0.153-1.789,0.368-3.391,0.644-4.802l1.895-10.204
			h9.201L601.992,157.244z"/>
	</g>
	<g>
		<path fill="#FBD200" d="M615.82,129.061l-4.925,13.562h-6.004l3.448-13.562H615.82z"/>
	</g>
</g>
</svg>
