<?xml version="1.0" encoding="utf-8"?>
<!-- Generator: Adobe Illustrator 14.0.0, SVG Export Plug-In . SVG Version: 6.00 Build 43363)  -->
<!DOCTYPE svg PUBLIC "-//W3C//DTD SVG 1.1//EN" "http://www.w3.org/Graphics/SVG/1.1/DTD/svg11.dtd">
<svg version="1.1" id="Calque_1" xmlns="http://www.w3.org/2000/svg" xmlns:xlink="http://www.w3.org/1999/xlink" x="0px" y="0px"
	 width="141.732px" height="42.52px" viewBox="0 0 141.732 42.52" enable-background="new 0 0 141.732 42.52" xml:space="preserve">
<text transform="matrix(1 0 0 1 11.2646 26.7141)" fill="#FFFFFF" font-family="'Futura-CondensedExtraBold'" font-size="23.0409">.</text>
<g>
	<path fill="none" stroke="#FBD200" stroke-width="0.467" stroke-miterlimit="1" d="M23.367,23.796
		c-0.16,0.349-0.364,0.521-0.609,0.521c-0.261,0-0.47-0.177-0.625-0.529c-0.156-0.318-0.234-0.781-0.234-1.392
		c0-0.618,0.078-1.081,0.234-1.39c0.155-0.354,0.361-0.53,0.617-0.53c0.131,0,0.248,0.047,0.354,0.141
		c0.105,0.094,0.195,0.225,0.271,0.395c0.075,0.169,0.133,0.372,0.173,0.609s0.06,0.504,0.06,0.799
		C23.609,22.949,23.529,23.408,23.367,23.796z M25.726,19.271c-0.728-0.792-1.731-1.188-3.009-1.188
		c-1.213,0-2.186,0.397-2.919,1.195c-0.739,0.792-1.108,1.843-1.108,3.15s0.361,2.352,1.083,3.127
		c0.728,0.771,1.707,1.158,2.936,1.158c1.251,0,2.249-0.378,2.993-1.135c0.744-0.757,1.116-1.773,1.116-3.052
		C26.819,21.149,26.454,20.063,25.726,19.271z"/>
	<path fill="none" stroke="#FBD200" stroke-width="0.467" stroke-miterlimit="1" d="M35.888,20.951c0-0.901-0.209-1.604-0.627-2.11
		c-0.413-0.505-0.992-0.758-1.736-0.758c-1.072,0-1.884,0.548-2.436,1.645l0.032-0.551c0.011-0.155,0.019-0.322,0.024-0.503
		c0.005-0.182,0.011-0.378,0.016-0.591h-3.21v8.631h3.21v-4.354c0-0.846,0.285-1.269,0.855-1.269c0.245,0,0.416,0.077,0.515,0.23
		c0.098,0.154,0.147,0.43,0.147,0.822v4.567h3.21V20.951z"/>
	<path fill="none" stroke="#FBD200" stroke-width="0.467" stroke-miterlimit="1" d="M40.016,21.26c0-0.228,0.07-0.416,0.208-0.562
		c0.138-0.146,0.319-0.221,0.543-0.221c0.106,0,0.205,0.021,0.295,0.061c0.091,0.04,0.169,0.095,0.236,0.163
		c0.066,0.068,0.118,0.15,0.156,0.246c0.037,0.095,0.055,0.199,0.055,0.312H40.016z M40.735,24.319
		c-0.463,0-0.713-0.415-0.751-1.245h4.695l0.016-0.548c0-1.342-0.351-2.42-1.054-3.231c-0.702-0.808-1.644-1.211-2.826-1.211
		c-1.189,0-2.159,0.417-2.912,1.251c-0.752,0.828-1.128,1.899-1.128,3.214c0,1.294,0.349,2.314,1.048,3.062
		c0.705,0.736,1.675,1.104,2.912,1.104c1.043,0,1.888-0.238,2.535-0.718s1.082-1.192,1.305-2.141l-3.129-0.063
		C41.334,24.143,41.097,24.319,40.735,24.319z"/>
	<polygon fill="none" stroke="#FBD200" stroke-width="0.467" stroke-miterlimit="1" points="50.348,17.34 52.257,17.34 
		52.257,14.386 45.182,14.386 45.182,17.34 47.019,17.34 47.019,26.714 50.348,26.714 	"/>
	<path fill="none" stroke="#FBD200" stroke-width="0.467" stroke-miterlimit="1" d="M65.032,18.082h-3.201l-0.463,2.141
		c-0.091,0.42-0.179,0.882-0.264,1.385c-0.086,0.503-0.171,1.062-0.256,1.674c-0.043-0.453-0.088-0.881-0.137-1.282
		c-0.047-0.4-0.101-0.781-0.158-1.138l-0.463-2.778h-2.731l-0.567,2.516c-0.091,0.415-0.172,0.845-0.243,1.29
		c-0.072,0.443-0.13,0.908-0.172,1.394c-0.048-0.469-0.1-0.902-0.156-1.303c-0.056-0.398-0.113-0.773-0.171-1.125l-0.488-2.771
		h-3.145l2.147,8.631h3.138l0.99-5.174l0.655,5.174h3.17L65.032,18.082z"/>
	<path fill="none" stroke="#FBD200" stroke-width="0.467" stroke-miterlimit="1" d="M70.043,23.796
		c-0.158,0.349-0.363,0.521-0.607,0.521c-0.262,0-0.471-0.177-0.625-0.529c-0.156-0.318-0.234-0.781-0.234-1.392
		c0-0.618,0.078-1.081,0.234-1.39c0.154-0.354,0.361-0.53,0.617-0.53c0.131,0,0.248,0.047,0.354,0.141s0.195,0.225,0.271,0.395
		c0.074,0.169,0.133,0.372,0.172,0.609c0.041,0.237,0.061,0.504,0.061,0.799C70.286,22.949,70.206,23.408,70.043,23.796z
		 M72.404,19.271c-0.728-0.792-1.731-1.188-3.009-1.188c-1.213,0-2.188,0.397-2.919,1.195c-0.739,0.792-1.108,1.843-1.108,3.15
		s0.361,2.352,1.084,3.127c0.728,0.771,1.707,1.158,2.937,1.158c1.25,0,2.247-0.378,2.991-1.135s1.117-1.773,1.117-3.052
		C73.495,21.149,73.131,20.063,72.404,19.271z"/>
	<path fill="none" stroke="#FBD200" stroke-width="0.467" stroke-miterlimit="1" d="M77,26.714c1.135,0,2.07-0.381,2.811-1.14
		c0.74-0.76,1.109-1.725,1.109-2.895c0-0.688-0.154-1.288-0.463-1.801c-0.304-0.514-0.807-1.014-1.51-1.5l-0.525-0.377
		c-0.453-0.313-0.68-0.63-0.68-0.947c0-0.195,0.086-0.362,0.256-0.5c0.164-0.145,0.375-0.216,0.631-0.216
		c0.336,0,0.676,0.121,1.021,0.363c0.346,0.241,0.655,0.572,0.926,0.993v-3.698c-0.804-0.408-1.603-0.612-2.396-0.612
		c-0.89,0-1.647,0.257-2.274,0.771c-0.23,0.181-0.433,0.387-0.607,0.619c-0.176,0.234-0.33,0.492-0.463,0.774
		c-0.267,0.604-0.398,1.187-0.398,1.74c0,0.323,0.037,0.633,0.111,0.925c0.074,0.293,0.191,0.576,0.352,0.851
		c0.16,0.275,0.367,0.542,0.623,0.803c0.255,0.26,0.564,0.521,0.926,0.78l0.543,0.409c0.396,0.302,0.592,0.613,0.592,0.933
		c0,0.221-0.092,0.403-0.272,0.55s-0.414,0.221-0.701,0.221c-0.762,0-1.469-0.447-2.124-1.343v3.794
		C75.379,26.546,76.219,26.714,77,26.714z"/>
	<path fill="none" stroke="#FBD200" stroke-width="0.467" stroke-miterlimit="1" d="M89.711,20.951c0-0.901-0.194-1.604-0.584-2.11
		c-0.383-0.505-0.922-0.758-1.615-0.758c-0.997,0-1.754,0.607-2.271,1.827c0.01-0.121,0.021-0.233,0.032-0.335
		s0.019-0.196,0.024-0.288c0.004-0.09,0.009-0.224,0.012-0.398c0.002-0.176,0.004-0.395,0.004-0.655v-4.989h-3.21v13.471h3.21
		v-4.354c0-0.846,0.223-1.269,0.67-1.269c0.191,0,0.326,0.077,0.402,0.23c0.078,0.154,0.117,0.43,0.117,0.822v4.567h3.209V20.951z"
		/>
	<path fill="none" stroke="#FBD200" stroke-width="0.467" stroke-miterlimit="1" d="M95.603,23.796
		c-0.16,0.349-0.364,0.521-0.608,0.521c-0.262,0-0.471-0.177-0.625-0.529c-0.156-0.318-0.234-0.781-0.234-1.392
		c0-0.618,0.078-1.081,0.234-1.39c0.154-0.354,0.36-0.53,0.616-0.53c0.132,0,0.248,0.047,0.354,0.141
		c0.104,0.094,0.193,0.225,0.271,0.395c0.075,0.169,0.134,0.372,0.173,0.609c0.041,0.237,0.062,0.504,0.062,0.799
		C95.844,22.949,95.764,23.408,95.603,23.796z M97.961,19.271c-0.729-0.792-1.73-1.188-3.01-1.188c-1.213,0-2.187,0.397-2.918,1.195
		c-0.738,0.792-1.107,1.843-1.107,3.15s0.359,2.352,1.082,3.127c0.729,0.771,1.707,1.158,2.937,1.158
		c1.251,0,2.249-0.378,2.993-1.135s1.115-1.773,1.115-3.052C99.053,21.149,98.69,20.063,97.961,19.271z"/>
	<polygon fill="none" stroke="#FBD200" stroke-width="0.467" stroke-miterlimit="1" points="103.844,20.678 104.907,20.678 
		104.907,18.082 103.844,18.082 103.844,15.543 100.633,15.543 100.633,18.082 99.724,18.082 99.724,20.678 100.633,20.678 
		100.633,26.713 103.844,26.713 	"/>
	<path fill="none" stroke="#FBD200" stroke-width="0.467" stroke-miterlimit="1" d="M106.36,26.26
		c0.266,0.121,0.512,0.21,0.734,0.269c0.479,0.123,0.961,0.186,1.445,0.186c1.028,0,1.873-0.262,2.532-0.786
		c0.658-0.524,0.988-1.2,0.988-2.026c0-0.574-0.156-1.024-0.465-1.352c-0.292-0.326-0.845-0.636-1.658-0.928
		c-0.649-0.237-0.976-0.493-0.976-0.766c0-0.252,0.168-0.379,0.502-0.379c0.343,0,0.781,0.253,1.316,0.759l1.096-2.417
		c-0.883-0.49-1.74-0.736-2.571-0.736c-1.015,0-1.861,0.265-2.541,0.791c-0.675,0.526-1.013,1.189-1.013,1.987
		c0,1.091,0.754,1.886,2.261,2.388c0.559,0.19,0.838,0.407,0.838,0.647c0,0.281-0.207,0.422-0.623,0.422
		c-0.494,0-1.029-0.301-1.604-0.901l-1.164,2.405C105.792,25.992,106.092,26.139,106.36,26.26z"/>
</g>
<text transform="matrix(1 0 0 1 112.3237 28.5198)" fill="#FFFFFF" font-family="'Futura-CondensedExtraBold'" font-size="23.0409">{</text>
<text transform="matrix(1 0 0 1 123.0278 28.5198)" fill="#FFFFFF" font-family="'Futura-CondensedExtraBold'" font-size="23.0409">}</text>
</svg>
