<?xml version="1.0" encoding="utf-8"?>
<!-- Generator: Adobe Illustrator 14.0.0, SVG Export Plug-In . SVG Version: 6.00 Build 43363)  -->
<!DOCTYPE svg PUBLIC "-//W3C//DTD SVG 1.1//EN" "http://www.w3.org/Graphics/SVG/1.1/DTD/svg11.dtd">
<svg version="1.1" id="Calque_1" xmlns="http://www.w3.org/2000/svg" xmlns:xlink="http://www.w3.org/1999/xlink" x="0px" y="0px"
	 width="141.732px" height="42.52px" viewBox="0 0 141.732 42.52" enable-background="new 0 0 141.732 42.52" xml:space="preserve">
<text transform="matrix(1 0 0 1 11.1714 27.2766)" fill="#FFFFFF" font-family="'Futura-CondensedExtraBold'" font-size="23.0409">.</text>
<g>
	<path fill="none" stroke="#2F8C98" stroke-width="0.467" stroke-miterlimit="10" d="M23.274,24.359
		c-0.16,0.349-0.364,0.522-0.609,0.522c-0.261,0-0.47-0.177-0.625-0.53c-0.156-0.318-0.234-0.781-0.234-1.391
		c0-0.618,0.078-1.081,0.234-1.39c0.155-0.354,0.361-0.53,0.617-0.53c0.131,0,0.248,0.047,0.354,0.14
		c0.105,0.094,0.195,0.225,0.271,0.395c0.075,0.169,0.133,0.372,0.173,0.609c0.04,0.238,0.06,0.504,0.06,0.799
		C23.515,23.512,23.435,23.971,23.274,24.359z M25.633,19.833c-0.728-0.792-1.731-1.188-3.009-1.188
		c-1.213,0-2.186,0.398-2.919,1.196c-0.739,0.792-1.108,1.842-1.108,3.15c0,1.308,0.361,2.351,1.083,3.127
		c0.728,0.771,1.707,1.158,2.936,1.158c1.251,0,2.249-0.378,2.993-1.135c0.744-0.757,1.116-1.773,1.116-3.051
		C26.725,21.711,26.361,20.625,25.633,19.833z"/>
	<path fill="none" stroke="#2F8C98" stroke-width="0.467" stroke-miterlimit="10" d="M35.795,21.514c0-0.901-0.209-1.604-0.627-2.11
		c-0.413-0.505-0.992-0.758-1.736-0.758c-1.072,0-1.884,0.548-2.436,1.645l0.032-0.551c0.011-0.155,0.019-0.322,0.024-0.503
		c0.005-0.182,0.011-0.378,0.016-0.591h-3.21v8.631h3.21v-4.353c0-0.846,0.285-1.269,0.855-1.269c0.245,0,0.416,0.077,0.515,0.23
		c0.098,0.155,0.147,0.43,0.147,0.823v4.567h3.21V21.514z"/>
	<path fill="none" stroke="#2F8C98" stroke-width="0.467" stroke-miterlimit="10" d="M39.923,21.823c0-0.228,0.07-0.416,0.208-0.562
		c0.138-0.146,0.319-0.22,0.543-0.22c0.106,0,0.205,0.021,0.295,0.06c0.091,0.04,0.169,0.095,0.236,0.163
		c0.066,0.069,0.118,0.151,0.156,0.246c0.037,0.095,0.055,0.2,0.055,0.313H39.923z M40.642,24.881c-0.463,0-0.713-0.415-0.751-1.246
		h4.695l0.016-0.547c0-1.342-0.351-2.42-1.054-3.232c-0.702-0.807-1.644-1.211-2.826-1.211c-1.189,0-2.159,0.417-2.912,1.251
		c-0.752,0.828-1.128,1.9-1.128,3.214c0,1.294,0.349,2.315,1.048,3.062c0.705,0.736,1.675,1.104,2.912,1.104
		c1.043,0,1.888-0.238,2.535-0.718c0.647-0.479,1.082-1.192,1.305-2.14l-3.129-0.064C41.241,24.705,41.004,24.881,40.642,24.881z"/>
	<polygon fill="none" stroke="#2F8C98" stroke-width="0.467" stroke-miterlimit="10" points="50.255,17.903 52.163,17.903 
		52.163,14.948 45.089,14.948 45.089,17.903 46.926,17.903 46.926,27.277 50.255,27.277 	"/>
	<path fill="none" stroke="#2F8C98" stroke-width="0.467" stroke-miterlimit="10" d="M64.938,18.645h-3.202l-0.463,2.141
		c-0.09,0.42-0.178,0.882-0.263,1.385c-0.086,0.503-0.171,1.061-0.256,1.673c-0.043-0.453-0.088-0.88-0.136-1.282
		c-0.047-0.4-0.101-0.781-0.159-1.137l-0.463-2.779h-2.731l-0.567,2.516c-0.091,0.415-0.172,0.845-0.243,1.29
		c-0.072,0.443-0.13,0.908-0.172,1.393c-0.048-0.468-0.1-0.902-0.156-1.302c-0.056-0.399-0.113-0.774-0.171-1.125l-0.488-2.771
		h-3.145l2.147,8.631h3.138l0.99-5.174l0.655,5.174h3.17L64.938,18.645z"/>
	<path fill="none" stroke="#2F8C98" stroke-width="0.467" stroke-miterlimit="10" d="M69.951,24.359
		c-0.16,0.349-0.364,0.522-0.609,0.522c-0.261,0-0.47-0.177-0.625-0.53c-0.156-0.318-0.234-0.781-0.234-1.391
		c0-0.618,0.078-1.081,0.234-1.39c0.155-0.354,0.361-0.53,0.617-0.53c0.131,0,0.248,0.047,0.354,0.14
		c0.105,0.094,0.195,0.225,0.271,0.395c0.075,0.169,0.133,0.372,0.173,0.609c0.04,0.238,0.06,0.504,0.06,0.799
		C70.192,23.512,70.112,23.971,69.951,24.359z M72.31,19.833c-0.728-0.792-1.731-1.188-3.009-1.188
		c-1.213,0-2.186,0.398-2.919,1.196c-0.739,0.792-1.108,1.842-1.108,3.15c0,1.308,0.361,2.351,1.083,3.127
		c0.728,0.771,1.707,1.158,2.936,1.158c1.25,0,2.249-0.378,2.993-1.135s1.116-1.773,1.116-3.051
		C73.402,21.711,73.038,20.625,72.31,19.833z"/>
	<path fill="none" stroke="#2F8C98" stroke-width="0.467" stroke-miterlimit="10" d="M76.907,27.277c1.135,0,2.071-0.381,2.811-1.14
		c0.74-0.759,1.109-1.724,1.109-2.894c0-0.688-0.154-1.288-0.463-1.801c-0.303-0.514-0.806-1.014-1.509-1.5l-0.526-0.377
		c-0.453-0.313-0.679-0.63-0.679-0.947c0-0.195,0.085-0.362,0.255-0.5c0.165-0.145,0.375-0.216,0.631-0.216
		c0.336,0,0.676,0.121,1.022,0.363c0.346,0.242,0.655,0.573,0.926,0.994v-3.699c-0.804-0.408-1.603-0.612-2.396-0.612
		c-0.889,0-1.647,0.257-2.275,0.77c-0.229,0.181-0.432,0.387-0.607,0.62c-0.175,0.234-0.33,0.492-0.463,0.774
		c-0.266,0.605-0.398,1.187-0.398,1.74c0,0.324,0.037,0.633,0.111,0.925c0.074,0.293,0.191,0.576,0.352,0.851
		c0.16,0.275,0.367,0.542,0.623,0.802c0.255,0.26,0.564,0.521,0.926,0.781l0.543,0.409c0.395,0.302,0.591,0.613,0.591,0.932
		c0,0.221-0.091,0.404-0.272,0.55c-0.18,0.147-0.414,0.221-0.701,0.221c-0.762,0-1.469-0.447-2.124-1.343v3.794
		C75.286,27.109,76.125,27.277,76.907,27.277z"/>
	<path fill="none" stroke="#2F8C98" stroke-width="0.467" stroke-miterlimit="10" d="M89.618,21.514c0-0.901-0.194-1.604-0.584-2.11
		c-0.383-0.505-0.922-0.758-1.615-0.758c-0.997,0-1.754,0.608-2.271,1.827c0.01-0.121,0.021-0.233,0.032-0.335
		c0.01-0.101,0.019-0.196,0.024-0.288c0.004-0.09,0.009-0.223,0.012-0.398c0.002-0.176,0.004-0.395,0.004-0.655v-4.99h-3.21v13.471
		h3.21v-4.353c0-0.846,0.223-1.269,0.67-1.269c0.191,0,0.326,0.077,0.402,0.23c0.078,0.155,0.117,0.43,0.117,0.823v4.567h3.209
		V21.514z"/>
	<path fill="none" stroke="#2F8C98" stroke-width="0.467" stroke-miterlimit="10" d="M95.509,24.359
		c-0.16,0.349-0.364,0.522-0.609,0.522c-0.261,0-0.47-0.177-0.625-0.53c-0.155-0.318-0.233-0.781-0.233-1.391
		c0-0.618,0.078-1.081,0.233-1.39c0.155-0.354,0.361-0.53,0.617-0.53c0.131,0,0.248,0.047,0.354,0.14
		c0.104,0.094,0.194,0.225,0.271,0.395c0.075,0.169,0.133,0.372,0.173,0.609c0.04,0.238,0.061,0.504,0.061,0.799
		C95.75,23.512,95.67,23.971,95.509,24.359z M97.868,19.833c-0.728-0.792-1.73-1.188-3.009-1.188c-1.213,0-2.187,0.398-2.919,1.196
		c-0.738,0.792-1.107,1.842-1.107,3.15c0,1.308,0.36,2.351,1.082,3.127c0.729,0.771,1.707,1.158,2.937,1.158
		c1.251,0,2.249-0.378,2.993-1.135s1.115-1.773,1.115-3.051C98.959,21.711,98.596,20.625,97.868,19.833z"/>
	<polygon fill="none" stroke="#2F8C98" stroke-width="0.467" stroke-miterlimit="10" points="103.75,21.24 104.813,21.24 
		104.813,18.645 103.75,18.645 103.75,16.106 100.541,16.106 100.541,18.645 99.63,18.645 99.63,21.24 100.541,21.24 
		100.541,27.276 103.75,27.276 	"/>
	<path fill="none" stroke="#2F8C98" stroke-width="0.467" stroke-miterlimit="10" d="M106.266,26.823
		c0.266,0.121,0.511,0.21,0.734,0.269c0.479,0.123,0.961,0.185,1.445,0.185c1.029,0,1.874-0.262,2.533-0.786
		c0.658-0.524,0.988-1.2,0.988-2.026c0-0.575-0.156-1.025-0.465-1.352c-0.292-0.326-0.845-0.636-1.658-0.928
		c-0.65-0.237-0.976-0.493-0.976-0.765c0-0.252,0.168-0.379,0.503-0.379c0.342,0,0.78,0.253,1.316,0.759l1.095-2.417
		c-0.883-0.491-1.74-0.737-2.571-0.737c-1.015,0-1.861,0.265-2.541,0.791c-0.675,0.527-1.012,1.19-1.012,1.988
		c0,1.09,0.753,1.885,2.26,2.387c0.559,0.191,0.838,0.407,0.838,0.648c0,0.281-0.207,0.422-0.623,0.422
		c-0.494,0-1.029-0.301-1.604-0.902l-1.165,2.405C105.699,26.555,106,26.701,106.266,26.823z"/>
</g>
<text transform="matrix(1 0 0 1 112.23 29.0823)"><tspan x="0" y="0" fill="#FFFFFF" font-family="'Futura-CondensedExtraBold'" font-size="23.0409" letter-spacing="1">{</tspan><tspan x="10.704" y="0" fill="#FFFFFF" font-family="'Futura-CondensedExtraBold'" font-size="23.0409">}</tspan></text>
</svg>
