<?xml version="1.0" encoding="utf-8"?>
<!-- Generator: Adobe Illustrator 14.0.0, SVG Export Plug-In . SVG Version: 6.00 Build 43363)  -->
<!DOCTYPE svg PUBLIC "-//W3C//DTD SVG 1.1//EN" "http://www.w3.org/Graphics/SVG/1.1/DTD/svg11.dtd">
<svg version="1.1" id="Calque_1" xmlns="http://www.w3.org/2000/svg" xmlns:xlink="http://www.w3.org/1999/xlink" x="0px" y="0px"
	 width="141.732px" height="42.52px" viewBox="0 0 141.732 42.52" enable-background="new 0 0 141.732 42.52" xml:space="preserve">
<text transform="matrix(1 0 0 1 10.1855 27.2336)" fill="#FFFFFF" font-family="'Futura-CondensedExtraBold'" font-size="23.0409">.</text>
<g>
	<path fill="none" stroke="#FBD200" stroke-width="0.467" stroke-miterlimit="1" d="M22.288,24.316
		c-0.16,0.349-0.364,0.523-0.609,0.523c-0.261,0-0.47-0.178-0.625-0.53c-0.156-0.319-0.234-0.782-0.234-1.391
		c0-0.618,0.078-1.081,0.234-1.391c0.155-0.353,0.361-0.53,0.617-0.53c0.131,0,0.248,0.048,0.354,0.141
		c0.105,0.093,0.195,0.224,0.271,0.394c0.075,0.169,0.133,0.372,0.173,0.61c0.04,0.238,0.06,0.504,0.06,0.798
		C22.529,23.47,22.449,23.929,22.288,24.316z M24.647,19.79c-0.728-0.792-1.731-1.188-3.009-1.188c-1.213,0-2.186,0.398-2.919,1.196
		c-0.739,0.792-1.108,1.842-1.108,3.149c0,1.309,0.361,2.352,1.083,3.128c0.728,0.771,1.707,1.157,2.936,1.157
		c1.251,0,2.249-0.378,2.993-1.134c0.744-0.757,1.116-1.774,1.116-3.051C25.739,21.669,25.375,20.582,24.647,19.79z"/>
	<path fill="none" stroke="#FBD200" stroke-width="0.467" stroke-miterlimit="1" d="M34.81,21.472c0-0.902-0.209-1.605-0.627-2.111
		c-0.414-0.505-0.993-0.758-1.736-0.758c-1.072,0-1.884,0.548-2.436,1.646l0.032-0.552c0.011-0.154,0.019-0.321,0.024-0.503
		c0.005-0.181,0.011-0.378,0.016-0.591h-3.21v8.631h3.21v-4.352c0-0.847,0.285-1.27,0.855-1.27c0.245,0,0.416,0.077,0.515,0.231
		c0.098,0.155,0.147,0.429,0.147,0.823v4.566h3.21V21.472z"/>
	<path fill="none" stroke="#FBD200" stroke-width="0.467" stroke-miterlimit="1" d="M38.937,21.781c0-0.229,0.07-0.416,0.208-0.563
		c0.138-0.146,0.319-0.22,0.543-0.22c0.106,0,0.205,0.021,0.296,0.061c0.09,0.04,0.168,0.095,0.235,0.162
		c0.065,0.069,0.118,0.151,0.155,0.246c0.037,0.096,0.056,0.2,0.056,0.314H38.937z M39.655,24.838c-0.463,0-0.713-0.415-0.75-1.246
		H43.6l0.017-0.547c0-1.342-0.352-2.42-1.055-3.231c-0.701-0.808-1.645-1.211-2.826-1.211c-1.188,0-2.158,0.417-2.912,1.251
		c-0.752,0.828-1.127,1.899-1.127,3.214c0,1.294,0.349,2.314,1.047,3.061c0.705,0.737,1.676,1.105,2.912,1.105
		c1.043,0,1.889-0.239,2.535-0.718c0.647-0.479,1.082-1.192,1.307-2.141l-3.131-0.063C40.255,24.662,40.018,24.838,39.655,24.838z"
		/>
	<polygon fill="none" stroke="#FBD200" stroke-width="0.467" stroke-miterlimit="1" points="49.269,17.86 51.177,17.86 
		51.177,14.906 44.103,14.906 44.103,17.86 45.938,17.86 45.938,27.234 49.269,27.234 	"/>
	<path fill="none" stroke="#FBD200" stroke-width="0.467" stroke-miterlimit="1" d="M63.952,18.603h-3.201l-0.464,2.14
		c-0.09,0.42-0.178,0.882-0.263,1.385c-0.086,0.503-0.171,1.062-0.256,1.674c-0.043-0.453-0.088-0.881-0.137-1.282
		c-0.047-0.401-0.101-0.781-0.158-1.138l-0.463-2.778h-2.731l-0.567,2.515c-0.091,0.415-0.172,0.845-0.242,1.29
		c-0.072,0.444-0.131,0.909-0.172,1.394c-0.049-0.469-0.101-0.902-0.156-1.303c-0.057-0.398-0.113-0.773-0.172-1.125l-0.487-2.771
		h-3.146l2.147,8.631h3.138l0.99-5.174l0.654,5.174h3.171L63.952,18.603z"/>
	<path fill="none" stroke="#FBD200" stroke-width="0.467" stroke-miterlimit="1" d="M68.965,24.316
		c-0.16,0.349-0.365,0.523-0.609,0.523c-0.262,0-0.471-0.178-0.625-0.53c-0.156-0.319-0.234-0.782-0.234-1.391
		c0-0.618,0.078-1.081,0.234-1.391c0.154-0.353,0.361-0.53,0.617-0.53c0.131,0,0.248,0.048,0.354,0.141s0.195,0.224,0.271,0.394
		c0.074,0.169,0.133,0.372,0.172,0.61c0.041,0.238,0.061,0.504,0.061,0.798C69.206,23.47,69.125,23.929,68.965,24.316z
		 M71.323,19.79c-0.727-0.792-1.73-1.188-3.008-1.188c-1.213,0-2.186,0.398-2.919,1.196c-0.738,0.792-1.107,1.842-1.107,3.149
		c0,1.309,0.361,2.352,1.083,3.128c0.728,0.771,1.708,1.157,2.936,1.157c1.25,0,2.248-0.378,2.992-1.134
		c0.744-0.757,1.117-1.774,1.117-3.051C72.417,21.669,72.051,20.582,71.323,19.79z"/>
	<polygon fill="none" stroke="#FBD200" stroke-width="0.467" stroke-miterlimit="1" points="81.917,14.906 78.586,14.906 
		78.586,19.321 76.999,19.321 76.999,14.906 73.668,14.906 73.668,27.234 76.999,27.234 76.999,22.276 78.586,22.276 78.586,27.234 
		81.917,27.234 	"/>
	<path fill="none" stroke="#FBD200" stroke-width="0.467" stroke-miterlimit="1" d="M87.952,24.316
		c-0.16,0.349-0.363,0.523-0.609,0.523c-0.26,0-0.469-0.178-0.625-0.53c-0.156-0.319-0.234-0.782-0.234-1.391
		c0-0.618,0.078-1.081,0.234-1.391c0.156-0.353,0.361-0.53,0.617-0.53c0.131,0,0.248,0.048,0.354,0.141s0.195,0.224,0.271,0.394
		c0.074,0.169,0.133,0.372,0.174,0.61c0.039,0.238,0.059,0.504,0.059,0.798C88.192,23.47,88.112,23.929,87.952,24.316z
		 M90.311,19.79c-0.729-0.792-1.73-1.188-3.01-1.188c-1.213,0-2.186,0.398-2.918,1.196c-0.74,0.792-1.109,1.842-1.109,3.149
		c0,1.309,0.361,2.352,1.084,3.128c0.729,0.771,1.707,1.157,2.936,1.157c1.252,0,2.25-0.378,2.994-1.134
		c0.742-0.757,1.115-1.774,1.115-3.051C91.403,21.669,91.04,20.582,90.311,19.79z"/>
	<path fill="none" stroke="#FBD200" stroke-width="0.467" stroke-miterlimit="1" d="M104.641,21.433c0-0.902-0.174-1.577-0.52-2.025
		c-0.422-0.537-1.01-0.805-1.762-0.805c-0.996,0-1.711,0.596-2.143,1.788c-0.496-1.192-1.258-1.788-2.287-1.788
		c-0.918,0-1.662,0.479-2.232,1.437c0.031-0.309,0.049-0.639,0.049-0.989v-0.447h-3.209v8.631h3.209v-4.296
		c0-0.5,0.055-0.85,0.162-1.05c0.109-0.199,0.295-0.299,0.557-0.299c0.361,0,0.543,0.293,0.543,0.878v4.767h3.209v-4.367
		c0-0.895,0.242-1.342,0.727-1.342c0.324,0,0.486,0.274,0.486,0.823v4.886h3.211V21.433z"/>
	<path fill="none" stroke="#FBD200" stroke-width="0.467" stroke-miterlimit="1" d="M109.096,21.781c0-0.229,0.07-0.416,0.207-0.563
		c0.139-0.146,0.32-0.22,0.543-0.22c0.107,0,0.205,0.021,0.295,0.061c0.092,0.04,0.17,0.095,0.236,0.162
		c0.066,0.069,0.119,0.151,0.156,0.246c0.037,0.096,0.055,0.2,0.055,0.314H109.096z M109.815,24.838
		c-0.463,0-0.713-0.415-0.752-1.246h4.695l0.016-0.547c0-1.342-0.35-2.42-1.053-3.231c-0.703-0.808-1.645-1.211-2.826-1.211
		c-1.189,0-2.16,0.417-2.912,1.251c-0.752,0.828-1.129,1.899-1.129,3.214c0,1.294,0.35,2.314,1.049,3.061
		c0.705,0.737,1.676,1.105,2.912,1.105c1.043,0,1.889-0.239,2.535-0.718c0.646-0.479,1.082-1.192,1.305-2.141l-3.129-0.063
		C110.415,24.662,110.176,24.838,109.815,24.838z"/>
</g>
<text transform="matrix(1 0 0 1 114.2622 29.0393)"><tspan x="0" y="0" fill="#FFFFFF" font-family="'Futura-CondensedExtraBold'" font-size="23.0409" letter-spacing="1">{</tspan><tspan x="10.703" y="0" fill="#FFFFFF" font-family="'Futura-CondensedExtraBold'" font-size="23.0409">}</tspan></text>
</svg>
