<?xml version="1.0" encoding="utf-8"?>
<!-- Generator: Adobe Illustrator 14.0.0, SVG Export Plug-In . SVG Version: 6.00 Build 43363)  -->
<!DOCTYPE svg PUBLIC "-//W3C//DTD SVG 1.1//EN" "http://www.w3.org/Graphics/SVG/1.1/DTD/svg11.dtd">
<svg version="1.1" id="Calque_1" xmlns="http://www.w3.org/2000/svg" xmlns:xlink="http://www.w3.org/1999/xlink" x="0px" y="0px"
	 width="141.732px" height="42.52px" viewBox="0 0 141.732 42.52" enable-background="new 0 0 141.732 42.52" xml:space="preserve">
<text transform="matrix(1 0 0 1 11.9604 28.2659)" fill="#FFFFFF" font-family="'Futura-CondensedExtraBold'" font-size="23.0409">.</text>
<g>
	<path fill="none" stroke="#FBD200" stroke-width="0.467" stroke-miterlimit="1" d="M24.063,25.348
		c-0.16,0.349-0.364,0.523-0.609,0.523c-0.261,0-0.47-0.178-0.625-0.53c-0.156-0.319-0.234-0.782-0.234-1.391
		c0-0.618,0.078-1.081,0.234-1.391c0.155-0.353,0.361-0.53,0.617-0.53c0.131,0,0.248,0.048,0.354,0.141
		c0.105,0.093,0.195,0.224,0.271,0.394c0.075,0.169,0.133,0.372,0.173,0.61c0.04,0.238,0.06,0.504,0.06,0.798
		C24.304,24.502,24.224,24.961,24.063,25.348z M26.422,20.823c-0.728-0.792-1.731-1.188-3.009-1.188
		c-1.213,0-2.186,0.398-2.919,1.196c-0.739,0.792-1.108,1.842-1.108,3.149c0,1.309,0.361,2.352,1.083,3.128
		c0.728,0.771,1.707,1.157,2.936,1.157c1.251,0,2.249-0.378,2.993-1.134c0.744-0.757,1.116-1.774,1.116-3.051
		C27.514,22.701,27.15,21.615,26.422,20.823z"/>
	<path fill="none" stroke="#FBD200" stroke-width="0.467" stroke-miterlimit="1" d="M36.584,22.504c0-0.902-0.209-1.605-0.627-2.111
		c-0.413-0.505-0.992-0.758-1.736-0.758c-1.072,0-1.884,0.548-2.436,1.646l0.032-0.552c0.011-0.154,0.019-0.321,0.024-0.503
		c0.005-0.181,0.011-0.378,0.016-0.591h-3.21v8.631h3.21v-4.352c0-0.847,0.285-1.27,0.855-1.27c0.245,0,0.416,0.077,0.515,0.231
		c0.098,0.155,0.147,0.429,0.147,0.823v4.566h3.21V22.504z"/>
	<path fill="none" stroke="#FBD200" stroke-width="0.467" stroke-miterlimit="1" d="M40.711,22.813c0-0.229,0.07-0.416,0.208-0.563
		c0.138-0.146,0.319-0.22,0.543-0.22c0.106,0,0.205,0.021,0.295,0.061c0.091,0.04,0.169,0.095,0.236,0.162
		c0.066,0.069,0.118,0.151,0.156,0.246c0.037,0.096,0.055,0.2,0.055,0.314H40.711z M41.431,25.87c-0.463,0-0.713-0.415-0.751-1.246
		h4.695l0.016-0.547c0-1.342-0.351-2.42-1.054-3.231c-0.702-0.808-1.644-1.211-2.826-1.211c-1.189,0-2.159,0.417-2.912,1.251
		c-0.752,0.828-1.128,1.899-1.128,3.214c0,1.294,0.349,2.314,1.048,3.061c0.705,0.737,1.675,1.105,2.912,1.105
		c1.043,0,1.888-0.239,2.535-0.718c0.647-0.479,1.082-1.192,1.306-2.141l-3.13-0.063C42.03,25.695,41.792,25.87,41.431,25.87z"/>
	<polygon fill="none" stroke="#FBD200" stroke-width="0.467" stroke-miterlimit="1" points="51.044,18.892 52.952,18.892 
		52.952,15.939 45.878,15.939 45.878,18.892 47.714,18.892 47.714,28.266 51.044,28.266 	"/>
	<path fill="none" stroke="#FBD200" stroke-width="0.467" stroke-miterlimit="1" d="M65.727,19.635h-3.201l-0.464,2.14
		c-0.09,0.42-0.178,0.882-0.263,1.385c-0.086,0.503-0.171,1.062-0.256,1.674c-0.043-0.452-0.088-0.881-0.137-1.282
		c-0.047-0.401-0.101-0.781-0.158-1.138l-0.463-2.778h-2.731l-0.567,2.515c-0.091,0.415-0.172,0.845-0.243,1.29
		c-0.072,0.444-0.13,0.909-0.172,1.394c-0.048-0.469-0.1-0.902-0.156-1.303c-0.056-0.398-0.113-0.773-0.171-1.125l-0.488-2.771
		h-3.145l2.147,8.631h3.138l0.99-5.174l0.654,5.174h3.171L65.727,19.635z"/>
	<path fill="none" stroke="#FBD200" stroke-width="0.467" stroke-miterlimit="1" d="M70.74,25.348
		c-0.16,0.349-0.364,0.523-0.608,0.523c-0.262,0-0.471-0.178-0.625-0.53c-0.156-0.319-0.234-0.782-0.234-1.391
		c0-0.618,0.078-1.081,0.234-1.391c0.154-0.353,0.36-0.53,0.616-0.53c0.132,0,0.248,0.048,0.354,0.141
		c0.105,0.093,0.195,0.224,0.271,0.394c0.075,0.169,0.134,0.372,0.173,0.61c0.041,0.238,0.061,0.504,0.061,0.798
		C70.981,24.502,70.901,24.961,70.74,25.348z M73.098,20.823c-0.728-0.792-1.73-1.188-3.008-1.188c-1.213,0-2.187,0.398-2.92,1.196
		c-0.738,0.792-1.107,1.842-1.107,3.149c0,1.309,0.361,2.352,1.083,3.128c0.728,0.771,1.707,1.157,2.937,1.157
		c1.25,0,2.248-0.378,2.992-1.134c0.744-0.757,1.116-1.774,1.116-3.051C74.191,22.701,73.827,21.615,73.098,20.823z"/>
	<path fill="none" stroke="#FBD200" stroke-width="0.467" stroke-miterlimit="1" d="M80.642,25.312
		c-0.335,0-0.634-0.071-0.894-0.214c-0.262-0.143-0.481-0.348-0.66-0.617c-0.178-0.269-0.314-0.599-0.41-0.99
		c-0.096-0.39-0.145-0.833-0.145-1.329c0-1.023,0.192-1.825,0.575-2.406c0.384-0.575,0.915-0.862,1.597-0.862
		c0.521,0,1.031,0.247,1.525,0.742v-3.406c-0.559-0.194-1.107-0.291-1.645-0.291c-1.655,0-2.979,0.566-3.969,1.696
		c-0.99,1.136-1.484,2.642-1.484,4.518c0,2.005,0.527,3.555,1.58,4.649c0.943,0.977,2.103,1.465,3.482,1.465
		c0.584,0,1.247-0.137,1.987-0.411l0.192-3.341C81.793,25.046,81.217,25.312,80.642,25.312z"/>
	<path fill="none" stroke="#FBD200" stroke-width="0.467" stroke-miterlimit="1" d="M87.987,25.348
		c-0.16,0.349-0.365,0.523-0.609,0.523c-0.262,0-0.471-0.178-0.625-0.53c-0.156-0.319-0.234-0.782-0.234-1.391
		c0-0.618,0.078-1.081,0.234-1.391c0.154-0.353,0.361-0.53,0.617-0.53c0.131,0,0.248,0.048,0.354,0.141s0.195,0.224,0.271,0.394
		c0.074,0.169,0.133,0.372,0.172,0.61c0.041,0.238,0.061,0.504,0.061,0.798C88.227,24.502,88.147,24.961,87.987,25.348z
		 M90.345,20.823c-0.728-0.792-1.731-1.188-3.009-1.188c-1.213,0-2.186,0.398-2.92,1.196c-0.738,0.792-1.107,1.842-1.107,3.149
		c0,1.309,0.361,2.352,1.083,3.128c0.728,0.771,1.707,1.157,2.937,1.157c1.25,0,2.248-0.378,2.992-1.134
		c0.744-0.757,1.116-1.774,1.116-3.051C91.437,22.701,91.073,21.615,90.345,20.823z"/>
	<path fill="none" stroke="#FBD200" stroke-width="0.467" stroke-miterlimit="1" d="M104.675,22.465
		c0-0.902-0.173-1.577-0.521-2.025c-0.42-0.537-1.008-0.805-1.76-0.805c-0.996,0-1.711,0.596-2.143,1.788
		c-0.496-1.192-1.26-1.788-2.288-1.788c-0.917,0-1.661,0.479-2.231,1.437c0.031-0.309,0.047-0.639,0.047-0.989v-0.447h-3.209v8.631
		h3.209V23.97c0-0.5,0.055-0.85,0.164-1.05c0.109-0.199,0.295-0.299,0.555-0.299c0.363,0,0.543,0.293,0.543,0.878v4.767h3.211
		v-4.367c0-0.895,0.242-1.342,0.726-1.342c0.325,0,0.487,0.274,0.487,0.823v4.886h3.21V22.465z"/>
	<polygon fill="none" stroke="#FBD200" stroke-width="0.467" stroke-miterlimit="1" points="107.518,15.938 106.008,21.87 
		108.635,21.87 110.792,15.938 	"/>
</g>
<text transform="matrix(1 0 0 1 111.4067 30.0715)"><tspan x="0" y="0" fill="#FFFFFF" font-family="'Futura-CondensedExtraBold'" font-size="23.0409" letter-spacing="1">{</tspan><tspan x="10.703" y="0" fill="#FFFFFF" font-family="'Futura-CondensedExtraBold'" font-size="23.0409">}</tspan></text>
</svg>
