<?xml version="1.0" encoding="utf-8"?>
<!-- Generator: Adobe Illustrator 14.0.0, SVG Export Plug-In . SVG Version: 6.00 Build 43363)  -->
<!DOCTYPE svg PUBLIC "-//W3C//DTD SVG 1.1//EN" "http://www.w3.org/Graphics/SVG/1.1/DTD/svg11.dtd">
<svg version="1.1" id="Calque_1" xmlns="http://www.w3.org/2000/svg" xmlns:xlink="http://www.w3.org/1999/xlink" x="0px" y="0px"
	 width="141.732px" height="42.52px" viewBox="0 0 141.732 42.52" enable-background="new 0 0 141.732 42.52" xml:space="preserve">
<text transform="matrix(1 0 0 1 5.7744 27.0732)" fill="#FFFFFF" font-family="'Futura-CondensedExtraBold'" font-size="23.0409">.</text>
<g>
	<path fill="none" stroke="#FAD100" stroke-width="0.467" stroke-miterlimit="1" d="M17.877,24.155
		c-0.16,0.349-0.364,0.523-0.609,0.523c-0.261,0-0.47-0.178-0.625-0.53c-0.156-0.319-0.234-0.782-0.234-1.391
		c0-0.618,0.078-1.081,0.234-1.391c0.155-0.353,0.361-0.53,0.617-0.53c0.131,0,0.248,0.048,0.354,0.141
		c0.105,0.093,0.195,0.224,0.271,0.394c0.075,0.169,0.133,0.372,0.173,0.61c0.04,0.238,0.06,0.504,0.06,0.798
		C18.118,23.31,18.038,23.769,17.877,24.155z M20.236,19.63c-0.728-0.792-1.731-1.188-3.009-1.188c-1.213,0-2.186,0.398-2.919,1.196
		c-0.739,0.792-1.108,1.842-1.108,3.149c0,1.309,0.361,2.352,1.083,3.128c0.728,0.771,1.707,1.157,2.936,1.157
		c1.251,0,2.249-0.378,2.993-1.134c0.744-0.757,1.116-1.774,1.116-3.051C21.328,21.509,20.964,20.422,20.236,19.63z"/>
	<path fill="none" stroke="#FAD100" stroke-width="0.467" stroke-miterlimit="1" d="M30.398,21.312c0-0.902-0.209-1.605-0.627-2.111
		c-0.413-0.505-0.992-0.758-1.736-0.758c-1.072,0-1.884,0.548-2.436,1.646l0.032-0.552c0.011-0.154,0.019-0.321,0.024-0.503
		c0.005-0.181,0.011-0.378,0.016-0.591h-3.21v8.631h3.21v-4.352c0-0.847,0.285-1.27,0.855-1.27c0.245,0,0.416,0.077,0.515,0.231
		c0.098,0.155,0.147,0.429,0.147,0.823v4.566h3.21V21.312z"/>
	<path fill="none" stroke="#FAD100" stroke-width="0.467" stroke-miterlimit="1" d="M34.525,21.62c0-0.229,0.07-0.416,0.208-0.563
		c0.138-0.146,0.319-0.22,0.543-0.22c0.106,0,0.205,0.021,0.295,0.061c0.091,0.04,0.169,0.095,0.236,0.162
		c0.066,0.069,0.118,0.151,0.156,0.246c0.037,0.096,0.055,0.2,0.055,0.314H34.525z M35.245,24.678c-0.463,0-0.713-0.415-0.751-1.246
		h4.695l0.016-0.547c0-1.342-0.351-2.42-1.054-3.231c-0.702-0.808-1.644-1.211-2.826-1.211c-1.189,0-2.159,0.417-2.912,1.251
		c-0.752,0.828-1.128,1.899-1.128,3.214c0,1.294,0.349,2.314,1.048,3.061c0.705,0.737,1.675,1.105,2.912,1.105
		c1.043,0,1.888-0.239,2.535-0.718c0.647-0.479,1.082-1.192,1.305-2.141l-3.129-0.063C35.844,24.502,35.606,24.678,35.245,24.678z"
		/>
	<polygon fill="none" stroke="#FAD100" stroke-width="0.467" stroke-miterlimit="1" points="44.858,17.699 46.766,17.699 
		46.766,14.746 39.692,14.746 39.692,17.699 41.529,17.699 41.529,27.073 44.858,27.073 	"/>
	<path fill="none" stroke="#FAD100" stroke-width="0.467" stroke-miterlimit="1" d="M59.541,18.442h-3.202l-0.463,2.14
		c-0.09,0.42-0.178,0.882-0.263,1.385c-0.086,0.503-0.171,1.062-0.256,1.674c-0.043-0.453-0.088-0.881-0.136-1.282
		c-0.047-0.401-0.101-0.781-0.159-1.138l-0.463-2.778h-2.731l-0.567,2.515c-0.091,0.415-0.172,0.845-0.243,1.29
		c-0.072,0.444-0.13,0.909-0.172,1.394c-0.048-0.469-0.1-0.902-0.156-1.303c-0.056-0.398-0.113-0.773-0.171-1.125l-0.488-2.771
		h-3.145l2.147,8.631h3.138l0.99-5.174l0.655,5.174h3.17L59.541,18.442z"/>
	<path fill="none" stroke="#FAD100" stroke-width="0.467" stroke-miterlimit="1" d="M64.553,24.155
		c-0.16,0.349-0.363,0.523-0.608,0.523c-0.261,0-0.47-0.178-0.625-0.53c-0.156-0.319-0.233-0.782-0.233-1.391
		c0-0.618,0.077-1.081,0.233-1.391c0.155-0.353,0.36-0.53,0.616-0.53c0.132,0,0.248,0.048,0.354,0.141
		c0.105,0.093,0.195,0.224,0.271,0.394c0.076,0.169,0.134,0.372,0.174,0.61s0.061,0.504,0.061,0.798
		C64.795,23.31,64.715,23.769,64.553,24.155z M66.913,19.63c-0.729-0.792-1.73-1.188-3.009-1.188c-1.213,0-2.187,0.398-2.919,1.196
		c-0.739,0.792-1.108,1.842-1.108,3.149c0,1.309,0.361,2.352,1.083,3.128c0.728,0.771,1.707,1.157,2.936,1.157
		c1.251,0,2.249-0.378,2.993-1.134c0.744-0.757,1.115-1.774,1.115-3.051C68.004,21.509,67.641,20.422,66.913,19.63z"/>
	<path fill="none" stroke="#FAD100" stroke-width="0.467" stroke-miterlimit="1" d="M72.588,17.324
		c0.078-0.005,0.146-0.009,0.203-0.012c0.056-0.003,0.103-0.004,0.14-0.004c0.782,0,1.174,0.356,1.174,1.069
		c0,0.335-0.116,0.597-0.348,0.782c-0.231,0.188-0.548,0.28-0.946,0.28h-0.223V17.324z M72.588,22.035h0.263
		c0.431,0,0.771,0.106,1.019,0.32c0.248,0.213,0.371,0.508,0.371,0.885s-0.123,0.678-0.371,0.902
		c-0.248,0.224-0.58,0.336-0.994,0.336c-0.032,0-0.072-0.001-0.12-0.004s-0.104-0.007-0.167-0.013V22.035z M73.921,27.073
		c1.112,0,2.009-0.325,2.69-0.974c0.687-0.645,1.03-1.496,1.03-2.556c0-0.841-0.204-1.484-0.61-1.932
		c-0.408-0.447-1.047-0.735-1.92-0.863c1.532-0.127,2.299-0.963,2.299-2.507c0-1.038-0.354-1.884-1.062-2.539
		c-0.697-0.639-1.77-0.958-3.217-0.958h-3.873v12.328H73.921z"/>
	<path fill="none" stroke="#FAD100" stroke-width="0.467" stroke-miterlimit="1" d="M81.937,21.62c0-0.229,0.069-0.416,0.208-0.563
		c0.139-0.146,0.318-0.22,0.543-0.22c0.105,0,0.205,0.021,0.295,0.061c0.092,0.04,0.169,0.095,0.236,0.162
		c0.066,0.069,0.117,0.151,0.156,0.246c0.037,0.096,0.055,0.2,0.055,0.314H81.937z M82.657,24.678c-0.464,0-0.714-0.415-0.752-1.246
		H86.6l0.016-0.547c0-1.342-0.351-2.42-1.054-3.231c-0.702-0.808-1.644-1.211-2.826-1.211c-1.188,0-2.159,0.417-2.911,1.251
		c-0.752,0.828-1.129,1.899-1.129,3.214c0,1.294,0.35,2.314,1.049,3.061c0.705,0.737,1.674,1.105,2.912,1.105
		c1.043,0,1.887-0.239,2.534-0.718c0.647-0.479,1.082-1.192,1.306-2.141l-3.129-0.063C83.254,24.502,83.018,24.678,82.657,24.678z"
		/>
	<path fill="none" stroke="#FAD100" stroke-width="0.467" stroke-miterlimit="1" d="M91.663,24.559c-0.5,0-0.75-0.625-0.75-1.876
		c0-1.215,0.258-1.821,0.773-1.821c0.459,0,0.688,0.623,0.688,1.869C92.374,23.949,92.136,24.559,91.663,24.559z M92.245,18.442
		l0.064,1.134c-0.341-0.49-0.658-0.833-0.949-1.03c-0.283-0.191-0.612-0.288-0.99-0.288c-0.82,0-1.488,0.418-2.004,1.254
		c-0.512,0.842-0.768,1.923-0.768,3.242c0,1.325,0.256,2.396,0.768,3.209c0.516,0.815,1.191,1.223,2.027,1.223
		c0.771,0,1.442-0.373,2.012-1.118v1.365c0,0.437-0.056,0.75-0.168,0.938c-0.111,0.189-0.303,0.283-0.574,0.283
		c-0.426,0-0.649-0.234-0.672-0.703h-3.272c0.149,1.07,0.537,1.858,1.166,2.364c0.628,0.505,1.53,0.758,2.706,0.758
		c1.091,0,1.991-0.274,2.699-0.822c0.42-0.325,0.724-0.716,0.91-1.174c0.187-0.495,0.279-1.08,0.279-1.756v-8.879H92.245z"/>
	<path fill="none" stroke="#FAD100" stroke-width="0.467" stroke-miterlimit="1" d="M99.887,14.435
		c-0.362-0.367-0.807-0.552-1.334-0.552c-0.5,0-0.939,0.182-1.317,0.543c-0.362,0.362-0.543,0.802-0.543,1.317
		c0,0.506,0.181,0.948,0.543,1.326c0.367,0.367,0.81,0.551,1.325,0.551c0.5,0,0.939-0.181,1.318-0.543
		c0.367-0.368,0.551-0.804,0.551-1.31C100.43,15.24,100.249,14.796,99.887,14.435z M100.158,18.442h-3.21v8.631h3.21V18.442z"/>
	<path fill="none" stroke="#FAD100" stroke-width="0.467" stroke-miterlimit="1" d="M109.58,21.312c0-0.902-0.209-1.605-0.627-2.111
		c-0.413-0.505-0.992-0.758-1.735-0.758c-1.072,0-1.885,0.548-2.437,1.646l0.032-0.552c0.011-0.154,0.019-0.321,0.023-0.503
		c0.006-0.181,0.012-0.378,0.016-0.591h-3.209v8.631h3.209v-4.352c0-0.847,0.285-1.27,0.855-1.27c0.245,0,0.416,0.077,0.516,0.231
		c0.098,0.155,0.146,0.429,0.146,0.823v4.566h3.21V21.312z"/>
	<path fill="none" stroke="#FAD100" stroke-width="0.467" stroke-miterlimit="1" d="M111.304,26.619
		c0.267,0.121,0.511,0.21,0.735,0.27c0.479,0.123,0.959,0.185,1.445,0.185c1.028,0,1.873-0.262,2.532-0.787
		c0.658-0.523,0.988-1.2,0.988-2.026c0-0.574-0.155-1.024-0.464-1.352c-0.293-0.326-0.846-0.635-1.658-0.927
		c-0.65-0.238-0.977-0.493-0.977-0.766c0-0.252,0.168-0.379,0.504-0.379c0.341,0,0.779,0.253,1.316,0.76l1.094-2.417
		c-0.883-0.491-1.74-0.737-2.57-0.737c-1.016,0-1.862,0.264-2.542,0.791c-0.675,0.526-1.011,1.189-1.011,1.988
		c0,1.09,0.752,1.885,2.26,2.387c0.559,0.19,0.838,0.407,0.838,0.647c0,0.281-0.207,0.423-0.623,0.423
		c-0.495,0-1.03-0.302-1.605-0.902l-1.164,2.405C110.737,26.353,111.038,26.498,111.304,26.619z"/>
</g>
<text transform="matrix(1 0 0 1 117.2681 28.8789)"><tspan x="0" y="0" fill="#FFFFFF" font-family="'Futura-CondensedExtraBold'" font-size="23.0409" letter-spacing="1">{</tspan><tspan x="10.704" y="0" fill="#FFFFFF" font-family="'Futura-CondensedExtraBold'" font-size="23.0409">}</tspan></text>
</svg>
