<?xml version="1.0" encoding="utf-8"?>
<!-- Generator: Adobe Illustrator 14.0.0, SVG Export Plug-In . SVG Version: 6.00 Build 43363)  -->
<!DOCTYPE svg PUBLIC "-//W3C//DTD SVG 1.1//EN" "http://www.w3.org/Graphics/SVG/1.1/DTD/svg11.dtd">
<svg version="1.1" id="Calque_1" xmlns="http://www.w3.org/2000/svg" xmlns:xlink="http://www.w3.org/1999/xlink" x="0px" y="0px"
	 width="141.732px" height="42.52px" viewBox="0 0 141.732 42.52" enable-background="new 0 0 141.732 42.52" xml:space="preserve">
<text transform="matrix(1 0 0 1 10.9604 27.2014)" fill="#FFFFFF" font-family="'Futura-CondensedExtraBold'" font-size="23.0409">.</text>
<g>
	<path fill="none" stroke="#2F8C98" stroke-width="0.467" stroke-miterlimit="10" d="M23.063,24.283
		c-0.16,0.349-0.364,0.523-0.609,0.523c-0.261,0-0.47-0.178-0.625-0.53c-0.156-0.319-0.234-0.782-0.234-1.391
		c0-0.618,0.078-1.081,0.234-1.391c0.155-0.353,0.361-0.53,0.617-0.53c0.131,0,0.248,0.048,0.354,0.141
		c0.105,0.093,0.195,0.224,0.271,0.394c0.075,0.169,0.133,0.372,0.173,0.61c0.04,0.238,0.06,0.504,0.06,0.798
		C23.304,23.438,23.224,23.897,23.063,24.283z M25.422,19.758c-0.728-0.792-1.731-1.188-3.009-1.188
		c-1.213,0-2.186,0.398-2.919,1.196c-0.739,0.792-1.108,1.842-1.108,3.149c0,1.309,0.361,2.352,1.083,3.128
		c0.728,0.771,1.707,1.157,2.936,1.157c1.251,0,2.249-0.378,2.993-1.134c0.744-0.757,1.116-1.774,1.116-3.051
		C26.514,21.637,26.15,20.55,25.422,19.758z"/>
	<path fill="none" stroke="#2F8C98" stroke-width="0.467" stroke-miterlimit="10" d="M35.584,21.44c0-0.902-0.209-1.605-0.627-2.111
		c-0.413-0.505-0.992-0.758-1.736-0.758c-1.072,0-1.884,0.548-2.436,1.646l0.032-0.552c0.011-0.154,0.019-0.321,0.024-0.503
		c0.005-0.181,0.011-0.378,0.016-0.591h-3.21v8.631h3.21V22.85c0-0.847,0.285-1.27,0.855-1.27c0.245,0,0.416,0.077,0.515,0.231
		c0.098,0.155,0.147,0.429,0.147,0.823v4.566h3.21V21.44z"/>
	<path fill="none" stroke="#2F8C98" stroke-width="0.467" stroke-miterlimit="10" d="M39.711,21.748c0-0.229,0.07-0.416,0.208-0.563
		c0.138-0.146,0.319-0.22,0.543-0.22c0.106,0,0.205,0.021,0.295,0.061c0.091,0.04,0.169,0.095,0.236,0.162
		c0.066,0.069,0.118,0.151,0.156,0.246c0.037,0.096,0.055,0.2,0.055,0.314H39.711z M40.431,24.806c-0.463,0-0.713-0.415-0.751-1.246
		h4.695l0.016-0.547c0-1.342-0.351-2.42-1.054-3.231c-0.702-0.808-1.644-1.211-2.826-1.211c-1.189,0-2.159,0.417-2.912,1.251
		c-0.752,0.828-1.128,1.899-1.128,3.214c0,1.294,0.349,2.314,1.048,3.061c0.705,0.737,1.675,1.105,2.912,1.105
		c1.043,0,1.888-0.239,2.535-0.718c0.647-0.479,1.082-1.192,1.306-2.141l-3.13-0.063C41.03,24.63,40.792,24.806,40.431,24.806z"/>
	<polygon fill="none" stroke="#2F8C98" stroke-width="0.467" stroke-miterlimit="10" points="50.044,17.827 51.952,17.827 
		51.952,14.874 44.878,14.874 44.878,17.827 46.714,17.827 46.714,27.201 50.044,27.201 	"/>
	<path fill="none" stroke="#2F8C98" stroke-width="0.467" stroke-miterlimit="10" d="M64.727,18.571h-3.202l-0.463,2.14
		c-0.09,0.42-0.178,0.882-0.263,1.385c-0.086,0.503-0.171,1.062-0.256,1.674c-0.043-0.452-0.088-0.881-0.136-1.282
		c-0.047-0.401-0.101-0.781-0.159-1.138l-0.463-2.778h-2.731l-0.567,2.515c-0.091,0.415-0.172,0.845-0.243,1.29
		c-0.072,0.444-0.13,0.909-0.172,1.394c-0.048-0.469-0.1-0.902-0.156-1.303c-0.056-0.398-0.113-0.773-0.171-1.125l-0.488-2.771
		h-3.145l2.147,8.631h3.138l0.99-5.174l0.655,5.174h3.17L64.727,18.571z"/>
	<path fill="none" stroke="#2F8C98" stroke-width="0.467" stroke-miterlimit="10" d="M69.74,24.283
		c-0.16,0.349-0.364,0.523-0.609,0.523c-0.261,0-0.47-0.178-0.625-0.53c-0.156-0.319-0.234-0.782-0.234-1.391
		c0-0.618,0.078-1.081,0.234-1.391c0.155-0.353,0.361-0.53,0.617-0.53c0.131,0,0.248,0.048,0.354,0.141
		c0.105,0.093,0.195,0.224,0.271,0.394c0.075,0.169,0.134,0.372,0.173,0.61c0.041,0.238,0.061,0.504,0.061,0.798
		C69.981,23.438,69.901,23.897,69.74,24.283z M72.098,19.758c-0.728-0.792-1.73-1.188-3.008-1.188c-1.213,0-2.186,0.398-2.919,1.196
		c-0.739,0.792-1.108,1.842-1.108,3.149c0,1.309,0.361,2.352,1.083,3.128c0.728,0.771,1.707,1.157,2.936,1.157
		c1.25,0,2.249-0.378,2.993-1.134c0.744-0.757,1.116-1.774,1.116-3.051C73.191,21.637,72.827,20.55,72.098,19.758z"/>
	<path fill="none" stroke="#2F8C98" stroke-width="0.467" stroke-miterlimit="10" d="M76.696,27.201c1.134,0,2.07-0.38,2.811-1.139
		c0.739-0.759,1.109-1.725,1.109-2.895c0-0.687-0.154-1.287-0.463-1.801c-0.303-0.513-0.807-1.013-1.509-1.5l-0.527-0.377
		c-0.452-0.312-0.678-0.629-0.678-0.947c0-0.194,0.085-0.361,0.255-0.5c0.165-0.144,0.375-0.216,0.631-0.216
		c0.335,0,0.676,0.121,1.021,0.364c0.347,0.242,0.656,0.573,0.927,0.994v-3.699c-0.804-0.409-1.603-0.613-2.396-0.613
		c-0.889,0-1.647,0.257-2.275,0.771c-0.229,0.18-0.432,0.387-0.607,0.62c-0.175,0.233-0.33,0.491-0.463,0.773
		c-0.266,0.606-0.398,1.188-0.398,1.741c0,0.324,0.037,0.632,0.111,0.924c0.074,0.293,0.191,0.577,0.352,0.852
		s0.367,0.542,0.623,0.802c0.254,0.259,0.563,0.52,0.926,0.781l0.543,0.408c0.395,0.303,0.591,0.613,0.591,0.933
		c0,0.22-0.091,0.403-0.272,0.55c-0.181,0.146-0.414,0.22-0.701,0.22c-0.762,0-1.469-0.447-2.125-1.342v3.793
		C75.075,27.033,75.914,27.201,76.696,27.201z"/>
	<path fill="none" stroke="#2F8C98" stroke-width="0.467" stroke-miterlimit="10" d="M90.213,27.201l-2.339-4.671l2.123-3.96h-3.465
		l-1.038,2.547c-0.09,0.229-0.178,0.454-0.26,0.675s-0.158,0.443-0.228,0.666v-8.727h-3.21v13.47h3.21v-4.336
		c0.134,0.506,0.229,0.834,0.288,0.983l1.237,3.353H90.213z"/>
	<path fill="none" stroke="#2F8C98" stroke-width="0.467" stroke-miterlimit="10" d="M93.877,14.563
		c-0.361-0.367-0.806-0.552-1.332-0.552c-0.5,0-0.94,0.182-1.317,0.543c-0.362,0.362-0.543,0.802-0.543,1.317
		c0,0.506,0.181,0.948,0.543,1.326c0.366,0.367,0.81,0.551,1.325,0.551c0.5,0,0.938-0.181,1.316-0.543
		c0.368-0.368,0.551-0.804,0.551-1.31C94.42,15.368,94.24,14.924,93.877,14.563z M94.15,18.571h-3.21v8.631h3.21V18.571z"/>
	
		<rect x="95.635" y="13.732" fill="none" stroke="#2F8C98" stroke-width="0.467" stroke-miterlimit="10" width="3.209" height="13.47"/>
	
		<rect x="100.322" y="13.732" fill="none" stroke="#2F8C98" stroke-width="0.467" stroke-miterlimit="10" width="3.21" height="13.47"/>
	<path fill="none" stroke="#2F8C98" stroke-width="0.467" stroke-miterlimit="10" d="M105.6,26.747
		c0.266,0.121,0.51,0.21,0.734,0.27c0.479,0.123,0.96,0.185,1.445,0.185c1.029,0,1.873-0.262,2.533-0.787
		c0.658-0.523,0.987-1.2,0.987-2.026c0-0.574-0.155-1.024-0.464-1.352c-0.292-0.326-0.845-0.635-1.658-0.927
		c-0.65-0.238-0.976-0.493-0.976-0.766c0-0.252,0.168-0.379,0.503-0.379c0.341,0,0.779,0.253,1.316,0.76l1.095-2.417
		c-0.884-0.491-1.74-0.737-2.571-0.737c-1.016,0-1.861,0.264-2.542,0.791c-0.674,0.526-1.011,1.189-1.011,1.988
		c0,1.09,0.753,1.885,2.26,2.387c0.559,0.19,0.838,0.407,0.838,0.647c0,0.281-0.207,0.423-0.623,0.423
		c-0.494,0-1.029-0.302-1.605-0.902l-1.164,2.405C105.033,26.481,105.333,26.626,105.6,26.747z"/>
</g>
<text transform="matrix(1 0 0 1 111.564 29.0071)"><tspan x="0" y="0" fill="#FFFFFF" font-family="'Futura-CondensedExtraBold'" font-size="23.0409" letter-spacing="1">{</tspan><tspan x="10.704" y="0" fill="#FFFFFF" font-family="'Futura-CondensedExtraBold'" font-size="23.0409">}</tspan></text>
</svg>
