<?xml version="1.0" encoding="utf-8"?>
<!-- Generator: Adobe Illustrator 14.0.0, SVG Export Plug-In . SVG Version: 6.00 Build 43363)  -->
<!DOCTYPE svg PUBLIC "-//W3C//DTD SVG 1.1//EN" "http://www.w3.org/Graphics/SVG/1.1/DTD/svg11.dtd">
<svg version="1.1" id="Calque_1" xmlns="http://www.w3.org/2000/svg" xmlns:xlink="http://www.w3.org/1999/xlink" x="0px" y="0px"
	 width="739.479px" height="189.734px" viewBox="0 0 739.479 189.734" enable-background="new 0 0 739.479 189.734"
	 xml:space="preserve">
<g enable-background="new    ">
	<path fill="#FFFFFF" d="M39.24,113.712c0,4.559-1.666,8.462-4.997,11.71c-3.236,3.249-7.195,4.873-11.877,4.873
		c-4.635,0-8.666-1.648-12.094-4.945c-3.331-3.345-4.997-7.395-4.997-12.146c0-4.654,1.641-8.63,4.924-11.928
		c3.284-3.297,7.242-4.945,11.877-4.945c4.778,0,8.834,1.697,12.167,5.092C37.575,104.768,39.24,108.864,39.24,113.712z"/>
</g>
<g enable-background="new    ">
	<path fill="#FBD200" d="M99.887,103.421c0,8.203-2.389,14.733-7.167,19.59s-11.183,7.284-19.216,7.284
		c-7.894,0-14.177-2.477-18.851-7.433c-4.64-4.987-6.959-11.682-6.959-20.081c0-8.4,2.371-15.144,7.114-20.23
		c4.709-5.119,10.958-7.678,18.748-7.678c8.205,0,14.645,2.543,19.319,7.629C97.55,87.588,99.887,94.561,99.887,103.421z
		 M79.277,102.726c0-1.889-0.129-3.598-0.387-5.125c-0.258-1.528-0.628-2.835-1.111-3.922c-0.484-1.086-1.064-1.929-1.74-2.527
		c-0.677-0.599-1.434-0.897-2.272-0.897c-1.644,0-2.965,1.134-3.964,3.401c-0.999,1.983-1.498,4.96-1.498,8.929
		c0,3.906,0.499,6.882,1.498,8.929c0.999,2.268,2.336,3.401,4.012,3.401c1.579,0,2.884-1.117,3.915-3.354
		C78.76,109.072,79.277,106.127,79.277,102.726z"/>
	<path fill="#FBD200" d="M158.129,130.295h-20.61v-29.326c0-2.529-0.316-4.289-0.949-5.281c-0.632-0.99-1.732-1.486-3.301-1.486
		c-3.661,0-5.491,2.717-5.491,8.152v27.941h-20.61V74.873h20.61c-0.035,1.367-0.069,2.632-0.103,3.793
		c-0.035,1.163-0.086,2.239-0.154,3.23l-0.205,3.537c3.545-7.04,8.757-10.561,15.637-10.561c4.783,0,8.498,1.623,11.147,4.869
		c2.686,3.246,4.029,7.765,4.029,13.555V130.295z"/>
	<path fill="#FBD200" d="M193.813,111.531l20.098,0.41c-1.436,6.087-4.23,10.667-8.382,13.742c-4.153,3.075-9.58,4.612-16.278,4.612
		c-7.942,0-14.174-2.365-18.697-7.095c-4.489-4.794-6.733-11.347-6.733-19.656c0-8.44,2.415-15.32,7.248-20.642
		c4.831-5.353,11.062-8.029,18.695-8.029c7.588,0,13.638,2.592,18.149,7.774c4.512,5.217,6.768,12.135,6.768,20.753l-0.103,3.516
		H184.43c0.239,5.332,1.846,7.998,4.819,7.998C191.573,114.914,193.095,113.786,193.813,111.531z M194.223,95.278
		c0-0.732-0.12-1.404-0.359-2.016c-0.24-0.611-0.573-1.137-1-1.577c-0.428-0.441-0.932-0.789-1.512-1.046
		c-0.582-0.256-1.214-0.385-1.897-0.385c-1.436,0-2.598,0.471-3.486,1.412c-0.889,0.941-1.333,2.146-1.333,3.611H194.223z"/>
</g>
<g enable-background="new    ">
	<path fill="#FBD200" d="M250.978,130.295h-21.379v-60.19h-11.792v-18.97h45.425v18.97h-12.253V130.295z"/>
</g>
<g enable-background="new    ">
	<path fill="#FBD200" d="M329.138,130.295h-20.354l-4.204-33.223l-6.357,33.223h-20.149l-13.792-55.422h20.2l3.127,17.79
		c0.375,2.256,0.744,4.665,1.102,7.229c0.359,2.562,0.692,5.35,1,8.356c0.273-3.109,0.641-6.092,1.103-8.946
		c0.461-2.854,0.982-5.614,1.563-8.28l3.64-16.149h17.534l2.974,17.842c0.375,2.29,0.718,4.726,1.025,7.306
		c0.308,2.581,0.598,5.324,0.872,8.229c0.546-3.93,1.093-7.511,1.641-10.741c0.546-3.229,1.11-6.194,1.692-8.895l2.974-13.74h20.559
		L329.138,130.295z"/>
</g>
<g enable-background="new    ">
	<path fill="#FBD200" d="M399.714,103.421c0,8.203-2.389,14.733-7.166,19.59s-11.184,7.284-19.216,7.284
		c-7.894,0-14.177-2.477-18.851-7.433c-4.64-4.987-6.959-11.682-6.959-20.081c0-8.4,2.371-15.144,7.114-20.23
		c4.709-5.119,10.958-7.678,18.748-7.678c8.205,0,14.645,2.543,19.319,7.629C397.377,87.588,399.714,94.561,399.714,103.421z
		 M379.104,102.726c0-1.889-0.129-3.598-0.387-5.125c-0.259-1.528-0.629-2.835-1.111-3.922c-0.484-1.086-1.064-1.929-1.74-2.527
		c-0.678-0.599-1.434-0.897-2.271-0.897c-1.645,0-2.965,1.134-3.964,3.401c-0.999,1.983-1.498,4.96-1.498,8.929
		c0,3.906,0.499,6.882,1.498,8.929c1,2.268,2.335,3.401,4.011,3.401c1.58,0,2.885-1.117,3.916-3.354
		C378.588,109.072,379.104,106.127,379.104,102.726z"/>
	<path fill="#FBD200" d="M429.143,130.295h-21.38v-79.16h37.786v18.97h-16.406v10.101h15.277v18.969h-15.277V130.295z"/>
</g>
<g enable-background="new    ">
	<path fill="#FBD200" d="M473.697,130.295h-20.61V74.873h20.61l-1.077,10.817c3.11-8.101,8.255-12.151,15.433-12.151v23.072
		c-2.256-1.23-4.171-1.846-5.742-1.846c-2.769,0-4.896,0.999-6.384,2.999c-1.486,1.999-2.229,4.914-2.229,8.741V130.295z"/>
</g>
<g enable-background="new    ">
	<path fill="#FBD200" d="M523.087,111.531l20.098,0.41c-1.436,6.087-4.23,10.667-8.383,13.742c-4.153,3.075-9.58,4.612-16.278,4.612
		c-7.942,0-14.174-2.365-18.696-7.095c-4.49-4.794-6.733-11.347-6.733-19.656c0-8.44,2.415-15.32,7.247-20.642
		c4.831-5.353,11.062-8.029,18.695-8.029c7.588,0,13.638,2.592,18.149,7.774c4.512,5.217,6.768,12.135,6.768,20.753l-0.103,3.516
		h-30.146c0.238,5.332,1.846,7.998,4.819,7.998C520.846,114.914,522.368,113.786,523.087,111.531z M523.497,95.278
		c0-0.732-0.121-1.404-0.359-2.016c-0.24-0.611-0.572-1.137-1-1.577c-0.428-0.441-0.932-0.789-1.512-1.046
		c-0.582-0.256-1.215-0.385-1.897-0.385c-1.436,0-2.599,0.471-3.486,1.412c-0.89,0.941-1.333,2.146-1.333,3.611H523.497z"/>
	<path fill="#FBD200" d="M580.252,111.531l20.098,0.41c-1.436,6.087-4.229,10.667-8.382,13.742
		c-4.154,3.075-9.58,4.612-16.279,4.612c-7.941,0-14.174-2.365-18.696-7.095c-4.489-4.794-6.733-11.347-6.733-19.656
		c0-8.44,2.416-15.32,7.248-20.642c4.83-5.353,11.062-8.029,18.695-8.029c7.588,0,13.637,2.592,18.148,7.774
		c4.512,5.217,6.768,12.135,6.768,20.753l-0.102,3.516H570.87c0.238,5.332,1.846,7.998,4.818,7.998
		C578.012,114.914,579.534,113.786,580.252,111.531z M580.662,95.278c0-0.732-0.12-1.404-0.358-2.016
		c-0.24-0.611-0.573-1.137-1-1.577c-0.428-0.441-0.932-0.789-1.513-1.046c-0.581-0.256-1.214-0.385-1.897-0.385
		c-1.436,0-2.598,0.471-3.486,1.412s-1.332,2.146-1.332,3.611H580.662z"/>
</g>
<g enable-background="new    ">
	<path fill="#FFFFFF" d="M641.096,98.013c1.83,1.246,3.408,2.576,4.733,3.99c1.325,1.413,2.372,2.936,3.144,4.563
		c1.492,2.925,2.24,7.31,2.24,13.156v24.729c0,5.463,0.578,8.77,1.734,9.92c1.203,1.197,4.576,1.797,10.117,1.797l3.035-0.071
		l1.734-0.072v20.128l-13.803,0.575c-9.332-0.145-15.93-2.197-19.792-6.156c-3.909-4.009-5.862-10.575-5.862-19.701l-1.373-29.987
		c0-4.973-0.627-8.521-1.879-10.646c-1.205-1.979-3.639-3.38-7.299-4.201V87.131c3.469-0.724,5.854-2.028,7.154-3.912
		c1.348-1.786,2.023-4.852,2.023-9.197V43.744c0-9.126,2.188-15.645,6.567-19.556c4.327-3.959,11.604-5.939,21.833-5.939
		l13.803,0.381v21.299h-5.059c-5.348-0.048-8.625,0.527-9.828,1.726c-1.156,1.15-1.734,4.433-1.734,9.849v24.871
		c-0.916,5.416-2.072,9.777-3.469,13.084C647.719,92.43,645.046,95.281,641.096,98.013z"/>
</g>
<g enable-background="new    ">
	<path fill="#FFFFFF" d="M707.682,97.404c-1.832-1.237-3.408-2.56-4.733-3.964c-1.325-1.405-2.374-2.917-3.144-4.536
		c-1.445-3.048-2.168-7.405-2.168-13.071V51.189c0-5.429-0.604-8.715-1.807-9.857c-1.156-1.19-4.506-1.786-10.045-1.786
		l-3.107,0.072l-1.662,0.071V19.688l13.803-0.571c10.178,0.145,17.43,2.185,21.756,6.123c4.43,3.986,6.645,10.518,6.645,19.594
		v29.894c0,4.947,0.625,8.477,1.879,10.59c1.203,1.969,3.637,3.361,7.299,4.178v18.801c-3.422,0.721-5.83,2.018-7.227,3.89
		c-1.301,1.873-1.951,4.923-1.951,9.148v30.038c0,9.076-2.215,15.559-6.645,19.45c-4.326,3.938-11.603,5.906-21.828,5.906
		l-13.73-0.381v-21.299h5.059c5.348,0.096,8.6-0.476,9.756-1.714c1.203-1.143,1.807-4.405,1.807-9.786v-24.645
		c0-6.047,0.674-10.38,2.023-12.999C701.057,102.952,703.731,100.118,707.682,97.404z"/>
</g>
</svg>
