<?xml version="1.0" encoding="utf-8"?>
<!-- Generator: Adobe Illustrator 14.0.0, SVG Export Plug-In . SVG Version: 6.00 Build 43363)  -->
<!DOCTYPE svg PUBLIC "-//W3C//DTD SVG 1.1//EN" "http://www.w3.org/Graphics/SVG/1.1/DTD/svg11.dtd">
<svg version="1.1" id="Calque_1" xmlns="http://www.w3.org/2000/svg" xmlns:xlink="http://www.w3.org/1999/xlink" x="0px" y="0px"
	 width="141.732px" height="42.52px" viewBox="0 0 141.732 42.52" enable-background="new 0 0 141.732 42.52" xml:space="preserve">
<text transform="matrix(1 0 0 1 6.2896 27.2336)" fill="#FFFFFF" font-family="'Futura-CondensedExtraBold'" font-size="23.0409">.</text>
<g>
	<path fill="none" stroke="#FBD200" stroke-width="0.467" stroke-miterlimit="1" d="M18.392,24.316
		c-0.16,0.349-0.364,0.523-0.609,0.523c-0.261,0-0.47-0.178-0.625-0.53c-0.156-0.319-0.234-0.782-0.234-1.391
		c0-0.618,0.078-1.081,0.234-1.391c0.155-0.353,0.361-0.53,0.617-0.53c0.131,0,0.248,0.048,0.354,0.141
		c0.105,0.093,0.195,0.224,0.271,0.394c0.075,0.169,0.133,0.372,0.173,0.61c0.04,0.238,0.06,0.504,0.06,0.798
		C18.633,23.47,18.553,23.929,18.392,24.316z M20.751,19.79c-0.728-0.792-1.731-1.188-3.009-1.188c-1.213,0-2.186,0.398-2.919,1.196
		c-0.739,0.792-1.108,1.842-1.108,3.149c0,1.309,0.361,2.352,1.083,3.127c0.728,0.772,1.707,1.158,2.936,1.158
		c1.251,0,2.249-0.378,2.993-1.134c0.744-0.757,1.116-1.774,1.116-3.051C21.843,21.669,21.479,20.582,20.751,19.79z"/>
	<path fill="none" stroke="#FBD200" stroke-width="0.467" stroke-miterlimit="1" d="M30.913,21.472c0-0.902-0.209-1.605-0.627-2.111
		c-0.413-0.505-0.992-0.758-1.736-0.758c-1.072,0-1.884,0.548-2.436,1.646l0.032-0.552c0.011-0.154,0.019-0.321,0.024-0.503
		c0.005-0.181,0.011-0.378,0.016-0.591h-3.21v8.631h3.21v-4.352c0-0.847,0.285-1.27,0.855-1.27c0.245,0,0.416,0.077,0.515,0.231
		c0.098,0.155,0.147,0.429,0.147,0.823v4.566h3.21V21.472z"/>
	<path fill="none" stroke="#FBD200" stroke-width="0.467" stroke-miterlimit="1" d="M35.041,21.781c0-0.229,0.07-0.416,0.208-0.563
		c0.138-0.146,0.319-0.22,0.543-0.22c0.106,0,0.205,0.021,0.295,0.061c0.091,0.04,0.169,0.095,0.236,0.162
		c0.066,0.069,0.118,0.151,0.156,0.246c0.037,0.096,0.055,0.2,0.055,0.314H35.041z M35.76,24.838c-0.463,0-0.713-0.415-0.751-1.246
		h4.695l0.016-0.547c0-1.342-0.351-2.42-1.054-3.231c-0.702-0.808-1.644-1.211-2.826-1.211c-1.189,0-2.159,0.417-2.912,1.251
		c-0.752,0.828-1.128,1.899-1.128,3.214c0,1.294,0.349,2.314,1.048,3.061c0.705,0.737,1.675,1.105,2.912,1.105
		c1.043,0,1.888-0.239,2.535-0.718c0.647-0.479,1.082-1.192,1.305-2.141l-3.129-0.063C36.359,24.662,36.122,24.838,35.76,24.838z"/>
	<polygon fill="none" stroke="#FBD200" stroke-width="0.467" stroke-miterlimit="1" points="45.373,17.86 47.281,17.86 
		47.281,14.906 40.207,14.906 40.207,17.86 42.044,17.86 42.044,27.234 45.373,27.234 	"/>
	<path fill="none" stroke="#FBD200" stroke-width="0.467" stroke-miterlimit="1" d="M60.056,18.603h-3.201l-0.464,2.14
		c-0.09,0.42-0.178,0.882-0.263,1.385c-0.086,0.503-0.171,1.062-0.256,1.674c-0.043-0.453-0.088-0.881-0.136-1.282
		c-0.047-0.401-0.101-0.781-0.159-1.138l-0.463-2.778h-2.731l-0.567,2.515c-0.091,0.415-0.172,0.845-0.243,1.29
		c-0.072,0.444-0.13,0.909-0.172,1.394c-0.048-0.469-0.1-0.902-0.156-1.303c-0.056-0.398-0.113-0.773-0.171-1.125l-0.488-2.771
		h-3.145l2.147,8.631h3.138l0.99-5.174l0.655,5.174h3.17L60.056,18.603z"/>
	<path fill="none" stroke="#FBD200" stroke-width="0.467" stroke-miterlimit="1" d="M65.069,24.316
		c-0.16,0.349-0.364,0.523-0.608,0.523c-0.262,0-0.471-0.178-0.625-0.53c-0.156-0.319-0.234-0.782-0.234-1.391
		c0-0.618,0.078-1.081,0.234-1.391c0.154-0.353,0.36-0.53,0.616-0.53c0.132,0,0.248,0.048,0.354,0.141
		c0.105,0.093,0.195,0.224,0.271,0.394c0.075,0.169,0.134,0.372,0.173,0.61c0.041,0.238,0.061,0.504,0.061,0.798
		C65.31,23.47,65.23,23.929,65.069,24.316z M67.427,19.79c-0.728-0.792-1.73-1.188-3.008-1.188c-1.213,0-2.187,0.398-2.92,1.196
		c-0.738,0.792-1.107,1.842-1.107,3.149c0,1.309,0.361,2.352,1.083,3.127c0.728,0.772,1.707,1.158,2.937,1.158
		c1.25,0,2.248-0.378,2.992-1.134c0.744-0.757,1.116-1.774,1.116-3.051C68.52,21.669,68.156,20.582,67.427,19.79z"/>
	<path fill="none" stroke="#FBD200" stroke-width="0.467" stroke-miterlimit="1" d="M74.971,24.28c-0.335,0-0.634-0.071-0.894-0.214
		c-0.262-0.143-0.481-0.348-0.66-0.617c-0.178-0.269-0.314-0.599-0.41-0.99c-0.096-0.39-0.145-0.833-0.145-1.329
		c0-1.023,0.192-1.825,0.575-2.406c0.384-0.575,0.915-0.862,1.597-0.862c0.521,0,1.031,0.247,1.525,0.742v-3.406
		c-0.559-0.194-1.107-0.291-1.645-0.291c-1.655,0-2.979,0.566-3.969,1.696c-0.99,1.136-1.484,2.642-1.484,4.518
		c0,2.005,0.527,3.555,1.58,4.649c0.943,0.977,2.103,1.465,3.482,1.465c0.584,0,1.247-0.137,1.987-0.411l0.192-3.341
		C76.123,24.014,75.546,24.28,74.971,24.28z"/>
	<path fill="none" stroke="#FBD200" stroke-width="0.467" stroke-miterlimit="1" d="M82.316,24.316
		c-0.16,0.349-0.365,0.523-0.609,0.523c-0.262,0-0.471-0.178-0.625-0.53c-0.156-0.319-0.234-0.782-0.234-1.391
		c0-0.618,0.078-1.081,0.234-1.391c0.154-0.353,0.361-0.53,0.617-0.53c0.131,0,0.248,0.048,0.354,0.141s0.195,0.224,0.271,0.394
		c0.074,0.169,0.133,0.372,0.172,0.61c0.041,0.238,0.061,0.504,0.061,0.798C82.556,23.47,82.476,23.929,82.316,24.316z
		 M84.674,19.79c-0.728-0.792-1.731-1.188-3.009-1.188c-1.213,0-2.186,0.398-2.92,1.196c-0.738,0.792-1.107,1.842-1.107,3.149
		c0,1.309,0.361,2.352,1.083,3.127c0.728,0.772,1.707,1.158,2.937,1.158c1.25,0,2.248-0.378,2.992-1.134
		c0.744-0.757,1.116-1.774,1.116-3.051C85.766,21.669,85.402,20.582,84.674,19.79z"/>
	<path fill="none" stroke="#FBD200" stroke-width="0.467" stroke-miterlimit="1" d="M99.004,21.433c0-0.902-0.173-1.577-0.521-2.025
		c-0.42-0.537-1.008-0.805-1.76-0.805c-0.996,0-1.711,0.596-2.143,1.788c-0.496-1.192-1.26-1.788-2.288-1.788
		c-0.917,0-1.661,0.479-2.231,1.437c0.031-0.309,0.047-0.639,0.047-0.989v-0.447H86.9v8.631h3.209v-4.296
		c0-0.5,0.055-0.85,0.164-1.05c0.109-0.199,0.295-0.299,0.555-0.299c0.363,0,0.543,0.293,0.543,0.878v4.767h3.211v-4.367
		c0-0.895,0.242-1.342,0.726-1.342c0.325,0,0.487,0.274,0.487,0.823v4.886h3.21V21.433z"/>
	<polygon fill="none" stroke="#FBD200" stroke-width="0.467" stroke-miterlimit="1" points="101.847,14.906 100.337,20.838 
		102.964,20.838 105.121,14.906 	"/>
	<path fill="none" stroke="#FBD200" stroke-width="0.467" stroke-miterlimit="1" d="M114.414,21.472
		c0-0.902-0.209-1.605-0.627-2.111c-0.412-0.505-0.991-0.758-1.735-0.758c-1.071,0-1.884,0.548-2.437,1.646l0.033-0.552
		c0.01-0.154,0.019-0.321,0.023-0.503c0.005-0.181,0.011-0.378,0.016-0.591h-3.21v8.631h3.21v-4.352c0-0.847,0.285-1.27,0.855-1.27
		c0.244,0,0.416,0.077,0.515,0.231c0.099,0.155,0.147,0.429,0.147,0.823v4.566h3.209V21.472z"/>
</g>
<text transform="matrix(1 0 0 1 114.8052 29.0393)"><tspan x="0" y="0" fill="#FFFFFF" font-family="'Futura-CondensedExtraBold'" font-size="23.0409" letter-spacing="1">{</tspan><tspan x="10.704" y="0" fill="#FFFFFF" font-family="'Futura-CondensedExtraBold'" font-size="23.0409">}</tspan></text>
</svg>
