<?xml version="1.0" encoding="utf-8"?>
<!-- Generator: Adobe Illustrator 14.0.0, SVG Export Plug-In . SVG Version: 6.00 Build 43363)  -->
<!DOCTYPE svg PUBLIC "-//W3C//DTD SVG 1.1//EN" "http://www.w3.org/Graphics/SVG/1.1/DTD/svg11.dtd">
<svg version="1.1" id="Calque_1" xmlns="http://www.w3.org/2000/svg" xmlns:xlink="http://www.w3.org/1999/xlink" x="0px" y="0px"
	 width="119.286px" height="107.291px" viewBox="0 0 119.286 107.291" enable-background="new 0 0 119.286 107.291"
	 xml:space="preserve">
<g>
	<path fill="none" stroke="#FFFFFF" stroke-miterlimit="2.279" d="M15.395,46.287c-1.656-1.688-3.671-2.53-6.046-2.53
		c-2.304,0-4.271,0.82-5.902,2.458C1.814,47.853,1,49.828,1,52.142c0,2.362,0.827,4.373,2.481,6.036
		c1.704,1.638,3.707,2.457,6.011,2.457c2.326,0,4.294-0.808,5.902-2.422c1.655-1.612,2.483-3.553,2.483-5.818
		C17.878,49.986,17.05,47.95,15.395,46.287z"/>
	<path fill="none" stroke="#FAD100" stroke-miterlimit="2.279" d="M40.25,40.343c0.693-1.644,1.269-3.812,1.724-6.502V21.482
		c0-2.691,0.288-4.322,0.862-4.895c0.598-0.594,2.227-0.88,4.884-0.857h2.514V5.146l-6.857-0.189c-5.083,0-8.7,0.984-10.851,2.952
		c-2.176,1.944-3.264,5.183-3.264,9.718v15.045c0,2.16-0.335,3.683-1.005,4.57c-0.646,0.936-1.831,1.584-3.555,1.943v9.394
		c1.818,0.408,3.027,1.105,3.627,2.089c0.622,1.056,0.933,2.818,0.933,5.29l0.683,14.9c0,4.535,0.972,7.799,2.913,9.791
		c1.919,1.967,5.198,2.986,9.835,3.06l6.858-0.286V73.421l-0.862,0.035l-1.508,0.036c-2.753,0-4.429-0.298-5.027-0.894
		c-0.574-0.572-0.861-2.216-0.861-4.93V55.381c0-2.905-0.372-5.083-1.113-6.536c-0.384-0.811-0.905-1.566-1.562-2.269
		c-0.658-0.703-1.442-1.363-2.353-1.983C38.226,43.235,39.555,41.818,40.25,40.343z"/>
	<path fill="none" stroke="#FAD100" stroke-miterlimit="2.279" d="M91.163,48.515c-0.671,1.302-1.006,3.455-1.006,6.46v12.246
		c0,2.674-0.3,4.295-0.897,4.861c-0.575,0.616-2.19,0.898-4.848,0.854h-2.515v10.584l6.822,0.188c5.082,0,8.698-0.979,10.848-2.936
		c2.2-1.934,3.302-5.153,3.302-9.664V56.183c0-2.101,0.322-3.616,0.97-4.547c0.694-0.931,1.891-1.575,3.591-1.934v-9.343
		c-1.82-0.405-3.028-1.097-3.627-2.076c-0.623-1.05-0.934-2.803-0.934-5.262V18.167c0-4.51-1.102-7.756-3.302-9.737
		c-2.149-1.957-5.754-2.971-10.811-3.042l-6.859,0.284v9.938l0.826-0.036l1.544-0.036c2.752,0,4.417,0.297,4.992,0.888
		c0.598,0.567,0.897,2.2,0.897,4.899v12.246c0,2.814,0.359,4.98,1.076,6.494c0.384,0.805,0.904,1.557,1.562,2.254
		c0.659,0.698,1.441,1.355,2.353,1.971C93.186,45.64,91.857,47.047,91.163,48.515z"/>
</g>
<g>
	<g>
		<path fill="none" stroke="#FFFFFF" stroke-width="1.547" d="M64.951,72.735c-6.691-2.816-16.121-0.532-17.654-2.195
			c0,0-0.508-5.303,2.287-7.382c2.796-2.077,6.085-3.194,6.989-6.179c0.902-2.982,2.032-4.383,0.127-7.183
			c-1.906-2.8-5.507-8.145-6.565-12.472C49.075,33,48.313,27.02,51.617,26.128l-0.636-3.224l2.033,2.715v-4.835l1.215,3.308
			c0.692-0.508,5.901-5.288,5.901-5.288v1.471l5.845-3.181l-0.508,1.286c0,0,4.292-0.777,5.704-1.286
			c1.412-0.509,4.715-2.107,4.715-2.107l-2.16,3.393l3.812-1.541l-0.511,1.272l2.33-0.891l-0.28,1.583l0.423,2.107
			c0,0,1.214,0.127,1.722-0.509l0.508-0.636c0,0-1.65,4.453-3.049,4.962l2.16-0.382l-2.16,2.164c0,0,3.36,3.874,4.065,8.554v1.371
			l-1.144,1.528l0.89,0.255l-0.763,0.254l2.005,3.563c0,0,1.935,1.626,1.3,2.785c-0.637,1.159-2.147,1.416-2.147,1.416l0.707,1.978
			c0,0-0.025,0.467-0.229,0.822c-0.104,0.185-0.257,0.336-0.479,0.381c-0.648,0.125,0.875,1.06-0.395,1.907
			c0,0-0.706,1.271,0.127,2.545c0.833,1.271-1.821,2.15-3.263,2.419c-1.238,0.229-3.948,0.785-5.088,0.668
			c-0.185-0.021-0.329-0.058-0.418-0.117c-0.636-0.424,0,1.866-0.381,3.267c-0.381,1.399-2.415,4.199-1.144,5.727
			c1.271,1.527,3.558,1.514,3.685,3.875c0.128,2.361,0.763,5.543,0.763,5.543S72.093,75.925,64.951,72.735z"/>
	</g>
</g>
<g enable-background="new    ">
	<path fill="#FFFFFF" d="M55.133,82.005h-1.866l-0.852-2.274c-0.008-0.039-0.022-0.09-0.043-0.153
		c-0.021-0.063-0.046-0.14-0.076-0.228l0.012,0.422v2.233h-1.716v-6.386h1.766c0.777,0,1.359,0.152,1.745,0.459
		c0.491,0.392,0.736,0.948,0.736,1.671c0,0.771-0.33,1.306-0.988,1.601L55.133,82.005z M52.316,78.485h0.116
		c0.199,0,0.364-0.076,0.497-0.228s0.198-0.345,0.198-0.579c0-0.478-0.25-0.716-0.749-0.716h-0.062V78.485z"/>
</g>
<g enable-background="new    ">
	<path fill="#FFFFFF" d="M59.582,82.005h-1.656c0.014-0.148,0.025-0.291,0.033-0.426c0.008-0.136,0.017-0.244,0.025-0.327
		c-0.286,0.502-0.669,0.753-1.149,0.753c-0.417,0-0.749-0.201-0.993-0.604c-0.242-0.399-0.363-0.953-0.363-1.66
		c0-0.683,0.125-1.22,0.376-1.611c0.251-0.397,0.593-0.596,1.026-0.596c0.444,0,0.802,0.235,1.075,0.707
		c-0.005-0.056-0.01-0.104-0.012-0.145c-0.003-0.042-0.006-0.076-0.008-0.104l-0.017-0.261l-0.013-0.198h1.675V82.005z
		 M57.92,79.722c0-0.153-0.006-0.284-0.019-0.392c-0.012-0.107-0.033-0.194-0.061-0.263c-0.028-0.067-0.064-0.116-0.108-0.146
		c-0.045-0.029-0.099-0.044-0.163-0.044c-0.285,0-0.427,0.347-0.427,1.039c0,0.496,0.127,0.744,0.381,0.744
		C57.787,80.661,57.92,80.348,57.92,79.722z"/>
	<path fill="#FFFFFF" d="M62.027,83.998h-1.663v-6.464h1.658l-0.032,0.633c0.069-0.133,0.14-0.245,0.211-0.338
		c0.071-0.092,0.149-0.164,0.231-0.217c0.082-0.052,0.172-0.078,0.267-0.078s0.2,0,0.316,0c0.431,0,0.78,0.206,1.051,0.619
		c0.268,0.407,0.401,0.949,0.401,1.624c0,0.686-0.129,1.229-0.385,1.628c-0.251,0.399-0.598,0.6-1.038,0.6
		c-0.403,0-0.755-0.233-1.055-0.699c0.014,0.141,0.022,0.263,0.024,0.364c0.008,0.104,0.013,0.23,0.013,0.378V83.998z M62.8,79.744
		c0-0.274-0.034-0.487-0.102-0.639s-0.163-0.228-0.287-0.228c-0.257,0-0.385,0.294-0.385,0.882c0,0.601,0.124,0.901,0.372,0.901
		c0.124,0,0.223-0.081,0.294-0.241S62.8,80.034,62.8,79.744z"/>
	<path fill="#FFFFFF" d="M69.045,82.005h-1.662v-2.366c0-0.204-0.021-0.346-0.061-0.426s-0.109-0.12-0.209-0.12
		c-0.231,0-0.348,0.22-0.348,0.658v2.254h-1.662v-6.978h1.662v2.585c0,0.135,0,0.248-0.002,0.339
		c-0.001,0.092-0.003,0.16-0.006,0.207s-0.007,0.097-0.012,0.149c-0.006,0.052-0.012,0.11-0.018,0.174
		c0.268-0.632,0.66-0.947,1.178-0.947c0.358,0,0.637,0.131,0.836,0.393c0.202,0.262,0.303,0.626,0.303,1.094V82.005z"/>
	<path fill="#FFFFFF" d="M73.778,82.005h-1.656c0.014-0.148,0.024-0.291,0.033-0.426c0.008-0.136,0.016-0.244,0.024-0.327
		c-0.286,0.502-0.669,0.753-1.149,0.753c-0.418,0-0.748-0.201-0.992-0.604c-0.242-0.399-0.363-0.953-0.363-1.66
		c0-0.683,0.125-1.22,0.377-1.611c0.25-0.397,0.592-0.596,1.025-0.596c0.443,0,0.803,0.235,1.075,0.707
		c-0.005-0.056-0.01-0.104-0.013-0.145c-0.002-0.042-0.006-0.076-0.008-0.104l-0.017-0.261l-0.013-0.198h1.676V82.005z
		 M72.115,79.722c0-0.153-0.007-0.284-0.019-0.392c-0.013-0.107-0.033-0.194-0.061-0.263c-0.028-0.067-0.064-0.116-0.109-0.146
		s-0.099-0.044-0.162-0.044c-0.285,0-0.428,0.347-0.428,1.039c0,0.496,0.127,0.744,0.381,0.744
		C71.983,80.661,72.115,80.348,72.115,79.722z"/>
	<path fill="#FFFFFF" d="M76.85,80.491l1.621,0.033c-0.115,0.491-0.341,0.86-0.676,1.108s-0.773,0.372-1.312,0.372
		c-0.642,0-1.145-0.19-1.509-0.572c-0.362-0.387-0.544-0.915-0.544-1.586c0-0.681,0.195-1.235,0.586-1.665
		c0.389-0.432,0.892-0.647,1.508-0.647c0.611,0,1.1,0.209,1.464,0.627c0.364,0.421,0.546,0.979,0.546,1.674l-0.008,0.284h-2.433
		c0.02,0.43,0.149,0.645,0.39,0.645C76.67,80.764,76.792,80.673,76.85,80.491z M76.267,76.301c0,0.178-0.069,0.334-0.206,0.469
		c-0.139,0.129-0.3,0.193-0.484,0.193c-0.199,0-0.365-0.065-0.5-0.197c-0.136-0.132-0.203-0.292-0.203-0.48
		c0-0.184,0.067-0.339,0.203-0.469c0.135-0.132,0.297-0.197,0.487-0.197c0.196,0,0.361,0.065,0.497,0.197
		C76.198,75.951,76.267,76.112,76.267,76.301z M76.883,79.18c0-0.059-0.01-0.113-0.029-0.162c-0.02-0.05-0.046-0.092-0.08-0.128
		c-0.035-0.035-0.075-0.063-0.122-0.084s-0.099-0.031-0.153-0.031c-0.115,0-0.209,0.038-0.281,0.114
		c-0.071,0.076-0.107,0.173-0.107,0.291H76.883z M78.104,76.301c0,0.181-0.068,0.337-0.203,0.469
		c-0.138,0.129-0.301,0.193-0.488,0.193c-0.195,0-0.361-0.065-0.496-0.197s-0.203-0.292-0.203-0.48c0-0.184,0.068-0.339,0.203-0.469
		c0.135-0.132,0.298-0.197,0.488-0.197c0.195,0,0.361,0.065,0.496,0.197S78.104,76.11,78.104,76.301z"/>
	<path fill="#FFFFFF" d="M80.833,82.005H79.17v-6.978h1.663V82.005z"/>
</g>
<g enable-background="new    ">
	<path fill="#FBD200" d="M56.674,92.169h-1.725v-4.855h-0.951v-1.53h3.665v1.53h-0.989V92.169z"/>
</g>
<g enable-background="new    ">
	<path fill="#FBD200" d="M62.837,88.998c0,0.939-0.222,1.704-0.666,2.292c-0.44,0.586-1.017,0.879-1.725,0.879
		c-0.629,0-1.168-0.225-1.617-0.675c-0.565-0.57-0.848-1.425-0.848-2.564c0-1.091,0.295-1.926,0.885-2.504
		c0.438-0.429,0.958-0.643,1.56-0.643c0.736,0,1.322,0.29,1.758,0.87C62.619,87.234,62.837,88.016,62.837,88.998z M61.046,89.013
		c0-1.133-0.204-1.699-0.612-1.699c-0.203,0-0.367,0.148-0.488,0.446c-0.119,0.275-0.178,0.681-0.178,1.216
		c0,0.527,0.056,0.937,0.167,1.228c0.112,0.29,0.267,0.436,0.465,0.436c0.205,0,0.361-0.144,0.472-0.43
		C60.989,89.922,61.046,89.523,61.046,89.013z"/>
	<path fill="#FBD200" d="M70.088,92.169h-1.746l-0.07-2.912l-0.056-1.162c-0.021,0.224-0.043,0.437-0.069,0.64
		c-0.025,0.202-0.057,0.398-0.094,0.589l-0.564,2.846h-1.434l-0.463-2.85c-0.027-0.166-0.064-0.449-0.111-0.853
		c-0.006-0.061-0.019-0.185-0.037-0.372l-0.042,1.179l-0.153,2.896h-1.836l0.744-6.386h2.146l0.359,2.15
		c0.031,0.177,0.058,0.368,0.082,0.575c0.022,0.207,0.044,0.432,0.063,0.674c0.035-0.405,0.083-0.768,0.146-1.088l0.43-2.312h2.084
		L70.088,92.169z"/>
	<path fill="#FBD200" d="M72.635,92.169H70.91v-6.386h1.725V92.169z"/>
	<path fill="#FBD200" d="M77.119,90.225l-0.1,1.731c-0.383,0.142-0.727,0.213-1.029,0.213c-0.715,0-1.316-0.253-1.804-0.759
		c-0.546-0.567-0.819-1.37-0.819-2.408c0-0.972,0.257-1.752,0.77-2.341c0.513-0.585,1.198-0.878,2.056-0.878
		c0.278,0,0.562,0.05,0.853,0.15v1.765c-0.257-0.257-0.521-0.385-0.791-0.385c-0.353,0-0.629,0.148-0.826,0.446
		c-0.199,0.301-0.299,0.717-0.299,1.247c0,0.257,0.025,0.486,0.074,0.688c0.051,0.202,0.121,0.373,0.214,0.513
		s0.206,0.246,0.341,0.32c0.135,0.073,0.289,0.11,0.463,0.11C76.52,90.639,76.819,90.501,77.119,90.225z"/>
</g>
<g enable-background="new    ">
	<path fill="#FFFFFF" d="M18.171,102.334h-1.725v-6.386h3.048v1.53h-1.324v0.814h1.232v1.53h-1.232V102.334z"/>
</g>
<g enable-background="new    ">
	<path fill="#FFFFFF" d="M24.177,100.166c0,0.662-0.192,1.188-0.578,1.58c-0.385,0.392-0.902,0.588-1.55,0.588
		c-0.637,0-1.144-0.2-1.521-0.6c-0.375-0.402-0.562-0.942-0.562-1.62s0.191-1.222,0.574-1.632c0.38-0.413,0.884-0.619,1.512-0.619
		c0.662,0,1.182,0.205,1.559,0.615S24.177,99.451,24.177,100.166z M22.514,100.11c0-0.153-0.01-0.291-0.031-0.414
		c-0.021-0.123-0.051-0.229-0.089-0.316c-0.039-0.088-0.086-0.155-0.141-0.204c-0.055-0.048-0.116-0.072-0.183-0.072
		c-0.133,0-0.239,0.092-0.32,0.274c-0.081,0.16-0.121,0.4-0.121,0.721c0,0.314,0.041,0.555,0.121,0.72
		c0.081,0.184,0.188,0.274,0.324,0.274c0.127,0,0.232-0.09,0.315-0.271C22.472,100.622,22.514,100.385,22.514,100.11z"/>
	<path fill="#FFFFFF" d="M24.764,97.863h1.663v2.519c0,0.24,0.023,0.415,0.07,0.525c0.05,0.091,0.144,0.137,0.281,0.137
		c0.135,0,0.226-0.046,0.273-0.137c0.05-0.091,0.074-0.267,0.074-0.525v-2.519h1.663v2.688c0,0.178-0.015,0.34-0.044,0.484
		c-0.029,0.145-0.074,0.275-0.137,0.393c-0.062,0.118-0.142,0.226-0.24,0.322c-0.098,0.098-0.215,0.187-0.35,0.268
		c-0.365,0.211-0.778,0.316-1.239,0.316c-0.467,0-0.88-0.105-1.239-0.316c-0.138-0.081-0.256-0.169-0.354-0.266
		c-0.098-0.096-0.178-0.203-0.24-0.322c-0.062-0.118-0.108-0.25-0.137-0.395c-0.029-0.145-0.043-0.307-0.043-0.484V97.863z"/>
	<path fill="#FFFFFF" d="M33.661,102.334h-1.663v-2.366c0-0.204-0.025-0.346-0.076-0.426c-0.051-0.08-0.14-0.12-0.267-0.12
		c-0.295,0-0.443,0.22-0.443,0.658v2.254H29.55v-4.471h1.663c-0.003,0.11-0.005,0.212-0.008,0.306s-0.007,0.181-0.012,0.261
		l-0.017,0.285c0.286-0.568,0.707-0.852,1.261-0.852c0.386,0,0.686,0.131,0.899,0.393c0.217,0.262,0.325,0.626,0.325,1.094V102.334z
		"/>
	<path fill="#FFFFFF" d="M36.543,102.334c0.003-0.047,0.005-0.101,0.008-0.161c0.002-0.061,0.007-0.131,0.012-0.211
		c0.006-0.05,0.01-0.126,0.013-0.228c-0.16,0.259-0.316,0.439-0.467,0.542c-0.149,0.038-0.333,0.058-0.55,0.058
		c-0.45,0-0.802-0.193-1.059-0.58c-0.253-0.386-0.38-0.924-0.38-1.611c0-0.723,0.124-1.283,0.373-1.68c0.248-0.4,0.598-0.6,1.05-0.6
		c0.248,0,0.448,0.055,0.6,0.165c0.16,0.11,0.314,0.302,0.463,0.575c-0.008-0.144-0.012-0.23-0.012-0.261l-0.017-0.451v-2.535h1.663
		v6.978H36.543z M35.782,100.106c0,0.589,0.137,0.884,0.41,0.884c0.256,0,0.385-0.305,0.385-0.912c0-0.58-0.124-0.871-0.373-0.871
		C35.923,99.207,35.782,99.507,35.782,100.106z"/>
	<path fill="#FFFFFF" d="M41.295,100.82l1.622,0.033c-0.116,0.491-0.341,0.86-0.676,1.108s-0.773,0.372-1.313,0.372
		c-0.641,0-1.144-0.19-1.508-0.572c-0.362-0.387-0.543-0.915-0.543-1.586c0-0.681,0.195-1.235,0.585-1.665
		c0.39-0.432,0.892-0.647,1.508-0.647c0.612,0,1.1,0.209,1.464,0.627c0.364,0.421,0.546,0.979,0.546,1.674l-0.008,0.284h-2.432
		c0.02,0.43,0.149,0.645,0.389,0.645C41.115,101.093,41.238,101.002,41.295,100.82z M41.328,99.509c0-0.059-0.01-0.113-0.029-0.162
		c-0.02-0.05-0.046-0.092-0.081-0.128c-0.035-0.035-0.075-0.063-0.122-0.084s-0.098-0.031-0.153-0.031
		c-0.116,0-0.209,0.038-0.281,0.114c-0.071,0.076-0.107,0.173-0.107,0.291H41.328z"/>
	<path fill="#FFFFFF" d="M45.279,102.334h-1.663v-4.471h1.663l-0.087,0.872c0.251-0.653,0.666-0.979,1.245-0.979v1.86
		c-0.182-0.099-0.336-0.148-0.463-0.148c-0.223,0-0.395,0.081-0.515,0.242c-0.12,0.161-0.18,0.396-0.18,0.705V102.334z"/>
	<path fill="#FFFFFF" d="M47.458,104.327l-0.897-0.507l4.566-8.501l0.902,0.479L47.458,104.327z"/>
	<path fill="#FFFFFF" d="M55.652,102.334h-3.019v-6.386h1.725v4.855h1.294V102.334z"/>
	<path fill="#FFFFFF" d="M58.394,100.82l1.622,0.033c-0.116,0.491-0.341,0.86-0.676,1.108s-0.773,0.372-1.313,0.372
		c-0.641,0-1.144-0.19-1.508-0.572c-0.362-0.387-0.543-0.915-0.543-1.586c0-0.681,0.195-1.235,0.585-1.665
		c0.39-0.432,0.892-0.647,1.508-0.647c0.612,0,1.1,0.209,1.464,0.627c0.364,0.421,0.546,0.979,0.546,1.674l-0.008,0.284h-2.432
		c0.02,0.43,0.149,0.645,0.389,0.645C58.214,101.093,58.336,101.002,58.394,100.82z M58.427,99.509c0-0.059-0.01-0.113-0.029-0.162
		c-0.02-0.05-0.046-0.092-0.081-0.128c-0.035-0.035-0.075-0.063-0.122-0.084s-0.098-0.031-0.153-0.031
		c-0.116,0-0.209,0.038-0.281,0.114c-0.071,0.076-0.107,0.173-0.107,0.291H58.427z"/>
	<path fill="#FFFFFF" d="M64.69,102.334h-1.656c0.014-0.148,0.024-0.291,0.033-0.426c0.008-0.136,0.016-0.244,0.024-0.327
		c-0.286,0.502-0.669,0.753-1.149,0.753c-0.418,0-0.748-0.201-0.992-0.604c-0.242-0.399-0.363-0.953-0.363-1.66
		c0-0.683,0.125-1.22,0.377-1.611c0.25-0.397,0.592-0.596,1.025-0.596c0.443,0,0.803,0.235,1.075,0.707
		c-0.005-0.056-0.01-0.104-0.013-0.145c-0.002-0.042-0.006-0.076-0.008-0.104l-0.017-0.261l-0.013-0.198h1.676V102.334z
		 M63.027,100.051c0-0.153-0.007-0.284-0.019-0.392c-0.013-0.107-0.033-0.194-0.061-0.263c-0.028-0.067-0.064-0.116-0.109-0.146
		s-0.099-0.044-0.162-0.044c-0.285,0-0.428,0.347-0.428,1.039c0,0.496,0.127,0.744,0.381,0.744
		C62.895,100.99,63.027,100.677,63.027,100.051z"/>
	<path fill="#FFFFFF" d="M67.766,102.334c0.004-0.047,0.006-0.101,0.009-0.161s0.007-0.131,0.013-0.211
		c0.006-0.05,0.01-0.126,0.012-0.228c-0.16,0.259-0.315,0.439-0.467,0.542c-0.148,0.038-0.332,0.058-0.551,0.058
		c-0.449,0-0.802-0.193-1.059-0.58c-0.254-0.386-0.381-0.924-0.381-1.611c0-0.723,0.125-1.283,0.373-1.68
		c0.248-0.4,0.598-0.6,1.051-0.6c0.248,0,0.447,0.055,0.6,0.165c0.16,0.11,0.314,0.302,0.463,0.575
		c-0.008-0.144-0.012-0.23-0.012-0.261l-0.018-0.451v-2.535h1.663v6.978H67.766z M67.005,100.106c0,0.589,0.137,0.884,0.409,0.884
		c0.257,0,0.385-0.305,0.385-0.912c0-0.58-0.123-0.871-0.372-0.871C67.146,99.207,67.005,99.507,67.005,100.106z"/>
	<path fill="#FFFFFF" d="M72.837,102.334v-6.386h1.489c0.852,0,1.515,0.229,1.989,0.687c0.623,0.598,0.935,1.435,0.935,2.511
		c0,1.059-0.264,1.876-0.79,2.452c-0.449,0.491-1.12,0.736-2.011,0.736H72.837z M74.562,100.804c0.618-0.03,0.927-0.562,0.927-1.597
		c0-0.51-0.078-0.912-0.236-1.208c-0.156-0.298-0.369-0.446-0.637-0.446h-0.054V100.804z"/>
</g>
<g enable-background="new    ">
	<path fill="#FFFFFF" d="M80.215,100.82l1.622,0.033c-0.116,0.491-0.341,0.86-0.677,1.108c-0.334,0.248-0.772,0.372-1.312,0.372
		c-0.641,0-1.144-0.19-1.508-0.572c-0.363-0.387-0.544-0.915-0.544-1.586c0-0.681,0.194-1.235,0.585-1.665
		c0.39-0.432,0.893-0.647,1.508-0.647c0.612,0,1.1,0.209,1.465,0.627c0.363,0.421,0.545,0.979,0.545,1.674l-0.008,0.284h-2.432
		c0.02,0.43,0.148,0.645,0.389,0.645C80.035,101.093,80.158,101.002,80.215,100.82z M80.248,99.509c0-0.059-0.01-0.113-0.028-0.162
		c-0.02-0.05-0.046-0.092-0.081-0.128c-0.034-0.035-0.074-0.063-0.121-0.084s-0.099-0.031-0.154-0.031
		c-0.115,0-0.209,0.038-0.281,0.114c-0.07,0.076-0.107,0.173-0.107,0.291H80.248z"/>
</g>
<g enable-background="new    ">
	<path fill="#FFFFFF" d="M85.057,102.334h-1.732l-1.232-4.471h1.679l0.257,1.307c0.035,0.168,0.068,0.377,0.1,0.627
		c0.029,0.249,0.061,0.548,0.09,0.896c0.039-0.317,0.076-0.593,0.112-0.827s0.071-0.437,0.107-0.604l0.285-1.397h1.638
		L85.057,102.334z"/>
</g>
<g enable-background="new    ">
	<path fill="#FFFFFF" d="M88.959,100.82l1.622,0.033c-0.116,0.491-0.341,0.86-0.677,1.108c-0.334,0.248-0.772,0.372-1.312,0.372
		c-0.641,0-1.144-0.19-1.508-0.572c-0.363-0.387-0.544-0.915-0.544-1.586c0-0.681,0.194-1.235,0.585-1.665
		c0.39-0.432,0.893-0.647,1.508-0.647c0.612,0,1.1,0.209,1.465,0.627c0.363,0.421,0.545,0.979,0.545,1.674l-0.008,0.284h-2.432
		c0.02,0.43,0.148,0.645,0.389,0.645C88.78,101.093,88.903,101.002,88.959,100.82z M88.992,99.509c0-0.059-0.01-0.113-0.028-0.162
		c-0.02-0.05-0.046-0.092-0.081-0.128c-0.034-0.035-0.074-0.063-0.121-0.084s-0.099-0.031-0.154-0.031
		c-0.115,0-0.209,0.038-0.281,0.114c-0.07,0.076-0.107,0.173-0.107,0.291H88.992z"/>
	<path fill="#FFFFFF" d="M92.944,102.334h-1.663v-6.978h1.663V102.334z"/>
	<path fill="#FFFFFF" d="M97.79,100.166c0,0.662-0.192,1.188-0.578,1.58s-0.901,0.588-1.55,0.588c-0.637,0-1.145-0.2-1.521-0.6
		c-0.374-0.402-0.561-0.942-0.561-1.62s0.191-1.222,0.574-1.632c0.379-0.413,0.883-0.619,1.512-0.619
		c0.662,0,1.182,0.205,1.559,0.615S97.79,99.451,97.79,100.166z M96.127,100.11c0-0.153-0.01-0.291-0.031-0.414
		c-0.02-0.123-0.051-0.229-0.089-0.316c-0.039-0.088-0.086-0.155-0.141-0.204c-0.055-0.048-0.116-0.072-0.183-0.072
		c-0.133,0-0.24,0.092-0.32,0.274c-0.08,0.16-0.121,0.4-0.121,0.721c0,0.314,0.041,0.555,0.121,0.72
		c0.08,0.184,0.188,0.274,0.324,0.274c0.127,0,0.232-0.09,0.314-0.271C96.086,100.622,96.127,100.385,96.127,100.11z"/>
	<path fill="#FFFFFF" d="M100.04,104.327h-1.663v-6.464h1.658l-0.032,0.633c0.069-0.133,0.14-0.245,0.211-0.338
		c0.071-0.092,0.149-0.164,0.231-0.217c0.082-0.052,0.172-0.078,0.267-0.078s0.2,0,0.316,0c0.431,0,0.78,0.206,1.051,0.619
		c0.268,0.407,0.401,0.949,0.401,1.624c0,0.686-0.129,1.229-0.385,1.628c-0.251,0.399-0.598,0.6-1.038,0.6
		c-0.403,0-0.755-0.233-1.055-0.699c0.014,0.141,0.022,0.263,0.024,0.364c0.008,0.104,0.013,0.23,0.013,0.378V104.327z
		 M100.814,100.073c0-0.274-0.034-0.487-0.102-0.639s-0.163-0.228-0.287-0.228c-0.257,0-0.385,0.294-0.385,0.882
		c0,0.601,0.124,0.901,0.372,0.901c0.124,0,0.223-0.081,0.294-0.241S100.814,100.363,100.814,100.073z"/>
	<path fill="#FFFFFF" d="M104.78,104.327h-1.662v-6.464h1.658l-0.033,0.633c0.069-0.133,0.14-0.245,0.211-0.338
		c0.072-0.092,0.149-0.164,0.232-0.217c0.082-0.052,0.172-0.078,0.266-0.078c0.096,0,0.201,0,0.316,0
		c0.431,0,0.781,0.206,1.051,0.619c0.268,0.407,0.402,0.949,0.402,1.624c0,0.686-0.129,1.229-0.385,1.628
		c-0.252,0.399-0.598,0.6-1.039,0.6c-0.402,0-0.754-0.233-1.055-0.699c0.014,0.141,0.022,0.263,0.025,0.364
		c0.008,0.104,0.012,0.23,0.012,0.378V104.327z M105.553,100.073c0-0.274-0.033-0.487-0.102-0.639
		c-0.066-0.151-0.162-0.228-0.287-0.228c-0.256,0-0.385,0.294-0.385,0.882c0,0.601,0.125,0.901,0.373,0.901
		c0.123,0,0.222-0.081,0.293-0.241C105.518,100.589,105.553,100.363,105.553,100.073z"/>
	<path fill="#FFFFFF" d="M110.149,100.82l1.621,0.033c-0.115,0.491-0.341,0.86-0.676,1.108s-0.773,0.372-1.312,0.372
		c-0.642,0-1.145-0.19-1.509-0.572c-0.362-0.387-0.544-0.915-0.544-1.586c0-0.681,0.195-1.235,0.586-1.665
		c0.389-0.432,0.892-0.647,1.508-0.647c0.611,0,1.1,0.209,1.464,0.627c0.364,0.421,0.546,0.979,0.546,1.674l-0.008,0.284h-2.433
		c0.02,0.43,0.149,0.645,0.39,0.645C109.969,101.093,110.091,101.002,110.149,100.82z M110.182,99.509
		c0-0.059-0.01-0.113-0.029-0.162c-0.02-0.05-0.046-0.092-0.08-0.128c-0.035-0.035-0.075-0.063-0.122-0.084
		s-0.099-0.031-0.153-0.031c-0.115,0-0.209,0.038-0.281,0.114c-0.071,0.076-0.107,0.173-0.107,0.291H110.182z"/>
	<path fill="#FFFFFF" d="M114.131,102.334h-1.662v-4.471h1.662l-0.086,0.872c0.25-0.653,0.666-0.979,1.244-0.979v1.86
		c-0.182-0.099-0.336-0.148-0.463-0.148c-0.223,0-0.395,0.081-0.516,0.242c-0.119,0.161-0.18,0.396-0.18,0.705V102.334z"/>
</g>
</svg>
