<?xml version="1.0" encoding="utf-8"?>
<!-- Generator: Adobe Illustrator 14.0.0, SVG Export Plug-In . SVG Version: 6.00 Build 43363)  -->
<!DOCTYPE svg PUBLIC "-//W3C//DTD SVG 1.1//EN" "http://www.w3.org/Graphics/SVG/1.1/DTD/svg11.dtd">
<svg version="1.1" id="Calque_1" xmlns="http://www.w3.org/2000/svg" xmlns:xlink="http://www.w3.org/1999/xlink" x="0px" y="0px"
	 width="135.717px" height="121.145px" viewBox="0 0 135.717 121.145" enable-background="new 0 0 135.717 121.145"
	 xml:space="preserve">
<g enable-background="new    ">
	<path fill="#FFFFFF" d="M22.356,58.206c0,2.597-0.949,4.82-2.847,6.671c-1.844,1.852-4.099,2.776-6.767,2.776
		c-2.641,0-4.938-0.939-6.89-2.817c-1.898-1.905-2.847-4.212-2.847-6.92c0-2.651,0.935-4.917,2.805-6.795
		c1.871-1.879,4.126-2.817,6.767-2.817c2.722,0,5.033,0.967,6.931,2.9C21.406,53.111,22.356,55.445,22.356,58.206z"/>
</g>
<g enable-background="new    ">
	<path fill="none" stroke="#FBD200" d="M22.356,58.206c0,2.597-0.949,4.82-2.847,6.671c-1.844,1.852-4.099,2.776-6.767,2.776
		c-2.641,0-4.938-0.939-6.89-2.817c-1.898-1.905-2.847-4.212-2.847-6.92c0-2.651,0.935-4.917,2.805-6.795
		c1.871-1.879,4.126-2.817,6.767-2.817c2.722,0,5.033,0.967,6.931,2.9C21.406,53.111,22.356,55.445,22.356,58.206z"/>
</g>
<g enable-background="new    ">
	<path fill="none" stroke="#FBD200" d="M43.453,49.23c1.042,0.71,1.941,1.468,2.696,2.272c0.755,0.806,1.352,1.673,1.791,2.601
		c0.851,1.666,1.276,4.164,1.276,7.495v14.088c0,3.112,0.33,4.996,0.988,5.651c0.686,0.682,2.607,1.023,5.764,1.023l1.729-0.04
		l0.988-0.041v11.467l-7.864,0.327c-5.316-0.082-9.075-1.252-11.275-3.507c-2.227-2.284-3.34-6.025-3.34-11.224l-0.782-17.084
		c0-2.833-0.357-4.854-1.07-6.065c-0.687-1.128-2.073-1.926-4.158-2.394V43.03c1.976-0.412,3.335-1.155,4.076-2.228
		c0.768-1.018,1.153-2.765,1.153-5.24V18.313c0-5.199,1.247-8.913,3.741-11.142c2.465-2.255,6.612-3.383,12.438-3.383l7.864,0.217
		v12.134h-2.882c-3.047-0.027-4.914,0.301-5.599,0.983c-0.659,0.655-0.988,2.525-0.988,5.61v14.169
		c-0.521,3.086-1.18,5.57-1.976,7.454C47.227,46.049,45.703,47.673,43.453,49.23z"/>
</g>
<g enable-background="new    ">
	<path fill="none" stroke="#FBD200" d="M110.964,48.882c-1.043-0.704-1.941-1.458-2.695-2.258c-0.756-0.801-1.354-1.662-1.791-2.584
		c-0.824-1.736-1.236-4.219-1.236-7.447V22.554c0-3.093-0.343-4.965-1.029-5.616c-0.658-0.678-2.566-1.018-5.722-1.018l-1.771,0.041
		l-0.947,0.041V4.608l7.863-0.326c5.799,0.083,9.93,1.245,12.395,3.489c2.523,2.271,3.785,5.991,3.785,11.162v17.03
		c0,2.818,0.357,4.829,1.07,6.033c0.687,1.122,2.072,1.915,4.158,2.38v10.711c-1.948,0.411-3.32,1.149-4.116,2.216
		c-0.741,1.067-1.112,2.805-1.112,5.212v17.113c0,5.171-1.262,8.863-3.785,11.08c-2.465,2.243-6.609,3.365-12.436,3.365
		l-7.822-0.217V81.723h2.883c3.046,0.055,4.898-0.271,5.557-0.977c0.687-0.651,1.029-2.51,1.029-5.575v-14.04
		c0-3.445,0.385-5.913,1.153-7.406C107.19,52.043,108.714,50.429,110.964,48.882z"/>
</g>
<g>
	<g>
		<path fill="none" stroke="#FFFFFF" stroke-width="1.547" d="M87.706,80.897c0,0-6.377-10.351-6.377-11.729
			s0.501-9.493,2.634-9.199c2.138,0.292,9.101,1.4,9.787-1.716c0.69-3.114-0.376-3.769-0.376-3.769s1.756-0.562,1.066-1.129
			c-0.69-0.562,0.729-1.756,0.292-2.259c-0.439-0.501-0.292-2.258-0.292-2.258s3.22,0,2.78-1.13
			c-0.438-1.128-2.347-5.021-2.78-5.896c-0.439-0.879-0.732-9.829-2.635-11.292c0,0,3.194-2.274,3.194-3.764s1.778-7.026-5.52-6.315
			c0,0-4.062-4.015-7.905-1.464c0,0-7.279-1.958-7.146,0c0.057,0.869-2.263,0.628-2.263,0.628c-0.312,1.359-5.834-0.878-5.834,1.636
			c0,0-6.879,0.878-5.854,10.033c1.021,9.158,4.537,19.906,4.537,21.955l1.312,0.126c0,0,0.313,0.021-0.438,1.929
			c-0.752,1.898-2.973,6.271-6.001,8.636c-3.032,2.363-3.91,8.135-3.91,8.135s9.409-1.088,14.428,1.965
			C75.431,77.071,81.83,80.604,87.706,80.897z"/>
	</g>
</g>
<g enable-background="new    ">
	<path fill="#FFFFFF" d="M71.171,91.646h-1.857l-0.075-3.099l-0.06-1.236c-0.021,0.237-0.046,0.464-0.073,0.68
		c-0.028,0.216-0.062,0.425-0.101,0.627l-0.601,3.028h-1.525l-0.493-3.032c-0.029-0.176-0.069-0.479-0.119-0.907
		c-0.006-0.064-0.019-0.196-0.04-0.396l-0.044,1.254l-0.163,3.081h-1.954l0.792-6.795h2.284l0.383,2.288
		c0.032,0.188,0.061,0.392,0.085,0.612c0.025,0.22,0.048,0.459,0.068,0.717c0.037-0.432,0.089-0.817,0.155-1.157l0.457-2.46h2.219
		L71.171,91.646z"/>
	<path fill="#FFFFFF" d="M73.894,85.413c0,0.279-0.101,0.52-0.304,0.723c-0.209,0.199-0.45,0.299-0.727,0.299
		c-0.284,0-0.527-0.102-0.73-0.304c-0.199-0.208-0.299-0.452-0.299-0.73c0-0.284,0.1-0.526,0.299-0.727
		c0.209-0.199,0.451-0.299,0.727-0.299c0.291,0,0.535,0.102,0.734,0.304C73.795,84.878,73.894,85.123,73.894,85.413z M73.745,91.646
		h-1.77v-4.758h1.77V91.646z"/>
</g>
<g enable-background="new    ">
	<path fill="#FFFFFF" d="M76.979,90.119v1.498c-0.105,0.011-0.198,0.019-0.277,0.022s-0.146,0.006-0.198,0.006
		c-0.519,0-0.948-0.152-1.293-0.456c-0.233-0.205-0.422-0.486-0.567-0.844c-0.145-0.357-0.217-0.726-0.217-1.103
		c0-0.67,0.207-1.23,0.623-1.684c0.412-0.448,0.936-0.672,1.573-0.672c0.038,0,0.087,0.002,0.146,0.005s0.129,0.008,0.211,0.014
		v1.61c-0.522,0.032-0.783,0.295-0.783,0.787c0,0.222,0.064,0.417,0.193,0.584c0.132,0.16,0.289,0.24,0.471,0.24
		c0.018,0,0.036-0.001,0.055-0.002C76.934,90.124,76.956,90.122,76.979,90.119z"/>
</g>
<g enable-background="new    ">
	<path fill="#FFFFFF" d="M82.057,91.646h-1.769v-2.518c0-0.217-0.021-0.368-0.063-0.453c-0.043-0.085-0.117-0.128-0.223-0.128
		c-0.246,0-0.369,0.233-0.369,0.7v2.398h-1.77v-7.425h1.77v2.751c0,0.144-0.002,0.264-0.003,0.36
		c-0.001,0.098-0.003,0.171-0.007,0.221c-0.002,0.05-0.007,0.103-0.013,0.158s-0.012,0.117-0.018,0.185
		c0.284-0.672,0.702-1.008,1.252-1.008c0.382,0,0.679,0.14,0.891,0.418c0.214,0.279,0.321,0.667,0.321,1.164V91.646z"/>
	<path fill="#FFFFFF" d="M85.302,90.035l1.725,0.035c-0.123,0.522-0.363,0.915-0.719,1.18c-0.357,0.264-0.822,0.396-1.397,0.396
		c-0.683,0-1.217-0.203-1.604-0.609c-0.387-0.411-0.578-0.974-0.578-1.687c0-0.725,0.207-1.315,0.621-1.772
		c0.415-0.459,0.95-0.689,1.605-0.689c0.651,0,1.17,0.223,1.558,0.668c0.388,0.447,0.581,1.041,0.581,1.781l-0.009,0.302h-2.588
		c0.021,0.458,0.159,0.687,0.414,0.687C85.109,90.325,85.24,90.229,85.302,90.035z M85.337,88.64c0-0.063-0.01-0.121-0.031-0.173
		c-0.02-0.053-0.049-0.098-0.086-0.136c-0.036-0.038-0.08-0.067-0.129-0.09c-0.051-0.021-0.104-0.033-0.163-0.033
		c-0.124,0-0.224,0.041-0.3,0.121c-0.076,0.081-0.114,0.185-0.114,0.311H85.337z"/>
	<path fill="#FFFFFF" d="M89.54,91.646h-1.77v-7.425h1.77V91.646z"/>
</g>
<g enable-background="new    ">
	<path fill="#FBD200" d="M69.403,102.462h-1.857l-0.075-3.099l-0.06-1.236c-0.021,0.237-0.046,0.464-0.073,0.68
		c-0.028,0.216-0.062,0.425-0.101,0.627l-0.6,3.028h-1.525l-0.493-3.032c-0.029-0.176-0.069-0.479-0.119-0.907
		c-0.006-0.064-0.019-0.196-0.04-0.396l-0.044,1.254l-0.163,3.081H62.3l0.792-6.795h2.284l0.383,2.288
		c0.032,0.188,0.061,0.392,0.085,0.612c0.025,0.22,0.048,0.459,0.068,0.717c0.037-0.432,0.089-0.817,0.155-1.157l0.457-2.46h2.218
		L69.403,102.462z"/>
	<path fill="#FBD200" d="M70.278,102.462v-6.795h3.412v1.628h-1.576v0.867h1.412v1.628h-1.412v1.044h1.576v1.628H70.278z"/>
	<path fill="#FBD200" d="M79.305,102.462h-1.984l-0.907-2.421c-0.009-0.041-0.024-0.095-0.046-0.162
		c-0.021-0.068-0.049-0.148-0.082-0.242l0.014,0.448v2.377h-1.826v-6.795h1.879c0.828,0,1.447,0.162,1.857,0.488
		c0.521,0.416,0.783,1.009,0.783,1.778c0,0.821-0.351,1.389-1.052,1.703L79.305,102.462z M76.308,98.717h0.123
		c0.212,0,0.388-0.081,0.528-0.242s0.211-0.367,0.211-0.616c0-0.508-0.266-0.762-0.797-0.762h-0.065V98.717z"/>
	<path fill="#FBD200" d="M83.126,102.462h-3.213v-6.795h1.835v5.167h1.378V102.462z"/>
	<path fill="#FBD200" d="M85.507,102.462h-1.836v-6.795h1.836V102.462z"/>
	<path fill="#FBD200" d="M86.458,102.462v-6.795h1.752l0.92,2.385c0.049,0.141,0.105,0.303,0.169,0.484s0.132,0.392,0.209,0.629
		l0.188,0.599c-0.066-0.59-0.118-1.094-0.153-1.514s-0.053-0.771-0.053-1.057v-1.526h1.769v6.795H89.49l-0.979-2.5
		c-0.104-0.267-0.195-0.517-0.277-0.75c-0.083-0.233-0.155-0.456-0.218-0.667c0.073,0.479,0.127,0.895,0.161,1.25
		c0.033,0.354,0.051,0.666,0.051,0.933v1.734H86.458z"/>
</g>
<g enable-background="new    ">
	<path fill="#FFFFFF" d="M22.339,114.144h-1.982v-7.339h3.503v1.759h-1.521v0.936h1.417v1.759h-1.417V114.144z"/>
</g>
<g enable-background="new    ">
	<path fill="#FFFFFF" d="M29.242,111.653c0,0.76-0.222,1.365-0.665,1.815s-1.037,0.676-1.782,0.676
		c-0.732,0-1.314-0.229-1.748-0.689c-0.43-0.462-0.645-1.083-0.645-1.861c0-0.779,0.22-1.404,0.659-1.876
		c0.437-0.475,1.016-0.712,1.738-0.712c0.761,0,1.358,0.236,1.792,0.708C29.026,110.184,29.242,110.83,29.242,111.653z
		 M27.331,111.588c0-0.176-0.012-0.334-0.036-0.476s-0.058-0.263-0.103-0.363s-0.099-0.179-0.161-0.234
		c-0.063-0.056-0.133-0.084-0.211-0.084c-0.152,0-0.275,0.105-0.368,0.315c-0.092,0.185-0.139,0.46-0.139,0.828
		c0,0.362,0.046,0.639,0.139,0.828c0.093,0.21,0.217,0.315,0.372,0.315c0.146,0,0.268-0.104,0.363-0.312
		C27.283,112.176,27.331,111.904,27.331,111.588z"/>
	<path fill="#FFFFFF" d="M29.917,109.005h1.911v2.896c0,0.275,0.027,0.477,0.081,0.604c0.057,0.104,0.165,0.156,0.323,0.156
		c0.155,0,0.26-0.052,0.314-0.156c0.057-0.104,0.085-0.306,0.085-0.604v-2.896h1.911v3.089c0,0.205-0.017,0.391-0.05,0.557
		s-0.086,0.317-0.157,0.452s-0.164,0.259-0.276,0.37c-0.113,0.112-0.247,0.215-0.402,0.308c-0.419,0.242-0.894,0.363-1.424,0.363
		c-0.537,0-1.011-0.121-1.424-0.363c-0.159-0.093-0.295-0.195-0.408-0.306c-0.112-0.109-0.205-0.233-0.276-0.37
		c-0.072-0.137-0.124-0.288-0.157-0.454c-0.034-0.166-0.05-0.352-0.05-0.557V109.005z"/>
	<path fill="#FFFFFF" d="M40.142,114.144h-1.911v-2.719c0-0.234-0.029-0.397-0.088-0.49c-0.059-0.092-0.161-0.138-0.306-0.138
		c-0.34,0-0.509,0.252-0.509,0.756v2.591h-1.911v-5.139h1.911c-0.003,0.127-0.006,0.244-0.01,0.352
		c-0.003,0.108-0.008,0.208-0.014,0.3l-0.019,0.328c0.329-0.653,0.812-0.979,1.45-0.979c0.443,0,0.788,0.15,1.034,0.452
		c0.249,0.301,0.374,0.72,0.374,1.256V114.144z"/>
	<path fill="#FFFFFF" d="M43.455,114.144c0.003-0.054,0.006-0.115,0.01-0.186c0.003-0.069,0.008-0.15,0.014-0.242
		c0.006-0.057,0.011-0.145,0.014-0.262c-0.184,0.298-0.363,0.506-0.537,0.623c-0.171,0.044-0.382,0.066-0.632,0.066
		c-0.517,0-0.922-0.222-1.217-0.666c-0.292-0.444-0.437-1.062-0.437-1.853c0-0.831,0.143-1.475,0.428-1.931
		c0.285-0.46,0.688-0.689,1.207-0.689c0.286,0,0.515,0.063,0.689,0.19c0.184,0.127,0.361,0.347,0.532,0.661
		c-0.009-0.165-0.014-0.265-0.014-0.3l-0.019-0.519v-2.913h1.911v8.019H43.455z M42.58,111.583c0,0.678,0.157,1.016,0.471,1.016
		c0.294,0,0.442-0.349,0.442-1.047c0-0.668-0.143-1.002-0.428-1.002C42.742,110.55,42.58,110.895,42.58,111.583z"/>
	<path fill="#FFFFFF" d="M48.917,112.404l1.863,0.038c-0.133,0.564-0.392,0.989-0.777,1.274s-0.888,0.428-1.509,0.428
		c-0.736,0-1.314-0.22-1.733-0.658c-0.416-0.444-0.624-1.052-0.624-1.822c0-0.782,0.224-1.42,0.672-1.913
		c0.448-0.497,1.025-0.745,1.733-0.745c0.704,0,1.265,0.24,1.683,0.721c0.418,0.484,0.627,1.125,0.627,1.925l-0.01,0.325h-2.795
		c0.022,0.495,0.171,0.742,0.447,0.742C48.709,112.718,48.85,112.614,48.917,112.404z M48.954,110.897
		c0-0.067-0.011-0.13-0.033-0.187c-0.022-0.057-0.053-0.105-0.093-0.146c-0.04-0.041-0.086-0.073-0.14-0.097
		c-0.054-0.023-0.112-0.036-0.176-0.036c-0.133,0-0.241,0.044-0.323,0.132c-0.083,0.087-0.124,0.198-0.124,0.334H48.954z"/>
	<path fill="#FFFFFF" d="M53.494,114.144h-1.911v-5.139h1.911l-0.1,1.003c0.289-0.751,0.766-1.126,1.431-1.126v2.139
		c-0.209-0.114-0.387-0.171-0.533-0.171c-0.256,0-0.454,0.093-0.592,0.278c-0.138,0.185-0.207,0.455-0.207,0.81V114.144z"/>
	<path fill="#FFFFFF" d="M55.999,116.435l-1.031-0.583l5.248-9.77l1.037,0.55L55.999,116.435z"/>
	<path fill="#FFFFFF" d="M66.856,114.144h-1.982v-2.952h-0.946v2.952h-1.982v-7.339h1.982v2.628h0.946v-2.628h1.982V114.144z"/>
	<path fill="#FFFFFF" d="M70.445,112.404l1.863,0.038c-0.134,0.564-0.392,0.989-0.777,1.274s-0.888,0.428-1.509,0.428
		c-0.736,0-1.314-0.22-1.734-0.658c-0.416-0.444-0.624-1.052-0.624-1.822c0-0.782,0.224-1.42,0.672-1.913
		c0.448-0.497,1.026-0.745,1.733-0.745c0.703,0,1.265,0.24,1.684,0.721c0.418,0.484,0.627,1.125,0.627,1.925l-0.01,0.325h-2.795
		c0.021,0.495,0.172,0.742,0.447,0.742C70.237,112.718,70.378,112.614,70.445,112.404z M70.483,110.897
		c0-0.067-0.012-0.13-0.033-0.187c-0.022-0.057-0.053-0.105-0.094-0.146c-0.039-0.041-0.086-0.073-0.14-0.097
		s-0.112-0.036-0.176-0.036c-0.134,0-0.241,0.044-0.323,0.132c-0.082,0.087-0.123,0.198-0.123,0.334H70.483z"/>
	<path fill="#FFFFFF" d="M77.68,114.144h-1.904c0.016-0.171,0.029-0.334,0.038-0.489c0.01-0.155,0.019-0.281,0.028-0.376
		c-0.328,0.577-0.768,0.865-1.32,0.865c-0.48,0-0.86-0.231-1.141-0.693c-0.278-0.46-0.417-1.096-0.417-1.908
		c0-0.784,0.144-1.402,0.433-1.853c0.288-0.456,0.682-0.685,1.179-0.685c0.511,0,0.922,0.271,1.235,0.813
		c-0.006-0.063-0.011-0.119-0.014-0.167c-0.004-0.047-0.006-0.087-0.01-0.118l-0.02-0.3l-0.014-0.229h1.926V114.144z M75.768,111.52
		c0-0.177-0.007-0.326-0.021-0.449c-0.014-0.124-0.037-0.225-0.069-0.303c-0.032-0.077-0.073-0.133-0.125-0.167
		c-0.052-0.033-0.113-0.051-0.187-0.051c-0.327,0-0.49,0.398-0.49,1.194c0,0.569,0.145,0.854,0.438,0.854
		C75.617,112.599,75.768,112.24,75.768,111.52z"/>
	<path fill="#FFFFFF" d="M81.216,114.144c0.004-0.054,0.007-0.115,0.01-0.186c0.004-0.069,0.008-0.15,0.015-0.242
		c0.007-0.057,0.011-0.145,0.015-0.262c-0.184,0.298-0.363,0.506-0.537,0.623c-0.172,0.044-0.383,0.066-0.633,0.066
		c-0.517,0-0.922-0.222-1.217-0.666c-0.291-0.444-0.438-1.062-0.438-1.853c0-0.831,0.143-1.475,0.428-1.931
		c0.285-0.46,0.688-0.689,1.207-0.689c0.286,0,0.516,0.063,0.689,0.19c0.184,0.127,0.361,0.347,0.533,0.661
		c-0.01-0.165-0.015-0.265-0.015-0.3l-0.019-0.519v-2.913h1.91v8.019H81.216z M80.342,111.583c0,0.678,0.157,1.016,0.471,1.016
		c0.294,0,0.442-0.349,0.442-1.047c0-0.668-0.143-1.002-0.428-1.002C80.503,110.55,80.342,110.895,80.342,111.583z"/>
	<path fill="#FFFFFF" d="M91.665,111.653c0,0.76-0.223,1.365-0.665,1.815s-1.036,0.676-1.782,0.676
		c-0.731,0-1.314-0.229-1.747-0.689c-0.431-0.462-0.646-1.083-0.646-1.861c0-0.779,0.221-1.404,0.66-1.876
		c0.437-0.475,1.016-0.712,1.738-0.712c0.76,0,1.357,0.236,1.791,0.708C91.448,110.184,91.665,110.83,91.665,111.653z
		 M89.753,111.588c0-0.176-0.012-0.334-0.035-0.476s-0.059-0.263-0.104-0.363s-0.098-0.179-0.16-0.234
		c-0.063-0.056-0.134-0.084-0.211-0.084c-0.152,0-0.275,0.105-0.368,0.315c-0.093,0.185-0.139,0.46-0.139,0.828
		c0,0.362,0.046,0.639,0.139,0.828c0.093,0.21,0.217,0.315,0.372,0.315c0.146,0,0.268-0.104,0.363-0.312
		C89.706,112.176,89.753,111.904,89.753,111.588z"/>
	<path fill="#FFFFFF" d="M94.469,114.144h-1.912v-3.594h-0.551v-1.545h0.551v-0.945c0-0.663,0.145-1.165,0.432-1.507
		c0.287-0.343,0.709-0.514,1.266-0.514c0.275,0,0.575,0.044,0.898,0.133v1.769c-0.168-0.12-0.298-0.181-0.39-0.181
		c-0.196,0-0.294,0.176-0.294,0.527v0.718h0.684v1.545h-0.684V114.144z"/>
	<path fill="#FFFFFF" d="M102.778,111.909l-0.114,1.989c-0.44,0.163-0.835,0.245-1.184,0.245c-0.821,0-1.512-0.291-2.073-0.872
		c-0.627-0.651-0.94-1.574-0.94-2.768c0-1.117,0.294-2.014,0.884-2.689c0.59-0.674,1.377-1.01,2.363-1.01
		c0.319,0,0.646,0.058,0.979,0.173v2.027c-0.295-0.295-0.598-0.441-0.908-0.441c-0.405,0-0.723,0.171-0.95,0.514
		c-0.229,0.345-0.343,0.822-0.343,1.432c0,0.296,0.029,0.56,0.086,0.792s0.139,0.429,0.244,0.589
		c0.107,0.16,0.237,0.283,0.393,0.368s0.333,0.127,0.533,0.127C102.089,112.385,102.432,112.227,102.778,111.909z"/>
</g>
<g enable-background="new    ">
	<path fill="#FFFFFF" d="M105.391,114.144h-1.912v-5.139h1.912l-0.101,1.003c0.288-0.751,0.766-1.126,1.431-1.126v2.139
		c-0.209-0.114-0.387-0.171-0.532-0.171c-0.257,0-0.454,0.093-0.592,0.278c-0.138,0.185-0.206,0.455-0.206,0.81V114.144z"/>
</g>
<g enable-background="new    ">
	<path fill="#FFFFFF" d="M109.969,112.404l1.863,0.038c-0.133,0.564-0.393,0.989-0.777,1.274s-0.889,0.428-1.51,0.428
		c-0.736,0-1.313-0.22-1.732-0.658c-0.416-0.444-0.625-1.052-0.625-1.822c0-0.782,0.225-1.42,0.672-1.913
		c0.448-0.497,1.025-0.745,1.733-0.745c0.704,0,1.265,0.24,1.683,0.721c0.418,0.484,0.628,1.125,0.628,1.925l-0.01,0.325h-2.795
		c0.022,0.495,0.171,0.742,0.446,0.742C109.761,112.718,109.903,112.614,109.969,112.404z M110.007,110.897
		c0-0.067-0.01-0.13-0.033-0.187c-0.021-0.057-0.053-0.105-0.092-0.146c-0.04-0.041-0.086-0.073-0.141-0.097
		c-0.054-0.023-0.112-0.036-0.176-0.036c-0.133,0-0.24,0.044-0.323,0.132c-0.083,0.087-0.124,0.198-0.124,0.334H110.007z"/>
	<path fill="#FFFFFF" d="M117.204,114.144h-1.902c0.016-0.171,0.027-0.334,0.037-0.489s0.02-0.281,0.029-0.376
		c-0.329,0.577-0.77,0.865-1.322,0.865c-0.479,0-0.859-0.231-1.141-0.693c-0.277-0.46-0.416-1.096-0.416-1.908
		c0-0.784,0.145-1.402,0.432-1.853c0.289-0.456,0.682-0.685,1.18-0.685c0.51,0,0.922,0.271,1.236,0.813
		c-0.007-0.063-0.012-0.119-0.015-0.167c-0.003-0.047-0.007-0.087-0.01-0.118l-0.019-0.3l-0.015-0.229h1.925V114.144z
		 M115.294,111.52c0-0.177-0.008-0.326-0.021-0.449c-0.016-0.124-0.038-0.225-0.07-0.303c-0.031-0.077-0.074-0.133-0.125-0.167
		c-0.051-0.033-0.113-0.051-0.188-0.051c-0.326,0-0.49,0.398-0.49,1.194c0,0.569,0.146,0.854,0.438,0.854
		C115.141,112.599,115.294,112.24,115.294,111.52z"/>
	<path fill="#FFFFFF" d="M120.27,114.144h-1.911v-3.594h-0.542v-1.545h0.542v-1.512h1.911v1.512h0.632v1.545h-0.632V114.144z"/>
	<path fill="#FFFFFF" d="M123.483,107.413c0,0.301-0.109,0.561-0.328,0.779c-0.225,0.216-0.486,0.323-0.784,0.323
		c-0.308,0-0.57-0.109-0.789-0.328c-0.216-0.225-0.323-0.488-0.323-0.789c0-0.308,0.107-0.568,0.323-0.784
		c0.226-0.216,0.486-0.323,0.784-0.323c0.314,0,0.578,0.109,0.794,0.328C123.376,106.834,123.483,107.099,123.483,107.413z
		 M123.321,114.144h-1.91v-5.139h1.91V114.144z"/>
</g>
<g enable-background="new    ">
	<path fill="#FFFFFF" d="M127.171,114.144h-1.991l-1.417-5.139h1.93l0.295,1.502c0.041,0.193,0.08,0.434,0.115,0.721
		c0.034,0.287,0.068,0.63,0.104,1.029c0.045-0.365,0.088-0.682,0.129-0.951s0.082-0.501,0.123-0.694l0.328-1.606h1.883
		L127.171,114.144z"/>
</g>
<g enable-background="new    ">
	<path fill="#FFFFFF" d="M131.657,112.404l1.863,0.038c-0.134,0.564-0.393,0.989-0.777,1.274c-0.386,0.285-0.889,0.428-1.51,0.428
		c-0.736,0-1.314-0.22-1.733-0.658c-0.416-0.444-0.624-1.052-0.624-1.822c0-0.782,0.224-1.42,0.672-1.913
		c0.447-0.497,1.025-0.745,1.732-0.745c0.704,0,1.266,0.24,1.684,0.721c0.418,0.484,0.627,1.125,0.627,1.925l-0.01,0.325h-2.795
		c0.022,0.495,0.172,0.742,0.447,0.742C131.448,112.718,131.59,112.614,131.657,112.404z M131.694,110.897
		c0-0.067-0.011-0.13-0.033-0.187c-0.021-0.057-0.053-0.105-0.093-0.146s-0.086-0.073-0.14-0.097
		c-0.055-0.023-0.113-0.036-0.176-0.036c-0.134,0-0.241,0.044-0.324,0.132c-0.082,0.087-0.123,0.198-0.123,0.334H131.694z"/>
</g>
</svg>
