<?xml version="1.0" encoding="utf-8"?>
<!-- Generator: Adobe Illustrator 14.0.0, SVG Export Plug-In . SVG Version: 6.00 Build 43363)  -->
<!DOCTYPE svg PUBLIC "-//W3C//DTD SVG 1.1//EN" "http://www.w3.org/Graphics/SVG/1.1/DTD/svg11.dtd">
<svg version="1.1" id="Calque_1" xmlns="http://www.w3.org/2000/svg" xmlns:xlink="http://www.w3.org/1999/xlink" x="0px" y="0px"
	 width="135.717px" height="121.145px" viewBox="0 0 135.717 121.145" enable-background="new 0 0 135.717 121.145"
	 xml:space="preserve">
<g>
	<g>
		<path fill="none" stroke="#FFFFFF" stroke-width="1.547" d="M76.259,82.134c-7.689-3.237-18.526-0.611-20.29-2.523
			c0,0-0.584-6.093,2.629-8.481c3.213-2.388,6.993-3.672,8.031-7.102s2.336-5.036,0.146-8.255c-2.19-3.218-6.329-9.359-7.545-14.333
			c-1.218-4.973-2.094-11.846,1.704-12.871l-0.73-3.704l2.336,3.12v-5.558l1.396,3.802c0.795-0.584,6.782-6.077,6.782-6.077v1.69
			l6.719-3.656l-0.585,1.479c0,0,4.934-0.894,6.556-1.479c1.623-0.585,5.42-2.422,5.42-2.422l-2.481,3.899l4.381-1.771l-0.584,1.463
			l2.678-1.023l-0.324,1.819l0.486,2.422c0,0,1.395,0.146,1.979-0.586l0.584-0.73c0,0-1.896,5.118-3.504,5.704l2.482-0.439
			l-2.482,2.487c0,0,3.861,4.452,4.672,9.831v1.576l-1.312,1.755l1.021,0.294l-0.877,0.292l2.306,4.095c0,0,2.223,1.868,1.494,3.201
			c-0.73,1.332-2.468,1.627-2.468,1.627l0.812,2.273c0,0-0.027,0.535-0.263,0.944c-0.12,0.211-0.295,0.388-0.549,0.438
			c-0.748,0.145,1.006,1.218-0.455,2.191c0,0-0.811,1.465,0.146,2.927s-2.094,2.471-3.748,2.778
			c-1.424,0.266-4.539,0.902-5.849,0.768c-0.213-0.022-0.379-0.065-0.479-0.134c-0.73-0.487,0,2.145-0.438,3.754
			c-0.438,1.607-2.773,4.826-1.314,6.581c1.461,1.756,4.09,1.737,4.235,4.452c0.146,2.715,0.878,6.37,0.878,6.37
			S84.466,85.8,76.259,82.134z"/>
	</g>
</g>
<g enable-background="new    ">
	<path fill="#FFFFFF" d="M64.974,92.788h-2.144l-0.979-2.614c-0.01-0.045-0.026-0.104-0.05-0.176
		c-0.023-0.073-0.053-0.16-0.088-0.262l0.014,0.485v2.566h-1.973v-7.339h2.03c0.894,0,1.562,0.176,2.006,0.527
		c0.564,0.45,0.846,1.09,0.846,1.92c0,0.888-0.378,1.501-1.136,1.84L64.974,92.788z M61.738,88.743h0.133
		c0.229,0,0.418-0.087,0.571-0.262c0.152-0.174,0.228-0.396,0.228-0.665c0-0.549-0.287-0.822-0.86-0.822h-0.071V88.743z"/>
</g>
<g enable-background="new    ">
	<path fill="#FFFFFF" d="M70.089,92.788h-1.904c0.016-0.171,0.028-0.334,0.038-0.489c0.01-0.155,0.019-0.281,0.029-0.376
		c-0.329,0.577-0.769,0.865-1.321,0.865c-0.479,0-0.86-0.231-1.141-0.693c-0.278-0.46-0.417-1.096-0.417-1.908
		c0-0.784,0.144-1.402,0.432-1.853c0.289-0.456,0.682-0.685,1.179-0.685c0.51,0,0.922,0.271,1.236,0.813
		c-0.006-0.063-0.011-0.119-0.014-0.167c-0.003-0.047-0.006-0.087-0.01-0.118l-0.019-0.3l-0.014-0.229h1.926V92.788z M68.177,90.164
		c0-0.177-0.007-0.326-0.021-0.449c-0.015-0.124-0.038-0.225-0.07-0.303c-0.032-0.077-0.074-0.133-0.125-0.167
		c-0.051-0.033-0.113-0.051-0.187-0.051c-0.327,0-0.49,0.398-0.49,1.194c0,0.569,0.146,0.854,0.438,0.854
		C68.025,91.243,68.177,90.884,68.177,90.164z"/>
	<path fill="#FFFFFF" d="M72.897,95.079h-1.911v-7.43h1.906l-0.038,0.728c0.079-0.152,0.16-0.281,0.242-0.388
		c0.082-0.105,0.172-0.189,0.267-0.249c0.095-0.061,0.197-0.091,0.307-0.091s0.23,0,0.363,0c0.495,0,0.897,0.237,1.208,0.712
		c0.307,0.469,0.461,1.091,0.461,1.866c0,0.788-0.147,1.412-0.442,1.871c-0.288,0.46-0.687,0.689-1.192,0.689
		c-0.463,0-0.867-0.268-1.213-0.804c0.016,0.162,0.025,0.302,0.029,0.419c0.009,0.12,0.014,0.265,0.014,0.435V95.079z M73.786,90.19
		c0-0.315-0.039-0.56-0.116-0.733c-0.077-0.175-0.188-0.262-0.331-0.262c-0.294,0-0.441,0.338-0.441,1.014
		c0,0.69,0.143,1.035,0.428,1.035c0.143,0,0.255-0.092,0.338-0.276C73.745,90.782,73.786,90.524,73.786,90.19z"/>
	<path fill="#FFFFFF" d="M80.964,92.788h-1.91V90.07c0-0.234-0.023-0.397-0.069-0.49c-0.046-0.092-0.126-0.138-0.239-0.138
		c-0.268,0-0.4,0.252-0.4,0.756v2.591h-1.91V84.77h1.91v2.971c0,0.155,0,0.285-0.002,0.39s-0.004,0.184-0.008,0.237
		c-0.002,0.054-0.008,0.111-0.014,0.171c-0.006,0.061-0.013,0.127-0.02,0.2c0.309-0.726,0.76-1.089,1.354-1.089
		c0.412,0,0.732,0.15,0.961,0.452c0.232,0.301,0.348,0.72,0.348,1.256V92.788z"/>
	<path fill="#FFFFFF" d="M86.401,92.788h-1.902c0.016-0.171,0.027-0.334,0.037-0.489s0.02-0.281,0.029-0.376
		c-0.329,0.577-0.77,0.865-1.322,0.865c-0.479,0-0.859-0.231-1.141-0.693c-0.277-0.46-0.416-1.096-0.416-1.908
		c0-0.784,0.145-1.402,0.432-1.853c0.289-0.456,0.682-0.685,1.18-0.685c0.51,0,0.922,0.271,1.236,0.813
		c-0.007-0.063-0.012-0.119-0.015-0.167c-0.003-0.047-0.007-0.087-0.01-0.118l-0.019-0.3l-0.015-0.229h1.925V92.788z M84.491,90.164
		c0-0.177-0.008-0.326-0.021-0.449c-0.016-0.124-0.038-0.225-0.07-0.303c-0.031-0.077-0.074-0.133-0.125-0.167
		c-0.051-0.033-0.113-0.051-0.188-0.051c-0.326,0-0.49,0.398-0.49,1.194c0,0.569,0.146,0.854,0.438,0.854
		C84.339,91.243,84.491,90.884,84.491,90.164z"/>
	<path fill="#FFFFFF" d="M89.934,91.048l1.863,0.038c-0.134,0.564-0.393,0.989-0.777,1.274c-0.386,0.285-0.889,0.428-1.51,0.428
		c-0.736,0-1.314-0.22-1.733-0.658c-0.416-0.444-0.624-1.052-0.624-1.822c0-0.782,0.224-1.42,0.672-1.913
		c0.447-0.497,1.025-0.745,1.732-0.745c0.704,0,1.266,0.24,1.684,0.721c0.418,0.484,0.627,1.125,0.627,1.925l-0.01,0.325h-2.795
		c0.022,0.495,0.172,0.742,0.447,0.742C89.725,91.363,89.867,91.258,89.934,91.048z M89.263,86.233c0,0.204-0.079,0.384-0.237,0.539
		c-0.158,0.148-0.344,0.223-0.557,0.223c-0.229,0-0.42-0.076-0.575-0.228s-0.233-0.336-0.233-0.553c0-0.21,0.078-0.39,0.233-0.538
		c0.155-0.151,0.343-0.227,0.562-0.227c0.225,0,0.414,0.075,0.57,0.227C89.184,85.831,89.263,86.017,89.263,86.233z M89.971,89.541
		c0-0.067-0.011-0.13-0.033-0.187c-0.021-0.057-0.053-0.105-0.093-0.146s-0.086-0.073-0.14-0.097
		c-0.055-0.023-0.113-0.036-0.176-0.036c-0.134,0-0.241,0.044-0.324,0.132c-0.082,0.087-0.123,0.198-0.123,0.334H89.971z
		 M91.374,86.233c0,0.208-0.078,0.387-0.232,0.539c-0.158,0.148-0.346,0.223-0.561,0.223c-0.226,0-0.416-0.076-0.571-0.228
		s-0.233-0.336-0.233-0.553c0-0.21,0.078-0.39,0.233-0.538c0.155-0.151,0.343-0.227,0.562-0.227c0.225,0,0.414,0.075,0.57,0.227
		C91.296,85.828,91.374,86.014,91.374,86.233z"/>
	<path fill="#FFFFFF" d="M94.51,92.788H92.6V84.77h1.91V92.788z"/>
</g>
<g enable-background="new    ">
	<path fill="#FBD200" d="M66.747,104.47h-1.982v-5.58h-1.093v-1.759h4.211v1.759h-1.136V104.47z"/>
</g>
<g enable-background="new    ">
	<path fill="#FBD200" d="M73.83,100.825c0,1.08-0.255,1.959-0.766,2.635c-0.507,0.673-1.167,1.01-1.981,1.01
		c-0.723,0-1.343-0.259-1.859-0.775c-0.649-0.655-0.974-1.638-0.974-2.947c0-1.254,0.339-2.214,1.017-2.878
		c0.504-0.492,1.102-0.738,1.792-0.738c0.847,0,1.52,0.333,2.021,1C73.579,98.798,73.83,99.697,73.83,100.825z M71.771,100.842
		c0-1.302-0.234-1.952-0.703-1.952c-0.235,0-0.422,0.171-0.562,0.513c-0.136,0.316-0.204,0.782-0.204,1.397
		c0,0.606,0.064,1.076,0.192,1.41c0.129,0.334,0.307,0.501,0.535,0.501c0.234,0,0.415-0.165,0.541-0.494
		C71.705,101.888,71.771,101.43,71.771,100.842z"/>
	<path fill="#FBD200" d="M82.163,104.47h-2.006l-0.082-3.347l-0.063-1.335c-0.023,0.256-0.05,0.501-0.079,0.734
		c-0.03,0.232-0.066,0.458-0.109,0.677l-0.648,3.271h-1.646l-0.533-3.275c-0.031-0.189-0.074-0.517-0.128-0.979
		c-0.007-0.07-0.021-0.213-0.042-0.428l-0.049,1.354L76.6,104.47h-2.109l0.855-7.339h2.467l0.413,2.472
		c0.035,0.202,0.065,0.423,0.093,0.66c0.027,0.238,0.052,0.496,0.074,0.775c0.04-0.466,0.096-0.883,0.167-1.25l0.493-2.657h2.396
		L82.163,104.47z"/>
	<path fill="#FBD200" d="M85.091,104.47h-1.982v-7.339h1.982V104.47z"/>
	<path fill="#FBD200" d="M90.243,102.236l-0.113,1.989c-0.441,0.163-0.836,0.245-1.184,0.245c-0.821,0-1.512-0.291-2.073-0.872
		c-0.628-0.651-0.94-1.574-0.94-2.768c0-1.117,0.294-2.014,0.883-2.689c0.59-0.674,1.377-1.01,2.363-1.01
		c0.32,0,0.646,0.058,0.979,0.173v2.027c-0.294-0.295-0.597-0.441-0.907-0.441c-0.405,0-0.723,0.171-0.95,0.514
		c-0.229,0.345-0.343,0.822-0.343,1.432c0,0.296,0.028,0.56,0.085,0.792c0.058,0.232,0.139,0.429,0.245,0.589
		s0.237,0.283,0.393,0.368s0.333,0.127,0.532,0.127C89.553,102.711,89.897,102.553,90.243,102.236z"/>
</g>
<g enable-background="new    ">
	<path fill="#FFFFFF" d="M22.496,116.153h-1.982v-7.339h3.503v1.759h-1.521v0.936h1.417v1.759h-1.417V116.153z"/>
</g>
<g enable-background="new    ">
	<path fill="#FFFFFF" d="M29.398,113.661c0,0.76-0.222,1.365-0.665,1.815s-1.037,0.676-1.782,0.676
		c-0.732,0-1.314-0.229-1.748-0.689c-0.43-0.462-0.645-1.083-0.645-1.861c0-0.779,0.22-1.404,0.659-1.876
		c0.437-0.475,1.016-0.712,1.738-0.712c0.761,0,1.358,0.236,1.792,0.708C29.181,112.193,29.398,112.839,29.398,113.661z
		 M27.487,113.597c0-0.176-0.012-0.334-0.036-0.476s-0.058-0.263-0.103-0.363s-0.099-0.179-0.161-0.234
		c-0.063-0.056-0.133-0.084-0.211-0.084c-0.152,0-0.275,0.105-0.368,0.315c-0.092,0.185-0.139,0.46-0.139,0.828
		c0,0.362,0.046,0.639,0.139,0.828c0.093,0.21,0.217,0.315,0.372,0.315c0.146,0,0.268-0.104,0.363-0.312
		C27.439,114.185,27.487,113.912,27.487,113.597z"/>
	<path fill="#FFFFFF" d="M30.073,111.014h1.911v2.896c0,0.275,0.027,0.477,0.081,0.604c0.057,0.104,0.165,0.156,0.323,0.156
		c0.155,0,0.26-0.052,0.314-0.156c0.057-0.104,0.085-0.306,0.085-0.604v-2.896h1.911v3.089c0,0.205-0.017,0.391-0.05,0.557
		s-0.086,0.317-0.157,0.452s-0.164,0.259-0.276,0.37c-0.113,0.112-0.247,0.215-0.402,0.308c-0.419,0.242-0.894,0.363-1.424,0.363
		c-0.537,0-1.011-0.121-1.424-0.363c-0.159-0.093-0.295-0.195-0.408-0.306c-0.112-0.109-0.205-0.233-0.276-0.37
		c-0.072-0.137-0.124-0.288-0.157-0.454c-0.034-0.166-0.05-0.352-0.05-0.557V111.014z"/>
	<path fill="#FFFFFF" d="M40.297,116.153h-1.911v-2.719c0-0.234-0.029-0.397-0.088-0.49c-0.059-0.092-0.161-0.138-0.306-0.138
		c-0.34,0-0.509,0.252-0.509,0.756v2.591h-1.911v-5.139h1.911c-0.003,0.127-0.006,0.244-0.01,0.352
		c-0.003,0.108-0.008,0.208-0.014,0.3l-0.019,0.328c0.329-0.653,0.812-0.979,1.45-0.979c0.443,0,0.788,0.15,1.034,0.452
		c0.249,0.301,0.374,0.72,0.374,1.256V116.153z"/>
	<path fill="#FFFFFF" d="M43.61,116.153c0.003-0.054,0.006-0.115,0.01-0.186c0.003-0.069,0.008-0.15,0.014-0.242
		c0.006-0.057,0.011-0.145,0.014-0.262c-0.184,0.298-0.363,0.506-0.537,0.623c-0.171,0.044-0.382,0.066-0.632,0.066
		c-0.517,0-0.922-0.222-1.217-0.666c-0.292-0.444-0.437-1.062-0.437-1.853c0-0.831,0.143-1.475,0.428-1.931
		c0.285-0.46,0.688-0.689,1.207-0.689c0.286,0,0.515,0.063,0.689,0.19c0.184,0.127,0.361,0.347,0.532,0.661
		c-0.009-0.165-0.014-0.265-0.014-0.3l-0.019-0.519v-2.913h1.911v8.019H43.61z M42.736,113.592c0,0.678,0.157,1.016,0.471,1.016
		c0.294,0,0.442-0.349,0.442-1.047c0-0.668-0.143-1.002-0.428-1.002C42.897,112.559,42.736,112.904,42.736,113.592z"/>
	<path fill="#FFFFFF" d="M49.072,114.412l1.863,0.038c-0.133,0.564-0.392,0.989-0.777,1.274s-0.888,0.428-1.509,0.428
		c-0.736,0-1.314-0.22-1.733-0.658c-0.416-0.444-0.624-1.052-0.624-1.822c0-0.782,0.224-1.42,0.672-1.913
		c0.448-0.497,1.025-0.745,1.733-0.745c0.704,0,1.265,0.24,1.683,0.721c0.418,0.484,0.627,1.125,0.627,1.925l-0.01,0.325h-2.795
		c0.022,0.495,0.171,0.742,0.447,0.742C48.864,114.727,49.005,114.622,49.072,114.412z M49.11,112.906
		c0-0.067-0.011-0.13-0.033-0.187c-0.022-0.057-0.053-0.105-0.093-0.146c-0.04-0.041-0.086-0.073-0.14-0.097
		c-0.054-0.023-0.112-0.036-0.176-0.036c-0.133,0-0.241,0.044-0.323,0.132c-0.083,0.087-0.124,0.198-0.124,0.334H49.11z"/>
	<path fill="#FFFFFF" d="M53.65,116.153h-1.911v-5.139h1.911l-0.1,1.003c0.289-0.751,0.766-1.126,1.431-1.126v2.139
		c-0.209-0.114-0.387-0.171-0.533-0.171c-0.256,0-0.454,0.093-0.592,0.278c-0.138,0.185-0.207,0.455-0.207,0.81V116.153z"/>
	<path fill="#FFFFFF" d="M56.155,118.444l-1.031-0.583l5.248-9.77l1.037,0.55L56.155,118.444z"/>
	<path fill="#FFFFFF" d="M65.571,116.153h-3.47v-7.339h1.982v5.58h1.488V116.153z"/>
	<path fill="#FFFFFF" d="M68.723,114.412l1.863,0.038c-0.134,0.564-0.393,0.989-0.777,1.274c-0.386,0.285-0.889,0.428-1.51,0.428
		c-0.736,0-1.314-0.22-1.733-0.658c-0.416-0.444-0.624-1.052-0.624-1.822c0-0.782,0.224-1.42,0.672-1.913
		c0.448-0.497,1.025-0.745,1.733-0.745c0.704,0,1.265,0.24,1.683,0.721c0.418,0.484,0.627,1.125,0.627,1.925l-0.01,0.325h-2.794
		c0.022,0.495,0.171,0.742,0.447,0.742C68.514,114.727,68.656,114.622,68.723,114.412z M68.76,112.906
		c0-0.067-0.011-0.13-0.033-0.187c-0.021-0.057-0.053-0.105-0.093-0.146s-0.086-0.073-0.14-0.097
		c-0.055-0.023-0.113-0.036-0.176-0.036c-0.133,0-0.241,0.044-0.323,0.132c-0.083,0.087-0.124,0.198-0.124,0.334H68.76z"/>
	<path fill="#FFFFFF" d="M75.958,116.153h-1.904c0.016-0.171,0.029-0.334,0.038-0.489c0.01-0.155,0.019-0.281,0.028-0.376
		c-0.328,0.577-0.768,0.865-1.32,0.865c-0.48,0-0.86-0.231-1.141-0.693c-0.278-0.46-0.417-1.096-0.417-1.908
		c0-0.784,0.144-1.402,0.433-1.853c0.288-0.456,0.682-0.685,1.179-0.685c0.511,0,0.922,0.271,1.235,0.813
		c-0.006-0.063-0.011-0.119-0.014-0.167c-0.004-0.047-0.006-0.087-0.01-0.118l-0.02-0.3l-0.014-0.229h1.926V116.153z
		 M74.046,113.529c0-0.177-0.007-0.326-0.021-0.449c-0.014-0.124-0.037-0.225-0.069-0.303c-0.032-0.077-0.073-0.133-0.125-0.167
		c-0.052-0.033-0.113-0.051-0.187-0.051c-0.327,0-0.49,0.398-0.49,1.194c0,0.569,0.145,0.854,0.438,0.854
		C73.894,114.608,74.046,114.248,74.046,113.529z"/>
	<path fill="#FFFFFF" d="M79.494,116.153c0.003-0.054,0.007-0.115,0.01-0.186c0.003-0.069,0.008-0.15,0.015-0.242
		c0.006-0.057,0.011-0.145,0.014-0.262c-0.184,0.298-0.363,0.506-0.537,0.623c-0.171,0.044-0.382,0.066-0.633,0.066
		c-0.516,0-0.922-0.222-1.217-0.666c-0.291-0.444-0.437-1.062-0.437-1.853c0-0.831,0.143-1.475,0.428-1.931
		c0.285-0.46,0.688-0.689,1.207-0.689c0.286,0,0.515,0.063,0.689,0.19c0.184,0.127,0.361,0.347,0.532,0.661
		c-0.01-0.165-0.014-0.265-0.014-0.3l-0.02-0.519v-2.913h1.911v8.019H79.494z M78.62,113.592c0,0.678,0.156,1.016,0.471,1.016
		c0.294,0,0.441-0.349,0.441-1.047c0-0.668-0.143-1.002-0.428-1.002C78.781,112.559,78.62,112.904,78.62,113.592z"/>
	<path fill="#FFFFFF" d="M85.321,116.153v-7.339h1.712c0.979,0,1.741,0.263,2.286,0.789c0.717,0.688,1.074,1.649,1.074,2.885
		c0,1.217-0.303,2.156-0.908,2.819c-0.516,0.563-1.286,0.846-2.31,0.846H85.321z M87.303,114.394
		c0.711-0.035,1.065-0.646,1.065-1.835c0-0.586-0.091-1.049-0.271-1.388c-0.182-0.343-0.426-0.514-0.732-0.514h-0.062V114.394z"/>
</g>
<g enable-background="new    ">
	<path fill="#FFFFFF" d="M93.802,114.412l1.863,0.038c-0.133,0.564-0.393,0.989-0.777,1.274s-0.889,0.428-1.51,0.428
		c-0.736,0-1.313-0.22-1.732-0.658c-0.416-0.444-0.625-1.052-0.625-1.822c0-0.782,0.225-1.42,0.672-1.913
		c0.448-0.497,1.025-0.745,1.733-0.745c0.704,0,1.265,0.24,1.683,0.721c0.418,0.484,0.628,1.125,0.628,1.925l-0.01,0.325h-2.795
		c0.022,0.495,0.171,0.742,0.446,0.742C93.594,114.727,93.735,114.622,93.802,114.412z M93.839,112.906
		c0-0.067-0.01-0.13-0.033-0.187c-0.021-0.057-0.053-0.105-0.092-0.146c-0.04-0.041-0.086-0.073-0.141-0.097
		c-0.054-0.023-0.112-0.036-0.176-0.036c-0.133,0-0.24,0.044-0.323,0.132c-0.083,0.087-0.124,0.198-0.124,0.334H93.839z"/>
</g>
<g enable-background="new    ">
	<path fill="#FFFFFF" d="M99.366,116.153h-1.991l-1.417-5.139h1.93l0.295,1.502c0.041,0.193,0.08,0.434,0.115,0.721
		c0.034,0.287,0.068,0.63,0.104,1.029c0.045-0.365,0.088-0.682,0.129-0.951s0.082-0.501,0.123-0.694l0.328-1.606h1.883
		L99.366,116.153z"/>
</g>
<g enable-background="new    ">
	<path fill="#FFFFFF" d="M103.85,114.412l1.863,0.038c-0.133,0.564-0.392,0.989-0.777,1.274c-0.385,0.285-0.888,0.428-1.509,0.428
		c-0.736,0-1.313-0.22-1.733-0.658c-0.416-0.444-0.624-1.052-0.624-1.822c0-0.782,0.224-1.42,0.672-1.913
		c0.448-0.497,1.025-0.745,1.733-0.745c0.703,0,1.264,0.24,1.683,0.721c0.418,0.484,0.628,1.125,0.628,1.925l-0.01,0.325h-2.795
		c0.021,0.495,0.171,0.742,0.446,0.742C103.643,114.727,103.784,114.622,103.85,114.412z M103.888,112.906
		c0-0.067-0.011-0.13-0.033-0.187s-0.053-0.105-0.093-0.146c-0.039-0.041-0.086-0.073-0.141-0.097
		c-0.053-0.023-0.111-0.036-0.176-0.036c-0.133,0-0.24,0.044-0.322,0.132c-0.083,0.087-0.124,0.198-0.124,0.334H103.888z"/>
	<path fill="#FFFFFF" d="M108.428,116.153h-1.911v-8.019h1.911V116.153z"/>
	<path fill="#FFFFFF" d="M113.999,113.661c0,0.76-0.221,1.365-0.664,1.815s-1.037,0.676-1.781,0.676
		c-0.732,0-1.314-0.229-1.748-0.689c-0.43-0.462-0.645-1.083-0.645-1.861c0-0.779,0.219-1.404,0.658-1.876
		c0.438-0.475,1.017-0.712,1.738-0.712c0.762,0,1.358,0.236,1.792,0.708C113.782,112.193,113.999,112.839,113.999,113.661z
		 M112.089,113.597c0-0.176-0.012-0.334-0.036-0.476s-0.058-0.263-0.103-0.363s-0.1-0.179-0.162-0.234s-0.133-0.084-0.211-0.084
		c-0.152,0-0.274,0.105-0.367,0.315c-0.092,0.185-0.139,0.46-0.139,0.828c0,0.362,0.047,0.639,0.139,0.828
		c0.093,0.21,0.217,0.315,0.372,0.315c0.146,0,0.268-0.104,0.363-0.312C112.04,114.185,112.089,113.912,112.089,113.597z"/>
	<path fill="#FFFFFF" d="M116.585,118.444h-1.91v-7.43h1.906l-0.039,0.728c0.08-0.152,0.16-0.281,0.243-0.388
		c0.082-0.105,0.171-0.189,0.267-0.249c0.095-0.061,0.197-0.091,0.307-0.091s0.23,0,0.363,0c0.494,0,0.896,0.237,1.207,0.712
		c0.308,0.469,0.461,1.091,0.461,1.866c0,0.788-0.146,1.412-0.441,1.871c-0.289,0.46-0.687,0.689-1.193,0.689
		c-0.463,0-0.867-0.268-1.213-0.804c0.017,0.162,0.025,0.302,0.029,0.419c0.01,0.12,0.014,0.265,0.014,0.435V118.444z
		 M117.473,113.554c0-0.315-0.038-0.56-0.115-0.733c-0.078-0.175-0.188-0.262-0.331-0.262c-0.294,0-0.442,0.338-0.442,1.014
		c0,0.69,0.143,1.035,0.428,1.035c0.143,0,0.256-0.092,0.338-0.276S117.473,113.888,117.473,113.554z"/>
	<path fill="#FFFFFF" d="M122.032,118.444h-1.91v-7.43h1.906l-0.039,0.728c0.08-0.152,0.16-0.281,0.243-0.388
		c0.082-0.105,0.171-0.189,0.267-0.249c0.095-0.061,0.197-0.091,0.307-0.091s0.23,0,0.363,0c0.494,0,0.896,0.237,1.207,0.712
		c0.308,0.469,0.461,1.091,0.461,1.866c0,0.788-0.146,1.412-0.441,1.871c-0.289,0.46-0.687,0.689-1.193,0.689
		c-0.463,0-0.867-0.268-1.213-0.804c0.017,0.162,0.025,0.302,0.029,0.419c0.01,0.12,0.014,0.265,0.014,0.435V118.444z
		 M122.921,113.554c0-0.315-0.038-0.56-0.115-0.733c-0.078-0.175-0.188-0.262-0.331-0.262c-0.294,0-0.442,0.338-0.442,1.014
		c0,0.69,0.143,1.035,0.428,1.035c0.143,0,0.256-0.092,0.338-0.276S122.921,113.888,122.921,113.554z"/>
	<path fill="#FFFFFF" d="M128.202,114.412l1.863,0.038c-0.133,0.564-0.392,0.989-0.777,1.274c-0.385,0.285-0.888,0.428-1.509,0.428
		c-0.736,0-1.313-0.22-1.733-0.658c-0.416-0.444-0.624-1.052-0.624-1.822c0-0.782,0.224-1.42,0.672-1.913
		c0.448-0.497,1.025-0.745,1.733-0.745c0.703,0,1.264,0.24,1.683,0.721c0.418,0.484,0.628,1.125,0.628,1.925l-0.01,0.325h-2.795
		c0.021,0.495,0.171,0.742,0.446,0.742C127.995,114.727,128.135,114.622,128.202,114.412z M128.24,112.906
		c0-0.067-0.011-0.13-0.033-0.187s-0.053-0.105-0.093-0.146c-0.039-0.041-0.086-0.073-0.141-0.097
		c-0.053-0.023-0.111-0.036-0.176-0.036c-0.133,0-0.24,0.044-0.322,0.132c-0.083,0.087-0.124,0.198-0.124,0.334H128.24z"/>
	<path fill="#FFFFFF" d="M132.78,116.153h-1.911v-5.139h1.911l-0.1,1.003c0.288-0.751,0.766-1.126,1.431-1.126v2.139
		c-0.21-0.114-0.387-0.171-0.532-0.171c-0.257,0-0.454,0.093-0.592,0.278c-0.139,0.185-0.207,0.455-0.207,0.81V116.153z"/>
</g>
</svg>
