<?xml version="1.0" encoding="utf-8"?>
<!-- Generator: Adobe Illustrator 14.0.0, SVG Export Plug-In . SVG Version: 6.00 Build 43363)  -->
<!DOCTYPE svg PUBLIC "-//W3C//DTD SVG 1.1//EN" "http://www.w3.org/Graphics/SVG/1.1/DTD/svg11.dtd">
<svg version="1.1" id="Calque_1" xmlns="http://www.w3.org/2000/svg" xmlns:xlink="http://www.w3.org/1999/xlink" x="0px" y="0px"
	 width="135.717px" height="121.145px" viewBox="0 0 135.717 121.145" enable-background="new 0 0 135.717 121.145"
	 xml:space="preserve">
<g enable-background="new    ">
	<path fill="#FFFFFF" d="M63.009,92.856v-6.562h2.061c0.771,0,1.341,0.17,1.713,0.51c0.376,0.349,0.565,0.799,0.565,1.352
		c0,0.821-0.408,1.267-1.224,1.334c0.464,0.068,0.805,0.222,1.022,0.459c0.217,0.238,0.325,0.581,0.325,1.029
		c0,0.563-0.183,1.017-0.548,1.359c-0.363,0.346-0.84,0.519-1.432,0.519H63.009z M64.781,88.793H64.9c0.212,0,0.38-0.05,0.503-0.149
		c0.124-0.099,0.185-0.237,0.185-0.416c0-0.38-0.208-0.569-0.625-0.569c-0.02,0-0.045,0.001-0.075,0.002
		c-0.03,0.002-0.066,0.004-0.108,0.007V88.793z M64.781,91.466c0.034,0.003,0.064,0.005,0.089,0.006
		c0.025,0.002,0.047,0.003,0.064,0.003c0.221,0,0.397-0.06,0.529-0.179c0.132-0.12,0.198-0.279,0.198-0.48s-0.066-0.357-0.198-0.472
		c-0.132-0.113-0.312-0.17-0.542-0.17h-0.14V91.466z"/>
	<path fill="#FFFFFF" d="M70.012,86.838c0,0.27-0.098,0.501-0.293,0.697c-0.201,0.192-0.436,0.289-0.701,0.289
		c-0.275,0-0.51-0.099-0.706-0.294c-0.193-0.201-0.289-0.436-0.289-0.705c0-0.274,0.096-0.509,0.289-0.701
		c0.202-0.192,0.435-0.289,0.702-0.289c0.28,0,0.517,0.098,0.709,0.293C69.917,86.322,70.012,86.558,70.012,86.838z M69.868,92.856
		H68.16v-4.594h1.708V92.856z"/>
	<path fill="#FFFFFF" d="M74.884,92.856h-1.709v-2.431c0-0.21-0.026-0.355-0.078-0.438c-0.053-0.083-0.145-0.124-0.274-0.124
		c-0.304,0-0.455,0.226-0.455,0.676v2.316h-1.708v-4.594h1.708c-0.003,0.113-0.006,0.218-0.009,0.314
		c-0.002,0.096-0.007,0.186-0.012,0.268l-0.018,0.293c0.294-0.583,0.727-0.875,1.296-0.875c0.396,0,0.704,0.135,0.925,0.403
		c0.223,0.27,0.334,0.644,0.334,1.124V92.856z"/>
</g>
<g enable-background="new    ">
	<path fill="#FFFFFF" d="M77.841,91.3l1.666,0.034c-0.119,0.505-0.351,0.885-0.695,1.139c-0.344,0.256-0.793,0.383-1.35,0.383
		c-0.658,0-1.174-0.196-1.549-0.588c-0.372-0.397-0.559-0.94-0.559-1.63c0-0.699,0.201-1.27,0.602-1.711
		c0.4-0.443,0.916-0.665,1.549-0.665c0.629,0,1.131,0.215,1.505,0.645c0.374,0.433,0.561,1.006,0.561,1.72l-0.009,0.292h-2.498
		c0.02,0.441,0.152,0.662,0.398,0.662C77.655,91.58,77.781,91.488,77.841,91.3z M77.875,89.953c0-0.061-0.011-0.116-0.03-0.167
		s-0.047-0.095-0.082-0.131c-0.036-0.037-0.078-0.065-0.126-0.087s-0.101-0.032-0.157-0.032c-0.119,0-0.215,0.039-0.289,0.117
		c-0.073,0.078-0.11,0.178-0.11,0.3H77.875z"/>
</g>
<g enable-background="new    ">
	<path fill="#FFFFFF" d="M82.173,92.856h-1.709v-3.213h-0.484v-1.381h0.484V86.91h1.709v1.352h0.564v1.381h-0.564V92.856z"/>
</g>
<g enable-background="new    ">
	<path fill="#FFFFFF" d="M87.432,90.628c0,0.68-0.197,1.222-0.594,1.624s-0.927,0.604-1.593,0.604c-0.654,0-1.175-0.205-1.562-0.616
		c-0.385-0.413-0.577-0.968-0.577-1.664s0.197-1.256,0.59-1.677c0.391-0.425,0.908-0.637,1.555-0.637
		c0.68,0,1.213,0.211,1.601,0.632C87.239,89.316,87.432,89.894,87.432,90.628z M85.724,90.571c0-0.156-0.011-0.298-0.032-0.425
		S85.64,89.91,85.6,89.821c-0.041-0.09-0.088-0.16-0.145-0.209c-0.057-0.05-0.119-0.075-0.188-0.075
		c-0.137,0-0.246,0.095-0.329,0.282c-0.083,0.164-0.124,0.411-0.124,0.74c0,0.323,0.041,0.57,0.124,0.74
		c0.083,0.188,0.193,0.281,0.333,0.281c0.131,0,0.238-0.092,0.324-0.277C85.681,91.097,85.724,90.853,85.724,90.571z"/>
	<path fill="#FFFFFF" d="M88.036,88.262h1.709v2.588c0,0.246,0.023,0.427,0.072,0.54c0.051,0.093,0.146,0.14,0.289,0.14
		c0.139,0,0.232-0.047,0.279-0.14c0.052-0.094,0.077-0.273,0.077-0.54v-2.588h1.708v2.761c0,0.184-0.015,0.35-0.045,0.498
		c-0.029,0.148-0.076,0.283-0.141,0.404c-0.062,0.121-0.146,0.231-0.246,0.331c-0.102,0.1-0.221,0.191-0.359,0.274
		c-0.375,0.217-0.8,0.325-1.273,0.325c-0.48,0-0.904-0.108-1.273-0.325c-0.143-0.083-0.264-0.174-0.364-0.272
		s-0.183-0.209-0.247-0.331s-0.111-0.258-0.141-0.406s-0.045-0.314-0.045-0.498V88.262z"/>
</g>
<g enable-background="new    ">
	<path fill="#FBD200" d="M68.355,99.504h2.473v0.264c0,1.227-0.188,2.109-0.565,2.648c-0.41,0.589-1.018,0.883-1.822,0.883
		c-0.791,0-1.412-0.287-1.862-0.861c-0.448-0.58-0.671-1.377-0.671-2.389c0-1.025,0.225-1.834,0.675-2.425
		c0.451-0.591,1.067-0.887,1.848-0.887c1.037,0,1.789,0.538,2.258,1.615l-1.717,0.629c-0.026-0.207-0.085-0.371-0.178-0.491
		c-0.092-0.12-0.207-0.181-0.346-0.181c-0.487,0-0.731,0.63-0.731,1.888c0,0.535,0.054,0.924,0.162,1.166
		c0.107,0.242,0.279,0.363,0.515,0.363c0.093,0,0.178-0.021,0.254-0.061c0.077-0.04,0.142-0.096,0.193-0.169
		c0.053-0.072,0.094-0.16,0.124-0.265c0.03-0.104,0.044-0.22,0.044-0.348h-0.654V99.504z"/>
	<path fill="#FBD200" d="M74.261,96.738h1.772v4.561c0,0.382-0.061,0.691-0.184,0.928c-0.119,0.248-0.316,0.472-0.594,0.672
		c-0.375,0.268-0.829,0.401-1.365,0.401c-0.605,0-1.114-0.147-1.525-0.442c-0.521-0.376-0.781-0.978-0.781-1.805v-4.314h1.771v4.208
		c0,0.284,0.035,0.485,0.104,0.604s0.187,0.178,0.351,0.178c0.17,0,0.287-0.055,0.353-0.165c0.065-0.115,0.098-0.319,0.098-0.612
		V96.738z"/>
	<path fill="#FBD200" d="M76.952,103.299v-6.562h3.293v1.572h-1.521v0.837h1.365v1.573h-1.365v1.007h1.521v1.572H76.952z"/>
	<path fill="#FBD200" d="M83.942,103.299h-1.771v-2.779l-1.628-3.782h1.849l0.318,0.974c0.062,0.189,0.119,0.372,0.168,0.548
		c0.05,0.176,0.094,0.344,0.135,0.506c0.064-0.241,0.121-0.448,0.17-0.623c0.047-0.174,0.09-0.314,0.127-0.423l0.322-0.981h1.836
		l-1.525,3.782V103.299z"/>
	<path fill="#FBD200" d="M85.927,103.299v-6.562h3.294v1.572h-1.521v0.837h1.364v1.573h-1.364v1.007h1.521v1.572H85.927z"/>
</g>
<g enable-background="new    ">
	<path fill="#FFFFFF" d="M32.091,113.744h-1.772v-6.562h3.132v1.572h-1.36v0.837h1.267v1.573h-1.267V113.744z"/>
</g>
<g enable-background="new    ">
	<path fill="#FFFFFF" d="M38.261,111.517c0,0.68-0.198,1.222-0.594,1.624s-0.927,0.604-1.593,0.604
		c-0.654,0-1.175-0.205-1.562-0.616c-0.385-0.413-0.577-0.968-0.577-1.664s0.196-1.256,0.589-1.677
		c0.391-0.425,0.909-0.637,1.554-0.637c0.68,0,1.214,0.211,1.601,0.632C38.068,110.204,38.261,110.782,38.261,111.517z
		 M36.553,111.459c0-0.156-0.011-0.298-0.032-0.425s-0.052-0.235-0.092-0.325c-0.041-0.09-0.088-0.16-0.145-0.209
		c-0.056-0.05-0.119-0.075-0.188-0.075c-0.136,0-0.246,0.095-0.329,0.282c-0.083,0.164-0.125,0.411-0.125,0.74
		c0,0.323,0.042,0.57,0.125,0.74c0.083,0.188,0.193,0.281,0.333,0.281c0.131,0,0.239-0.092,0.324-0.277
		C36.51,111.986,36.553,111.741,36.553,111.459z"/>
	<path fill="#FFFFFF" d="M38.865,109.151h1.708v2.588c0,0.246,0.024,0.427,0.072,0.54c0.051,0.093,0.147,0.14,0.289,0.14
		c0.139,0,0.232-0.047,0.28-0.14c0.051-0.094,0.077-0.273,0.077-0.54v-2.588H43v2.761c0,0.184-0.015,0.35-0.045,0.498
		s-0.077,0.283-0.141,0.404c-0.063,0.121-0.146,0.231-0.247,0.331c-0.101,0.1-0.221,0.191-0.36,0.274
		c-0.375,0.217-0.799,0.325-1.273,0.325c-0.48,0-0.904-0.108-1.273-0.325c-0.142-0.083-0.263-0.174-0.364-0.272
		c-0.101-0.099-0.183-0.209-0.247-0.331s-0.111-0.258-0.141-0.406s-0.045-0.314-0.045-0.498V109.151z"/>
	<path fill="#FFFFFF" d="M48.006,113.744h-1.708v-2.431c0-0.21-0.026-0.355-0.079-0.438c-0.052-0.083-0.144-0.124-0.274-0.124
		c-0.303,0-0.455,0.226-0.455,0.676v2.316h-1.708v-4.594h1.708c-0.003,0.113-0.006,0.218-0.008,0.314
		c-0.003,0.096-0.007,0.186-0.013,0.268l-0.017,0.293c0.294-0.583,0.726-0.875,1.296-0.875c0.396,0,0.705,0.135,0.924,0.403
		c0.223,0.27,0.334,0.644,0.334,1.124V113.744z"/>
	<path fill="#FFFFFF" d="M50.968,113.744c0.003-0.048,0.005-0.104,0.008-0.166c0.003-0.062,0.007-0.134,0.013-0.217
		c0.006-0.051,0.01-0.129,0.013-0.233c-0.164,0.267-0.324,0.452-0.48,0.557c-0.153,0.04-0.341,0.06-0.565,0.06
		c-0.461,0-0.824-0.198-1.088-0.596c-0.261-0.397-0.391-0.949-0.391-1.656c0-0.742,0.127-1.318,0.382-1.726
		c0.255-0.411,0.615-0.616,1.08-0.616c0.255,0,0.46,0.057,0.616,0.17c0.164,0.113,0.323,0.311,0.476,0.591
		c-0.008-0.147-0.013-0.236-0.013-0.268l-0.017-0.464v-2.604h1.708v7.169H50.968z M50.186,111.455c0,0.605,0.141,0.908,0.421,0.908
		c0.264,0,0.395-0.312,0.395-0.937c0-0.597-0.127-0.896-0.382-0.896C50.33,110.531,50.186,110.84,50.186,111.455z"/>
	<path fill="#FFFFFF" d="M55.851,112.189l1.666,0.034c-0.119,0.505-0.351,0.885-0.695,1.139c-0.344,0.256-0.794,0.383-1.35,0.383
		c-0.658,0-1.175-0.196-1.549-0.588c-0.372-0.397-0.558-0.94-0.558-1.63c0-0.699,0.2-1.27,0.601-1.711
		c0.4-0.443,0.917-0.665,1.55-0.665c0.629,0,1.13,0.215,1.504,0.645c0.374,0.433,0.561,1.006,0.561,1.72l-0.008,0.292h-2.499
		c0.02,0.441,0.153,0.662,0.399,0.662C55.665,112.469,55.791,112.376,55.851,112.189z M55.885,110.842
		c0-0.061-0.01-0.116-0.03-0.167c-0.02-0.051-0.047-0.095-0.083-0.131c-0.036-0.037-0.077-0.065-0.125-0.087
		c-0.048-0.021-0.101-0.032-0.157-0.032c-0.119,0-0.215,0.039-0.289,0.117c-0.073,0.078-0.11,0.178-0.11,0.3H55.885z"/>
	<path fill="#FFFFFF" d="M59.943,113.744h-1.708v-4.594h1.708l-0.089,0.896c0.258-0.672,0.685-1.007,1.279-1.007v1.912
		c-0.187-0.103-0.346-0.153-0.476-0.153c-0.229,0-0.406,0.083-0.529,0.249c-0.124,0.166-0.185,0.407-0.185,0.725V113.744z"/>
	<path fill="#FFFFFF" d="M62.183,115.793l-0.922-0.521l4.691-8.734l0.927,0.491L62.183,115.793z"/>
	<path fill="#FFFFFF" d="M71.889,113.744h-1.772v-2.639h-0.846v2.639h-1.772v-6.562h1.772v2.35h0.846v-2.35h1.772V113.744z"/>
	<path fill="#FFFFFF" d="M75.098,112.189l1.666,0.034c-0.119,0.505-0.352,0.885-0.695,1.139c-0.344,0.256-0.794,0.383-1.35,0.383
		c-0.658,0-1.175-0.196-1.549-0.588c-0.373-0.397-0.559-0.94-0.559-1.63c0-0.699,0.2-1.27,0.601-1.711
		c0.4-0.443,0.917-0.665,1.55-0.665c0.629,0,1.131,0.215,1.504,0.645c0.374,0.433,0.561,1.006,0.561,1.72l-0.008,0.292H74.32
		c0.021,0.441,0.153,0.662,0.399,0.662C74.913,112.469,75.038,112.376,75.098,112.189z M75.132,110.842
		c0-0.061-0.01-0.116-0.029-0.167s-0.047-0.095-0.083-0.131c-0.036-0.037-0.077-0.065-0.126-0.087
		c-0.047-0.021-0.1-0.032-0.156-0.032c-0.119,0-0.216,0.039-0.289,0.117c-0.074,0.078-0.111,0.178-0.111,0.3H75.132z"/>
	<path fill="#FFFFFF" d="M81.565,113.744h-1.701c0.014-0.153,0.025-0.299,0.034-0.438s0.017-0.251,0.025-0.336
		c-0.294,0.516-0.687,0.773-1.181,0.773c-0.43,0-0.77-0.207-1.021-0.62c-0.248-0.411-0.372-0.979-0.372-1.705
		c0-0.702,0.129-1.254,0.387-1.657c0.258-0.407,0.609-0.611,1.054-0.611c0.456,0,0.825,0.242,1.104,0.727
		c-0.006-0.057-0.01-0.106-0.012-0.148c-0.004-0.043-0.006-0.078-0.01-0.106l-0.016-0.268l-0.014-0.204h1.721V113.744z
		 M79.858,111.398c0-0.157-0.008-0.291-0.02-0.401c-0.014-0.11-0.034-0.2-0.062-0.27c-0.029-0.07-0.066-0.12-0.111-0.15
		c-0.047-0.029-0.102-0.045-0.168-0.045c-0.293,0-0.438,0.356-0.438,1.067c0,0.51,0.13,0.765,0.392,0.765
		C79.721,112.364,79.858,112.041,79.858,111.398z"/>
	<path fill="#FFFFFF" d="M84.727,113.744c0.004-0.048,0.006-0.104,0.009-0.166c0.003-0.062,0.007-0.134,0.013-0.217
		c0.006-0.051,0.01-0.129,0.013-0.233c-0.164,0.267-0.324,0.452-0.479,0.557c-0.153,0.04-0.342,0.06-0.566,0.06
		c-0.461,0-0.824-0.198-1.088-0.596c-0.26-0.397-0.391-0.949-0.391-1.656c0-0.742,0.128-1.318,0.383-1.726
		c0.255-0.411,0.615-0.616,1.08-0.616c0.254,0,0.459,0.057,0.615,0.17c0.164,0.113,0.323,0.311,0.477,0.591
		c-0.009-0.147-0.014-0.236-0.014-0.268l-0.017-0.464v-2.604h1.708v7.169H84.727z M83.946,111.455c0,0.605,0.141,0.908,0.42,0.908
		c0.264,0,0.396-0.312,0.396-0.937c0-0.597-0.128-0.896-0.382-0.896C84.091,110.531,83.946,110.84,83.946,111.455z"/>
	<path fill="#FFFFFF" d="M94.069,111.517c0,0.68-0.199,1.222-0.595,1.624s-0.927,0.604-1.593,0.604
		c-0.654,0-1.176-0.205-1.562-0.616c-0.385-0.413-0.576-0.968-0.576-1.664s0.195-1.256,0.589-1.677
		c0.391-0.425,0.909-0.637,1.554-0.637c0.681,0,1.215,0.211,1.602,0.632C93.875,110.204,94.069,110.782,94.069,111.517z
		 M92.36,111.459c0-0.156-0.011-0.298-0.032-0.425s-0.052-0.235-0.092-0.325s-0.089-0.16-0.145-0.209
		c-0.056-0.05-0.118-0.075-0.188-0.075c-0.136,0-0.246,0.095-0.328,0.282c-0.083,0.164-0.125,0.411-0.125,0.74
		c0,0.323,0.042,0.57,0.125,0.74c0.082,0.188,0.193,0.281,0.332,0.281c0.131,0,0.239-0.092,0.324-0.277
		C92.317,111.986,92.36,111.741,92.36,111.459z"/>
	<path fill="#FFFFFF" d="M96.576,113.744h-1.708v-3.213h-0.494v-1.381h0.494v-0.846c0-0.592,0.128-1.041,0.385-1.348
		c0.258-0.306,0.635-0.459,1.131-0.459c0.247,0,0.516,0.04,0.805,0.119v1.581c-0.15-0.107-0.268-0.161-0.35-0.161
		c-0.176,0-0.263,0.157-0.263,0.472v0.642h0.612v1.381h-0.612V113.744z"/>
</g>
<g enable-background="new    ">
	<path fill="#FFFFFF" d="M102.088,113.744h-1.772v-6.562h1.717c0.855,0,1.49,0.174,1.904,0.522c0.487,0.411,0.73,0.981,0.73,1.713
		c0,0.796-0.259,1.39-0.777,1.78c-0.354,0.264-0.862,0.396-1.525,0.396h-0.276V113.744z M102.088,110.213l0.081,0.004
		c0.215,0,0.387-0.065,0.514-0.197c0.128-0.132,0.191-0.312,0.191-0.542c0-0.227-0.062-0.411-0.188-0.553
		c-0.124-0.145-0.283-0.217-0.475-0.217h-0.124V110.213z"/>
</g>
<g enable-background="new    ">
	<path fill="#FFFFFF" d="M109.331,111.517c0,0.68-0.198,1.222-0.594,1.624c-0.396,0.402-0.928,0.604-1.594,0.604
		c-0.654,0-1.175-0.205-1.562-0.616c-0.385-0.413-0.576-0.968-0.576-1.664s0.196-1.256,0.59-1.677
		c0.391-0.425,0.908-0.637,1.554-0.637c0.681,0,1.214,0.211,1.601,0.632C109.137,110.204,109.331,110.782,109.331,111.517z
		 M107.622,111.459c0-0.156-0.01-0.298-0.031-0.425s-0.053-0.235-0.092-0.325c-0.041-0.09-0.089-0.16-0.145-0.209
		c-0.057-0.05-0.119-0.075-0.188-0.075c-0.136,0-0.246,0.095-0.329,0.282c-0.082,0.164-0.124,0.411-0.124,0.74
		c0,0.323,0.042,0.57,0.124,0.74c0.083,0.188,0.193,0.281,0.333,0.281c0.131,0,0.239-0.092,0.324-0.277
		C107.579,111.986,107.622,111.741,107.622,111.459z"/>
	<path fill="#FFFFFF" d="M112.293,113.744c0.003-0.048,0.005-0.104,0.009-0.166c0.002-0.062,0.007-0.134,0.012-0.217
		c0.006-0.051,0.011-0.129,0.014-0.233c-0.164,0.267-0.324,0.452-0.48,0.557c-0.152,0.04-0.342,0.06-0.565,0.06
		c-0.462,0-0.824-0.198-1.088-0.596c-0.261-0.397-0.391-0.949-0.391-1.656c0-0.742,0.128-1.318,0.382-1.726
		c0.256-0.411,0.615-0.616,1.08-0.616c0.255,0,0.46,0.057,0.616,0.17c0.164,0.113,0.323,0.311,0.476,0.591
		c-0.008-0.147-0.013-0.236-0.013-0.268l-0.017-0.464v-2.604h1.708v7.169H112.293z M111.51,111.455c0,0.605,0.141,0.908,0.421,0.908
		c0.264,0,0.396-0.312,0.396-0.937c0-0.597-0.128-0.896-0.383-0.896C111.655,110.531,111.51,110.84,111.51,111.455z"/>
	<path fill="#FFFFFF" d="M114.821,109.151h1.709v2.588c0,0.246,0.023,0.427,0.072,0.54c0.051,0.093,0.146,0.14,0.289,0.14
		c0.139,0,0.232-0.047,0.279-0.14c0.052-0.094,0.077-0.273,0.077-0.54v-2.588h1.708v2.761c0,0.184-0.015,0.35-0.045,0.498
		c-0.029,0.148-0.076,0.283-0.141,0.404c-0.062,0.121-0.146,0.231-0.246,0.331c-0.102,0.1-0.221,0.191-0.359,0.274
		c-0.375,0.217-0.8,0.325-1.273,0.325c-0.48,0-0.904-0.108-1.273-0.325c-0.143-0.083-0.264-0.174-0.364-0.272
		s-0.183-0.209-0.247-0.331s-0.111-0.258-0.141-0.406s-0.045-0.314-0.045-0.498V109.151z"/>
	<path fill="#FFFFFF" d="M122.071,112.271v1.446c-0.102,0.011-0.191,0.018-0.268,0.021s-0.141,0.006-0.191,0.006
		c-0.5,0-0.916-0.146-1.248-0.44c-0.225-0.198-0.408-0.47-0.547-0.815c-0.141-0.345-0.211-0.699-0.211-1.063
		c0-0.646,0.201-1.188,0.602-1.626c0.397-0.433,0.904-0.648,1.52-0.648c0.037,0,0.084,0.001,0.141,0.004s0.124,0.008,0.203,0.014
		v1.555c-0.504,0.031-0.756,0.285-0.756,0.76c0,0.215,0.062,0.402,0.187,0.564c0.128,0.154,0.279,0.231,0.455,0.231
		c0.017,0,0.034,0,0.053-0.002C122.028,112.276,122.049,112.274,122.071,112.271z"/>
	<path fill="#FFFFFF" d="M124.655,113.744h-1.709v-3.213h-0.484v-1.381h0.484v-1.352h1.709v1.352h0.565v1.381h-0.565V113.744z"/>
</g>
<g>
	<path fill="none" stroke="#FFFFFF" stroke-width="1.547" d="M83.3,83.373c0,0-3.416-3.884-3.536-7.4
		c-0.121-3.514,4.146-10.836,5.987-11.72c1.843-0.885,8.564,0.573,9.378,0c0.812-0.573,1.503-2.838,0.812-3.63
		c-0.689-0.797,0.326-1.215,0.326-1.215s1.165-0.583-0.107-1.561l0.432-0.977c0,0,0.748-0.957,0.123-1.215
		c-0.613-0.254-1.53-0.777-0.881-1.249c0.648-0.468,4.133-0.704,0.435-4.334c-3.699-3.635-2.386-3.169-2.386-3.169
		s1.474-0.466,1.596-0.938c0.121-0.466-1.881,0.364-1.881,0.364l-0.176-5.884c0,0,1.22-0.627,1.003-1.146
		c-0.218-0.52-0.341-0.228-0.341-0.228s2.675,0.616,1.519,4.338c0,0,3.271-2.332,0.466-5.704c0,0-0.003-2.468-1.751-3.718
		c-1.748-1.252-3.146-1.028-3.146-1.028s0.027-1.95-0.92-2.619c-1.395-0.981-3.415-0.547-3.415-0.547s-0.894-2.135-2.562-2.476
		c-1.666-0.338-3.502-0.031-4.479,0.909c0,0-2.595-0.87-3.692-0.178c-1.098,0.688-2.513,1.646-2.852,3.518
		c0,0-4.628-0.028-5.277,2.732c0,0-1.869,0-1.261-0.99c0.609-0.988,0.446-2.141,0.446-2.141c-0.434-0.34-2.794,2.048-2.55,3.403
		c0,0-1.595,0.276-2.529,1.496c-0.935,1.225-0.489,3.688-0.489,3.688s-3.117,1.793-3.326,3.732
		c-0.146,1.354,1.375,2.594,1.375,2.594s-1.862,0.942-1.862,1.359c0,0.414,1.753,0.7,2.432,1.118c0,0-2.642,0.758-2.642,2.823
		c0,1.354,0.714,6.637,5.252,6.637c0,0,0.019,1.595,0.493,2.479c0.475,0.89,2.547,0.992,2.547,0.992s0.413,1.555,1.571,1.563
		c0,0-1.803,1.836-1.803,2.774c0,0.933,1.021,3.196,1.957,3.128c0,0,0.63-3.062,0.912-3.468c0.668-0.963,2.728-2.488,2.943-3.35
		c0.218-0.858,0.649-1.661,0.762-1.039c0.107,0.627,0.514,4.559-1.1,6.744c-1.611,2.187-3.17,3.843-3.902,4.168
		c0,0,4.188,1.963,5.244,3.605C73.505,77.265,76.971,84.179,83.3,83.373z"/>
</g>
</svg>
