<?xml version="1.0" encoding="utf-8"?>
<!-- Generator: Adobe Illustrator 14.0.0, SVG Export Plug-In . SVG Version: 6.00 Build 43363)  -->
<!DOCTYPE svg PUBLIC "-//W3C//DTD SVG 1.1//EN" "http://www.w3.org/Graphics/SVG/1.1/DTD/svg11.dtd">
<svg version="1.1" id="Calque_1" xmlns="http://www.w3.org/2000/svg" xmlns:xlink="http://www.w3.org/1999/xlink" x="0px" y="0px"
	 width="135.717px" height="121.145px" viewBox="0 0 135.717 121.145" enable-background="new 0 0 135.717 121.145"
	 xml:space="preserve">
<g enable-background="new    ">
	<path fill="#FFFFFF" d="M22.356,58.206c0,2.597-0.949,4.82-2.847,6.671c-1.844,1.852-4.099,2.776-6.767,2.776
		c-2.641,0-4.938-0.939-6.89-2.817c-1.898-1.905-2.847-4.212-2.847-6.92c0-2.651,0.935-4.917,2.805-6.795
		c1.871-1.879,4.126-2.817,6.767-2.817c2.722,0,5.033,0.967,6.931,2.9C21.406,53.111,22.356,55.445,22.356,58.206z"/>
</g>
<g enable-background="new    ">
	<path fill="#FBD200" d="M43.453,49.23c1.042,0.71,1.941,1.468,2.696,2.272c0.755,0.806,1.352,1.673,1.791,2.601
		c0.851,1.666,1.276,4.164,1.276,7.495v14.088c0,3.112,0.33,4.996,0.988,5.651c0.686,0.682,2.607,1.023,5.764,1.023l1.729-0.04
		l0.988-0.041v11.467l-7.864,0.327c-5.316-0.082-9.075-1.252-11.275-3.507c-2.227-2.284-3.34-6.025-3.34-11.224l-0.782-17.084
		c0-2.833-0.357-4.854-1.07-6.065c-0.687-1.128-2.073-1.926-4.158-2.394V43.03c1.976-0.412,3.335-1.155,4.076-2.228
		c0.768-1.018,1.153-2.765,1.153-5.24V18.313c0-5.199,1.247-8.913,3.741-11.142c2.465-2.255,6.612-3.383,12.438-3.383l7.864,0.217
		v12.134h-2.882c-3.047-0.027-4.914,0.301-5.599,0.983c-0.659,0.655-0.988,2.525-0.988,5.61v14.169
		c-0.521,3.086-1.18,5.57-1.976,7.454C47.227,46.049,45.703,47.673,43.453,49.23z"/>
</g>
<g enable-background="new    ">
	<path fill="#FBD200" d="M110.964,48.882c-1.043-0.704-1.941-1.458-2.695-2.258c-0.756-0.801-1.354-1.662-1.791-2.584
		c-0.824-1.736-1.236-4.219-1.236-7.447V22.554c0-3.093-0.343-4.965-1.029-5.616c-0.658-0.678-2.566-1.018-5.722-1.018l-1.771,0.041
		l-0.947,0.041V4.608l7.863-0.326c5.799,0.083,9.93,1.245,12.395,3.489c2.523,2.271,3.785,5.991,3.785,11.162v17.03
		c0,2.818,0.357,4.829,1.07,6.033c0.687,1.122,2.072,1.915,4.158,2.38v10.711c-1.948,0.411-3.32,1.149-4.116,2.216
		c-0.741,1.067-1.112,2.805-1.112,5.212v17.113c0,5.171-1.262,8.863-3.785,11.08c-2.465,2.243-6.609,3.365-12.436,3.365
		l-7.822-0.217V81.723h2.883c3.046,0.055,4.898-0.271,5.557-0.977c0.687-0.651,1.029-2.51,1.029-5.575v-14.04
		c0-3.445,0.385-5.913,1.153-7.406C107.19,52.043,108.714,50.429,110.964,48.882z"/>
</g>
<g enable-background="new    ">
	<path fill="#FFFFFF" d="M61.72,92.23h-1.982v-7.339h1.92c0.957,0,1.667,0.194,2.13,0.584c0.545,0.46,0.817,1.099,0.817,1.916
		c0,0.891-0.29,1.555-0.87,1.991c-0.396,0.295-0.965,0.442-1.707,0.442H61.72V92.23z M61.72,88.28l0.09,0.005
		c0.241,0,0.433-0.073,0.575-0.221s0.214-0.35,0.214-0.606c0-0.254-0.07-0.459-0.209-0.618c-0.14-0.161-0.317-0.242-0.533-0.242
		H61.72V88.28z"/>
	<path fill="#FFFFFF" d="M69.759,92.23h-1.912v-2.719c0-0.234-0.023-0.397-0.069-0.49c-0.046-0.092-0.126-0.138-0.24-0.138
		c-0.267,0-0.399,0.252-0.399,0.756v2.591h-1.911v-8.019h1.911v2.971c0,0.155-0.001,0.285-0.002,0.39s-0.004,0.184-0.007,0.237
		c-0.003,0.054-0.008,0.111-0.014,0.171c-0.006,0.061-0.013,0.127-0.019,0.2c0.308-0.726,0.759-1.089,1.352-1.089
		c0.413,0,0.734,0.15,0.963,0.452c0.231,0.301,0.348,0.72,0.348,1.256V92.23z"/>
	<path fill="#FFFFFF" d="M72.696,85.499c0,0.301-0.109,0.561-0.328,0.779c-0.226,0.216-0.486,0.323-0.785,0.323
		c-0.307,0-0.57-0.109-0.789-0.328c-0.215-0.225-0.322-0.488-0.322-0.789c0-0.308,0.107-0.568,0.322-0.784
		c0.226-0.216,0.486-0.323,0.785-0.323c0.313,0,0.578,0.109,0.793,0.328C72.588,84.92,72.696,85.185,72.696,85.499z M72.534,92.23
		h-1.91v-5.139h1.91V92.23z"/>
	<path fill="#FFFFFF" d="M75.329,92.23h-1.911v-8.019h1.911V92.23z"/>
	<path fill="#FFFFFF" d="M78.276,85.499c0,0.301-0.109,0.561-0.328,0.779c-0.225,0.216-0.486,0.323-0.784,0.323
		c-0.308,0-0.57-0.109-0.789-0.328c-0.216-0.225-0.323-0.488-0.323-0.789c0-0.308,0.107-0.568,0.323-0.784
		c0.226-0.216,0.486-0.323,0.784-0.323c0.314,0,0.578,0.109,0.794,0.328C78.169,84.92,78.276,85.185,78.276,85.499z M78.114,92.23
		h-1.91v-5.139h1.91V92.23z"/>
	<path fill="#FFFFFF" d="M80.909,94.521h-1.91v-7.43h1.906l-0.039,0.728c0.08-0.152,0.16-0.281,0.243-0.388
		c0.082-0.105,0.171-0.189,0.267-0.249c0.095-0.061,0.197-0.091,0.307-0.091s0.23,0,0.363,0c0.494,0,0.896,0.237,1.207,0.712
		c0.308,0.469,0.461,1.091,0.461,1.866c0,0.788-0.146,1.412-0.441,1.871c-0.289,0.46-0.687,0.689-1.193,0.689
		c-0.463,0-0.867-0.268-1.213-0.804c0.017,0.162,0.025,0.302,0.029,0.419c0.01,0.12,0.014,0.265,0.014,0.435V94.521z M81.798,89.631
		c0-0.315-0.038-0.56-0.115-0.733c-0.078-0.175-0.188-0.262-0.331-0.262c-0.294,0-0.442,0.338-0.442,1.014
		c0,0.69,0.143,1.035,0.428,1.035c0.143,0,0.256-0.092,0.338-0.276S81.798,89.965,81.798,89.631z"/>
	<path fill="#FFFFFF" d="M86.356,94.521h-1.91v-7.43h1.906l-0.039,0.728c0.08-0.152,0.16-0.281,0.243-0.388
		c0.082-0.105,0.171-0.189,0.267-0.249c0.095-0.061,0.197-0.091,0.307-0.091s0.23,0,0.363,0c0.494,0,0.896,0.237,1.207,0.712
		c0.308,0.469,0.461,1.091,0.461,1.866c0,0.788-0.146,1.412-0.441,1.871C88.43,92,88.033,92.23,87.526,92.23
		c-0.463,0-0.867-0.268-1.213-0.804c0.017,0.162,0.025,0.302,0.029,0.419c0.01,0.12,0.014,0.265,0.014,0.435V94.521z M87.245,89.631
		c0-0.315-0.038-0.56-0.115-0.733c-0.078-0.175-0.188-0.262-0.331-0.262c-0.294,0-0.442,0.338-0.442,1.014
		c0,0.69,0.143,1.035,0.428,1.035c0.143,0,0.256-0.092,0.338-0.276S87.245,89.965,87.245,89.631z"/>
	<path fill="#FFFFFF" d="M92.527,90.49l1.863,0.038c-0.134,0.564-0.392,0.989-0.777,1.274s-0.888,0.428-1.509,0.428
		c-0.736,0-1.314-0.22-1.734-0.658c-0.416-0.444-0.623-1.052-0.623-1.822c0-0.782,0.223-1.42,0.672-1.913
		c0.447-0.497,1.025-0.745,1.732-0.745c0.703,0,1.265,0.24,1.684,0.721c0.418,0.484,0.627,1.125,0.627,1.925l-0.01,0.325h-2.795
		c0.021,0.495,0.172,0.742,0.447,0.742C92.319,90.804,92.46,90.699,92.527,90.49z M92.565,88.983c0-0.067-0.012-0.13-0.033-0.187
		c-0.022-0.057-0.053-0.105-0.094-0.146c-0.039-0.041-0.086-0.073-0.14-0.097s-0.112-0.036-0.176-0.036
		c-0.134,0-0.241,0.044-0.323,0.132c-0.082,0.087-0.123,0.198-0.123,0.334H92.565z"/>
</g>
<g enable-background="new    ">
	<path fill="#FBD200" d="M64.429,103.911h-2.006l-0.081-3.347l-0.064-1.335c-0.023,0.256-0.05,0.501-0.08,0.734
		c-0.03,0.232-0.066,0.458-0.109,0.677l-0.648,3.271h-1.647l-0.532-3.275c-0.032-0.189-0.075-0.517-0.128-0.979
		c-0.006-0.07-0.021-0.213-0.042-0.428l-0.048,1.354l-0.176,3.327h-2.11l0.855-7.339h2.467l0.414,2.472
		c0.035,0.202,0.066,0.423,0.093,0.66c0.027,0.238,0.052,0.496,0.074,0.775c0.041-0.466,0.096-0.883,0.167-1.25l0.493-2.657h2.396
		L64.429,103.911z"/>
	<path fill="#FBD200" d="M70.661,103.911h-2.049l-0.146-0.932H67.13l-0.162,0.932h-2.049l1.764-7.339h2.423L70.661,103.911z
		 M68.232,101.435l-0.128-0.855c-0.003-0.003-0.009-0.046-0.019-0.129c-0.006-0.069-0.04-0.345-0.1-0.826
		c-0.006-0.055-0.014-0.128-0.024-0.222c-0.009-0.094-0.022-0.211-0.038-0.354l-0.062-0.694c-0.006,0.066-0.015,0.141-0.026,0.224
		c-0.011,0.082-0.023,0.173-0.036,0.271c-0.022,0.196-0.038,0.333-0.047,0.409c-0.01,0.076-0.016,0.122-0.019,0.138l-0.138,0.889
		l-0.2,1.15H68.232z"/>
	<path fill="#FBD200" d="M76.456,103.911h-2.145l-0.979-2.614c-0.01-0.045-0.026-0.104-0.051-0.176
		c-0.023-0.073-0.053-0.16-0.088-0.262l0.015,0.485v2.566h-1.973v-7.339h2.03c0.893,0,1.562,0.176,2.006,0.527
		c0.564,0.45,0.846,1.09,0.846,1.92c0,0.888-0.379,1.501-1.136,1.84L76.456,103.911z M73.219,99.866h0.133
		c0.229,0,0.419-0.087,0.571-0.262c0.151-0.174,0.228-0.396,0.228-0.665c0-0.549-0.287-0.822-0.86-0.822h-0.071V99.866z"/>
	<path fill="#FBD200" d="M79.094,103.911h-1.982v-7.339h1.982V103.911z"/>
	<path fill="#FBD200" d="M85.516,100.267c0,1.08-0.256,1.959-0.766,2.635c-0.508,0.673-1.168,1.01-1.982,1.01
		c-0.723,0-1.342-0.259-1.859-0.775c-0.648-0.655-0.974-1.638-0.974-2.947c0-1.254,0.339-2.214,1.017-2.878
		c0.504-0.492,1.102-0.738,1.793-0.738c0.846,0,1.52,0.333,2.02,1C85.265,98.24,85.516,99.138,85.516,100.267z M83.458,100.283
		c0-1.302-0.234-1.952-0.703-1.952c-0.235,0-0.422,0.171-0.562,0.513c-0.136,0.316-0.204,0.782-0.204,1.397
		c0,0.606,0.064,1.076,0.192,1.41s0.306,0.501,0.534,0.501c0.234,0,0.416-0.165,0.542-0.494
		C83.391,101.329,83.458,100.871,83.458,100.283z"/>
	<path fill="#FBD200" d="M89.356,96.573h1.982v5.102c0,0.426-0.068,0.772-0.205,1.037c-0.133,0.276-0.354,0.527-0.665,0.752
		c-0.418,0.299-0.927,0.448-1.526,0.448c-0.678,0-1.246-0.165-1.705-0.495c-0.584-0.421-0.875-1.094-0.875-2.019v-4.825h1.982v4.706
		c0,0.318,0.038,0.543,0.115,0.676c0.078,0.132,0.209,0.198,0.393,0.198c0.19,0,0.322-0.062,0.395-0.185
		c0.073-0.129,0.109-0.357,0.109-0.685V96.573z"/>
	<path fill="#FBD200" d="M97.542,103.911h-2.201l-0.365-1.046c-0.117-0.32-0.213-0.627-0.285-0.922
		c-0.07,0.291-0.175,0.626-0.314,1.003l-0.365,0.965h-2.158l1.782-3.808l-1.683-3.531h2.205l0.328,0.993
		c0.035,0.092,0.068,0.199,0.102,0.323c0.034,0.123,0.068,0.263,0.104,0.418c0.078-0.316,0.145-0.561,0.199-0.731l0.305-1.003h2.219
		l-1.673,3.531L97.542,103.911z"/>
</g>
<g enable-background="new    ">
	<path fill="#FFFFFF" d="M56.388,115.594v-7.339h2.306c0.862,0,1.5,0.189,1.916,0.57c0.421,0.39,0.632,0.894,0.632,1.512
		c0,0.919-0.457,1.416-1.369,1.492c0.52,0.076,0.901,0.247,1.143,0.514c0.243,0.266,0.364,0.649,0.364,1.15
		c0,0.63-0.204,1.138-0.613,1.521c-0.406,0.387-0.939,0.58-1.602,0.58H56.388z M58.371,111.05h0.133
		c0.238,0,0.426-0.056,0.563-0.167c0.138-0.11,0.207-0.266,0.207-0.466c0-0.425-0.233-0.637-0.699-0.637
		c-0.022,0-0.05,0.001-0.083,0.002c-0.033,0.002-0.074,0.005-0.121,0.008V111.05z M58.371,114.039
		c0.038,0.003,0.071,0.006,0.1,0.008c0.029,0.001,0.052,0.002,0.071,0.002c0.248,0,0.445-0.066,0.592-0.2
		c0.147-0.133,0.221-0.312,0.221-0.537s-0.074-0.399-0.221-0.526c-0.147-0.127-0.349-0.19-0.606-0.19h-0.157V114.039z"/>
	<path fill="#FFFFFF" d="M66.723,115.594H64.82c0.016-0.171,0.028-0.334,0.038-0.489c0.01-0.155,0.019-0.281,0.029-0.376
		c-0.329,0.577-0.769,0.865-1.321,0.865c-0.479,0-0.86-0.231-1.141-0.693c-0.278-0.46-0.417-1.096-0.417-1.908
		c0-0.784,0.144-1.402,0.432-1.853c0.289-0.456,0.682-0.685,1.179-0.685c0.51,0,0.922,0.271,1.236,0.813
		c-0.006-0.063-0.011-0.119-0.014-0.167c-0.003-0.047-0.006-0.087-0.01-0.118l-0.019-0.3l-0.014-0.229h1.925V115.594z
		 M64.812,112.97c0-0.177-0.007-0.326-0.021-0.449c-0.015-0.124-0.038-0.225-0.07-0.303c-0.032-0.077-0.074-0.133-0.125-0.167
		c-0.051-0.033-0.113-0.051-0.187-0.051c-0.327,0-0.49,0.398-0.49,1.194c0,0.569,0.146,0.854,0.438,0.854
		C64.66,114.049,64.812,113.69,64.812,112.97z"/>
</g>
<g enable-background="new    ">
	<path fill="#FFFFFF" d="M70.231,113.946v1.618c-0.114,0.012-0.214,0.02-0.299,0.023c-0.086,0.005-0.158,0.007-0.215,0.007
		c-0.559,0-1.025-0.164-1.396-0.492c-0.252-0.222-0.456-0.526-0.612-0.912c-0.157-0.386-0.235-0.783-0.235-1.19
		c0-0.723,0.224-1.329,0.672-1.818c0.445-0.483,1.012-0.726,1.7-0.726c0.041,0,0.094,0.002,0.156,0.005
		c0.063,0.004,0.14,0.009,0.229,0.015v1.739c-0.564,0.035-0.846,0.318-0.846,0.851c0,0.239,0.069,0.45,0.209,0.631
		c0.143,0.173,0.312,0.259,0.508,0.259c0.02,0,0.039,0,0.061-0.002C70.182,113.951,70.206,113.948,70.231,113.946z"/>
</g>
<g enable-background="new    ">
	<path fill="#FFFFFF" d="M74.007,115.594l-0.737-1.996c-0.034-0.089-0.092-0.284-0.171-0.585v2.581h-1.911v-8.019h1.911v5.195
		c0.041-0.134,0.086-0.266,0.135-0.397c0.05-0.131,0.102-0.265,0.155-0.401l0.618-1.517h2.062l-1.264,2.358l1.393,2.78H74.007z"/>
	<path fill="#FFFFFF" d="M77.262,117.885l-1.031-0.583l5.247-9.77l1.036,0.55L77.262,117.885z"/>
	<path fill="#FFFFFF" d="M83.209,115.594v-7.339h3.685v1.759h-1.702v0.936h1.526v1.759h-1.526v1.127h1.702v1.759H83.209z"/>
	<path fill="#FFFFFF" d="M92.392,115.594h-1.911v-2.719c0-0.234-0.029-0.397-0.088-0.49c-0.059-0.092-0.16-0.138-0.306-0.138
		c-0.34,0-0.509,0.252-0.509,0.756v2.591h-1.912v-5.139h1.912c-0.004,0.127-0.007,0.244-0.01,0.352
		c-0.004,0.108-0.008,0.208-0.015,0.3l-0.019,0.328c0.328-0.653,0.812-0.979,1.449-0.979c0.443,0,0.788,0.15,1.033,0.452
		c0.25,0.301,0.374,0.72,0.374,1.256V115.594z"/>
	<path fill="#FFFFFF" d="M95.706,115.594c0.003-0.054,0.006-0.115,0.01-0.186c0.002-0.069,0.008-0.15,0.014-0.242
		c0.006-0.057,0.012-0.145,0.014-0.262c-0.184,0.298-0.362,0.506-0.537,0.623c-0.17,0.044-0.381,0.066-0.632,0.066
		c-0.517,0-0.922-0.222-1.217-0.666c-0.292-0.444-0.437-1.062-0.437-1.853c0-0.831,0.143-1.475,0.428-1.931
		c0.285-0.46,0.688-0.689,1.207-0.689c0.285,0,0.515,0.063,0.689,0.19c0.184,0.127,0.361,0.347,0.531,0.661
		c-0.009-0.165-0.014-0.265-0.014-0.3l-0.02-0.519v-2.913h1.912v8.019H95.706z M94.831,113.033c0,0.678,0.156,1.016,0.471,1.016
		c0.295,0,0.441-0.349,0.441-1.047c0-0.668-0.143-1.002-0.428-1.002C94.993,112,94.831,112.345,94.831,113.033z"/>
</g>
<g>
	<g>
		<path fill="none" stroke="#FFFFFF" stroke-width="1.547" d="M59.52,70.236c0,0,6.087-7.44,6.087-11.025s-6.489-16.51-6.999-18.609
			c-0.509-2.1-2.534-7.486,0.912-10.201c0,0,0.273-3.584,2.479-5.514c2.207-1.929,0.141-0.55,0.141-0.55s0.824-2.343,0-2.343
			c-0.827,0,1.929-2.475,4.136-2.206c2.206,0.266,2.756,0.646,2.756,0.646s0.965-1.845,2.482-0.923c0,0,3.17-3.584,9.232-0.275
			c0,0,3.033-0.011,0-2.204c0,0,3.838-1.24,9.236,1.93c0,0,1.378-0.413-0.69-2.067c0,0,3.241,1.053,4.38,2.777
			c0.137,0.203,0.24,0.416,0.31,0.638c0.637,2.102,0.89-0.796,0.89-0.796s2.97,3.723,2.832,5.791
			c-0.138,2.072,0.415,4.41-5.514,4.962c0,0,2.758,5.789,3.444,10.062c0,0-0.062,1.238-1.271,2.479c0,0,3.891,5.748,4.58,7.147
			c0.688,1.396-3.446,1.949-3.311,2.362c0.141,0.412,0.512,2.347,0,2.759l-0.51,0.411c0,0,0.924,0.7,0.924,1.467
			c0,0.763-1.178,1.567-1.178,1.709c0,0.136,1.35,4.334-0.253,5.544c-1.601,1.208-5.154,0.383-6.617-0.128
			c-1.464-0.511-4.454-1.229-4.963,1.607c-0.509,2.843-2.428,3.727-2.842,5.104c-0.413,1.379-0.827,4.82-0.413,6.203
			c0.413,1.378,2.206,4.263,2.206,4.263S71.237,78.094,59.52,70.236z"/>
	</g>
</g>
</svg>
