<?xml version="1.0" encoding="utf-8"?>
<!-- Generator: Adobe Illustrator 14.0.0, SVG Export Plug-In . SVG Version: 6.00 Build 43363)  -->
<!DOCTYPE svg PUBLIC "-//W3C//DTD SVG 1.1//EN" "http://www.w3.org/Graphics/SVG/1.1/DTD/svg11.dtd">
<svg version="1.1" id="Calque_1" xmlns="http://www.w3.org/2000/svg" xmlns:xlink="http://www.w3.org/1999/xlink" x="0px" y="0px"
	 width="119.286px" height="107.291px" viewBox="0 0 119.286 107.291" enable-background="new 0 0 119.286 107.291"
	 xml:space="preserve">
<g>
	<g enable-background="new    ">
		<path fill="#FFFFFF" d="M19.986,52.04c0,2.322-0.848,4.311-2.545,5.964c-1.648,1.655-3.665,2.482-6.049,2.482
			c-2.361,0-4.414-0.84-6.16-2.519c-1.697-1.704-2.545-3.767-2.545-6.187c0-2.371,0.835-4.396,2.508-6.075
			c1.673-1.68,3.689-2.52,6.05-2.52c2.434,0,4.5,0.865,6.197,2.594C19.138,47.484,19.986,49.57,19.986,52.04z"/>
	</g>
	<g enable-background="new    ">
		<path fill="#FBD200" d="M38.848,44.012c0.933,0.636,1.736,1.312,2.411,2.033c0.674,0.72,1.208,1.495,1.601,2.324
			c0.76,1.489,1.141,3.723,1.141,6.7v12.596c0,2.782,0.294,4.467,0.883,5.053c0.613,0.609,2.331,0.915,5.153,0.915l1.546-0.036
			l0.883-0.037v10.252l-7.03,0.293c-4.753-0.073-8.114-1.119-10.081-3.136c-1.991-2.042-2.986-5.387-2.986-10.034l-0.699-15.273
			c0-2.533-0.319-4.341-0.957-5.423c-0.614-1.008-1.853-1.722-3.717-2.14V38.47c1.767-0.369,2.981-1.033,3.644-1.992
			c0.687-0.91,1.031-2.472,1.031-4.685V16.371c0-4.647,1.115-7.968,3.345-9.96c2.204-2.017,5.911-3.025,11.121-3.025l7.03,0.194
			v10.848H50.59c-2.724-0.023-4.393,0.27-5.006,0.879c-0.589,0.586-0.883,2.258-0.883,5.017v12.668
			c-0.466,2.758-1.055,4.979-1.767,6.664C42.222,41.169,40.86,42.621,38.848,44.012z"/>
	</g>
	<g enable-background="new    ">
		<path fill="#FBD200" d="M99.205,43.702c-0.933-0.631-1.736-1.304-2.411-2.02c-0.675-0.715-1.208-1.485-1.601-2.31
			c-0.736-1.553-1.104-3.772-1.104-6.658V20.163c0-2.765-0.308-4.438-0.921-5.021c-0.588-0.606-2.294-0.91-5.115-0.91L86.47,14.27
			l-0.847,0.036V4.119l7.03-0.291c5.184,0.073,8.878,1.112,11.081,3.118c2.256,2.03,3.385,5.356,3.385,9.979v15.227
			c0,2.52,0.318,4.317,0.957,5.394c0.612,1.003,1.852,1.712,3.717,2.128v9.576c-1.742,0.366-2.969,1.026-3.681,1.98
			c-0.663,0.954-0.993,2.508-0.993,4.659v15.3c0,4.623-1.129,7.925-3.385,9.906c-2.203,2.006-5.91,3.009-11.117,3.009l-6.994-0.194
			V73.062h2.576c2.725,0.049,4.381-0.242,4.969-0.873c0.613-0.582,0.921-2.244,0.921-4.984V54.652c0-3.08,0.343-5.286,1.03-6.621
			C95.831,46.528,97.194,45.085,99.205,43.702z"/>
	</g>
	<g enable-background="new    ">
		<path fill="#FFFFFF" d="M54.297,82.994v-6.562h2.061c0.771,0,1.341,0.17,1.713,0.51c0.376,0.349,0.565,0.799,0.565,1.352
			c0,0.821-0.408,1.267-1.224,1.334c0.464,0.068,0.805,0.222,1.022,0.459c0.217,0.238,0.325,0.581,0.325,1.029
			c0,0.563-0.183,1.017-0.548,1.359c-0.363,0.346-0.84,0.519-1.432,0.519H54.297z M56.069,78.932h0.119
			c0.212,0,0.38-0.05,0.503-0.149c0.124-0.099,0.185-0.237,0.185-0.416c0-0.38-0.208-0.569-0.625-0.569
			c-0.02,0-0.045,0.001-0.075,0.002c-0.03,0.002-0.066,0.004-0.108,0.007V78.932z M56.069,81.604
			c0.034,0.003,0.064,0.005,0.089,0.006c0.025,0.002,0.047,0.003,0.064,0.003c0.221,0,0.397-0.06,0.529-0.179
			c0.132-0.12,0.198-0.279,0.198-0.48s-0.066-0.357-0.198-0.472c-0.132-0.113-0.312-0.17-0.542-0.17h-0.14V81.604z"/>
		<path fill="#FFFFFF" d="M61.3,76.977c0,0.27-0.098,0.501-0.293,0.697c-0.201,0.192-0.435,0.289-0.701,0.289
			c-0.275,0-0.51-0.099-0.706-0.294c-0.193-0.201-0.289-0.436-0.289-0.705c0-0.274,0.096-0.509,0.289-0.701
			c0.201-0.192,0.435-0.289,0.701-0.289c0.281,0,0.518,0.098,0.711,0.293C61.203,76.46,61.3,76.696,61.3,76.977z M61.156,82.994
			h-1.708V78.4h1.708V82.994z"/>
		<path fill="#FFFFFF" d="M66.17,82.994h-1.708v-2.431c0-0.21-0.026-0.355-0.079-0.438c-0.052-0.083-0.143-0.124-0.273-0.124
			c-0.303,0-0.455,0.226-0.455,0.676v2.316h-1.709V78.4h1.709c-0.003,0.113-0.006,0.218-0.008,0.314
			c-0.004,0.096-0.008,0.186-0.014,0.268l-0.017,0.293c0.294-0.583,0.726-0.875,1.296-0.875c0.396,0,0.705,0.135,0.924,0.403
			c0.223,0.27,0.334,0.644,0.334,1.124V82.994z"/>
	</g>
	<g enable-background="new    ">
		<path fill="#FFFFFF" d="M69.128,81.438l1.666,0.034c-0.119,0.505-0.351,0.885-0.694,1.139c-0.345,0.256-0.795,0.383-1.35,0.383
			c-0.658,0-1.176-0.196-1.55-0.588c-0.372-0.397-0.558-0.94-0.558-1.63c0-0.699,0.199-1.27,0.6-1.711
			c0.4-0.443,0.918-0.665,1.551-0.665c0.629,0,1.13,0.215,1.504,0.645c0.373,0.433,0.561,1.006,0.561,1.72l-0.008,0.292h-2.5
			c0.021,0.441,0.154,0.662,0.4,0.662C68.943,81.719,69.069,81.626,69.128,81.438z M69.162,80.092c0-0.061-0.01-0.116-0.029-0.167
			c-0.021-0.051-0.048-0.095-0.084-0.131c-0.035-0.037-0.076-0.065-0.125-0.087c-0.048-0.021-0.101-0.032-0.157-0.032
			c-0.118,0-0.216,0.039-0.289,0.117s-0.11,0.178-0.11,0.3H69.162z"/>
	</g>
	<g enable-background="new    ">
		<path fill="#FFFFFF" d="M73.459,82.994H71.75v-3.213h-0.484V78.4h0.484v-1.352h1.709V78.4h0.564v1.381h-0.564V82.994z"/>
	</g>
	<g enable-background="new    ">
		<path fill="#FFFFFF" d="M78.721,80.767c0,0.68-0.199,1.222-0.595,1.624s-0.927,0.604-1.593,0.604
			c-0.654,0-1.176-0.205-1.562-0.616c-0.385-0.413-0.576-0.968-0.576-1.664s0.195-1.256,0.589-1.677
			c0.391-0.425,0.909-0.637,1.554-0.637c0.681,0,1.215,0.211,1.602,0.632C78.527,79.454,78.721,80.032,78.721,80.767z
			 M77.012,80.709c0-0.156-0.011-0.298-0.032-0.425s-0.052-0.235-0.092-0.325s-0.089-0.16-0.145-0.209
			c-0.056-0.05-0.118-0.075-0.188-0.075c-0.136,0-0.246,0.095-0.328,0.282c-0.083,0.164-0.125,0.411-0.125,0.74
			c0,0.323,0.042,0.57,0.125,0.74c0.082,0.188,0.193,0.281,0.332,0.281c0.131,0,0.239-0.092,0.324-0.277
			C76.969,81.235,77.012,80.991,77.012,80.709z"/>
		<path fill="#FFFFFF" d="M79.323,78.4h1.708v2.588c0,0.246,0.024,0.427,0.072,0.54c0.052,0.093,0.148,0.14,0.289,0.14
			c0.139,0,0.232-0.047,0.281-0.14c0.051-0.094,0.076-0.273,0.076-0.54V78.4h1.709v2.761c0,0.184-0.016,0.35-0.045,0.498
			c-0.03,0.148-0.077,0.283-0.141,0.404c-0.064,0.121-0.146,0.231-0.247,0.331s-0.222,0.191-0.36,0.274
			c-0.375,0.217-0.799,0.325-1.273,0.325c-0.479,0-0.904-0.108-1.273-0.325c-0.141-0.083-0.263-0.174-0.363-0.272
			c-0.102-0.099-0.184-0.209-0.247-0.331s-0.11-0.258-0.141-0.406s-0.045-0.314-0.045-0.498V78.4z"/>
	</g>
	<g enable-background="new    ">
		<path fill="#FBD200" d="M59.642,89.643h2.473v0.264c0,1.227-0.188,2.109-0.564,2.648c-0.412,0.589-1.02,0.883-1.824,0.883
			c-0.791,0-1.411-0.287-1.861-0.861c-0.448-0.58-0.671-1.377-0.671-2.389c0-1.025,0.225-1.834,0.675-2.425
			c0.451-0.591,1.067-0.887,1.849-0.887c1.038,0,1.79,0.538,2.256,1.615l-1.717,0.629c-0.025-0.207-0.084-0.371-0.176-0.491
			c-0.092-0.12-0.208-0.181-0.346-0.181c-0.487,0-0.731,0.63-0.731,1.888c0,0.535,0.054,0.924,0.162,1.166
			c0.107,0.242,0.279,0.363,0.514,0.363c0.093,0,0.179-0.021,0.255-0.061c0.077-0.04,0.141-0.096,0.193-0.169
			c0.053-0.072,0.094-0.16,0.124-0.265c0.029-0.104,0.045-0.22,0.045-0.348h-0.655V89.643z"/>
		<path fill="#FBD200" d="M65.549,86.876h1.771v4.561c0,0.382-0.061,0.691-0.182,0.928c-0.119,0.248-0.318,0.472-0.596,0.672
			c-0.373,0.268-0.828,0.401-1.363,0.401c-0.607,0-1.115-0.147-1.526-0.442c-0.521-0.376-0.782-0.978-0.782-1.805v-4.314h1.772
			v4.208c0,0.284,0.034,0.485,0.104,0.604c0.069,0.118,0.186,0.178,0.351,0.178c0.17,0,0.287-0.055,0.353-0.165
			c0.064-0.115,0.098-0.319,0.098-0.612V86.876z"/>
		<path fill="#FBD200" d="M68.24,93.438v-6.562h3.294v1.572h-1.521v0.837h1.363v1.573h-1.363v1.007h1.521v1.572H68.24z"/>
		<path fill="#FBD200" d="M75.231,93.438h-1.773v-2.779l-1.627-3.782h1.849l0.319,0.974c0.062,0.189,0.117,0.372,0.168,0.548
			c0.049,0.176,0.094,0.344,0.133,0.506c0.065-0.241,0.122-0.448,0.17-0.623c0.049-0.174,0.091-0.314,0.128-0.423l0.323-0.981h1.836
			l-1.525,3.782V93.438z"/>
		<path fill="#FBD200" d="M77.215,93.438v-6.562h3.293v1.572h-1.521v0.837h1.364v1.573h-1.364v1.007h1.521v1.572H77.215z"/>
	</g>
	<g enable-background="new    ">
		<path fill="#FFFFFF" d="M23.378,103.883h-1.772v-6.562h3.132v1.572h-1.36v0.837h1.267v1.573h-1.267V103.883z"/>
	</g>
	<g enable-background="new    ">
		<path fill="#FFFFFF" d="M29.549,101.655c0,0.68-0.198,1.222-0.594,1.624s-0.927,0.604-1.593,0.604
			c-0.654,0-1.175-0.205-1.562-0.616c-0.385-0.413-0.577-0.968-0.577-1.664s0.196-1.256,0.589-1.677
			c0.391-0.425,0.909-0.637,1.554-0.637c0.68,0,1.214,0.211,1.601,0.632C29.355,100.343,29.549,100.921,29.549,101.655z
			 M27.841,101.598c0-0.156-0.011-0.298-0.032-0.425s-0.052-0.235-0.092-0.325c-0.041-0.09-0.088-0.16-0.145-0.209
			c-0.056-0.05-0.119-0.075-0.188-0.075c-0.136,0-0.246,0.095-0.329,0.282c-0.083,0.164-0.125,0.411-0.125,0.74
			c0,0.323,0.042,0.57,0.125,0.74c0.083,0.188,0.193,0.281,0.333,0.281c0.131,0,0.239-0.092,0.324-0.277
			C27.798,102.124,27.841,101.88,27.841,101.598z"/>
		<path fill="#FFFFFF" d="M30.152,99.289h1.708v2.588c0,0.246,0.024,0.427,0.072,0.54c0.051,0.093,0.147,0.14,0.289,0.14
			c0.139,0,0.232-0.047,0.28-0.14c0.051-0.094,0.077-0.273,0.077-0.54v-2.588h1.708v2.761c0,0.184-0.015,0.35-0.045,0.498
			s-0.077,0.283-0.141,0.404c-0.063,0.121-0.146,0.231-0.247,0.331c-0.101,0.1-0.221,0.191-0.36,0.274
			c-0.375,0.217-0.799,0.325-1.273,0.325c-0.48,0-0.904-0.108-1.273-0.325c-0.142-0.083-0.263-0.174-0.364-0.272
			c-0.101-0.099-0.183-0.209-0.247-0.331s-0.111-0.258-0.141-0.406s-0.045-0.314-0.045-0.498V99.289z"/>
		<path fill="#FFFFFF" d="M39.294,103.883h-1.708v-2.431c0-0.21-0.026-0.355-0.079-0.438c-0.052-0.083-0.144-0.124-0.274-0.124
			c-0.303,0-0.455,0.226-0.455,0.676v2.316h-1.708v-4.594h1.708c-0.003,0.113-0.006,0.218-0.008,0.314
			c-0.003,0.096-0.007,0.186-0.013,0.268l-0.017,0.293c0.294-0.583,0.726-0.875,1.296-0.875c0.396,0,0.705,0.135,0.924,0.403
			c0.223,0.27,0.334,0.644,0.334,1.124V103.883z"/>
		<path fill="#FFFFFF" d="M42.256,103.883c0.003-0.048,0.005-0.104,0.008-0.166c0.003-0.062,0.007-0.134,0.013-0.217
			c0.006-0.051,0.01-0.129,0.013-0.233c-0.164,0.267-0.324,0.452-0.48,0.557c-0.153,0.04-0.341,0.06-0.565,0.06
			c-0.461,0-0.824-0.198-1.088-0.596c-0.261-0.397-0.391-0.949-0.391-1.656c0-0.742,0.127-1.318,0.382-1.726
			c0.255-0.411,0.615-0.616,1.08-0.616c0.255,0,0.46,0.057,0.616,0.17c0.164,0.113,0.323,0.311,0.476,0.591
			c-0.008-0.147-0.013-0.236-0.013-0.268l-0.017-0.464v-2.604h1.708v7.169H42.256z M41.473,101.594c0,0.605,0.141,0.908,0.421,0.908
			c0.264,0,0.395-0.312,0.395-0.937c0-0.597-0.127-0.896-0.382-0.896C41.618,100.67,41.473,100.979,41.473,101.594z"/>
		<path fill="#FFFFFF" d="M47.138,102.327l1.666,0.034c-0.119,0.505-0.351,0.885-0.695,1.139c-0.344,0.256-0.794,0.383-1.35,0.383
			c-0.658,0-1.175-0.196-1.549-0.588c-0.372-0.397-0.558-0.94-0.558-1.63c0-0.699,0.2-1.27,0.601-1.711
			c0.4-0.443,0.917-0.665,1.55-0.665c0.629,0,1.13,0.215,1.504,0.645c0.374,0.433,0.561,1.006,0.561,1.72l-0.008,0.292h-2.499
			c0.02,0.441,0.153,0.662,0.399,0.662C46.953,102.607,47.079,102.515,47.138,102.327z M47.173,100.98
			c0-0.061-0.01-0.116-0.03-0.167c-0.02-0.051-0.047-0.095-0.083-0.131c-0.036-0.037-0.077-0.065-0.125-0.087
			c-0.048-0.021-0.101-0.032-0.157-0.032c-0.119,0-0.215,0.039-0.289,0.117c-0.073,0.078-0.11,0.178-0.11,0.3H47.173z"/>
		<path fill="#FFFFFF" d="M51.231,103.883h-1.708v-4.594h1.708l-0.089,0.896c0.258-0.672,0.685-1.007,1.279-1.007v1.912
			c-0.187-0.103-0.346-0.153-0.476-0.153c-0.229,0-0.406,0.083-0.529,0.249c-0.124,0.166-0.185,0.407-0.185,0.725V103.883z"/>
		<path fill="#FFFFFF" d="M53.47,105.932l-0.922-0.521l4.691-8.734l0.927,0.491L53.47,105.932z"/>
		<path fill="#FFFFFF" d="M63.177,103.883h-1.772v-2.639h-0.846v2.639h-1.772v-6.562h1.772v2.35h0.846v-2.35h1.772V103.883z"/>
		<path fill="#FFFFFF" d="M66.385,102.327l1.666,0.034c-0.119,0.505-0.35,0.885-0.694,1.139c-0.345,0.256-0.794,0.383-1.35,0.383
			c-0.658,0-1.175-0.196-1.55-0.588c-0.371-0.397-0.558-0.94-0.558-1.63c0-0.699,0.2-1.27,0.601-1.711
			c0.4-0.443,0.917-0.665,1.55-0.665c0.629,0,1.13,0.215,1.505,0.645c0.373,0.433,0.561,1.006,0.561,1.72l-0.009,0.292h-2.499
			c0.02,0.441,0.153,0.662,0.399,0.662C66.199,102.607,66.326,102.515,66.385,102.327z M66.42,100.98
			c0-0.061-0.011-0.116-0.03-0.167c-0.021-0.051-0.048-0.095-0.083-0.131c-0.035-0.037-0.077-0.065-0.125-0.087
			c-0.049-0.021-0.102-0.032-0.158-0.032c-0.118,0-0.215,0.039-0.289,0.117c-0.072,0.078-0.109,0.178-0.109,0.3H66.42z"/>
		<path fill="#FFFFFF" d="M72.854,103.883h-1.701c0.014-0.153,0.025-0.299,0.033-0.438s0.018-0.251,0.025-0.336
			c-0.293,0.516-0.688,0.773-1.182,0.773c-0.428,0-0.768-0.207-1.02-0.62c-0.248-0.411-0.372-0.979-0.372-1.705
			c0-0.702,0.129-1.254,0.387-1.657c0.258-0.407,0.608-0.611,1.054-0.611c0.456,0,0.824,0.242,1.105,0.727
			c-0.006-0.057-0.01-0.106-0.014-0.148c-0.002-0.043-0.006-0.078-0.008-0.106l-0.018-0.268l-0.012-0.204h1.721V103.883z
			 M71.145,101.536c0-0.157-0.006-0.291-0.02-0.401c-0.012-0.11-0.033-0.2-0.062-0.27c-0.027-0.07-0.064-0.12-0.111-0.15
			c-0.045-0.029-0.102-0.045-0.167-0.045c-0.292,0-0.438,0.356-0.438,1.067c0,0.51,0.131,0.765,0.391,0.765
			C71.009,102.502,71.145,102.18,71.145,101.536z"/>
		<path fill="#FFFFFF" d="M76.016,103.883c0.002-0.048,0.005-0.104,0.008-0.166c0.003-0.062,0.008-0.134,0.013-0.217
			c0.006-0.051,0.011-0.129,0.013-0.233c-0.164,0.267-0.324,0.452-0.48,0.557c-0.152,0.04-0.341,0.06-0.564,0.06
			c-0.462,0-0.824-0.198-1.088-0.596c-0.262-0.397-0.391-0.949-0.391-1.656c0-0.742,0.127-1.318,0.382-1.726
			c0.255-0.411,0.614-0.616,1.079-0.616c0.256,0,0.461,0.057,0.617,0.17c0.164,0.113,0.322,0.311,0.475,0.591
			c-0.008-0.147-0.012-0.236-0.012-0.268l-0.018-0.464v-2.604h1.709v7.169H76.016z M75.233,101.594c0,0.605,0.141,0.908,0.422,0.908
			c0.264,0,0.395-0.312,0.395-0.937c0-0.597-0.127-0.896-0.383-0.896C75.377,100.67,75.233,100.979,75.233,101.594z"/>
		<path fill="#FFFFFF" d="M85.356,101.655c0,0.68-0.197,1.222-0.594,1.624s-0.927,0.604-1.593,0.604
			c-0.654,0-1.175-0.205-1.562-0.616c-0.385-0.413-0.577-0.968-0.577-1.664s0.197-1.256,0.59-1.677
			c0.391-0.425,0.908-0.637,1.555-0.637c0.68,0,1.213,0.211,1.601,0.632C85.162,100.343,85.356,100.921,85.356,101.655z
			 M83.648,101.598c0-0.156-0.011-0.298-0.032-0.425s-0.052-0.235-0.092-0.325c-0.041-0.09-0.088-0.16-0.145-0.209
			c-0.057-0.05-0.119-0.075-0.188-0.075c-0.137,0-0.246,0.095-0.329,0.282c-0.083,0.164-0.124,0.411-0.124,0.74
			c0,0.323,0.041,0.57,0.124,0.74c0.083,0.188,0.193,0.281,0.333,0.281c0.131,0,0.238-0.092,0.324-0.277
			C83.605,102.124,83.648,101.88,83.648,101.598z"/>
		<path fill="#FFFFFF" d="M87.864,103.883h-1.709v-3.213h-0.492v-1.381h0.492v-0.846c0-0.592,0.129-1.041,0.386-1.348
			c0.257-0.306,0.634-0.459,1.132-0.459c0.246,0,0.514,0.04,0.803,0.119v1.581c-0.15-0.107-0.266-0.161-0.348-0.161
			c-0.176,0-0.264,0.157-0.264,0.472v0.642h0.611v1.381h-0.611V103.883z"/>
	</g>
	<g enable-background="new    ">
		<path fill="#FFFFFF" d="M93.374,103.883h-1.772v-6.562h1.717c0.855,0,1.49,0.174,1.904,0.522c0.487,0.411,0.73,0.981,0.73,1.713
			c0,0.796-0.259,1.39-0.777,1.78c-0.354,0.264-0.862,0.396-1.525,0.396h-0.276V103.883z M93.374,100.352l0.081,0.004
			c0.215,0,0.387-0.065,0.514-0.197c0.128-0.132,0.191-0.312,0.191-0.542c0-0.227-0.062-0.411-0.188-0.553
			c-0.124-0.145-0.283-0.217-0.475-0.217h-0.124V100.352z"/>
	</g>
	<g enable-background="new    ">
		<path fill="#FFFFFF" d="M100.617,101.655c0,0.68-0.197,1.222-0.594,1.624s-0.927,0.604-1.593,0.604
			c-0.654,0-1.175-0.205-1.562-0.616c-0.385-0.413-0.577-0.968-0.577-1.664s0.197-1.256,0.59-1.677
			c0.391-0.425,0.908-0.637,1.555-0.637c0.68,0,1.213,0.211,1.601,0.632C100.424,100.343,100.617,100.921,100.617,101.655z
			 M98.909,101.598c0-0.156-0.011-0.298-0.032-0.425s-0.052-0.235-0.092-0.325c-0.041-0.09-0.088-0.16-0.145-0.209
			c-0.057-0.05-0.119-0.075-0.188-0.075c-0.137,0-0.246,0.095-0.329,0.282c-0.083,0.164-0.124,0.411-0.124,0.74
			c0,0.323,0.041,0.57,0.124,0.74c0.083,0.188,0.193,0.281,0.333,0.281c0.131,0,0.238-0.092,0.324-0.277
			C98.866,102.124,98.909,101.88,98.909,101.598z"/>
		<path fill="#FFFFFF" d="M103.58,103.883c0.002-0.048,0.005-0.104,0.008-0.166c0.003-0.062,0.008-0.134,0.013-0.217
			c0.006-0.051,0.011-0.129,0.013-0.233c-0.164,0.267-0.324,0.452-0.48,0.557c-0.152,0.04-0.341,0.06-0.564,0.06
			c-0.462,0-0.824-0.198-1.088-0.596c-0.262-0.397-0.391-0.949-0.391-1.656c0-0.742,0.127-1.318,0.382-1.726
			c0.255-0.411,0.614-0.616,1.079-0.616c0.256,0,0.461,0.057,0.617,0.17c0.164,0.113,0.322,0.311,0.475,0.591
			c-0.008-0.147-0.012-0.236-0.012-0.268l-0.018-0.464v-2.604h1.709v7.169H103.58z M102.797,101.594
			c0,0.605,0.141,0.908,0.422,0.908c0.264,0,0.395-0.312,0.395-0.937c0-0.597-0.127-0.896-0.383-0.896
			C102.942,100.67,102.797,100.979,102.797,101.594z"/>
		<path fill="#FFFFFF" d="M106.108,99.289h1.709v2.588c0,0.246,0.023,0.427,0.072,0.54c0.051,0.093,0.147,0.14,0.289,0.14
			c0.139,0,0.232-0.047,0.28-0.14c0.052-0.094,0.077-0.273,0.077-0.54v-2.588h1.708v2.761c0,0.184-0.015,0.35-0.045,0.498
			s-0.077,0.283-0.141,0.404s-0.146,0.231-0.247,0.331c-0.101,0.1-0.221,0.191-0.359,0.274c-0.375,0.217-0.799,0.325-1.273,0.325
			c-0.48,0-0.904-0.108-1.273-0.325c-0.142-0.083-0.264-0.174-0.363-0.272c-0.102-0.099-0.184-0.209-0.248-0.331
			c-0.063-0.122-0.11-0.258-0.141-0.406c-0.029-0.148-0.045-0.314-0.045-0.498V99.289z"/>
		<path fill="#FFFFFF" d="M113.359,102.409v1.446c-0.103,0.011-0.191,0.018-0.269,0.021c-0.076,0.004-0.14,0.006-0.19,0.006
			c-0.501,0-0.917-0.146-1.249-0.44c-0.225-0.198-0.407-0.47-0.547-0.815c-0.141-0.345-0.21-0.699-0.21-1.063
			c0-0.646,0.2-1.188,0.601-1.626c0.398-0.433,0.904-0.648,1.52-0.648c0.037,0,0.084,0.001,0.141,0.004s0.125,0.008,0.204,0.014
			v1.555c-0.505,0.031-0.757,0.285-0.757,0.76c0,0.215,0.062,0.402,0.188,0.564c0.127,0.154,0.279,0.231,0.455,0.231
			c0.016,0,0.034,0,0.053-0.002C113.315,102.414,113.336,102.412,113.359,102.409z"/>
		<path fill="#FFFFFF" d="M115.942,103.883h-1.708v-3.213h-0.484v-1.381h0.484v-1.352h1.708v1.352h0.566v1.381h-0.566V103.883z"/>
	</g>
	<g>
		<path fill="none" stroke="#FFFFFF" stroke-width="1.547" d="M74.587,73.513c0,0-3.417-3.885-3.538-7.4
			c-0.121-3.514,4.146-10.836,5.989-11.721s8.563,0.573,9.378,0c0.811-0.573,1.502-2.837,0.811-3.629
			c-0.688-0.797,0.327-1.215,0.327-1.215s1.165-0.583-0.107-1.56l0.433-0.977c0,0,0.747-0.957,0.123-1.215
			c-0.614-0.253-1.532-0.777-0.881-1.249c0.648-0.467,4.133-0.704,0.434-4.334c-3.7-3.634-2.385-3.168-2.385-3.168
			s1.473-0.466,1.595-0.938c0.121-0.466-1.881,0.364-1.881,0.364l-0.175-5.884c0,0,1.22-0.626,1.003-1.146s-0.341-0.228-0.341-0.228
			s2.675,0.617,1.517,4.338c0,0,3.272-2.332,0.466-5.704c0,0-0.003-2.468-1.751-3.718c-1.748-1.251-3.144-1.028-3.144-1.028
			s0.027-1.95-0.92-2.619c-1.396-0.981-3.415-0.547-3.415-0.547s-0.895-2.135-2.562-2.475c-1.666-0.338-3.501-0.032-4.477,0.909
			c0,0-2.595-0.87-3.693-0.178c-1.097,0.688-2.512,1.646-2.851,3.518c0,0-4.628-0.029-5.278,2.732c0,0-1.869,0-1.26-0.99
			c0.608-0.989,0.446-2.141,0.446-2.141c-0.435-0.34-2.795,2.048-2.551,3.403c0,0-1.595,0.277-2.528,1.497
			c-0.936,1.224-0.489,3.688-0.489,3.688s-3.118,1.793-3.327,3.732c-0.146,1.355,1.375,2.594,1.375,2.594s-1.862,0.943-1.862,1.36
			c0,0.414,1.753,0.7,2.433,1.118c0,0-2.643,0.758-2.643,2.823c0,1.354,0.714,6.637,5.252,6.637c0,0,0.02,1.594,0.493,2.478
			c0.476,0.89,2.547,0.992,2.547,0.992s0.413,1.555,1.571,1.564c0,0-1.802,1.836-1.802,2.774c0,0.933,1.021,3.197,1.956,3.128
			c0,0,0.63-3.061,0.913-3.468c0.667-0.962,2.726-2.488,2.942-3.349c0.219-0.859,0.65-1.661,0.762-1.039
			c0.106,0.627,0.515,4.558-1.1,6.744c-1.612,2.186-3.17,3.843-3.902,4.168c0,0,4.188,1.963,5.243,3.604
			C64.792,67.403,68.26,74.317,74.587,73.513z"/>
	</g>
</g>
</svg>
