<?xml version="1.0" encoding="utf-8"?>
<!-- Generator: Adobe Illustrator 14.0.0, SVG Export Plug-In . SVG Version: 6.00 Build 43363)  -->
<!DOCTYPE svg PUBLIC "-//W3C//DTD SVG 1.1//EN" "http://www.w3.org/Graphics/SVG/1.1/DTD/svg11.dtd">
<svg version="1.1" id="Calque_1" xmlns="http://www.w3.org/2000/svg" xmlns:xlink="http://www.w3.org/1999/xlink" x="0px" y="0px"
	 width="119.286px" height="107.291px" viewBox="0 0 119.286 107.291" enable-background="new 0 0 119.286 107.291"
	 xml:space="preserve">
<g>
	<path fill="none" stroke="#FFFFFF" stroke-miterlimit="2.279" d="M15.395,46.287c-1.656-1.688-3.671-2.53-6.046-2.53
		c-2.304,0-4.271,0.82-5.902,2.458C1.814,47.853,1,49.828,1,52.142c0,2.362,0.827,4.373,2.481,6.036
		c1.704,1.638,3.707,2.457,6.011,2.457c2.326,0,4.294-0.808,5.902-2.422c1.655-1.612,2.483-3.553,2.483-5.818
		C17.878,49.986,17.05,47.95,15.395,46.287z"/>
	<path fill="none" stroke="#FAD100" stroke-miterlimit="2.279" d="M40.25,40.343c0.693-1.644,1.269-3.812,1.724-6.502V21.482
		c0-2.691,0.288-4.322,0.862-4.895c0.598-0.594,2.227-0.88,4.884-0.857h2.514V5.146l-6.857-0.189c-5.083,0-8.7,0.984-10.851,2.952
		c-2.176,1.944-3.264,5.183-3.264,9.718v15.045c0,2.16-0.335,3.683-1.005,4.57c-0.646,0.936-1.831,1.584-3.555,1.943v9.394
		c1.818,0.408,3.027,1.105,3.627,2.089c0.622,1.056,0.933,2.818,0.933,5.29l0.683,14.9c0,4.535,0.972,7.799,2.913,9.791
		c1.919,1.967,5.198,2.986,9.835,3.06l6.858-0.286V73.421l-0.862,0.035l-1.508,0.036c-2.753,0-4.429-0.298-5.027-0.894
		c-0.574-0.572-0.861-2.216-0.861-4.93V55.381c0-2.905-0.372-5.083-1.113-6.536c-0.384-0.811-0.905-1.566-1.562-2.269
		c-0.658-0.703-1.442-1.363-2.353-1.983C38.226,43.235,39.555,41.818,40.25,40.343z"/>
	<path fill="none" stroke="#FAD100" stroke-miterlimit="2.279" d="M91.163,48.515c-0.671,1.302-1.006,3.455-1.006,6.46v12.246
		c0,2.674-0.3,4.295-0.897,4.861c-0.575,0.616-2.19,0.898-4.848,0.854h-2.515v10.584l6.822,0.188c5.082,0,8.698-0.979,10.848-2.936
		c2.2-1.934,3.302-5.153,3.302-9.664V56.183c0-2.101,0.322-3.616,0.97-4.547c0.694-0.931,1.891-1.575,3.591-1.934v-9.343
		c-1.82-0.405-3.028-1.097-3.627-2.076c-0.623-1.05-0.934-2.803-0.934-5.262V18.167c0-4.51-1.102-7.756-3.302-9.737
		c-2.149-1.957-5.754-2.971-10.811-3.042l-6.859,0.284v9.938l0.826-0.036l1.544-0.036c2.752,0,4.417,0.297,4.992,0.888
		c0.598,0.567,0.897,2.2,0.897,4.899v12.246c0,2.814,0.359,4.98,1.076,6.494c0.384,0.805,0.904,1.557,1.562,2.254
		c0.659,0.698,1.441,1.355,2.353,1.971C93.186,45.64,91.857,47.047,91.163,48.515z"/>
</g>
<g>
	<g enable-background="new    ">
		<path fill="#FFFFFF" d="M52.658,81.646h-1.675v-6.204h1.623c0.809,0,1.409,0.165,1.8,0.494c0.46,0.389,0.691,0.929,0.691,1.619
			c0,0.753-0.245,1.314-0.735,1.684c-0.334,0.249-0.815,0.374-1.442,0.374h-0.261V81.646z M52.658,78.307l0.077,0.004
			c0.203,0,0.365-0.062,0.486-0.187c0.121-0.125,0.181-0.296,0.181-0.513c0-0.214-0.059-0.389-0.177-0.522
			c-0.118-0.137-0.268-0.205-0.45-0.205h-0.117V78.307z"/>
		<path fill="#FFFFFF" d="M59.453,81.646h-1.615v-2.299c0-0.197-0.02-0.336-0.059-0.413c-0.039-0.078-0.106-0.117-0.203-0.117
			c-0.225,0-0.338,0.213-0.338,0.64v2.189h-1.615v-6.778h1.615v2.511c0,0.132,0,0.241-0.002,0.33
			c-0.001,0.088-0.003,0.155-0.006,0.2c-0.003,0.046-0.007,0.095-0.012,0.146s-0.011,0.106-0.016,0.168
			c0.26-0.613,0.642-0.92,1.144-0.92c0.349,0,0.62,0.127,0.813,0.382c0.196,0.254,0.294,0.608,0.294,1.062V81.646z"/>
		<path fill="#FFFFFF" d="M61.936,75.956c0,0.254-0.092,0.474-0.277,0.659c-0.189,0.182-0.41,0.272-0.662,0.272
			c-0.26,0-0.482-0.092-0.668-0.277c-0.182-0.189-0.272-0.412-0.272-0.667c0-0.26,0.091-0.48,0.272-0.662
			c0.191-0.183,0.412-0.273,0.664-0.273c0.265,0,0.488,0.092,0.67,0.277C61.845,75.467,61.936,75.69,61.936,75.956z M61.799,81.646
			h-1.615v-4.344h1.615V81.646z"/>
		<path fill="#FFFFFF" d="M64.162,81.646h-1.615v-6.778h1.615V81.646z"/>
		<path fill="#FFFFFF" d="M66.654,75.956c0,0.254-0.093,0.474-0.277,0.659c-0.19,0.182-0.411,0.272-0.663,0.272
			c-0.26,0-0.482-0.092-0.667-0.277c-0.183-0.189-0.272-0.412-0.272-0.667c0-0.26,0.09-0.48,0.272-0.662
			c0.19-0.183,0.411-0.273,0.663-0.273c0.266,0,0.488,0.092,0.671,0.277C66.563,75.467,66.654,75.69,66.654,75.956z M66.517,81.646
			h-1.615v-4.344h1.615V81.646z"/>
		<path fill="#FFFFFF" d="M68.879,83.582h-1.615v-6.28h1.611l-0.031,0.615c0.066-0.129,0.135-0.238,0.205-0.328
			c0.069-0.09,0.145-0.16,0.225-0.211s0.166-0.076,0.26-0.076c0.092,0,0.194,0,0.307,0c0.418,0,0.758,0.201,1.021,0.602
			c0.26,0.396,0.39,0.922,0.39,1.578c0,0.666-0.125,1.193-0.373,1.582c-0.244,0.388-0.58,0.582-1.009,0.582
			c-0.392,0-0.733-0.227-1.024-0.679c0.014,0.137,0.021,0.254,0.023,0.354c0.008,0.102,0.012,0.224,0.012,0.367V83.582z
			 M69.631,79.449c0-0.267-0.033-0.474-0.098-0.621c-0.066-0.146-0.159-0.221-0.279-0.221c-0.25,0-0.375,0.286-0.375,0.856
			c0,0.584,0.121,0.876,0.362,0.876c0.12,0,0.216-0.078,0.285-0.234C69.596,79.95,69.631,79.73,69.631,79.449z"/>
		<path fill="#FFFFFF" d="M73.485,83.582h-1.615v-6.28h1.611l-0.033,0.615c0.067-0.129,0.136-0.238,0.205-0.328
			c0.07-0.09,0.145-0.16,0.226-0.211c0.08-0.051,0.167-0.076,0.259-0.076c0.093,0,0.195,0,0.308,0c0.418,0,0.759,0.201,1.021,0.602
			c0.26,0.396,0.391,0.922,0.391,1.578c0,0.666-0.125,1.193-0.375,1.582c-0.243,0.388-0.58,0.582-1.008,0.582
			c-0.391,0-0.732-0.227-1.025-0.679c0.014,0.137,0.021,0.254,0.025,0.354c0.008,0.102,0.012,0.224,0.012,0.367V83.582z
			 M74.236,79.449c0-0.267-0.032-0.474-0.099-0.621c-0.065-0.146-0.158-0.221-0.279-0.221c-0.248,0-0.373,0.286-0.373,0.856
			c0,0.584,0.12,0.876,0.361,0.876c0.121,0,0.216-0.078,0.285-0.234C74.201,79.95,74.236,79.73,74.236,79.449z"/>
		<path fill="#FFFFFF" d="M78.699,80.175l1.576,0.032c-0.113,0.477-0.332,0.836-0.657,1.077s-0.751,0.361-1.276,0.361
			c-0.622,0-1.11-0.186-1.465-0.556c-0.352-0.376-0.527-0.89-0.527-1.541c0-0.661,0.189-1.2,0.567-1.617
			c0.379-0.42,0.867-0.63,1.466-0.63c0.594,0,1.068,0.203,1.422,0.609c0.354,0.409,0.53,0.951,0.53,1.627l-0.008,0.275h-2.362
			c0.019,0.418,0.145,0.627,0.377,0.627C78.525,80.44,78.644,80.352,78.699,80.175z M78.733,78.901c0-0.058-0.01-0.11-0.029-0.158
			c-0.018-0.048-0.044-0.089-0.078-0.124c-0.033-0.034-0.072-0.062-0.118-0.082c-0.046-0.02-0.095-0.029-0.148-0.029
			c-0.112,0-0.204,0.036-0.273,0.11c-0.069,0.073-0.104,0.168-0.104,0.283H78.733z"/>
	</g>
	<g enable-background="new    ">
		<path fill="#FBD200" d="M54.95,91.521h-1.696l-0.068-2.829l-0.054-1.129c-0.02,0.217-0.042,0.424-0.067,0.621
			c-0.025,0.196-0.056,0.388-0.092,0.572l-0.548,2.765h-1.393l-0.45-2.769c-0.027-0.161-0.063-0.437-0.109-0.828
			c-0.005-0.059-0.017-0.179-0.036-0.361l-0.04,1.146l-0.148,2.812h-1.784l0.723-6.204h2.085l0.35,2.09
			c0.029,0.171,0.056,0.357,0.078,0.559c0.023,0.2,0.043,0.419,0.062,0.654c0.034-0.394,0.081-0.746,0.142-1.057l0.417-2.246h2.025
			L54.95,91.521z"/>
		<path fill="#FBD200" d="M60.217,91.521h-1.731l-0.125-0.787h-1.129l-0.137,0.787h-1.731l1.491-6.204h2.049L60.217,91.521z
			 M58.164,89.427l-0.108-0.723c-0.002-0.003-0.008-0.039-0.016-0.108c-0.005-0.06-0.033-0.292-0.084-0.699
			c-0.006-0.046-0.012-0.108-0.021-0.188c-0.008-0.079-0.019-0.179-0.032-0.299l-0.052-0.587c-0.005,0.057-0.013,0.119-0.022,0.188
			c-0.009,0.07-0.02,0.146-0.03,0.229c-0.019,0.166-0.032,0.281-0.041,0.346c-0.008,0.064-0.013,0.103-0.016,0.116l-0.116,0.752
			l-0.169,0.972H58.164z"/>
		<path fill="#FBD200" d="M65.115,91.521h-1.812l-0.827-2.21c-0.009-0.037-0.022-0.087-0.042-0.148
			c-0.021-0.062-0.045-0.136-0.074-0.222l0.012,0.41v2.17h-1.668v-6.204h1.717c0.755,0,1.32,0.148,1.695,0.446
			c0.477,0.38,0.715,0.921,0.715,1.623c0,0.75-0.32,1.269-0.961,1.555L65.115,91.521z M62.379,88.102h0.113
			c0.192,0,0.354-0.074,0.481-0.222c0.129-0.147,0.192-0.335,0.192-0.562c0-0.463-0.242-0.695-0.727-0.695h-0.061V88.102z"/>
		<path fill="#FBD200" d="M67.346,91.521H65.67v-6.204h1.676V91.521z"/>
		<path fill="#FBD200" d="M72.774,88.439c0,0.913-0.215,1.656-0.646,2.228c-0.429,0.569-0.987,0.854-1.676,0.854
			c-0.61,0-1.135-0.219-1.57-0.655c-0.55-0.554-0.824-1.384-0.824-2.491c0-1.061,0.287-1.871,0.859-2.433
			c0.426-0.417,0.932-0.625,1.516-0.625c0.715,0,1.284,0.282,1.707,0.846C72.563,86.727,72.774,87.485,72.774,88.439z
			 M71.034,88.454c0-1.101-0.198-1.65-0.595-1.65c-0.198,0-0.356,0.144-0.475,0.433c-0.115,0.269-0.172,0.662-0.172,1.183
			c0,0.512,0.054,0.909,0.162,1.191s0.26,0.424,0.452,0.424c0.198,0,0.351-0.14,0.458-0.418
			C70.978,89.338,71.034,88.95,71.034,88.454z"/>
		<path fill="#FBD200" d="M76.021,85.316h1.676v4.312c0,0.36-0.058,0.653-0.173,0.877c-0.113,0.234-0.301,0.446-0.562,0.636
			c-0.354,0.253-0.783,0.379-1.29,0.379c-0.573,0-1.054-0.14-1.442-0.419c-0.493-0.355-0.739-0.924-0.739-1.706v-4.079h1.675v3.979
			c0,0.269,0.033,0.459,0.1,0.571c0.064,0.111,0.176,0.168,0.331,0.168c0.161,0,0.272-0.053,0.333-0.156
			c0.062-0.109,0.093-0.302,0.093-0.579V85.316z"/>
		<path fill="#FBD200" d="M82.94,91.521h-1.86l-0.31-0.884c-0.1-0.271-0.18-0.53-0.24-0.779c-0.06,0.246-0.148,0.528-0.266,0.848
			l-0.31,0.815H78.13l1.507-3.219l-1.422-2.985h1.863l0.277,0.84c0.029,0.078,0.059,0.169,0.087,0.273s0.057,0.223,0.087,0.354
			c0.066-0.268,0.123-0.475,0.168-0.619l0.258-0.848h1.876l-1.415,2.985L82.94,91.521z"/>
	</g>
	<g enable-background="new    ">
		<path fill="#FFFFFF" d="M48.153,101.396v-6.204h1.949c0.729,0,1.268,0.161,1.619,0.482c0.356,0.329,0.535,0.755,0.535,1.277
			c0,0.777-0.386,1.197-1.157,1.262c0.439,0.064,0.761,0.209,0.966,0.435c0.205,0.225,0.307,0.549,0.307,0.972
			c0,0.533-0.173,0.962-0.518,1.286c-0.343,0.327-0.794,0.49-1.354,0.49H48.153z M49.828,97.554h0.113
			c0.201,0,0.359-0.046,0.476-0.141c0.116-0.094,0.175-0.225,0.175-0.394c0-0.358-0.197-0.538-0.591-0.538
			c-0.019,0-0.042,0.001-0.07,0.002c-0.028,0.001-0.062,0.003-0.103,0.006V97.554z M49.828,100.081
			c0.032,0.003,0.061,0.005,0.084,0.007c0.024,0.001,0.044,0.002,0.061,0.002c0.208,0,0.375-0.057,0.5-0.169
			c0.125-0.113,0.187-0.265,0.187-0.454c0-0.19-0.062-0.339-0.187-0.446c-0.125-0.106-0.295-0.16-0.512-0.16h-0.133V100.081z"/>
		<path fill="#FFFFFF" d="M56.887,101.396h-1.608c0.013-0.145,0.024-0.282,0.032-0.414c0.008-0.131,0.016-0.237,0.024-0.317
			c-0.277,0.487-0.649,0.731-1.116,0.731c-0.406,0-0.727-0.195-0.965-0.586c-0.234-0.389-0.352-0.926-0.352-1.613
			c0-0.663,0.122-1.186,0.366-1.565c0.244-0.386,0.576-0.579,0.997-0.579c0.431,0,0.779,0.229,1.044,0.688
			c-0.005-0.054-0.009-0.101-0.012-0.141c-0.003-0.04-0.005-0.074-0.008-0.101l-0.016-0.253l-0.012-0.193h1.627V101.396z
			 M55.272,99.177c0-0.148-0.006-0.275-0.018-0.38c-0.012-0.104-0.032-0.188-0.059-0.255c-0.027-0.065-0.062-0.113-0.105-0.142
			s-0.096-0.043-0.158-0.043c-0.276,0-0.415,0.337-0.415,1.01c0,0.481,0.124,0.723,0.37,0.723
			C55.144,100.09,55.272,99.785,55.272,99.177z"/>
	</g>
	<g enable-background="new    ">
		<path fill="#FFFFFF" d="M59.853,100.002v1.367c-0.096,0.011-0.181,0.018-0.253,0.021c-0.072,0.004-0.133,0.006-0.181,0.006
			c-0.473,0-0.866-0.139-1.18-0.416c-0.213-0.188-0.385-0.444-0.518-0.771c-0.132-0.326-0.199-0.661-0.199-1.006
			c0-0.611,0.189-1.124,0.568-1.537c0.376-0.409,0.855-0.613,1.437-0.613c0.035,0,0.079,0.002,0.132,0.004
			c0.054,0.003,0.118,0.008,0.193,0.013v1.471c-0.477,0.029-0.715,0.269-0.715,0.719c0,0.202,0.059,0.38,0.177,0.533
			c0.121,0.146,0.264,0.219,0.43,0.219c0.016,0,0.033-0.001,0.05-0.002C59.812,100.007,59.832,100.005,59.853,100.002z"/>
	</g>
	<g enable-background="new    ">
		<path fill="#FFFFFF" d="M63.043,101.396l-0.622-1.688c-0.03-0.075-0.078-0.24-0.146-0.494v2.182H60.66v-6.778h1.615v4.392
			c0.035-0.112,0.074-0.225,0.115-0.336c0.041-0.11,0.085-0.224,0.131-0.339l0.521-1.282h1.744l-1.068,1.993l1.178,2.351H63.043z"/>
		<path fill="#FFFFFF" d="M65.797,103.332l-0.873-0.492l4.437-8.259l0.876,0.464L65.797,103.332z"/>
		<path fill="#FFFFFF" d="M70.823,101.396v-6.204h3.114v1.487h-1.438v0.791h1.29v1.486h-1.29v0.953h1.438v1.486H70.823z"/>
		<path fill="#FFFFFF" d="M78.586,101.396h-1.615v-2.299c0-0.197-0.025-0.336-0.074-0.413c-0.051-0.078-0.137-0.117-0.26-0.117
			c-0.287,0-0.43,0.213-0.43,0.64v2.189h-1.615v-4.344h1.615c-0.003,0.107-0.006,0.206-0.008,0.298
			c-0.004,0.091-0.008,0.175-0.013,0.253L76.17,97.88c0.278-0.552,0.688-0.828,1.227-0.828c0.375,0,0.666,0.127,0.873,0.382
			c0.211,0.254,0.316,0.608,0.316,1.062V101.396z"/>
		<path fill="#FFFFFF" d="M81.386,101.396c0.003-0.046,0.005-0.098,0.009-0.156c0.002-0.06,0.006-0.128,0.012-0.205
			c0.006-0.049,0.01-0.122,0.012-0.222c-0.155,0.252-0.307,0.428-0.454,0.526c-0.145,0.038-0.323,0.057-0.534,0.057
			c-0.437,0-0.779-0.188-1.029-0.563c-0.246-0.375-0.369-0.897-0.369-1.565c0-0.702,0.121-1.246,0.361-1.632
			c0.242-0.389,0.582-0.583,1.021-0.583c0.24,0,0.435,0.054,0.582,0.161c0.155,0.106,0.306,0.293,0.45,0.559
			c-0.009-0.14-0.013-0.224-0.013-0.254l-0.016-0.438v-2.463h1.615v6.778H81.386z M80.647,99.231c0,0.572,0.133,0.858,0.398,0.858
			c0.248,0,0.373-0.295,0.373-0.886c0-0.564-0.121-0.847-0.361-0.847C80.783,98.357,80.647,98.649,80.647,99.231z"/>
	</g>
	<g>
		<g>
			<path fill="none" stroke="#FFFFFF" stroke-width="1.547" d="M50.8,63.056c0,0,5.146-6.293,5.146-9.323
				s-5.484-13.956-5.916-15.729c-0.431-1.775-2.142-6.33,0.771-8.623c0,0,0.233-3.03,2.098-4.662
				c1.865-1.631,0.117-0.465,0.117-0.465s0.699-1.98,0-1.98c-0.7,0,1.63-2.09,3.496-1.865c1.865,0.225,2.33,0.546,2.33,0.546
				s0.816-1.559,2.098-0.781c0,0,2.681-3.029,7.808-0.232c0,0,2.563-0.01,0-1.864c0,0,3.245-1.05,7.808,1.629
				c0,0,1.165-0.349-0.583-1.748c0,0,2.74,0.89,3.703,2.348c0.113,0.171,0.203,0.352,0.259,0.539
				c0.538,1.775,0.752-0.673,0.752-0.673s2.51,3.147,2.395,4.896c-0.117,1.751,0.35,3.728-4.661,4.194c0,0,2.331,4.895,2.913,8.507
				c0,0-0.054,1.048-1.075,2.097c0,0,3.289,4.859,3.871,6.042c0.583,1.184-2.912,1.649-2.796,1.999c0.117,0.348,0.431,1.981,0,2.329
				l-0.432,0.351c0,0,0.781,0.592,0.781,1.237c0,0.645-0.996,1.327-0.996,1.444c0,0.114,1.14,3.664-0.214,4.686
				c-1.353,1.022-4.355,0.323-5.593-0.106c-1.237-0.431-3.766-1.039-4.195,1.36c-0.43,2.403-2.052,3.147-2.402,4.313
				c-0.35,1.164-0.699,4.076-0.35,5.242c0.35,1.164,1.865,3.604,1.865,3.604S60.705,69.697,50.8,63.056z"/>
		</g>
	</g>
</g>
</svg>
