<?xml version="1.0" encoding="utf-8"?>
<!-- Generator: Adobe Illustrator 14.0.0, SVG Export Plug-In . SVG Version: 6.00 Build 43363)  -->
<!DOCTYPE svg PUBLIC "-//W3C//DTD SVG 1.1//EN" "http://www.w3.org/Graphics/SVG/1.1/DTD/svg11.dtd">
<svg version="1.1" id="Calque_1" xmlns="http://www.w3.org/2000/svg" xmlns:xlink="http://www.w3.org/1999/xlink" x="0px" y="0px"
	 width="119.286px" height="107.291px" viewBox="0 0 119.286 107.291" enable-background="new 0 0 119.286 107.291"
	 xml:space="preserve">
<g>
	<path fill="none" stroke="#FFFFFF" stroke-miterlimit="2.279" d="M18.395,48.244c-1.656-1.688-3.671-2.53-6.046-2.53
		c-2.304,0-4.271,0.82-5.902,2.458C4.814,49.81,4,51.785,4,54.099c0,2.362,0.827,4.373,2.481,6.036
		c1.704,1.638,3.707,2.457,6.011,2.457c2.326,0,4.294-0.808,5.902-2.422c1.655-1.612,2.483-3.553,2.483-5.817
		C20.878,51.943,20.05,49.907,18.395,48.244z"/>
	<path fill="none" stroke="#FAD100" stroke-miterlimit="2.279" d="M43.25,42.3c0.693-1.644,1.269-3.812,1.724-6.502V23.439
		c0-2.691,0.288-4.322,0.862-4.895c0.598-0.594,2.227-0.88,4.884-0.857h2.514V7.103l-6.857-0.189c-5.083,0-8.7,0.984-10.851,2.952
		c-2.176,1.944-3.264,5.183-3.264,9.718v15.045c0,2.16-0.335,3.683-1.005,4.57c-0.646,0.936-1.831,1.584-3.555,1.943v9.394
		c1.818,0.408,3.027,1.105,3.627,2.089c0.622,1.056,0.933,2.817,0.933,5.29l0.683,14.9c0,4.535,0.972,7.799,2.913,9.791
		c1.919,1.967,5.198,2.986,9.835,3.06l6.858-0.286V75.378l-0.862,0.035l-1.508,0.036c-2.753,0-4.429-0.298-5.027-0.894
		c-0.574-0.572-0.861-2.216-0.861-4.93V57.338c0-2.905-0.372-5.083-1.113-6.536c-0.384-0.811-0.905-1.566-1.562-2.269
		c-0.658-0.703-1.442-1.363-2.353-1.983C41.226,45.192,42.555,43.775,43.25,42.3z"/>
	<path fill="none" stroke="#FAD100" stroke-miterlimit="2.279" d="M94.163,50.472c-0.671,1.302-1.006,3.455-1.006,6.46v12.245
		c0,2.675-0.3,4.296-0.897,4.862c-0.575,0.616-2.19,0.898-4.848,0.854h-2.515v10.584l6.822,0.188c5.082,0,8.698-0.979,10.848-2.936
		c2.2-1.934,3.302-5.153,3.302-9.664V58.14c0-2.101,0.322-3.615,0.97-4.547c0.694-0.931,1.891-1.575,3.591-1.934v-9.343
		c-1.82-0.405-3.028-1.097-3.627-2.076c-0.623-1.05-0.934-2.803-0.934-5.262V20.125c0-4.51-1.102-7.756-3.302-9.737
		c-2.149-1.957-5.754-2.971-10.811-3.042L84.898,7.63v9.938l0.826-0.036l1.544-0.036c2.752,0,4.417,0.297,4.992,0.888
		c0.598,0.567,0.897,2.2,0.897,4.899v12.246c0,2.814,0.359,4.98,1.076,6.494c0.384,0.805,0.904,1.557,1.562,2.254
		c0.659,0.698,1.441,1.355,2.353,1.971C96.186,47.597,94.857,49.004,94.163,50.472z"/>
	<g>
		<path fill="none" stroke="#FFFFFF" stroke-width="1.547" d="M74.614,75.972c0,0-3.33-3.785-3.45-7.218
			c-0.119-3.43,4.045-10.569,5.843-11.435c1.798-0.863,8.354,0.56,9.147,0c0.793-0.56,1.468-2.77,0.793-3.544
			c-0.674-0.774,0.317-1.182,0.317-1.182s1.137-0.571-0.104-1.524l0.423-0.953c0,0,0.728-0.931,0.118-1.182
			c-0.6-0.246-1.494-0.763-0.859-1.219c0.634-0.458,4.032-0.687,0.423-4.231s-2.327-3.088-2.327-3.088s1.438-0.457,1.557-0.914
			c0.118-0.458-1.835,0.352-1.835,0.352l-0.171-5.739c0,0,1.19-0.61,0.979-1.119c-0.211-0.508-0.332-0.225-0.332-0.225
			s2.609,0.601,1.479,4.234c0,0,3.193-2.275,0.456-5.567c0,0-0.003-2.406-1.709-3.627c-1.705-1.219-3.065-1.002-3.065-1.002
			s0.026-1.902-0.898-2.555c-1.359-0.958-3.331-0.533-3.331-0.533s-0.873-2.084-2.5-2.414c-1.625-0.33-3.416-0.03-4.368,0.884
			c0,0-2.531-0.847-3.603-0.173c-1.07,0.673-2.451,1.605-2.782,3.434c0,0-4.515-0.028-5.149,2.666c0,0-1.824,0-1.229-0.966
			c0.595-0.965,0.437-2.089,0.437-2.089c-0.424-0.331-2.728,2-2.489,3.321c0,0-1.556,0.268-2.468,1.461
			c-0.912,1.194-0.477,3.596-0.477,3.596s-3.042,1.748-3.247,3.643c-0.142,1.319,1.344,2.531,1.344,2.531s-1.818,0.917-1.818,1.324
			c0,0.406,1.712,0.684,2.373,1.09c0,0-2.577,0.74-2.577,2.758c0,1.321,0.696,6.476,5.125,6.476c0,0,0.018,1.554,0.48,2.418
			c0.462,0.863,2.484,0.966,2.484,0.966s0.403,1.517,1.533,1.524c0,0-1.758,1.791-1.758,2.705s0.995,3.121,1.908,3.056
			c0,0,0.615-2.988,0.892-3.388c0.65-0.938,2.66-2.424,2.872-3.264c0.211-0.838,0.634-1.622,0.74-1.013
			c0.105,0.608,0.503,4.442-1.071,6.577c-1.573,2.135-3.093,3.748-3.807,4.064c0,0,4.084,1.92,5.114,3.521
			C65.057,70.013,68.44,76.76,74.614,75.972z"/>
	</g>
</g>
<g enable-background="new    ">
	<path fill="#FFFFFF" d="M54.476,83.667v-6.401h2.011c0.752,0,1.309,0.166,1.671,0.497c0.368,0.34,0.552,0.779,0.552,1.318
		c0,0.802-0.398,1.236-1.194,1.302c0.454,0.066,0.786,0.216,0.997,0.448s0.317,0.566,0.317,1.003c0,0.551-0.178,0.993-0.535,1.327
		c-0.354,0.337-0.82,0.506-1.397,0.506H54.476z M56.205,79.703h0.116c0.207,0,0.371-0.048,0.491-0.145s0.18-0.232,0.18-0.407
		c0-0.37-0.203-0.555-0.609-0.555c-0.02,0-0.043,0-0.073,0.002c-0.029,0.001-0.064,0.003-0.105,0.006V79.703z M56.205,82.311
		c0.033,0.003,0.062,0.006,0.087,0.007s0.046,0.002,0.062,0.002c0.215,0,0.388-0.058,0.516-0.175
		c0.128-0.116,0.193-0.272,0.193-0.468c0-0.196-0.064-0.35-0.193-0.46s-0.305-0.166-0.529-0.166h-0.137V82.311z"/>
	<path fill="#FFFFFF" d="M61.309,77.796c0,0.263-0.096,0.489-0.286,0.68c-0.196,0.188-0.425,0.282-0.685,0.282
		c-0.268,0-0.498-0.095-0.688-0.286c-0.188-0.196-0.282-0.426-0.282-0.688c0-0.268,0.094-0.496,0.282-0.684
		c0.196-0.188,0.424-0.282,0.684-0.282c0.273,0,0.504,0.096,0.692,0.286C61.215,77.292,61.309,77.522,61.309,77.796z M61.168,83.667
		h-1.667v-4.482h1.667V83.667z"/>
	<path fill="#FFFFFF" d="M66.061,83.667h-1.667v-2.372c0-0.204-0.026-0.347-0.077-0.427s-0.141-0.12-0.267-0.12
		c-0.296,0-0.444,0.22-0.444,0.659v2.26H61.94v-4.482h1.666c-0.003,0.111-0.006,0.213-0.008,0.308
		c-0.003,0.094-0.008,0.181-0.013,0.261l-0.017,0.286c0.287-0.569,0.708-0.854,1.265-0.854c0.387,0,0.687,0.132,0.901,0.395
		c0.217,0.263,0.326,0.628,0.326,1.096V83.667z"/>
</g>
<g enable-background="new    ">
	<path fill="#FFFFFF" d="M68.946,82.149l1.625,0.033c-0.115,0.492-0.342,0.862-0.678,1.111s-0.774,0.373-1.316,0.373
		c-0.643,0-1.146-0.191-1.512-0.573c-0.363-0.389-0.545-0.918-0.545-1.59c0-0.683,0.195-1.239,0.586-1.67
		c0.391-0.433,0.895-0.649,1.512-0.649c0.614,0,1.104,0.21,1.469,0.629c0.364,0.422,0.547,0.981,0.547,1.679l-0.008,0.284h-2.438
		c0.02,0.432,0.149,0.646,0.39,0.646C68.764,82.423,68.887,82.332,68.946,82.149z M68.979,80.835c0-0.059-0.01-0.113-0.029-0.163
		c-0.02-0.049-0.047-0.092-0.08-0.127c-0.035-0.036-0.076-0.064-0.123-0.085s-0.098-0.031-0.153-0.031
		c-0.116,0-0.21,0.038-0.282,0.114s-0.107,0.174-0.107,0.292H68.979z"/>
</g>
<g enable-background="new    ">
	<path fill="#FFFFFF" d="M73.172,83.667h-1.668v-3.135h-0.473v-1.348h0.473v-1.318h1.668v1.318h0.551v1.348h-0.551V83.667z"/>
</g>
<g enable-background="new    ">
	<path fill="#FFFFFF" d="M78.305,81.494c0,0.663-0.193,1.191-0.58,1.584s-0.904,0.589-1.554,0.589c-0.638,0-1.146-0.2-1.524-0.601
		c-0.375-0.404-0.562-0.945-0.562-1.624c0-0.68,0.191-1.225,0.575-1.637c0.381-0.414,0.886-0.621,1.517-0.621
		c0.663,0,1.184,0.206,1.562,0.617S78.305,80.777,78.305,81.494z M76.638,81.438c0-0.152-0.011-0.291-0.031-0.414
		c-0.021-0.124-0.051-0.229-0.09-0.317s-0.086-0.156-0.141-0.204c-0.055-0.049-0.116-0.073-0.184-0.073
		c-0.134,0-0.239,0.092-0.321,0.275c-0.08,0.16-0.121,0.401-0.121,0.722c0,0.316,0.041,0.557,0.121,0.723
		c0.082,0.183,0.189,0.274,0.325,0.274c0.128,0,0.233-0.09,0.316-0.271C76.596,81.95,76.638,81.713,76.638,81.438z"/>
	<path fill="#FFFFFF" d="M78.894,79.185h1.667v2.525c0,0.24,0.023,0.416,0.07,0.526c0.049,0.092,0.144,0.137,0.281,0.137
		c0.136,0,0.227-0.045,0.273-0.137c0.051-0.091,0.075-0.267,0.075-0.526v-2.525h1.667v2.694c0,0.179-0.015,0.341-0.044,0.485
		c-0.028,0.146-0.075,0.276-0.137,0.395c-0.062,0.118-0.144,0.226-0.241,0.323s-0.215,0.187-0.352,0.268
		c-0.365,0.212-0.779,0.317-1.242,0.317c-0.468,0-0.882-0.105-1.242-0.317c-0.139-0.081-0.256-0.17-0.355-0.266
		c-0.098-0.097-0.178-0.204-0.24-0.323s-0.107-0.251-0.137-0.396c-0.029-0.145-0.044-0.307-0.044-0.485V79.185z"/>
</g>
<g enable-background="new    ">
	<path fill="#FAD100" d="M59.692,90.153h2.413v0.257c0,1.197-0.185,2.059-0.552,2.584c-0.4,0.574-0.994,0.861-1.778,0.861
		c-0.771,0-1.376-0.28-1.816-0.841c-0.437-0.565-0.655-1.343-0.655-2.33c0-1.001,0.22-1.789,0.659-2.366
		c0.439-0.576,1.041-0.864,1.804-0.864c1.011,0,1.746,0.525,2.202,1.575l-1.675,0.613c-0.025-0.201-0.082-0.361-0.172-0.479
		c-0.09-0.117-0.203-0.176-0.338-0.176c-0.476,0-0.713,0.613-0.713,1.842c0,0.521,0.053,0.9,0.158,1.137s0.272,0.354,0.501,0.354
		c0.091,0,0.174-0.02,0.249-0.059s0.137-0.094,0.188-0.165c0.051-0.07,0.092-0.156,0.12-0.258c0.029-0.102,0.044-0.215,0.044-0.34
		h-0.639V90.153z"/>
	<path fill="#FAD100" d="M65.455,87.454h1.729v4.449c0,0.372-0.06,0.674-0.179,0.905c-0.116,0.241-0.31,0.46-0.58,0.655
		c-0.365,0.262-0.809,0.392-1.331,0.392c-0.592,0-1.088-0.144-1.488-0.432c-0.509-0.367-0.764-0.954-0.764-1.761v-4.209h1.729v4.104
		c0,0.278,0.034,0.475,0.102,0.59s0.182,0.173,0.343,0.173c0.165,0,0.279-0.054,0.344-0.16c0.062-0.113,0.096-0.312,0.096-0.598
		V87.454z"/>
	<path fill="#FAD100" d="M68.079,93.855v-6.401h3.214v1.534h-1.484v0.816h1.33v1.534h-1.33v0.982h1.484v1.534H68.079z"/>
	<path fill="#FAD100" d="M74.9,93.855H73.17v-2.712l-1.588-3.689h1.805l0.311,0.949c0.061,0.186,0.115,0.363,0.164,0.535
		c0.048,0.171,0.092,0.336,0.13,0.493c0.063-0.235,0.119-0.438,0.166-0.607s0.089-0.308,0.124-0.413l0.315-0.957h1.791L74.9,91.144
		V93.855z"/>
	<path fill="#FAD100" d="M76.836,93.855v-6.401h3.213v1.534h-1.484v0.816h1.331v1.534h-1.331v0.982h1.484v1.534H76.836z"/>
</g>
<g enable-background="new    ">
	<path fill="#FFFFFF" d="M24.311,104.046h-1.729v-6.401h3.056v1.534h-1.327v0.816h1.235v1.534h-1.235V104.046z"/>
</g>
<g enable-background="new    ">
	<path fill="#FFFFFF" d="M30.332,101.873c0,0.663-0.193,1.191-0.58,1.584c-0.387,0.393-0.904,0.589-1.554,0.589
		c-0.638,0-1.146-0.2-1.524-0.601c-0.375-0.404-0.563-0.945-0.563-1.624c0-0.68,0.192-1.225,0.576-1.637
		c0.381-0.414,0.886-0.621,1.516-0.621c0.664,0,1.184,0.206,1.562,0.617S30.332,101.156,30.332,101.873z M28.665,101.816
		c0-0.152-0.01-0.291-0.031-0.414c-0.021-0.124-0.051-0.229-0.09-0.317s-0.086-0.156-0.141-0.204
		c-0.055-0.049-0.116-0.073-0.184-0.073c-0.133,0-0.24,0.092-0.321,0.275c-0.081,0.16-0.121,0.401-0.121,0.722
		c0,0.316,0.041,0.557,0.121,0.723c0.081,0.183,0.189,0.274,0.325,0.274c0.127,0,0.233-0.09,0.316-0.271
		C28.623,102.329,28.665,102.092,28.665,101.816z"/>
	<path fill="#FFFFFF" d="M30.921,99.563h1.667v2.525c0,0.24,0.023,0.416,0.071,0.526c0.049,0.092,0.144,0.137,0.282,0.137
		c0.135,0,0.227-0.045,0.273-0.137c0.05-0.091,0.075-0.267,0.075-0.526v-2.525h1.667v2.694c0,0.179-0.015,0.341-0.044,0.485
		c-0.029,0.146-0.075,0.276-0.137,0.395c-0.062,0.118-0.143,0.226-0.241,0.323s-0.215,0.187-0.351,0.268
		c-0.366,0.212-0.78,0.317-1.242,0.317c-0.468,0-0.882-0.105-1.242-0.317c-0.139-0.081-0.257-0.17-0.355-0.266
		c-0.098-0.097-0.179-0.204-0.241-0.323c-0.062-0.119-0.108-0.251-0.137-0.396c-0.029-0.145-0.043-0.307-0.043-0.485V99.563z"/>
	<path fill="#FFFFFF" d="M39.839,104.046h-1.667v-2.372c0-0.204-0.026-0.347-0.077-0.427c-0.051-0.08-0.14-0.12-0.267-0.12
		c-0.296,0-0.444,0.22-0.444,0.659v2.26h-1.667v-4.482h1.667c-0.003,0.111-0.005,0.213-0.008,0.308
		c-0.002,0.094-0.007,0.181-0.012,0.261l-0.017,0.286c0.287-0.569,0.708-0.854,1.265-0.854c0.387,0,0.687,0.132,0.901,0.395
		c0.217,0.263,0.326,0.628,0.326,1.096V104.046z"/>
	<path fill="#FFFFFF" d="M42.728,104.046c0.003-0.047,0.006-0.101,0.008-0.162c0.003-0.061,0.007-0.131,0.013-0.211
		c0.005-0.05,0.01-0.126,0.012-0.229c-0.16,0.26-0.316,0.441-0.468,0.544c-0.149,0.038-0.333,0.058-0.552,0.058
		c-0.45,0-0.804-0.193-1.061-0.581c-0.254-0.388-0.382-0.926-0.382-1.616c0-0.725,0.125-1.285,0.374-1.684
		c0.249-0.4,0.6-0.602,1.053-0.602c0.249,0,0.449,0.056,0.602,0.166c0.16,0.111,0.315,0.303,0.464,0.576
		c-0.008-0.144-0.013-0.23-0.013-0.261l-0.017-0.452v-2.541h1.667v6.994H42.728z M41.966,101.812c0,0.591,0.137,0.886,0.411,0.886
		c0.257,0,0.385-0.305,0.385-0.913c0-0.583-0.124-0.874-0.373-0.874C42.107,100.911,41.966,101.212,41.966,101.812z"/>
	<path fill="#FFFFFF" d="M47.492,102.528l1.625,0.033c-0.116,0.492-0.342,0.862-0.678,1.111s-0.774,0.373-1.316,0.373
		c-0.642,0-1.146-0.191-1.512-0.573c-0.363-0.389-0.545-0.918-0.545-1.59c0-0.683,0.195-1.239,0.586-1.67
		c0.391-0.433,0.895-0.649,1.512-0.649c0.614,0,1.103,0.21,1.468,0.629c0.365,0.422,0.547,0.981,0.547,1.679l-0.008,0.284h-2.438
		c0.02,0.432,0.149,0.646,0.39,0.646C47.311,102.802,47.434,102.711,47.492,102.528z M47.526,101.214
		c0-0.059-0.01-0.113-0.029-0.163c-0.019-0.049-0.046-0.092-0.081-0.127c-0.035-0.036-0.076-0.064-0.123-0.085
		s-0.098-0.031-0.153-0.031c-0.116,0-0.21,0.038-0.282,0.114c-0.072,0.076-0.108,0.174-0.108,0.292H47.526z"/>
	<path fill="#FFFFFF" d="M51.485,104.046h-1.667v-4.482h1.667l-0.087,0.875c0.251-0.655,0.667-0.982,1.248-0.982v1.866
		c-0.183-0.1-0.337-0.149-0.464-0.149c-0.224,0-0.396,0.081-0.516,0.242c-0.121,0.162-0.181,0.397-0.181,0.707V104.046z"/>
	<path fill="#FFFFFF" d="M53.67,106.044l-0.9-0.508l4.577-8.522l0.904,0.479L53.67,106.044z"/>
	<path fill="#FFFFFF" d="M63.141,104.046h-1.729v-2.575h-0.825v2.575h-1.729v-6.401h1.729v2.293h0.825v-2.293h1.729V104.046z"/>
	<path fill="#FFFFFF" d="M66.27,102.528l1.625,0.033c-0.115,0.492-0.342,0.862-0.678,1.111s-0.773,0.373-1.316,0.373
		c-0.642,0-1.146-0.191-1.512-0.573c-0.363-0.389-0.545-0.918-0.545-1.59c0-0.683,0.195-1.239,0.587-1.67
		c0.391-0.433,0.895-0.649,1.512-0.649c0.614,0,1.103,0.21,1.468,0.629c0.365,0.422,0.547,0.981,0.547,1.679l-0.008,0.284h-2.438
		c0.02,0.432,0.148,0.646,0.389,0.646C66.089,102.802,66.212,102.711,66.27,102.528z M66.303,101.214
		c0-0.059-0.01-0.113-0.029-0.163c-0.019-0.049-0.046-0.092-0.08-0.127c-0.035-0.036-0.076-0.064-0.123-0.085
		s-0.098-0.031-0.152-0.031c-0.117,0-0.211,0.038-0.282,0.114c-0.072,0.076-0.108,0.174-0.108,0.292H66.303z"/>
	<path fill="#FFFFFF" d="M72.58,104.046h-1.66c0.014-0.149,0.025-0.292,0.033-0.427c0.009-0.136,0.017-0.245,0.025-0.328
		c-0.287,0.503-0.671,0.755-1.152,0.755c-0.418,0-0.75-0.202-0.995-0.605c-0.243-0.4-0.364-0.955-0.364-1.663
		c0-0.685,0.127-1.224,0.378-1.616c0.251-0.398,0.595-0.598,1.028-0.598c0.445,0,0.805,0.236,1.078,0.709
		c-0.006-0.055-0.01-0.104-0.013-0.145c-0.003-0.042-0.005-0.076-0.009-0.104l-0.016-0.262l-0.013-0.199h1.679V104.046z
		 M70.914,101.757c0-0.153-0.007-0.284-0.02-0.392c-0.012-0.108-0.033-0.195-0.061-0.264c-0.027-0.067-0.064-0.116-0.109-0.146
		c-0.044-0.03-0.099-0.045-0.163-0.045c-0.284,0-0.427,0.348-0.427,1.042c0,0.497,0.127,0.745,0.381,0.745
		C70.781,102.698,70.914,102.385,70.914,101.757z"/>
	<path fill="#FFFFFF" d="M75.665,104.046c0.003-0.047,0.006-0.101,0.009-0.162c0.002-0.061,0.006-0.131,0.012-0.211
		c0.006-0.05,0.01-0.126,0.013-0.229c-0.16,0.26-0.316,0.441-0.468,0.544c-0.15,0.038-0.334,0.058-0.553,0.058
		c-0.449,0-0.804-0.193-1.061-0.581c-0.254-0.388-0.382-0.926-0.382-1.616c0-0.725,0.124-1.285,0.374-1.684
		c0.248-0.4,0.6-0.602,1.053-0.602c0.248,0,0.449,0.056,0.602,0.166c0.16,0.111,0.314,0.303,0.464,0.576
		c-0.009-0.144-0.013-0.23-0.013-0.261l-0.017-0.452v-2.541h1.667v6.994H75.665z M74.903,101.812c0,0.591,0.137,0.886,0.41,0.886
		c0.258,0,0.386-0.305,0.386-0.913c0-0.583-0.124-0.874-0.373-0.874C75.043,100.911,74.903,101.212,74.903,101.812z"/>
	<path fill="#FFFFFF" d="M84.78,101.873c0,0.663-0.193,1.191-0.58,1.584s-0.904,0.589-1.555,0.589c-0.638,0-1.146-0.2-1.523-0.601
		c-0.375-0.404-0.563-0.945-0.563-1.624c0-0.68,0.192-1.225,0.575-1.637c0.381-0.414,0.887-0.621,1.517-0.621
		c0.663,0,1.185,0.206,1.562,0.617C84.59,100.592,84.78,101.156,84.78,101.873z M83.112,101.816c0-0.152-0.01-0.291-0.031-0.414
		c-0.021-0.124-0.051-0.229-0.09-0.317s-0.086-0.156-0.141-0.204c-0.055-0.049-0.115-0.073-0.184-0.073
		c-0.133,0-0.239,0.092-0.32,0.275c-0.08,0.16-0.121,0.401-0.121,0.722c0,0.316,0.041,0.557,0.121,0.723
		c0.081,0.183,0.189,0.274,0.324,0.274c0.128,0,0.233-0.09,0.316-0.271C83.071,102.329,83.112,102.092,83.112,101.816z"/>
	<path fill="#FFFFFF" d="M87.225,104.046h-1.667v-3.135h-0.481v-1.348h0.481v-0.824c0-0.578,0.126-1.017,0.376-1.314
		c0.251-0.299,0.619-0.448,1.104-0.448c0.241,0,0.502,0.039,0.785,0.116v1.542c-0.147-0.104-0.261-0.157-0.341-0.157
		c-0.171,0-0.257,0.153-0.257,0.46v0.626h0.598v1.348h-0.598V104.046z"/>
</g>
<g enable-background="new    ">
	<path fill="#FFFFFF" d="M92.602,104.046h-1.729v-6.401h1.676c0.834,0,1.453,0.17,1.857,0.51c0.475,0.4,0.713,0.958,0.713,1.671
		c0,0.776-0.254,1.355-0.76,1.737c-0.345,0.257-0.841,0.386-1.488,0.386h-0.27V104.046z M92.602,100.601l0.079,0.004
		c0.21,0,0.378-0.064,0.502-0.192c0.124-0.129,0.187-0.305,0.187-0.529c0-0.221-0.061-0.4-0.183-0.539
		c-0.122-0.141-0.276-0.211-0.464-0.211h-0.121V100.601z"/>
</g>
<g enable-background="new    ">
	<path fill="#FFFFFF" d="M99.67,101.873c0,0.663-0.193,1.191-0.58,1.584s-0.904,0.589-1.555,0.589c-0.638,0-1.146-0.2-1.523-0.601
		c-0.375-0.404-0.563-0.945-0.563-1.624c0-0.68,0.192-1.225,0.575-1.637c0.381-0.414,0.887-0.621,1.517-0.621
		c0.663,0,1.185,0.206,1.562,0.617C99.481,100.592,99.67,101.156,99.67,101.873z M98.002,101.816c0-0.152-0.01-0.291-0.031-0.414
		c-0.021-0.124-0.051-0.229-0.09-0.317s-0.086-0.156-0.141-0.204c-0.055-0.049-0.115-0.073-0.184-0.073
		c-0.133,0-0.239,0.092-0.32,0.275c-0.08,0.16-0.121,0.401-0.121,0.722c0,0.316,0.041,0.557,0.121,0.723
		c0.081,0.183,0.189,0.274,0.324,0.274c0.128,0,0.233-0.09,0.316-0.271C97.961,102.329,98.002,102.092,98.002,101.816z"/>
	<path fill="#FFFFFF" d="M102.559,104.046c0.004-0.047,0.006-0.101,0.009-0.162c0.003-0.061,0.007-0.131,0.013-0.211
		c0.006-0.05,0.01-0.126,0.012-0.229c-0.16,0.26-0.316,0.441-0.468,0.544c-0.149,0.038-0.333,0.058-0.552,0.058
		c-0.45,0-0.805-0.193-1.061-0.581c-0.255-0.388-0.383-0.926-0.383-1.616c0-0.725,0.125-1.285,0.374-1.684
		c0.249-0.4,0.6-0.602,1.053-0.602c0.249,0,0.449,0.056,0.602,0.166c0.16,0.111,0.315,0.303,0.464,0.576
		c-0.008-0.144-0.012-0.23-0.012-0.261l-0.018-0.452v-2.541h1.668v6.994H102.559z M101.797,101.812c0,0.591,0.137,0.886,0.41,0.886
		c0.257,0,0.385-0.305,0.385-0.913c0-0.583-0.123-0.874-0.373-0.874C101.938,100.911,101.797,101.212,101.797,101.812z"/>
	<path fill="#FFFFFF" d="M105.027,99.563h1.667v2.525c0,0.24,0.023,0.416,0.07,0.526c0.049,0.092,0.144,0.137,0.281,0.137
		c0.136,0,0.227-0.045,0.273-0.137c0.051-0.091,0.075-0.267,0.075-0.526v-2.525h1.667v2.694c0,0.179-0.015,0.341-0.044,0.485
		c-0.028,0.146-0.075,0.276-0.137,0.395c-0.062,0.118-0.144,0.226-0.241,0.323s-0.215,0.187-0.352,0.268
		c-0.365,0.212-0.779,0.317-1.242,0.317c-0.468,0-0.882-0.105-1.242-0.317c-0.139-0.081-0.256-0.17-0.355-0.266
		c-0.098-0.097-0.178-0.204-0.24-0.323s-0.107-0.251-0.137-0.396c-0.029-0.145-0.044-0.307-0.044-0.485V99.563z"/>
	<path fill="#FFFFFF" d="M112.1,102.608v1.411c-0.1,0.01-0.188,0.017-0.262,0.021s-0.137,0.006-0.187,0.006
		c-0.487,0-0.894-0.144-1.218-0.43c-0.22-0.193-0.397-0.458-0.534-0.795s-0.205-0.683-0.205-1.038c0-0.631,0.196-1.16,0.587-1.587
		c0.388-0.422,0.883-0.633,1.482-0.633c0.035,0,0.082,0.002,0.137,0.005s0.121,0.007,0.199,0.013v1.517
		c-0.492,0.031-0.738,0.278-0.738,0.742c0,0.209,0.061,0.393,0.183,0.551c0.124,0.15,0.272,0.226,0.443,0.226
		c0.017,0,0.034-0.001,0.052-0.002C112.057,102.612,112.077,102.611,112.1,102.608z"/>
	<path fill="#FFFFFF" d="M114.62,104.046h-1.667v-3.135h-0.473v-1.348h0.473v-1.318h1.667v1.318h0.552v1.348h-0.552V104.046z"/>
</g>
</svg>
