<?xml version="1.0" encoding="utf-8"?>
<!-- Generator: Adobe Illustrator 14.0.0, SVG Export Plug-In . SVG Version: 6.00 Build 43363)  -->
<!DOCTYPE svg PUBLIC "-//W3C//DTD SVG 1.1//EN" "http://www.w3.org/Graphics/SVG/1.1/DTD/svg11.dtd">
<svg version="1.1" id="Calque_1" xmlns="http://www.w3.org/2000/svg" xmlns:xlink="http://www.w3.org/1999/xlink" x="0px" y="0px"
	 width="135.216px" height="121.145px" viewBox="0 0 135.216 121.145" enable-background="new 0 0 135.216 121.145"
	 xml:space="preserve">
<g enable-background="new    ">
	<path fill="#FFFFFF" d="M22.355,58.206c0,2.597-0.949,4.82-2.847,6.671c-1.844,1.852-4.099,2.776-6.767,2.776
		c-2.641,0-4.938-0.939-6.89-2.817c-1.898-1.905-2.847-4.212-2.847-6.92c0-2.651,0.935-4.917,2.805-6.795
		c1.871-1.879,4.126-2.817,6.767-2.817c2.722,0,5.033,0.967,6.931,2.9C21.406,53.111,22.355,55.445,22.355,58.206z"/>
</g>
<g enable-background="new    ">
	<path fill="#FBD200" d="M43.452,49.23c1.042,0.71,1.941,1.468,2.696,2.272c0.755,0.806,1.352,1.673,1.791,2.601
		c0.851,1.666,1.276,4.164,1.276,7.495v14.088c0,3.112,0.33,4.996,0.988,5.651c0.686,0.682,2.607,1.023,5.764,1.023l1.729-0.04
		l0.988-0.041v11.467l-7.864,0.327c-5.316-0.082-9.075-1.252-11.275-3.507c-2.227-2.284-3.34-6.025-3.34-11.224l-0.782-17.084
		c0-2.833-0.357-4.854-1.07-6.065c-0.687-1.128-2.073-1.926-4.158-2.394V43.03c1.976-0.412,3.335-1.155,4.076-2.228
		c0.768-1.018,1.153-2.765,1.153-5.24V18.313c0-5.199,1.247-8.913,3.741-11.142c2.465-2.255,6.612-3.383,12.438-3.383l7.864,0.217
		v12.134h-2.882c-3.047-0.027-4.914,0.301-5.599,0.983c-0.659,0.655-0.988,2.525-0.988,5.61v14.169
		c-0.521,3.086-1.18,5.57-1.976,7.454C47.226,46.049,45.702,47.673,43.452,49.23z"/>
</g>
<g enable-background="new    ">
	<path fill="#FBD200" d="M110.963,48.882c-1.043-0.704-1.941-1.458-2.696-2.258c-0.755-0.801-1.353-1.662-1.791-2.584
		c-0.823-1.736-1.235-4.219-1.235-7.447V22.554c0-3.093-0.344-4.965-1.029-5.616c-0.658-0.678-2.566-1.018-5.723-1.018l-1.77,0.041
		l-0.947,0.041V4.608l7.863-0.326c5.798,0.083,9.93,1.245,12.395,3.489c2.523,2.271,3.785,5.991,3.785,11.162v17.03
		c0,2.818,0.356,4.829,1.07,6.033c0.686,1.122,2.072,1.915,4.158,2.38v10.711c-1.949,0.411-3.321,1.149-4.117,2.216
		c-0.74,1.067-1.111,2.805-1.111,5.212v17.113c0,5.171-1.262,8.863-3.785,11.08c-2.465,2.243-6.61,3.365-12.436,3.365l-7.822-0.217
		V81.723h2.882c3.046,0.055,4.899-0.271,5.558-0.977c0.686-0.651,1.029-2.51,1.029-5.575v-14.04c0-3.445,0.385-5.913,1.152-7.406
		C107.19,52.043,108.713,50.429,110.963,48.882z"/>
</g>
<g>
	<g>
		<path fill="none" stroke="#FFFFFF" stroke-width="1.547" d="M76.106,81.126c-7.688-3.237-18.523-0.611-20.29-2.523
			c0,0-0.584-6.093,2.628-8.479c3.217-2.392,6.994-3.672,8.032-7.104c1.038-3.43,2.336-5.037,0.146-8.255
			c-2.19-3.218-6.329-9.358-7.545-14.333c-1.222-4.973-2.098-11.846,1.704-12.871l-0.73-3.705l2.336,3.121v-5.558l1.396,3.802
			c0.795-0.584,6.779-6.077,6.779-6.077v1.69l6.721-3.656l-0.584,1.479c0,0,4.934-0.896,6.556-1.479s5.419-2.422,5.419-2.422
			l-2.482,3.896l4.385-1.771l-0.589,1.463l2.682-1.021l-0.324,1.816l0.487,2.421c0,0,1.395,0.146,1.979-0.585l0.584-0.729
			c0,0-1.896,5.118-3.505,5.704l2.483-0.439L91.887,28c0,0,3.862,4.452,4.673,9.831v1.576l-1.312,1.755l1.021,0.294l-0.876,0.292
			l2.304,4.095c0,0,2.227,1.868,1.493,3.201c-0.729,1.332-2.467,1.627-2.467,1.627l0.812,2.271c0,0-0.029,0.536-0.267,0.945
			c-0.12,0.211-0.295,0.387-0.549,0.438c-0.747,0.145,1.006,1.218-0.454,2.188c0,0-0.812,1.464,0.146,2.926
			c0.957,1.466-2.097,2.475-3.749,2.779c-1.425,0.265-4.539,0.902-5.852,0.771c-0.212-0.022-0.378-0.065-0.479-0.138
			c-0.731-0.483,0,2.146-0.438,3.754c-0.438,1.608-2.771,4.827-1.312,6.581c1.461,1.758,4.089,1.738,4.231,4.453
			c0.147,2.714,0.877,6.37,0.877,6.37S84.314,84.792,76.106,81.126z"/>
	</g>
</g>
<g enable-background="new    ">
	<path fill="#FFFFFF" d="M64.82,91.781h-2.144l-0.979-2.614c-0.01-0.045-0.026-0.104-0.05-0.176
		c-0.023-0.073-0.053-0.16-0.088-0.262l0.014,0.485v2.566h-1.973v-7.339h2.03c0.894,0,1.562,0.176,2.006,0.527
		c0.564,0.45,0.846,1.09,0.846,1.92c0,0.888-0.378,1.501-1.136,1.84L64.82,91.781z M61.583,87.736h0.133
		c0.229,0,0.418-0.087,0.571-0.262c0.152-0.174,0.228-0.396,0.228-0.665c0-0.549-0.287-0.822-0.86-0.822h-0.071V87.736z"/>
</g>
<g enable-background="new    ">
	<path fill="#FFFFFF" d="M69.935,91.781h-1.903c0.016-0.171,0.028-0.334,0.038-0.489c0.01-0.155,0.019-0.281,0.029-0.376
		c-0.329,0.577-0.769,0.865-1.321,0.865c-0.479,0-0.86-0.231-1.141-0.693c-0.278-0.46-0.417-1.096-0.417-1.908
		c0-0.784,0.144-1.402,0.432-1.853c0.289-0.456,0.682-0.685,1.179-0.685c0.51,0,0.922,0.271,1.236,0.813
		c-0.006-0.063-0.011-0.119-0.014-0.167c-0.003-0.047-0.006-0.087-0.01-0.118l-0.019-0.3l-0.014-0.229h1.925V91.781z M68.024,89.156
		c0-0.177-0.007-0.326-0.021-0.449c-0.015-0.124-0.038-0.225-0.07-0.303c-0.032-0.077-0.074-0.133-0.125-0.167
		c-0.051-0.033-0.113-0.051-0.187-0.051c-0.327,0-0.49,0.398-0.49,1.194c0,0.569,0.146,0.854,0.438,0.854
		C67.872,90.236,68.024,89.876,68.024,89.156z"/>
	<path fill="#FFFFFF" d="M72.744,94.072h-1.912v-7.43h1.906l-0.037,0.728c0.078-0.152,0.16-0.281,0.242-0.388
		c0.082-0.105,0.171-0.189,0.266-0.249c0.096-0.061,0.197-0.091,0.307-0.091s0.23,0,0.363,0c0.495,0,0.897,0.237,1.208,0.712
		c0.308,0.469,0.461,1.091,0.461,1.866c0,0.788-0.147,1.412-0.442,1.871c-0.288,0.46-0.686,0.689-1.192,0.689
		c-0.463,0-0.866-0.268-1.212-0.804c0.016,0.162,0.025,0.302,0.028,0.419c0.009,0.12,0.015,0.265,0.015,0.435V94.072z
		 M73.633,89.182c0-0.315-0.039-0.56-0.117-0.733c-0.077-0.175-0.188-0.262-0.33-0.262c-0.295,0-0.441,0.338-0.441,1.014
		c0,0.69,0.143,1.035,0.428,1.035c0.143,0,0.254-0.092,0.337-0.276S73.633,89.516,73.633,89.182z"/>
	<path fill="#FFFFFF" d="M80.811,91.781H78.9v-2.719c0-0.234-0.022-0.397-0.069-0.49c-0.045-0.092-0.125-0.138-0.239-0.138
		c-0.267,0-0.399,0.252-0.399,0.756v2.591h-1.911v-8.019h1.911v2.971c0,0.155-0.001,0.285-0.002,0.39
		c-0.002,0.104-0.004,0.184-0.008,0.237c-0.003,0.054-0.008,0.111-0.014,0.171c-0.007,0.061-0.014,0.127-0.02,0.2
		c0.309-0.726,0.759-1.089,1.353-1.089c0.413,0,0.733,0.15,0.962,0.452c0.232,0.301,0.348,0.72,0.348,1.256V91.781z"/>
	<path fill="#FFFFFF" d="M86.248,91.781h-1.903c0.016-0.171,0.028-0.334,0.038-0.489s0.019-0.281,0.028-0.376
		c-0.329,0.577-0.769,0.865-1.321,0.865c-0.479,0-0.859-0.231-1.141-0.693c-0.277-0.46-0.416-1.096-0.416-1.908
		c0-0.784,0.144-1.402,0.432-1.853c0.289-0.456,0.682-0.685,1.18-0.685c0.51,0,0.922,0.271,1.235,0.813
		c-0.007-0.063-0.011-0.119-0.015-0.167c-0.003-0.047-0.006-0.087-0.01-0.118l-0.019-0.3l-0.015-0.229h1.926V91.781z M84.337,89.156
		c0-0.177-0.007-0.326-0.021-0.449c-0.015-0.124-0.038-0.225-0.069-0.303c-0.032-0.077-0.074-0.133-0.125-0.167
		c-0.052-0.033-0.113-0.051-0.188-0.051c-0.326,0-0.49,0.398-0.49,1.194c0,0.569,0.146,0.854,0.438,0.854
		C84.186,90.236,84.337,89.876,84.337,89.156z"/>
	<path fill="#FFFFFF" d="M89.781,90.04l1.863,0.038c-0.134,0.564-0.392,0.989-0.777,1.274s-0.888,0.428-1.509,0.428
		c-0.736,0-1.314-0.22-1.734-0.658C87.207,90.678,87,90.071,87,89.3c0-0.782,0.223-1.42,0.672-1.913
		c0.447-0.497,1.025-0.745,1.732-0.745c0.703,0,1.265,0.24,1.684,0.721c0.418,0.484,0.627,1.125,0.627,1.925l-0.01,0.325H88.91
		c0.021,0.495,0.172,0.742,0.447,0.742C89.573,90.355,89.713,90.25,89.781,90.04z M89.11,85.225c0,0.204-0.078,0.384-0.237,0.539
		c-0.158,0.148-0.344,0.223-0.556,0.223c-0.229,0-0.42-0.076-0.576-0.228c-0.154-0.151-0.232-0.336-0.232-0.553
		c0-0.21,0.078-0.39,0.232-0.538c0.156-0.151,0.343-0.227,0.562-0.227c0.226,0,0.415,0.075,0.57,0.227
		C89.031,84.823,89.11,85.009,89.11,85.225z M89.819,88.533c0-0.067-0.012-0.13-0.033-0.187c-0.022-0.057-0.053-0.105-0.094-0.146
		c-0.039-0.041-0.086-0.073-0.14-0.097s-0.112-0.036-0.176-0.036c-0.134,0-0.241,0.044-0.323,0.132
		c-0.082,0.087-0.123,0.198-0.123,0.334H89.819z M91.221,85.225c0,0.208-0.078,0.387-0.233,0.539
		c-0.158,0.148-0.345,0.223-0.561,0.223c-0.226,0-0.415-0.076-0.571-0.228c-0.154-0.151-0.232-0.336-0.232-0.553
		c0-0.21,0.078-0.39,0.232-0.538c0.156-0.151,0.343-0.227,0.562-0.227c0.226,0,0.415,0.075,0.57,0.227
		C91.143,84.821,91.221,85.006,91.221,85.225z"/>
	<path fill="#FFFFFF" d="M94.358,91.781h-1.911v-8.019h1.911V91.781z"/>
</g>
<g enable-background="new    ">
	<path fill="#FBD200" d="M66.593,103.462H64.61v-5.58h-1.093v-1.759h4.211v1.759h-1.136V103.462z"/>
</g>
<g enable-background="new    ">
	<path fill="#FBD200" d="M73.677,99.818c0,1.08-0.255,1.959-0.766,2.635c-0.507,0.673-1.167,1.01-1.981,1.01
		c-0.723,0-1.343-0.259-1.859-0.775c-0.649-0.655-0.974-1.638-0.974-2.947c0-1.254,0.339-2.214,1.017-2.878
		c0.504-0.492,1.102-0.738,1.792-0.738c0.847,0,1.52,0.333,2.021,1C73.426,97.79,73.677,98.689,73.677,99.818z M71.618,99.834
		c0-1.302-0.234-1.952-0.703-1.952c-0.235,0-0.422,0.171-0.562,0.513c-0.136,0.316-0.204,0.782-0.204,1.397
		c0,0.606,0.064,1.076,0.192,1.41c0.129,0.334,0.307,0.501,0.535,0.501c0.234,0,0.415-0.165,0.541-0.494
		C71.552,100.88,71.618,100.422,71.618,99.834z"/>
	<path fill="#FBD200" d="M82.01,103.462h-2.006l-0.082-3.347l-0.063-1.335c-0.023,0.256-0.05,0.501-0.079,0.734
		c-0.03,0.232-0.066,0.458-0.109,0.677l-0.648,3.271h-1.646l-0.533-3.275c-0.031-0.189-0.074-0.517-0.128-0.979
		c-0.007-0.07-0.021-0.213-0.042-0.428l-0.049,1.354l-0.176,3.327h-2.109l0.855-7.339h2.467l0.413,2.472
		c0.035,0.202,0.065,0.423,0.093,0.66c0.027,0.238,0.052,0.496,0.074,0.775c0.04-0.466,0.096-0.883,0.167-1.25l0.493-2.657h2.396
		L82.01,103.462z"/>
	<path fill="#FBD200" d="M84.938,103.462h-1.982v-7.339h1.982V103.462z"/>
	<path fill="#FBD200" d="M90.09,101.228l-0.113,1.989c-0.441,0.163-0.836,0.245-1.184,0.245c-0.821,0-1.512-0.291-2.073-0.872
		c-0.628-0.651-0.94-1.574-0.94-2.768c0-1.117,0.294-2.014,0.883-2.689c0.59-0.674,1.377-1.01,2.363-1.01
		c0.32,0,0.646,0.058,0.979,0.173v2.027c-0.294-0.295-0.597-0.441-0.907-0.441c-0.405,0-0.723,0.171-0.95,0.514
		c-0.229,0.345-0.343,0.822-0.343,1.432c0,0.296,0.028,0.56,0.085,0.792c0.058,0.232,0.139,0.429,0.245,0.589
		s0.237,0.283,0.393,0.368s0.333,0.127,0.532,0.127C89.401,101.703,89.744,101.545,90.09,101.228z"/>
</g>
<g enable-background="new    ">
	<path fill="#FFFFFF" d="M22.342,115.145h-1.982v-7.339h3.503v1.759h-1.521v0.936h1.417v1.759h-1.417V115.145z"/>
</g>
<g enable-background="new    ">
	<path fill="#FFFFFF" d="M29.245,112.654c0,0.76-0.222,1.365-0.665,1.815s-1.037,0.676-1.782,0.676
		c-0.732,0-1.314-0.229-1.748-0.689c-0.43-0.462-0.645-1.083-0.645-1.861c0-0.779,0.22-1.404,0.659-1.876
		c0.437-0.475,1.016-0.712,1.738-0.712c0.761,0,1.358,0.236,1.792,0.708C29.029,111.185,29.245,111.831,29.245,112.654z
		 M27.334,112.589c0-0.176-0.012-0.334-0.036-0.476s-0.058-0.263-0.103-0.363s-0.099-0.179-0.161-0.234
		c-0.063-0.056-0.133-0.084-0.211-0.084c-0.152,0-0.275,0.105-0.368,0.315c-0.092,0.185-0.139,0.46-0.139,0.828
		c0,0.362,0.046,0.639,0.139,0.828c0.093,0.21,0.217,0.315,0.372,0.315c0.146,0,0.268-0.104,0.363-0.312
		C27.286,113.177,27.334,112.905,27.334,112.589z"/>
	<path fill="#FFFFFF" d="M29.92,110.006h1.911v2.896c0,0.275,0.027,0.477,0.081,0.604c0.057,0.104,0.165,0.156,0.323,0.156
		c0.155,0,0.26-0.052,0.314-0.156c0.057-0.104,0.085-0.306,0.085-0.604v-2.896h1.911v3.089c0,0.205-0.017,0.391-0.05,0.557
		s-0.086,0.317-0.157,0.452s-0.164,0.259-0.276,0.37c-0.113,0.112-0.247,0.215-0.402,0.308c-0.419,0.242-0.894,0.363-1.424,0.363
		c-0.537,0-1.011-0.121-1.424-0.363c-0.159-0.093-0.295-0.195-0.408-0.306c-0.112-0.109-0.205-0.233-0.276-0.37
		c-0.072-0.137-0.124-0.288-0.157-0.454c-0.034-0.166-0.05-0.352-0.05-0.557V110.006z"/>
	<path fill="#FFFFFF" d="M40.145,115.145h-1.911v-2.719c0-0.234-0.029-0.397-0.088-0.49c-0.059-0.092-0.161-0.138-0.306-0.138
		c-0.34,0-0.509,0.252-0.509,0.756v2.591H35.42v-5.139h1.911c-0.003,0.127-0.006,0.244-0.01,0.352
		c-0.003,0.108-0.008,0.208-0.014,0.3l-0.019,0.328c0.329-0.653,0.812-0.979,1.45-0.979c0.443,0,0.788,0.15,1.034,0.452
		c0.249,0.301,0.374,0.72,0.374,1.256V115.145z"/>
	<path fill="#FFFFFF" d="M43.458,115.145c0.003-0.054,0.006-0.115,0.01-0.186c0.003-0.069,0.008-0.15,0.014-0.242
		c0.006-0.057,0.011-0.145,0.014-0.262c-0.184,0.298-0.363,0.506-0.537,0.623c-0.171,0.044-0.382,0.066-0.632,0.066
		c-0.517,0-0.922-0.222-1.217-0.666c-0.292-0.444-0.437-1.062-0.437-1.853c0-0.831,0.143-1.475,0.428-1.931
		c0.285-0.46,0.688-0.689,1.207-0.689c0.286,0,0.515,0.063,0.689,0.19c0.184,0.127,0.361,0.347,0.532,0.661
		c-0.009-0.165-0.014-0.265-0.014-0.3l-0.019-0.519v-2.913h1.911v8.019H43.458z M42.583,112.584c0,0.678,0.157,1.016,0.471,1.016
		c0.294,0,0.442-0.349,0.442-1.047c0-0.668-0.143-1.002-0.428-1.002C42.745,111.551,42.583,111.896,42.583,112.584z"/>
	<path fill="#FFFFFF" d="M48.92,113.405l1.863,0.038c-0.133,0.564-0.392,0.989-0.777,1.274s-0.888,0.428-1.509,0.428
		c-0.736,0-1.314-0.22-1.733-0.658c-0.416-0.444-0.624-1.052-0.624-1.822c0-0.782,0.224-1.42,0.672-1.913
		c0.448-0.497,1.025-0.745,1.733-0.745c0.704,0,1.265,0.24,1.683,0.721c0.418,0.484,0.627,1.125,0.627,1.925l-0.01,0.325H48.05
		c0.022,0.495,0.171,0.742,0.447,0.742C48.712,113.719,48.853,113.615,48.92,113.405z M48.957,111.898
		c0-0.067-0.011-0.13-0.033-0.187c-0.022-0.057-0.053-0.105-0.093-0.146c-0.04-0.041-0.086-0.073-0.14-0.097
		c-0.054-0.023-0.112-0.036-0.176-0.036c-0.133,0-0.241,0.044-0.323,0.132c-0.083,0.087-0.124,0.198-0.124,0.334H48.957z"/>
	<path fill="#FFFFFF" d="M53.497,115.145h-1.911v-5.139h1.911l-0.1,1.003c0.289-0.751,0.766-1.126,1.431-1.126v2.139
		c-0.209-0.114-0.387-0.171-0.533-0.171c-0.256,0-0.454,0.093-0.592,0.278c-0.138,0.185-0.207,0.455-0.207,0.81V115.145z"/>
	<path fill="#FFFFFF" d="M56.002,117.436l-1.031-0.583l5.248-9.77l1.037,0.55L56.002,117.436z"/>
	<path fill="#FFFFFF" d="M65.419,115.145h-3.47v-7.339h1.982v5.58h1.488V115.145z"/>
	<path fill="#FFFFFF" d="M68.571,113.405l1.863,0.038c-0.133,0.564-0.393,0.989-0.777,1.274s-0.889,0.428-1.51,0.428
		c-0.736,0-1.313-0.22-1.733-0.658c-0.416-0.444-0.624-1.052-0.624-1.822c0-0.782,0.224-1.42,0.672-1.913
		c0.448-0.497,1.025-0.745,1.733-0.745c0.704,0,1.265,0.24,1.683,0.721c0.418,0.484,0.628,1.125,0.628,1.925l-0.01,0.325H67.7
		c0.022,0.495,0.171,0.742,0.446,0.742C68.363,113.719,68.504,113.615,68.571,113.405z M68.608,111.898
		c0-0.067-0.01-0.13-0.033-0.187c-0.021-0.057-0.053-0.105-0.092-0.146c-0.04-0.041-0.086-0.073-0.141-0.097
		c-0.054-0.023-0.112-0.036-0.176-0.036c-0.133,0-0.241,0.044-0.323,0.132c-0.083,0.087-0.124,0.198-0.124,0.334H68.608z"/>
	<path fill="#FFFFFF" d="M75.805,115.145h-1.903c0.016-0.171,0.028-0.334,0.038-0.489s0.019-0.281,0.028-0.376
		c-0.329,0.577-0.769,0.865-1.321,0.865c-0.479,0-0.859-0.231-1.141-0.693c-0.277-0.46-0.416-1.096-0.416-1.908
		c0-0.784,0.144-1.402,0.432-1.853c0.289-0.456,0.682-0.685,1.18-0.685c0.51,0,0.922,0.271,1.235,0.813
		c-0.007-0.063-0.011-0.119-0.015-0.167c-0.003-0.047-0.006-0.087-0.01-0.118l-0.019-0.3l-0.015-0.229h1.926V115.145z
		 M73.894,112.521c0-0.177-0.007-0.326-0.021-0.449c-0.015-0.124-0.038-0.225-0.069-0.303c-0.032-0.077-0.074-0.133-0.125-0.167
		c-0.052-0.033-0.113-0.051-0.188-0.051c-0.326,0-0.49,0.398-0.49,1.194c0,0.569,0.146,0.854,0.438,0.854
		C73.742,113.6,73.894,113.24,73.894,112.521z"/>
	<path fill="#FFFFFF" d="M79.342,115.145c0.003-0.054,0.006-0.115,0.01-0.186c0.002-0.069,0.008-0.15,0.014-0.242
		c0.006-0.057,0.012-0.145,0.014-0.262c-0.184,0.298-0.362,0.506-0.537,0.623c-0.17,0.044-0.381,0.066-0.632,0.066
		c-0.517,0-0.922-0.222-1.217-0.666c-0.292-0.444-0.437-1.062-0.437-1.853c0-0.831,0.143-1.475,0.428-1.931
		c0.285-0.46,0.688-0.689,1.207-0.689c0.285,0,0.515,0.063,0.689,0.19c0.184,0.127,0.361,0.347,0.531,0.661
		c-0.009-0.165-0.014-0.265-0.014-0.3l-0.02-0.519v-2.913h1.912v8.019H79.342z M78.467,112.584c0,0.678,0.156,1.016,0.471,1.016
		c0.295,0,0.441-0.349,0.441-1.047c0-0.668-0.143-1.002-0.428-1.002C78.629,111.551,78.467,111.896,78.467,112.584z"/>
	<path fill="#FFFFFF" d="M85.169,115.145v-7.339h1.712c0.979,0,1.74,0.263,2.286,0.789c0.716,0.688,1.074,1.649,1.074,2.885
		c0,1.217-0.303,2.156-0.908,2.819c-0.517,0.563-1.286,0.846-2.31,0.846H85.169z M87.152,113.386
		c0.71-0.035,1.065-0.646,1.065-1.835c0-0.586-0.091-1.049-0.271-1.388c-0.181-0.343-0.425-0.514-0.732-0.514h-0.062V113.386z"/>
</g>
<g enable-background="new    ">
	<path fill="#FFFFFF" d="M93.649,113.405l1.863,0.038c-0.133,0.564-0.392,0.989-0.777,1.274c-0.385,0.285-0.888,0.428-1.509,0.428
		c-0.736,0-1.313-0.22-1.733-0.658c-0.416-0.444-0.624-1.052-0.624-1.822c0-0.782,0.224-1.42,0.672-1.913
		c0.448-0.497,1.025-0.745,1.733-0.745c0.703,0,1.264,0.24,1.683,0.721c0.418,0.484,0.628,1.125,0.628,1.925l-0.01,0.325H92.78
		c0.021,0.495,0.171,0.742,0.446,0.742C93.442,113.719,93.582,113.615,93.649,113.405z M93.687,111.898
		c0-0.067-0.011-0.13-0.033-0.187s-0.053-0.105-0.093-0.146c-0.039-0.041-0.086-0.073-0.141-0.097
		c-0.053-0.023-0.111-0.036-0.176-0.036c-0.133,0-0.24,0.044-0.322,0.132c-0.083,0.087-0.124,0.198-0.124,0.334H93.687z"/>
</g>
<g enable-background="new    ">
	<path fill="#FFFFFF" d="M99.213,115.145h-1.992l-1.416-5.139h1.93l0.295,1.502c0.041,0.193,0.078,0.434,0.113,0.721
		s0.07,0.63,0.105,1.029c0.044-0.365,0.086-0.682,0.128-0.951c0.041-0.27,0.082-0.501,0.124-0.694l0.327-1.606h1.883L99.213,115.145
		z"/>
</g>
<g enable-background="new    ">
	<path fill="#FFFFFF" d="M103.697,113.405l1.863,0.038c-0.134,0.564-0.392,0.989-0.777,1.274s-0.888,0.428-1.509,0.428
		c-0.736,0-1.314-0.22-1.734-0.658c-0.416-0.444-0.623-1.052-0.623-1.822c0-0.782,0.223-1.42,0.672-1.913
		c0.447-0.497,1.025-0.745,1.732-0.745c0.703,0,1.265,0.24,1.684,0.721c0.418,0.484,0.627,1.125,0.627,1.925l-0.01,0.325h-2.795
		c0.021,0.495,0.172,0.742,0.447,0.742C103.489,113.719,103.629,113.615,103.697,113.405z M103.735,111.898
		c0-0.067-0.012-0.13-0.033-0.187c-0.022-0.057-0.053-0.105-0.094-0.146c-0.039-0.041-0.086-0.073-0.14-0.097
		s-0.112-0.036-0.176-0.036c-0.134,0-0.241,0.044-0.323,0.132c-0.082,0.087-0.123,0.198-0.123,0.334H103.735z"/>
	<path fill="#FFFFFF" d="M108.274,115.145h-1.91v-8.019h1.91V115.145z"/>
	<path fill="#FFFFFF" d="M113.845,112.654c0,0.76-0.222,1.365-0.665,1.815c-0.442,0.45-1.036,0.676-1.781,0.676
		c-0.732,0-1.314-0.229-1.748-0.689c-0.43-0.462-0.645-1.083-0.645-1.861c0-0.779,0.22-1.404,0.659-1.876
		c0.437-0.475,1.017-0.712,1.738-0.712c0.761,0,1.358,0.236,1.792,0.708C113.628,111.185,113.845,111.831,113.845,112.654z
		 M111.934,112.589c0-0.176-0.012-0.334-0.035-0.476c-0.024-0.142-0.059-0.263-0.104-0.363s-0.099-0.179-0.161-0.234
		c-0.063-0.056-0.134-0.084-0.211-0.084c-0.152,0-0.274,0.105-0.368,0.315c-0.092,0.185-0.139,0.46-0.139,0.828
		c0,0.362,0.047,0.639,0.139,0.828c0.094,0.21,0.217,0.315,0.373,0.315c0.146,0,0.268-0.104,0.363-0.312
		C111.886,113.177,111.934,112.905,111.934,112.589z"/>
	<path fill="#FFFFFF" d="M116.431,117.436h-1.911v-7.43h1.906l-0.038,0.728c0.079-0.152,0.16-0.281,0.243-0.388
		c0.082-0.105,0.17-0.189,0.266-0.249c0.096-0.061,0.197-0.091,0.307-0.091s0.23,0,0.363,0c0.494,0,0.896,0.237,1.207,0.712
		c0.309,0.469,0.461,1.091,0.461,1.866c0,0.788-0.146,1.412-0.441,1.871c-0.289,0.46-0.686,0.689-1.193,0.689
		c-0.463,0-0.866-0.268-1.212-0.804c0.017,0.162,0.025,0.302,0.028,0.419c0.01,0.12,0.015,0.265,0.015,0.435V117.436z
		 M117.32,112.546c0-0.315-0.038-0.56-0.116-0.733c-0.078-0.175-0.188-0.262-0.33-0.262c-0.295,0-0.442,0.338-0.442,1.014
		c0,0.69,0.143,1.035,0.428,1.035c0.143,0,0.255-0.092,0.337-0.276C117.279,113.139,117.32,112.88,117.32,112.546z"/>
	<path fill="#FFFFFF" d="M121.878,117.436h-1.911v-7.43h1.906l-0.038,0.728c0.079-0.152,0.16-0.281,0.243-0.388
		c0.082-0.105,0.17-0.189,0.266-0.249c0.096-0.061,0.197-0.091,0.307-0.091s0.23,0,0.363,0c0.494,0,0.896,0.237,1.207,0.712
		c0.309,0.469,0.461,1.091,0.461,1.866c0,0.788-0.146,1.412-0.441,1.871c-0.289,0.46-0.686,0.689-1.193,0.689
		c-0.463,0-0.866-0.268-1.212-0.804c0.017,0.162,0.025,0.302,0.028,0.419c0.01,0.12,0.015,0.265,0.015,0.435V117.436z
		 M122.767,112.546c0-0.315-0.038-0.56-0.116-0.733c-0.078-0.175-0.188-0.262-0.33-0.262c-0.295,0-0.442,0.338-0.442,1.014
		c0,0.69,0.143,1.035,0.428,1.035c0.143,0,0.255-0.092,0.337-0.276C122.726,113.139,122.767,112.88,122.767,112.546z"/>
	<path fill="#FFFFFF" d="M128.048,113.405l1.863,0.038c-0.134,0.564-0.392,0.989-0.777,1.274s-0.888,0.428-1.509,0.428
		c-0.736,0-1.314-0.22-1.734-0.658c-0.416-0.444-0.623-1.052-0.623-1.822c0-0.782,0.223-1.42,0.672-1.913
		c0.447-0.497,1.025-0.745,1.732-0.745c0.703,0,1.265,0.24,1.684,0.721c0.418,0.484,0.627,1.125,0.627,1.925l-0.01,0.325h-2.795
		c0.021,0.495,0.172,0.742,0.447,0.742C127.84,113.719,127.981,113.615,128.048,113.405z M128.086,111.898
		c0-0.067-0.012-0.13-0.033-0.187c-0.022-0.057-0.053-0.105-0.094-0.146c-0.039-0.041-0.086-0.073-0.14-0.097
		s-0.112-0.036-0.176-0.036c-0.134,0-0.241,0.044-0.323,0.132c-0.082,0.087-0.123,0.198-0.123,0.334H128.086z"/>
	<path fill="#FFFFFF" d="M132.625,115.145h-1.91v-5.139h1.91l-0.1,1.003c0.289-0.751,0.766-1.126,1.432-1.126v2.139
		c-0.21-0.114-0.387-0.171-0.533-0.171c-0.256,0-0.453,0.093-0.592,0.278c-0.138,0.185-0.207,0.455-0.207,0.81V115.145z"/>
</g>
</svg>
