<?xml version="1.0" encoding="utf-8"?>
<!-- Generator: Adobe Illustrator 14.0.0, SVG Export Plug-In . SVG Version: 6.00 Build 43363)  -->
<!DOCTYPE svg PUBLIC "-//W3C//DTD SVG 1.1//EN" "http://www.w3.org/Graphics/SVG/1.1/DTD/svg11.dtd">
<svg version="1.1" id="Calque_1" xmlns="http://www.w3.org/2000/svg" xmlns:xlink="http://www.w3.org/1999/xlink" x="0px" y="0px"
	 width="473.25px" height="43px" viewBox="0 0 473.25 43" enable-background="new 0 0 473.25 43" xml:space="preserve">
<g>
	<path fill="#FFFFFF" d="M17.835,35.575H7.523V13.758h5.893v16.59h4.423L17.835,35.575L17.835,35.575z"/>
	<path fill="#FBD200" d="M26.167,13.758l-3.812,10.5h-4.649l2.671-10.5H26.167z"/>
	<path fill="#FFFFFF" d="M43.422,35.575H37.33l-0.438-2.771H32.92l-0.479,2.771h-6.09l5.238-21.817h7.207L43.422,35.575z
		 M36.202,28.214l-0.381-2.545c-0.01-0.008-0.028-0.135-0.057-0.381c-0.021-0.207-0.118-1.027-0.301-2.459
		c-0.021-0.16-0.043-0.379-0.067-0.656c-0.027-0.277-0.065-0.629-0.112-1.053L35.1,19.058c-0.021,0.197-0.046,0.419-0.078,0.664
		c-0.033,0.245-0.068,0.514-0.106,0.807c-0.062,0.584-0.106,0.987-0.141,1.217c-0.028,0.226-0.048,0.359-0.061,0.408l-0.406,2.644
		l-0.597,3.42H36.2L36.202,28.214L36.202,28.214z"/>
	<path fill="#FFFFFF" d="M52.722,22.956h8.225v0.88c0,4.077-0.627,7.014-1.88,8.805c-1.366,1.957-3.387,2.938-6.062,2.938
		c-2.629,0-4.688-0.955-6.188-2.865c-1.489-1.928-2.233-4.573-2.233-7.938c0-3.41,0.749-6.103,2.247-8.062
		c1.498-1.963,3.547-2.947,6.147-2.947c3.443,0,5.945,1.79,7.503,5.37l-5.709,2.091c-0.084-0.688-0.28-1.229-0.586-1.632
		c-0.312-0.399-0.69-0.601-1.151-0.601c-1.621,0-2.431,2.093-2.431,6.273c0,1.777,0.179,3.07,0.537,3.875
		c0.354,0.811,0.928,1.209,1.709,1.209c0.312,0,0.594-0.062,0.849-0.199c0.254-0.135,0.468-0.316,0.645-0.562
		c0.178-0.239,0.312-0.534,0.408-0.881c0.104-0.346,0.148-0.729,0.148-1.153h-2.177L52.722,22.956L52.722,22.956z"/>
	<path fill="#FFFFFF" d="M63.46,35.575V13.758h10.951v5.229h-5.059v2.781h4.536v5.229h-4.536v3.351h5.059v5.229H63.46V35.575z"/>
	<path fill="#FFFFFF" d="M76.927,35.575V13.758h5.623l2.952,7.659c0.159,0.451,0.347,0.972,0.545,1.556
		c0.201,0.584,0.431,1.258,0.675,2.021l0.604,1.922c-0.217-1.896-0.382-3.52-0.495-4.859c-0.107-1.35-0.169-2.479-0.169-3.395V13.76
		h5.687v21.818H86.66l-3.146-8.025c-0.329-0.854-0.631-1.658-0.896-2.406c-0.265-0.75-0.496-1.463-0.694-2.145
		c0.233,1.535,0.405,2.873,0.52,4.016c0.105,1.143,0.163,2.143,0.163,2.994v5.566L76.927,35.575L76.927,35.575z"/>
	<path fill="#FFFFFF" d="M107.781,28.936l-0.34,5.912c-1.312,0.485-2.481,0.729-3.521,0.729c-2.438,0-4.489-0.865-6.157-2.595
		c-1.865-1.938-2.802-4.683-2.802-8.229c0-3.321,0.877-5.986,2.629-7.997c1.752-2.001,4.097-3.002,7.021-3.002
		c0.952,0,1.922,0.172,2.911,0.515v6.028c-0.876-0.876-1.775-1.312-2.698-1.312c-1.206,0-2.146,0.51-2.826,1.525
		c-0.679,1.027-1.018,2.447-1.018,4.26c0,0.877,0.084,1.662,0.254,2.354c0.17,0.688,0.412,1.271,0.729,1.752
		c0.314,0.479,0.702,0.84,1.166,1.092c0.462,0.252,0.987,0.381,1.582,0.381C105.732,30.348,106.753,29.877,107.781,28.936z"/>
	<path fill="#FFFFFF" d="M110.083,35.575V13.758h10.951v5.229h-5.059v2.781h4.536v5.229h-4.536v3.351h5.059v5.229h-10.951V35.575
		L110.083,35.575z"/>
	<path fill="#FFFFFF" d="M150.654,35.575h-5.702l-1.368-7.646c-0.267-1.479-0.466-2.764-0.599-3.848
		c-0.066-0.537-0.124-0.98-0.171-1.343c-0.048-0.356-0.081-0.632-0.104-0.819c-0.049,0.389-0.114,1.105-0.215,2.162
		c-0.044,0.536-0.096,1.104-0.153,1.693c-0.062,0.595-0.137,1.222-0.223,1.882l-1.021,7.911h-5.516l-4.857-21.816h5.818l0.962,6.006
		c0.366,2.396,0.62,4.272,0.766,5.639l0.197,1.992l0.185-1.712c0.188-1.995,0.438-3.895,0.737-5.691l1.062-6.231h4.9l0.956,5.243
		c0.455,2.438,0.851,5.328,1.188,8.662c0.104-1.498,0.219-2.826,0.34-3.984c0.121-1.156,0.264-2.208,0.409-3.148l1.074-6.771h5.751
		L150.654,35.575z"/>
	<path fill="#FFFFFF" d="M156.913,35.575V13.758h10.951v5.229h-5.06v2.781h4.533v5.229h-4.533v3.351h5.06v5.229h-10.951V35.575z"/>
	<path fill="#FFFFFF" d="M170.378,35.575V13.758h6.854c2.562,0,4.46,0.565,5.691,1.696c1.252,1.158,1.883,2.654,1.883,4.492
		c0,2.731-1.356,4.211-4.07,4.438c1.545,0.229,2.678,0.734,3.396,1.525c0.725,0.793,1.081,1.932,1.081,3.42
		c0,1.875-0.604,3.383-1.818,4.521c-1.206,1.147-2.794,1.728-4.767,1.728L170.378,35.575L170.378,35.575z M176.273,22.062h0.396
		c0.706,0,1.271-0.163,1.679-0.493c0.405-0.328,0.61-0.791,0.61-1.387c0-1.262-0.688-1.895-2.075-1.895
		c-0.062,0-0.146,0.004-0.247,0.008c-0.102,0.005-0.222,0.013-0.356,0.021L176.273,22.062L176.273,22.062z M176.273,30.954
		c0.111,0.011,0.212,0.019,0.297,0.021c0.084,0.004,0.155,0.006,0.212,0.006c0.734,0,1.321-0.193,1.759-0.594
		c0.438-0.396,0.657-0.93,0.657-1.598s-0.219-1.189-0.657-1.566c-0.438-0.377-1.038-0.562-1.802-0.562h-0.466V30.954z"/>
	<path fill="#FFFFFF" d="M205.919,35.575h-6.008l-5.002-21.817h6.189l1.07,6.231c0.402,2.383,0.729,5.049,0.979,7.997
		c0.104-1.312,0.229-2.532,0.382-3.676c0.15-1.143,0.329-2.25,0.537-3.334l1.396-7.221h6.399L205.919,35.575z"/>
	<path fill="#FFFFFF" d="M228.911,35.575h-6.373l-2.911-7.771c-0.022-0.135-0.076-0.31-0.146-0.521
		c-0.07-0.215-0.158-0.479-0.266-0.777l0.044,1.441v7.631h-5.861V13.76h6.033c2.652,0,4.645,0.522,5.964,1.567
		c1.677,1.338,2.516,3.24,2.516,5.709c0,2.639-1.126,4.461-3.378,5.469L228.911,35.575z M219.287,23.55h0.396
		c0.678,0,1.239-0.258,1.69-0.776c0.451-0.518,0.684-1.176,0.684-1.979c0-1.63-0.854-2.444-2.562-2.444h-0.212L219.287,23.55
		L219.287,23.55z"/>
	<path fill="#FFFFFF" d="M246.574,35.575h-6.09l-0.438-2.771h-3.971l-0.479,2.771h-6.094l5.242-21.817h7.207L246.574,35.575z
		 M239.353,28.214l-0.381-2.545c-0.015-0.008-0.028-0.135-0.062-0.381c-0.02-0.207-0.116-1.027-0.297-2.459
		c-0.021-0.16-0.043-0.379-0.069-0.656c-0.023-0.277-0.062-0.629-0.108-1.053l-0.188-2.062c-0.02,0.197-0.045,0.419-0.076,0.664
		c-0.029,0.245-0.064,0.514-0.104,0.807c-0.065,0.584-0.112,0.987-0.145,1.217c-0.024,0.226-0.05,0.359-0.059,0.408l-0.41,2.644
		l-0.593,3.42h2.489L239.353,28.214L239.353,28.214z"/>
	<path fill="#FFFFFF" d="M254.175,35.575h-5.895V13.758h5.895V35.575z"/>
	<path fill="#FFFFFF" d="M279.485,35.575h-5.963l-0.24-9.946l-0.189-3.972c-0.065,0.763-0.146,1.489-0.231,2.185
		c-0.089,0.69-0.196,1.362-0.324,2.014l-1.927,9.726h-4.896l-1.584-9.735c-0.094-0.562-0.222-1.531-0.382-2.908
		c-0.019-0.207-0.061-0.631-0.127-1.271l-0.141,4.023l-0.523,9.896h-6.271l2.544-21.819h7.334l1.229,7.351
		c0.104,0.604,0.195,1.258,0.275,1.963c0.08,0.707,0.149,1.477,0.219,2.306c0.12-1.386,0.286-2.625,0.498-3.718l1.466-7.898h7.123
		L279.485,35.575z"/>
	<path fill="#FFFFFF" d="M282.296,35.575V13.758h10.949v5.229h-5.059v2.781h4.534v5.229h-4.534v3.351h5.059v5.229h-10.949V35.575z"
		/>
	<path fill="#FFFFFF" d="M295.764,35.575V13.758h5.624l2.949,7.659c0.158,0.451,0.346,0.972,0.545,1.556
		c0.202,0.584,0.43,1.258,0.675,2.021l0.604,1.922c-0.217-1.896-0.382-3.52-0.494-4.859c-0.107-1.35-0.17-2.479-0.17-3.395V13.76
		h5.685v21.818h-5.685l-3.146-8.025c-0.329-0.854-0.627-1.658-0.896-2.406c-0.265-0.75-0.494-1.463-0.69-2.145
		c0.229,1.535,0.403,2.873,0.516,4.016c0.109,1.143,0.163,2.143,0.163,2.994v5.566L295.764,35.575L295.764,35.575z"/>
	<path fill="#FFFFFF" d="M321.792,35.575h-5.893v-16.59h-3.25v-5.229h12.521v5.229h-3.378V35.575z"/>
	<path fill="#FFFFFF" d="M343.015,35.575h-5.896v-16.59h-3.25v-5.229h12.521v5.229h-3.377L343.015,35.575L343.015,35.575z"/>
	<path fill="#FFFFFF" d="M363.434,35.575h-6.372l-2.91-7.771c-0.028-0.135-0.078-0.31-0.146-0.521
		c-0.066-0.217-0.156-0.479-0.264-0.777l0.043,1.441v7.631h-5.863V13.76h6.032c2.657,0,4.646,0.522,5.965,1.567
		c1.68,1.338,2.521,3.24,2.521,5.709c0,2.639-1.127,4.461-3.38,5.469L363.434,35.575z M353.812,23.55h0.396
		c0.682,0,1.243-0.258,1.695-0.776c0.452-0.518,0.679-1.176,0.679-1.979c0-1.63-0.854-2.444-2.558-2.444h-0.214v5.199H353.812z"/>
	<path fill="#FFFFFF" d="M365.385,35.575V13.758h10.947v5.229h-5.059v2.781h4.534v5.229h-4.534v3.351h5.059v5.229h-10.947V35.575z
		 M375.066,6.776l-2.758,5.229h-3.292l1.429-5.229H375.066z"/>
	<path fill="#FFFFFF" d="M378.385,34.686v-6.713c1.155,1.584,2.409,2.375,3.759,2.375c0.511,0,0.926-0.13,1.244-0.39
		c0.315-0.26,0.479-0.584,0.479-0.979c0-0.562-0.351-1.107-1.046-1.646l-0.961-0.724c-0.643-0.465-1.188-0.926-1.643-1.385
		c-0.451-0.459-0.816-0.935-1.104-1.418c-0.283-0.483-0.49-0.986-0.622-1.509c-0.132-0.518-0.198-1.062-0.198-1.637
		c0-0.98,0.235-2.008,0.707-3.079c0.235-0.5,0.513-0.957,0.819-1.37c0.312-0.413,0.669-0.779,1.073-1.098
		c1.106-0.908,2.452-1.363,4.022-1.363c1.403,0,2.816,0.361,4.239,1.084v6.547c-0.479-0.744-1.025-1.33-1.642-1.76
		c-0.611-0.428-1.217-0.646-1.812-0.646c-0.452,0-0.822,0.128-1.114,0.384c-0.304,0.244-0.45,0.541-0.45,0.885
		c0,0.562,0.396,1.123,1.198,1.678l0.938,0.667c1.241,0.862,2.134,1.748,2.671,2.655c0.546,0.907,0.816,1.972,0.816,3.188
		c0,2.069-0.651,3.776-1.966,5.121c-1.311,1.346-2.969,2.02-4.976,2.02C381.452,35.575,379.968,35.277,378.385,34.686z"/>
	<path fill="#FFFFFF" d="M413.049,28.936l-0.342,5.912c-1.309,0.485-2.479,0.729-3.52,0.729c-2.438,0-4.492-0.865-6.159-2.595
		c-1.866-1.938-2.8-4.683-2.8-8.229c0-3.321,0.877-5.986,2.63-7.997c1.752-2.001,4.093-3.002,7.021-3.002
		c0.95,0,1.924,0.172,2.909,0.515v6.028c-0.876-0.876-1.771-1.312-2.694-1.312c-1.206,0-2.146,0.51-2.826,1.525
		c-0.681,1.027-1.021,2.447-1.021,4.26c0,0.877,0.084,1.662,0.255,2.354c0.171,0.688,0.411,1.271,0.729,1.752
		c0.314,0.479,0.704,0.84,1.166,1.092c0.463,0.252,0.988,0.381,1.584,0.381C411.001,30.348,412.023,29.877,413.049,28.936z"/>
	<path fill="#FFFFFF" d="M431.39,24.741c0,3.211-0.76,5.821-2.272,7.832c-1.508,2.002-3.472,3.002-5.895,3.002
		c-2.146,0-3.988-0.771-5.523-2.308c-1.934-1.944-2.896-4.865-2.896-8.764c0-3.728,1.009-6.581,3.021-8.554
		c1.498-1.465,3.271-2.197,5.327-2.197c2.518,0,4.52,0.992,6.006,2.975C430.648,18.716,431.39,21.386,431.39,24.741z
		 M425.274,24.793c0-3.871-0.697-5.808-2.094-5.808c-0.695,0-1.253,0.51-1.667,1.523c-0.403,0.941-0.606,2.328-0.606,4.156
		c0,1.803,0.189,3.199,0.573,4.189c0.381,0.99,0.909,1.486,1.589,1.486c0.695,0,1.232-0.486,1.609-1.469
		C425.076,27.898,425.274,26.538,425.274,24.793z"/>
	<path fill="#FFFFFF" d="M456.163,35.575H450.2l-0.24-9.946l-0.188-3.972c-0.069,0.763-0.147,1.489-0.235,2.185
		c-0.089,0.69-0.193,1.362-0.323,2.014l-1.928,9.726h-4.896l-1.583-9.735c-0.096-0.562-0.226-1.531-0.384-2.908
		c-0.021-0.207-0.062-0.631-0.128-1.271l-0.142,4.023l-0.521,9.896h-6.272l2.544-21.819h7.334l1.229,7.351
		c0.104,0.604,0.193,1.258,0.273,1.963c0.08,0.707,0.151,1.477,0.219,2.306c0.12-1.386,0.286-2.625,0.498-3.718l1.468-7.898h7.122
		L456.163,35.575z"/>
</g>
<g>
	<path fill="#FBD200" d="M466.868,13.758l-3.812,10.5h-4.647l2.671-10.5H466.868z"/>
</g>
</svg>
