<?xml version="1.0" encoding="utf-8"?>
<!-- Generator: Adobe Illustrator 14.0.0, SVG Export Plug-In . SVG Version: 6.00 Build 43363)  -->
<!DOCTYPE svg PUBLIC "-//W3C//DTD SVG 1.1//EN" "http://www.w3.org/Graphics/SVG/1.1/DTD/svg11.dtd">
<svg version="1.1" id="Calque_1" xmlns="http://www.w3.org/2000/svg" xmlns:xlink="http://www.w3.org/1999/xlink" x="0px" y="0px"
	 width="513px" height="124.389px" viewBox="0 0 513 124.389" enable-background="new 0 0 513 124.389" xml:space="preserve">
<g enable-background="new    ">
	<path fill="#FFFFFF" d="M17.68,42.624c0,1.54-0.562,2.859-1.688,3.956c-1.093,1.098-2.431,1.646-4.013,1.646
		c-1.566,0-2.928-0.557-4.086-1.671c-1.125-1.13-1.688-2.498-1.688-4.104c0-1.572,0.554-2.915,1.664-4.029s2.447-1.671,4.013-1.671
		c1.614,0,2.985,0.573,4.11,1.72C17.118,39.603,17.68,40.987,17.68,42.624z"/>
</g>
<g enable-background="new    ">
	<path fill="#FFFFFF" d="M43.193,36.709c0,3.516-1.024,6.314-3.071,8.396c-2.048,2.081-4.793,3.122-8.235,3.122
		c-3.383,0-6.076-1.062-8.079-3.186c-1.988-2.138-2.982-5.006-2.982-8.606c0-3.6,1.016-6.489,3.049-8.67
		c2.018-2.193,4.696-3.29,8.035-3.29c3.516,0,6.276,1.09,8.279,3.27S43.193,32.912,43.193,36.709z M34.36,36.411
		c0-0.81-0.055-1.542-0.166-2.196c-0.11-0.655-0.269-1.215-0.476-1.681c-0.208-0.466-0.456-0.827-0.746-1.083
		c-0.29-0.257-0.615-0.385-0.974-0.385c-0.705,0-1.271,0.485-1.699,1.457c-0.428,0.851-0.642,2.126-0.642,3.827
		c0,1.674,0.214,2.949,0.642,3.826c0.428,0.973,1.001,1.458,1.719,1.458c0.677,0,1.236-0.479,1.678-1.438
		C34.139,39.131,34.36,37.869,34.36,36.411z"/>
	<path fill="#FFFFFF" d="M68.154,48.227h-8.833V35.658c0-1.084-0.136-1.838-0.407-2.264c-0.271-0.424-0.742-0.637-1.415-0.637
		c-1.569,0-2.354,1.164-2.354,3.494v11.975h-8.833V24.475h8.833c-0.015,0.586-0.029,1.128-0.044,1.625
		c-0.015,0.499-0.037,0.96-0.066,1.385L54.948,29c1.519-3.017,3.753-4.525,6.702-4.525c2.05,0,3.642,0.695,4.777,2.087
		c1.151,1.391,1.727,3.327,1.727,5.809V48.227z"/>
	<path fill="#FFFFFF" d="M83.447,40.185l8.613,0.176c-0.615,2.608-1.813,4.571-3.592,5.89c-1.78,1.317-4.105,1.977-6.977,1.977
		c-3.404,0-6.074-1.014-8.013-3.04c-1.924-2.056-2.886-4.863-2.886-8.425c0-3.617,1.035-6.565,3.106-8.846
		c2.07-2.295,4.741-3.441,8.012-3.441c3.252,0,5.845,1.11,7.778,3.332c1.934,2.235,2.9,5.2,2.9,8.894l-0.044,1.507h-12.92
		c0.103,2.285,0.791,3.428,2.065,3.428C82.488,41.635,83.139,41.152,83.447,40.185z M83.623,33.219c0-0.313-0.051-0.602-0.154-0.863
		c-0.103-0.263-0.246-0.487-0.429-0.677c-0.183-0.188-0.399-0.338-0.648-0.447c-0.249-0.11-0.52-0.165-0.813-0.165
		c-0.615,0-1.113,0.201-1.494,0.604s-0.571,0.92-0.571,1.548H83.623z"/>
</g>
<g enable-background="new    ">
	<path fill="#FFFFFF" d="M107.947,48.227h-9.163V22.431h-5.054v-8.13h19.468v8.13h-5.251V48.227z"/>
</g>
<g enable-background="new    ">
	<path fill="#FFFFFF" d="M141.444,48.227h-8.723l-1.802-14.238l-2.725,14.238h-8.635l-5.911-23.752h8.657l1.34,7.624
		c0.161,0.967,0.319,1.999,0.472,3.099c0.154,1.098,0.297,2.292,0.429,3.581c0.117-1.333,0.274-2.611,0.473-3.834
		c0.197-1.224,0.421-2.406,0.67-3.549l1.56-6.921h7.515l1.274,7.646c0.161,0.981,0.308,2.024,0.439,3.131
		c0.132,1.105,0.256,2.281,0.374,3.526c0.234-1.685,0.469-3.219,0.703-4.604c0.234-1.384,0.476-2.654,0.725-3.812l1.274-5.889h8.811
		L141.444,48.227z"/>
</g>
<g enable-background="new    ">
	<path fill="#FFFFFF" d="M171.69,36.709c0,3.516-1.024,6.314-3.071,8.396c-2.048,2.081-4.793,3.122-8.235,3.122
		c-3.383,0-6.076-1.062-8.079-3.186c-1.988-2.138-2.982-5.006-2.982-8.606c0-3.6,1.016-6.489,3.049-8.67
		c2.018-2.193,4.696-3.29,8.035-3.29c3.516,0,6.276,1.09,8.279,3.27S171.69,32.912,171.69,36.709z M162.857,36.411
		c0-0.81-0.055-1.542-0.166-2.196c-0.11-0.655-0.269-1.215-0.476-1.681c-0.208-0.466-0.456-0.827-0.746-1.083
		c-0.29-0.257-0.615-0.385-0.974-0.385c-0.705,0-1.271,0.485-1.699,1.457c-0.428,0.851-0.642,2.126-0.642,3.827
		c0,1.674,0.214,2.949,0.642,3.826c0.428,0.973,1.001,1.458,1.719,1.458c0.677,0,1.236-0.479,1.678-1.438
		C162.636,39.131,162.857,37.869,162.857,36.411z"/>
	<path fill="#FFFFFF" d="M184.302,48.227h-9.163V14.301h16.194v8.13h-7.031v4.329h6.548v8.129h-6.548V48.227z"/>
</g>
<g enable-background="new    ">
	<path fill="#FFFFFF" d="M203.397,48.227h-8.833V24.475h8.833l-0.461,4.636c1.333-3.472,3.538-5.208,6.614-5.208v9.889
		c-0.967-0.527-1.787-0.791-2.461-0.791c-1.187,0-2.098,0.428-2.736,1.285c-0.637,0.856-0.956,2.105-0.956,3.746V48.227z"/>
</g>
<g enable-background="new    ">
	<path fill="#FFFFFF" d="M224.564,40.185l8.613,0.176c-0.615,2.608-1.813,4.571-3.592,5.89c-1.78,1.317-4.105,1.977-6.977,1.977
		c-3.404,0-6.074-1.014-8.013-3.04c-1.924-2.056-2.886-4.863-2.886-8.425c0-3.617,1.035-6.565,3.106-8.846
		c2.07-2.295,4.741-3.441,8.012-3.441c3.252,0,5.845,1.11,7.778,3.332c1.934,2.235,2.9,5.2,2.9,8.894l-0.044,1.507h-12.92
		c0.103,2.285,0.791,3.428,2.065,3.428C223.605,41.635,224.257,41.152,224.564,40.185z M224.74,33.219
		c0-0.313-0.051-0.602-0.154-0.863c-0.103-0.263-0.246-0.487-0.429-0.677c-0.183-0.188-0.399-0.338-0.648-0.447
		c-0.249-0.11-0.52-0.165-0.813-0.165c-0.615,0-1.113,0.201-1.494,0.604s-0.571,0.92-0.571,1.548H224.74z"/>
	<path fill="#FFFFFF" d="M249.064,40.185l8.614,0.176c-0.615,2.608-1.813,4.571-3.593,5.89c-1.78,1.317-4.105,1.977-6.977,1.977
		c-3.404,0-6.074-1.014-8.013-3.04c-1.924-2.056-2.886-4.863-2.886-8.425c0-3.617,1.035-6.565,3.106-8.846
		c2.07-2.295,4.741-3.441,8.012-3.441c3.252,0,5.845,1.11,7.778,3.332c1.934,2.235,2.9,5.2,2.9,8.894l-0.044,1.507h-12.92
		c0.103,2.285,0.791,3.428,2.065,3.428C248.104,41.635,248.756,41.152,249.064,40.185z M249.24,33.219
		c0-0.313-0.051-0.602-0.154-0.863c-0.103-0.263-0.246-0.487-0.429-0.677c-0.183-0.188-0.399-0.338-0.648-0.447
		c-0.249-0.11-0.52-0.165-0.813-0.165c-0.615,0-1.113,0.201-1.494,0.604s-0.571,0.92-0.571,1.548H249.24z"/>
</g>
<g enable-background="new    ">
	<path fill="#FFFFFF" d="M270.011,33.402c0.619,0.421,1.152,0.87,1.6,1.348s0.801,0.992,1.062,1.542
		c0.504,0.988,0.756,2.47,0.756,4.444v8.354c0,1.846,0.195,2.963,0.586,3.352c0.407,0.404,1.547,0.607,3.418,0.607l1.025-0.024
		L279.045,53v6.8l-4.662,0.194c-3.153-0.049-5.383-0.742-6.688-2.08c-1.32-1.354-1.98-3.572-1.98-6.655l-0.463-10.131
		c0-1.68-0.213-2.879-0.635-3.597c-0.408-0.669-1.229-1.142-2.467-1.42v-6.387c1.172-0.244,1.979-0.685,2.418-1.321
		c0.455-0.604,0.684-1.639,0.684-3.107V15.068c0-3.083,0.738-5.285,2.219-6.606c1.461-1.338,3.92-2.007,7.375-2.007l4.664,0.129
		v7.195h-1.709c-1.807-0.016-2.914,0.178-3.32,0.583c-0.391,0.389-0.586,1.497-0.586,3.327v8.402
		c-0.311,1.83-0.701,3.304-1.172,4.42C272.25,31.516,271.346,32.479,270.011,33.402z"/>
</g>
<g enable-background="new    ">
	<path fill="#FBD200" d="M295.57,48.227h-13.545V19.578h7.738v21.783h5.807V48.227z"/>
</g>
<g enable-background="new    ">
	<path fill="#FBD200" d="M306.51,19.578l-5.01,13.786h-6.104l3.507-13.786H306.51z"/>
	<path fill="#FBD200" d="M327.495,48.227h-7.429c0.061-0.668,0.11-1.305,0.147-1.911c0.036-0.605,0.073-1.095,0.11-1.466
		c-1.281,2.252-3,3.377-5.155,3.377c-1.873,0-3.357-0.902-4.454-2.708c-1.084-1.793-1.626-4.274-1.626-7.445
		c0-3.064,0.562-5.475,1.688-7.232c1.125-1.781,2.659-2.672,4.602-2.672c1.991,0,3.6,1.058,4.824,3.173
		c-0.025-0.247-0.043-0.464-0.056-0.649s-0.024-0.34-0.037-0.464l-0.074-1.169l-0.056-0.891h7.515V48.227z M320.036,37.983
		c0-0.688-0.028-1.272-0.085-1.754c-0.056-0.481-0.146-0.874-0.271-1.178c-0.125-0.305-0.287-0.521-0.487-0.654
		c-0.2-0.131-0.444-0.197-0.731-0.197c-1.275,0-1.913,1.554-1.913,4.661c0,2.224,0.569,3.336,1.706,3.336
		C319.441,42.197,320.036,40.792,320.036,37.983z"/>
</g>
<g enable-background="new    ">
	<path fill="#FBD200" d="M348.74,28.169v20.633c0,1.57-0.217,2.932-0.65,4.082c-0.433,1.063-1.138,1.973-2.115,2.728
		c-1.645,1.273-3.735,1.911-6.271,1.911c-2.733,0-4.83-0.588-6.289-1.763c-1.461-1.176-2.363-3.006-2.709-5.492h7.607
		c0.049,1.088,0.568,1.633,1.559,1.633c0.631,0,1.076-0.22,1.336-0.658c0.26-0.439,0.389-1.167,0.389-2.181v-3.173
		c-1.323,1.732-2.882,2.598-4.676,2.598c-1.941,0-3.513-0.946-4.713-2.839c-1.188-1.893-1.781-4.379-1.781-7.459
		c0-3.067,0.594-5.578,1.781-7.533c1.2-1.941,2.752-2.913,4.658-2.913c0.877,0,1.645,0.223,2.301,0.668
		c0.68,0.458,1.416,1.256,2.207,2.394l-0.148-2.635H348.74z M341.521,38.133c0-2.895-0.531-4.342-1.596-4.342
		c-1.199,0-1.799,1.41-1.799,4.23c0,2.907,0.58,4.36,1.744,4.36C340.97,42.382,341.521,40.966,341.521,38.133z"/>
</g>
<g enable-background="new    ">
	<path fill="#FBD200" d="M362.68,41.436l7.273,0.148c-0.52,2.203-1.53,3.86-3.034,4.974c-1.502,1.112-3.467,1.669-5.891,1.669
		c-2.874,0-5.129-0.855-6.767-2.567c-1.624-1.735-2.437-4.106-2.437-7.114c0-3.054,0.874-5.544,2.623-7.47
		c1.748-1.938,4.004-2.906,6.766-2.906c2.746,0,4.936,0.938,6.568,2.813c1.633,1.889,2.449,4.392,2.449,7.511l-0.037,1.272h-10.91
		c0.086,1.93,0.668,2.895,1.744,2.895C361.87,42.66,362.421,42.252,362.68,41.436z M362.829,35.554c0-0.266-0.044-0.509-0.13-0.729
		c-0.087-0.222-0.207-0.412-0.361-0.571c-0.155-0.159-0.338-0.285-0.548-0.378s-0.439-0.14-0.687-0.14
		c-0.52,0-0.94,0.171-1.262,0.511c-0.322,0.341-0.482,0.776-0.482,1.308H362.829z"/>
	<path fill="#FBD200" d="M391.533,48.227h-7.459V37.614c0-0.915-0.115-1.552-0.344-1.911c-0.229-0.358-0.627-0.538-1.194-0.538
		c-1.325,0-1.987,0.983-1.987,2.95v10.112h-7.459V28.169h7.459c-0.013,0.495-0.025,0.953-0.037,1.373
		c-0.013,0.421-0.031,0.811-0.056,1.169l-0.074,1.28c1.282-2.548,3.169-3.822,5.659-3.822c1.73,0,3.075,0.588,4.034,1.763
		c0.972,1.175,1.458,2.81,1.458,4.905V48.227z"/>
	<path fill="#FBD200" d="M404.354,41.793v6.313c-0.445,0.046-0.835,0.077-1.169,0.095c-0.334,0.017-0.612,0.025-0.835,0.025
		c-2.185,0-4.001-0.641-5.45-1.922c-0.982-0.866-1.779-2.053-2.391-3.56s-0.917-3.056-0.917-4.646c0-2.823,0.874-5.19,2.624-7.101
		c1.737-1.887,3.949-2.83,6.635-2.83c0.16,0,0.365,0.007,0.612,0.02s0.544,0.032,0.891,0.058v6.788
		c-2.202,0.137-3.303,1.243-3.303,3.319c0,0.936,0.272,1.757,0.816,2.464c0.557,0.674,1.218,1.01,1.985,1.01
		c0.074,0,0.151-0.003,0.232-0.009C404.166,41.814,404.256,41.805,404.354,41.793z"/>
	<path fill="#FBD200" d="M417.454,41.436l7.273,0.148c-0.52,2.203-1.53,3.86-3.034,4.974c-1.502,1.112-3.467,1.669-5.891,1.669
		c-2.874,0-5.129-0.855-6.767-2.567c-1.624-1.735-2.437-4.106-2.437-7.114c0-3.054,0.874-5.544,2.623-7.47
		c1.748-1.938,4.004-2.906,6.766-2.906c2.746,0,4.936,0.938,6.568,2.813c1.633,1.889,2.449,4.392,2.449,7.511l-0.037,1.272h-10.91
		c0.086,1.93,0.668,2.895,1.744,2.895C416.643,42.66,417.194,42.252,417.454,41.436z M417.602,35.554
		c0-0.266-0.044-0.509-0.13-0.729c-0.087-0.222-0.207-0.412-0.361-0.571c-0.155-0.159-0.338-0.285-0.548-0.378
		s-0.439-0.14-0.687-0.14c-0.52,0-0.94,0.171-1.262,0.511c-0.322,0.341-0.482,0.776-0.482,1.308H417.602z"/>
</g>
<g enable-background="new    ">
	<path fill="#FBD200" d="M461.039,48.227h-7.367l-1.521-12.023l-2.301,12.023h-7.291l-4.992-20.058h7.311l1.133,6.438
		c0.135,0.816,0.269,1.688,0.398,2.616s0.25,1.937,0.361,3.024c0.1-1.125,0.232-2.205,0.399-3.238
		c0.167-1.032,0.355-2.031,0.565-2.996l1.318-5.845h6.346l1.076,6.457c0.135,0.829,0.26,1.71,0.371,2.644
		c0.111,0.935,0.216,1.928,0.314,2.979c0.198-1.422,0.396-2.719,0.594-3.887c0.198-1.17,0.402-2.242,0.613-3.22l1.076-4.973h7.439
		L461.039,48.227z"/>
</g>
<g enable-background="new    ">
	<path fill="#FBD200" d="M478.547,41.436l7.273,0.148c-0.52,2.203-1.531,3.86-3.033,4.974c-1.504,1.112-3.467,1.669-5.892,1.669
		c-2.874,0-5.13-0.855-6.767-2.567c-1.625-1.735-2.437-4.106-2.437-7.114c0-3.054,0.874-5.544,2.623-7.47
		c1.748-1.938,4.003-2.906,6.766-2.906c2.746,0,4.936,0.938,6.568,2.813c1.633,1.889,2.449,4.392,2.449,7.511l-0.037,1.272h-10.91
		c0.087,1.93,0.668,2.895,1.744,2.895C477.736,42.66,478.287,42.252,478.547,41.436z M478.695,35.554
		c0-0.266-0.043-0.509-0.13-0.729c-0.087-0.222-0.208-0.412-0.362-0.571s-0.337-0.285-0.547-0.378
		c-0.211-0.093-0.439-0.14-0.687-0.14c-0.52,0-0.94,0.171-1.262,0.511c-0.321,0.341-0.482,0.776-0.482,1.308H478.695z"/>
	<path fill="#FBD200" d="M496.582,48.227h-7.626V16.925h7.44l0.019,11.374c0,0.928-0.037,1.992-0.111,3.191
		c0.681-1.212,1.366-2.071,2.06-2.579c0.717-0.494,1.62-0.742,2.709-0.742c2.028,0,3.6,0.896,4.713,2.689
		c1.113,1.781,1.67,4.294,1.67,7.535c0,3.1-0.575,5.511-1.726,7.232c-1.138,1.733-2.716,2.601-4.731,2.601
		c-0.978,0-1.807-0.086-2.486-0.26c-0.334-0.234-0.678-0.55-1.029-0.946c-0.354-0.396-0.709-0.891-1.067-1.484
		c0.013,0.235,0.024,0.437,0.037,0.603c0.013,0.168,0.024,0.307,0.037,0.418L496.582,48.227z M499.977,38.341
		c0-2.761-0.631-4.142-1.893-4.142c-1.113,0-1.67,1.303-1.67,3.909c0,2.726,0.575,4.088,1.726,4.088
		C499.365,42.197,499.977,40.911,499.977,38.341z"/>
</g>
<g enable-background="new    ">
	<path fill="#FBD200" d="M32.4,108.23h-7.429c0.062-0.668,0.111-1.305,0.148-1.911c0.037-0.605,0.074-1.095,0.111-1.466
		c-1.281,2.252-3,3.377-5.156,3.377c-1.873,0-3.357-0.902-4.454-2.708c-1.084-1.793-1.626-4.274-1.626-7.445
		c0-3.064,0.562-5.475,1.688-7.232c1.125-1.781,2.659-2.672,4.602-2.672c1.991,0,3.6,1.058,4.824,3.173
		c-0.025-0.247-0.043-0.464-0.056-0.649c-0.013-0.186-0.025-0.34-0.037-0.464l-0.074-1.169l-0.056-0.891H32.4V108.23z
		 M24.941,97.986c0-0.688-0.028-1.272-0.084-1.754s-0.147-0.874-0.272-1.178c-0.125-0.305-0.288-0.521-0.487-0.654
		c-0.2-0.131-0.444-0.197-0.731-0.197c-1.275,0-1.913,1.554-1.913,4.661c0,2.224,0.569,3.336,1.707,3.336
		C24.347,102.199,24.941,100.795,24.941,97.986z"/>
</g>
<g enable-background="new    ">
	<path fill="#FBD200" d="M47.751,108.23h-7.774l-5.529-20.058h7.533l1.15,5.863c0.161,0.755,0.309,1.691,0.445,2.812
		c0.136,1.119,0.272,2.458,0.408,4.017c0.173-1.422,0.34-2.659,0.501-3.711c0.161-1.051,0.321-1.954,0.482-2.709l1.28-6.271h7.348
		L47.751,108.23z"/>
</g>
<g enable-background="new    ">
	<path fill="#FBD200" d="M65.259,101.439l7.273,0.148c-0.52,2.203-1.531,3.86-3.034,4.974c-1.503,1.112-3.467,1.669-5.891,1.669
		c-2.874,0-5.129-0.855-6.767-2.567c-1.625-1.735-2.437-4.106-2.437-7.114c0-3.054,0.874-5.544,2.623-7.47
		c1.748-1.938,4.003-2.906,6.766-2.906c2.746,0,4.936,0.938,6.568,2.813c1.633,1.889,2.449,4.392,2.449,7.511l-0.037,1.272h-10.91
		c0.086,1.93,0.668,2.895,1.744,2.895C64.448,102.663,64.999,102.255,65.259,101.439z M65.407,95.557
		c0-0.266-0.043-0.509-0.13-0.729c-0.087-0.222-0.208-0.412-0.362-0.571c-0.155-0.159-0.337-0.285-0.547-0.378
		c-0.21-0.093-0.439-0.14-0.687-0.14c-0.52,0-0.94,0.171-1.262,0.511c-0.322,0.341-0.482,0.776-0.482,1.308H65.407z"/>
	<path fill="#FBD200" d="M85.854,101.796v6.313c-0.445,0.046-0.835,0.077-1.169,0.095c-0.334,0.017-0.612,0.025-0.835,0.025
		c-2.184,0-4.001-0.641-5.451-1.922c-0.982-0.866-1.779-2.053-2.391-3.56c-0.611-1.507-0.917-3.056-0.917-4.646
		c0-2.823,0.875-5.19,2.624-7.101c1.737-1.887,3.949-2.83,6.635-2.83c0.161,0,0.365,0.007,0.612,0.02
		c0.247,0.013,0.544,0.032,0.891,0.058v6.788c-2.202,0.137-3.303,1.243-3.303,3.319c0,0.936,0.272,1.757,0.816,2.464
		c0.557,0.674,1.218,1.01,1.985,1.01c0.074,0,0.151-0.003,0.232-0.009C85.665,101.817,85.755,101.808,85.854,101.796z"/>
	<path fill="#FBD200" d="M100.104,88.172h7.459v11.3c0,1.076,0.105,1.862,0.315,2.356c0.223,0.408,0.643,0.612,1.262,0.612
		c0.606,0,1.014-0.204,1.225-0.612c0.223-0.408,0.334-1.193,0.334-2.356v-11.3h7.459v12.057c0,0.8-0.065,1.524-0.195,2.173
		c-0.13,0.648-0.334,1.236-0.614,1.764c-0.279,0.527-0.638,1.01-1.078,1.446c-0.44,0.437-0.964,0.836-1.571,1.2
		c-1.636,0.945-3.489,1.418-5.559,1.418c-2.095,0-3.948-0.473-5.559-1.418c-0.62-0.364-1.15-0.761-1.59-1.191
		c-0.44-0.431-0.799-0.912-1.078-1.445c-0.279-0.534-0.484-1.125-0.614-1.773c-0.13-0.648-0.195-1.373-0.195-2.173V88.172z"/>
	<path fill="#FBD200" d="M140.015,108.23h-7.459V97.616c0-0.915-0.115-1.552-0.343-1.911c-0.229-0.358-0.627-0.538-1.195-0.538
		c-1.325,0-1.987,0.983-1.987,2.95v10.112h-7.459V88.172h7.459c-0.013,0.495-0.025,0.953-0.037,1.373
		c-0.013,0.421-0.031,0.811-0.056,1.169l-0.074,1.28c1.283-2.548,3.169-3.822,5.659-3.822c1.731,0,3.075,0.588,4.034,1.763
		c0.972,1.175,1.458,2.81,1.458,4.905V108.23z"/>
	<path fill="#FBD200" d="M172.523,108.23h-7.459V97.616c0-0.915-0.115-1.552-0.343-1.911c-0.229-0.358-0.627-0.538-1.195-0.538
		c-1.325,0-1.987,0.983-1.987,2.95v10.112h-7.459V88.172h7.459c-0.013,0.495-0.025,0.953-0.037,1.373
		c-0.013,0.421-0.031,0.811-0.056,1.169l-0.074,1.28c1.283-2.548,3.169-3.822,5.659-3.822c1.731,0,3.075,0.588,4.034,1.763
		c0.972,1.175,1.458,2.81,1.458,4.905V108.23z"/>
	<path fill="#FBD200" d="M193.471,98.504c0,2.969-0.865,5.332-2.594,7.09c-1.729,1.757-4.047,2.636-6.954,2.636
		c-2.857,0-5.131-0.896-6.822-2.689c-1.679-1.806-2.519-4.228-2.519-7.268c0-3.041,0.858-5.48,2.575-7.321
		c1.704-1.853,3.966-2.779,6.785-2.779c2.969,0,5.3,0.921,6.992,2.761C192.625,92.774,193.471,95.297,193.471,98.504z
		 M186.012,98.252c0-0.684-0.047-1.302-0.14-1.854s-0.227-1.026-0.402-1.42c-0.175-0.393-0.385-0.697-0.63-0.914
		c-0.245-0.217-0.519-0.325-0.822-0.325c-0.595,0-1.073,0.41-1.435,1.231c-0.361,0.718-0.542,1.795-0.542,3.23
		c0,1.414,0.181,2.491,0.542,3.231c0.362,0.821,0.846,1.231,1.452,1.231c0.571,0,1.043-0.404,1.417-1.214
		C185.826,100.549,186.012,99.484,186.012,98.252z"/>
	<path fill="#FBD200" d="M224.235,108.23h-7.459V96.874c0-1.273-0.377-1.911-1.132-1.911c-1.126,0-1.688,1.039-1.688,3.117v10.149
		h-7.459V97.153c0-1.36-0.421-2.041-1.262-2.041c-0.606,0-1.036,0.231-1.29,0.696c-0.254,0.463-0.38,1.277-0.38,2.439v9.982h-7.459
		V88.172h7.459v1.039c0,0.816-0.037,1.584-0.111,2.301c1.326-2.227,3.054-3.34,5.186-3.34c2.392,0,4.164,1.386,5.316,4.156
		c1.004-2.771,2.664-4.156,4.981-4.156c1.747,0,3.11,0.624,4.089,1.871c0.806,1.042,1.208,2.61,1.208,4.706V108.23z"/>
	<path fill="#FBD200" d="M249.358,108.23c0.012-0.21,0.024-0.451,0.037-0.724c0.012-0.271,0.031-0.587,0.056-0.946
		c0.024-0.223,0.043-0.562,0.056-1.021c-0.718,1.163-1.417,1.974-2.097,2.431c-0.668,0.174-1.491,0.26-2.468,0.26
		c-2.017,0-3.6-0.867-4.75-2.601c-1.138-1.734-1.707-4.145-1.707-7.232c0-3.241,0.557-5.754,1.67-7.535
		c1.113-1.793,2.684-2.689,4.713-2.689c1.113,0,2.01,0.248,2.69,0.742c0.717,0.495,1.41,1.354,2.078,2.579
		c-0.037-0.643-0.056-1.032-0.056-1.169l-0.074-2.022V76.928h7.459v31.302H249.358z M245.944,98.237
		c0,2.642,0.612,3.963,1.837,3.963c1.15,0,1.726-1.362,1.726-4.088c0-2.606-0.557-3.909-1.67-3.909
		C246.575,94.202,245.944,95.547,245.944,98.237z"/>
	<path fill="#FBD200" d="M270.677,101.439l7.273,0.148c-0.52,2.203-1.531,3.86-3.033,4.974c-1.504,1.112-3.467,1.669-5.892,1.669
		c-2.874,0-5.13-0.855-6.767-2.567c-1.625-1.735-2.437-4.106-2.437-7.114c0-3.054,0.874-5.544,2.623-7.47
		c1.748-1.938,4.003-2.906,6.766-2.906c2.746,0,4.936,0.938,6.568,2.813c1.633,1.889,2.449,4.392,2.449,7.511l-0.037,1.272h-10.91
		c0.087,1.93,0.668,2.895,1.744,2.895C269.867,102.663,270.418,102.255,270.677,101.439z M270.826,95.557
		c0-0.266-0.043-0.509-0.13-0.729c-0.087-0.222-0.208-0.412-0.362-0.571s-0.337-0.285-0.547-0.378
		c-0.211-0.093-0.439-0.14-0.687-0.14c-0.52,0-0.94,0.171-1.262,0.511c-0.321,0.341-0.482,0.776-0.482,1.308H270.826z"/>
	<path fill="#FBD200" d="M292.795,108.23V79.581h8.999c3.364,0,5.856,0.742,7.478,2.227c1.645,1.521,2.468,3.488,2.468,5.9
		c0,3.588-1.781,5.529-5.344,5.826c2.028,0.297,3.517,0.965,4.462,2.004c0.947,1.039,1.42,2.536,1.42,4.49
		c0,2.462-0.798,4.441-2.394,5.938c-1.583,1.51-3.668,2.264-6.253,2.264H292.795z M300.532,90.491h0.52
		c0.928,0,1.661-0.216,2.198-0.649c0.539-0.433,0.808-1.039,0.808-1.818c0-1.657-0.909-2.486-2.728-2.486
		c-0.087,0-0.195,0.003-0.324,0.009c-0.131,0.007-0.288,0.017-0.474,0.028V90.491z M300.532,102.161
		c0.148,0.013,0.278,0.022,0.39,0.028c0.111,0.007,0.204,0.01,0.278,0.01c0.965,0,1.735-0.261,2.31-0.781
		c0.576-0.521,0.863-1.219,0.863-2.096c0-0.876-0.287-1.562-0.863-2.058c-0.574-0.495-1.363-0.743-2.365-0.743h-0.612V102.161z"/>
</g>
<g enable-background="new    ">
	<path fill="#FBD200" d="M333.615,98.504c0,2.969-0.864,5.332-2.594,7.09c-1.729,1.757-4.047,2.636-6.953,2.636
		c-2.857,0-5.131-0.896-6.822-2.689c-1.68-1.806-2.52-4.228-2.52-7.268c0-3.041,0.859-5.48,2.575-7.321
		c1.704-1.853,3.966-2.779,6.785-2.779c2.97,0,5.3,0.921,6.991,2.761C332.769,92.774,333.615,95.297,333.615,98.504z
		 M326.156,98.252c0-0.684-0.047-1.302-0.14-1.854s-0.228-1.026-0.401-1.42c-0.176-0.393-0.386-0.697-0.631-0.914
		c-0.244-0.217-0.519-0.325-0.822-0.325c-0.594,0-1.072,0.41-1.434,1.231c-0.361,0.718-0.543,1.795-0.543,3.23
		c0,1.414,0.182,2.491,0.543,3.231c0.361,0.821,0.846,1.231,1.451,1.231c0.572,0,1.044-0.404,1.417-1.214
		C325.97,100.549,326.156,99.484,326.156,98.252z"/>
</g>
<g enable-background="new    ">
	<path fill="#FBD200" d="M344.326,116.635h-7.664l3.248-9.24l-5.957-19.223h7.479l1.428,5.752c0.198,0.792,0.375,1.654,0.529,2.589
		c0.154,0.934,0.287,1.945,0.398,3.033l0.26-1.837c0.347-2.338,0.662-4.069,0.947-5.195l1.113-4.342h7.439L344.326,116.635z"/>
</g>
<g enable-background="new    ">
	<path fill="#FBD200" d="M354.017,106.156l2.709-5.59c1.336,1.398,2.579,2.097,3.729,2.097c0.965,0,1.447-0.327,1.447-0.98
		c0-0.56-0.649-1.062-1.948-1.505c-3.501-1.166-5.251-3.016-5.251-5.548c0-1.855,0.783-3.396,2.35-4.62
		c1.579-1.226,3.548-1.838,5.907-1.838c1.93,0,3.921,0.571,5.975,1.713l-2.542,5.616c-1.249-1.175-2.271-1.763-3.062-1.763
		c-0.779,0-1.169,0.293-1.169,0.88c0,0.633,0.756,1.225,2.268,1.777c1.89,0.679,3.175,1.396,3.854,2.156
		c0.718,0.759,1.077,1.806,1.077,3.14c0,1.921-0.766,3.49-2.297,4.71c-1.53,1.219-3.493,1.828-5.886,1.828
		c-1.126,0-2.245-0.144-3.358-0.43c-0.52-0.137-1.089-0.346-1.707-0.626C355.496,106.895,354.797,106.555,354.017,106.156z"/>
	<path fill="#FBD200" d="M383.408,108.23V79.581h8.999c3.364,0,5.856,0.742,7.478,2.227c1.645,1.521,2.468,3.488,2.468,5.9
		c0,3.588-1.781,5.529-5.344,5.826c2.028,0.297,3.517,0.965,4.462,2.004c0.947,1.039,1.42,2.536,1.42,4.49
		c0,2.462-0.798,4.441-2.394,5.938c-1.583,1.51-3.668,2.264-6.253,2.264H383.408z M391.145,90.491h0.52
		c0.928,0,1.661-0.216,2.198-0.649c0.539-0.433,0.808-1.039,0.808-1.818c0-1.657-0.909-2.486-2.728-2.486
		c-0.087,0-0.195,0.003-0.324,0.009c-0.131,0.007-0.288,0.017-0.474,0.028V90.491z M391.145,102.161
		c0.148,0.013,0.278,0.022,0.39,0.028c0.111,0.007,0.204,0.01,0.278,0.01c0.965,0,1.735-0.261,2.31-0.781
		c0.576-0.521,0.863-1.219,0.863-2.096c0-0.876-0.287-1.562-0.863-2.058c-0.574-0.495-1.363-0.743-2.365-0.743h-0.612V102.161z"/>
	<path fill="#FBD200" d="M423.746,108.23h-7.43c0.062-0.668,0.111-1.305,0.148-1.911c0.037-0.605,0.074-1.095,0.111-1.466
		c-1.281,2.252-3,3.377-5.156,3.377c-1.873,0-3.357-0.902-4.454-2.708c-1.084-1.793-1.626-4.274-1.626-7.445
		c0-3.064,0.562-5.475,1.688-7.232c1.126-1.781,2.659-2.672,4.602-2.672c1.991,0,3.6,1.058,4.824,3.173
		c-0.024-0.247-0.044-0.464-0.056-0.649c-0.013-0.186-0.025-0.34-0.037-0.464l-0.074-1.169l-0.056-0.891h7.515V108.23z
		 M416.287,97.986c0-0.688-0.028-1.272-0.084-1.754c-0.057-0.481-0.147-0.874-0.272-1.178c-0.125-0.305-0.288-0.521-0.487-0.654
		c-0.2-0.131-0.443-0.197-0.731-0.197c-1.275,0-1.913,1.554-1.913,4.661c0,2.224,0.568,3.336,1.707,3.336
		C415.693,102.199,416.287,100.795,416.287,97.986z"/>
	<path fill="#FBD200" d="M445.696,108.23h-7.459V97.616c0-0.915-0.114-1.552-0.343-1.911c-0.229-0.358-0.627-0.538-1.195-0.538
		c-1.324,0-1.987,0.983-1.987,2.95v10.112h-7.459V88.172h7.459c-0.013,0.495-0.024,0.953-0.037,1.373
		c-0.013,0.421-0.031,0.811-0.056,1.169l-0.074,1.28c1.283-2.548,3.17-3.822,5.659-3.822c1.731,0,3.075,0.588,4.034,1.763
		c0.972,1.175,1.458,2.81,1.458,4.905V108.23z"/>
	<path fill="#FBD200" d="M458.629,108.23c0.012-0.21,0.024-0.451,0.037-0.724c0.012-0.271,0.031-0.587,0.056-0.946
		c0.024-0.223,0.043-0.562,0.056-1.021c-0.718,1.163-1.416,1.974-2.097,2.431c-0.668,0.174-1.491,0.26-2.468,0.26
		c-2.017,0-3.6-0.867-4.75-2.601c-1.139-1.734-1.707-4.145-1.707-7.232c0-3.241,0.557-5.754,1.67-7.535
		c1.113-1.793,2.684-2.689,4.713-2.689c1.113,0,2.01,0.248,2.69,0.742c0.718,0.495,1.41,1.354,2.078,2.579
		c-0.037-0.643-0.056-1.032-0.056-1.169l-0.074-2.022V76.928h7.459v31.302H458.629z M455.215,98.237
		c0,2.642,0.612,3.963,1.837,3.963c1.15,0,1.726-1.362,1.726-4.088c0-2.606-0.557-3.909-1.67-3.909
		C455.845,94.202,455.215,95.547,455.215,98.237z"/>
	<path fill="#FBD200" d="M478.018,103.972c0,1.171-0.428,2.173-1.282,3.007c-0.832,0.834-1.848,1.251-3.051,1.251
		c-1.189,0-2.225-0.423-3.105-1.27c-0.854-0.859-1.282-1.898-1.282-3.119c0-1.195,0.421-2.216,1.265-3.062
		c0.843-0.847,1.859-1.27,3.049-1.27c1.228,0,2.269,0.436,3.125,1.308C477.591,101.675,478.018,102.727,478.018,103.972z"/>
</g>
<g enable-background="new    ">
	<path fill="#FFFFFF" d="M489.402,93.196c-0.619-0.418-1.152-0.864-1.6-1.339s-0.802-0.985-1.062-1.532
		c-0.488-1.03-0.732-2.502-0.732-4.416v-8.326c0-1.834-0.203-2.944-0.609-3.33c-0.391-0.402-1.522-0.604-3.395-0.604l-1.049,0.024
		l-0.562,0.024v-6.757l4.664-0.193c3.438,0.049,5.888,0.738,7.35,2.068c1.496,1.347,2.244,3.554,2.244,6.619v10.1
		c0,1.672,0.212,2.864,0.635,3.578c0.407,0.665,1.229,1.135,2.467,1.411v6.352c-1.156,0.243-1.971,0.682-2.441,1.313
		c-0.439,0.634-0.66,1.664-0.66,3.091v10.148c0,3.066-0.748,5.257-2.244,6.571c-1.462,1.33-3.92,1.995-7.375,1.995l-4.639-0.129
		v-7.195h1.709c1.807,0.032,2.906-0.16,3.297-0.579c0.406-0.386,0.609-1.488,0.609-3.307v-8.325c0-2.043,0.229-3.507,0.684-4.392
		C487.164,95.071,488.066,94.113,489.402,93.196z"/>
</g>
</svg>
