<?xml version="1.0" encoding="utf-8"?>
<!-- Generator: Adobe Illustrator 14.0.0, SVG Export Plug-In . SVG Version: 6.00 Build 43363)  -->
<!DOCTYPE svg PUBLIC "-//W3C//DTD SVG 1.1//EN" "http://www.w3.org/Graphics/SVG/1.1/DTD/svg11.dtd">
<svg version="1.1" id="Calque_1" xmlns="http://www.w3.org/2000/svg" xmlns:xlink="http://www.w3.org/1999/xlink" x="0px" y="0px"
	 width="518.979px" height="124.389px" viewBox="0 0 518.979 124.389" enable-background="new 0 0 518.979 124.389"
	 xml:space="preserve">
<g enable-background="new    ">
	<path fill="#FFFFFF" d="M13.257,41.539c0,1.54-0.562,2.859-1.688,3.956c-1.093,1.098-2.431,1.646-4.013,1.646
		c-1.566,0-2.928-0.557-4.086-1.671c-1.125-1.13-1.688-2.498-1.688-4.104c0-1.572,0.554-2.915,1.664-4.029s2.447-1.671,4.013-1.671
		c1.614,0,2.985,0.573,4.11,1.72C12.695,38.518,13.257,39.902,13.257,41.539z"/>
</g>
<g enable-background="new    ">
	<path fill="#FFFFFF" d="M38.77,35.624c0,3.516-1.024,6.314-3.071,8.396c-2.048,2.081-4.793,3.122-8.235,3.122
		c-3.383,0-6.076-1.062-8.079-3.186c-1.988-2.138-2.982-5.006-2.982-8.606c0-3.6,1.016-6.489,3.049-8.67
		c2.018-2.193,4.696-3.29,8.035-3.29c3.516,0,6.276,1.09,8.279,3.27S38.77,31.827,38.77,35.624z M29.937,35.326
		c0-0.81-0.055-1.542-0.166-2.196c-0.11-0.655-0.269-1.215-0.476-1.681c-0.208-0.466-0.456-0.827-0.746-1.083
		c-0.29-0.257-0.615-0.385-0.974-0.385c-0.705,0-1.271,0.485-1.699,1.457c-0.428,0.851-0.642,2.126-0.642,3.827
		c0,1.674,0.214,2.949,0.642,3.826c0.428,0.973,1.001,1.458,1.719,1.458c0.677,0,1.236-0.479,1.678-1.438
		C29.716,38.046,29.937,36.784,29.937,35.326z"/>
	<path fill="#FFFFFF" d="M63.731,47.142h-8.833V34.573c0-1.084-0.136-1.838-0.407-2.264c-0.271-0.424-0.742-0.637-1.415-0.637
		c-1.569,0-2.354,1.164-2.354,3.494v11.975H41.89V23.39h8.833c-0.015,0.586-0.029,1.128-0.044,1.625
		c-0.015,0.499-0.037,0.96-0.066,1.385l-0.088,1.516c1.519-3.017,3.753-4.525,6.702-4.525c2.05,0,3.642,0.695,4.777,2.087
		c1.151,1.391,1.727,3.327,1.727,5.809V47.142z"/>
	<path fill="#FFFFFF" d="M79.024,39.1l8.613,0.176c-0.615,2.608-1.813,4.571-3.592,5.89c-1.78,1.317-4.105,1.977-6.977,1.977
		c-3.404,0-6.074-1.014-8.013-3.04c-1.924-2.056-2.886-4.863-2.886-8.425c0-3.617,1.035-6.565,3.106-8.846
		c2.07-2.295,4.741-3.441,8.012-3.441c3.252,0,5.845,1.11,7.778,3.332c1.934,2.235,2.9,5.2,2.9,8.894l-0.044,1.507h-12.92
		c0.103,2.285,0.791,3.428,2.065,3.428C78.064,40.55,78.716,40.067,79.024,39.1z M79.199,32.134c0-0.313-0.051-0.602-0.154-0.863
		c-0.103-0.263-0.246-0.487-0.429-0.677c-0.183-0.188-0.399-0.338-0.648-0.447c-0.249-0.11-0.52-0.165-0.813-0.165
		c-0.615,0-1.113,0.201-1.494,0.604s-0.571,0.92-0.571,1.548H79.199z"/>
</g>
<g enable-background="new    ">
	<path fill="#FFFFFF" d="M103.524,47.142h-9.163V21.346h-5.054v-8.13h19.468v8.13h-5.251V47.142z"/>
</g>
<g enable-background="new    ">
	<path fill="#FFFFFF" d="M137.021,47.142h-8.723l-1.802-14.238l-2.725,14.238h-8.635l-5.911-23.752h8.657l1.34,7.624
		c0.161,0.967,0.319,1.999,0.472,3.099c0.154,1.098,0.297,2.292,0.429,3.581c0.117-1.333,0.274-2.611,0.473-3.834
		c0.197-1.224,0.421-2.406,0.67-3.549l1.56-6.921h7.515l1.274,7.646c0.161,0.981,0.308,2.024,0.439,3.131
		c0.132,1.105,0.256,2.281,0.374,3.526c0.234-1.685,0.469-3.219,0.703-4.604c0.234-1.384,0.476-2.654,0.725-3.812l1.274-5.889h8.811
		L137.021,47.142z"/>
</g>
<g enable-background="new    ">
	<path fill="#FFFFFF" d="M167.267,35.624c0,3.516-1.024,6.314-3.071,8.396c-2.048,2.081-4.793,3.122-8.235,3.122
		c-3.383,0-6.076-1.062-8.079-3.186c-1.988-2.138-2.982-5.006-2.982-8.606c0-3.6,1.016-6.489,3.049-8.67
		c2.018-2.193,4.696-3.29,8.035-3.29c3.516,0,6.276,1.09,8.279,3.27S167.267,31.827,167.267,35.624z M158.434,35.326
		c0-0.81-0.055-1.542-0.166-2.196c-0.11-0.655-0.269-1.215-0.476-1.681c-0.208-0.466-0.456-0.827-0.746-1.083
		c-0.29-0.257-0.615-0.385-0.974-0.385c-0.705,0-1.271,0.485-1.699,1.457c-0.428,0.851-0.642,2.126-0.642,3.827
		c0,1.674,0.214,2.949,0.642,3.826c0.428,0.973,1.001,1.458,1.719,1.458c0.677,0,1.236-0.479,1.678-1.438
		C158.213,38.046,158.434,36.784,158.434,35.326z"/>
	<path fill="#FFFFFF" d="M179.879,47.142h-9.163V13.216h16.194v8.13h-7.031v4.329h6.548v8.129h-6.548V47.142z"/>
</g>
<g enable-background="new    ">
	<path fill="#FFFFFF" d="M198.974,47.142h-8.833V23.39h8.833l-0.461,4.636c1.333-3.472,3.538-5.208,6.614-5.208v9.889
		c-0.967-0.527-1.787-0.791-2.461-0.791c-1.187,0-2.098,0.428-2.736,1.285c-0.637,0.856-0.956,2.105-0.956,3.746V47.142z"/>
</g>
<g enable-background="new    ">
	<path fill="#FFFFFF" d="M220.14,39.1l8.613,0.176c-0.615,2.608-1.813,4.571-3.592,5.89c-1.78,1.317-4.105,1.977-6.977,1.977
		c-3.404,0-6.074-1.014-8.013-3.04c-1.924-2.056-2.886-4.863-2.886-8.425c0-3.617,1.035-6.565,3.106-8.846
		c2.07-2.295,4.741-3.441,8.012-3.441c3.252,0,5.845,1.11,7.778,3.332c1.934,2.235,2.9,5.2,2.9,8.894l-0.044,1.507h-12.92
		c0.103,2.285,0.791,3.428,2.065,3.428C219.181,40.55,219.833,40.067,220.14,39.1z M220.316,32.134c0-0.313-0.051-0.602-0.154-0.863
		c-0.103-0.263-0.246-0.487-0.429-0.677c-0.183-0.188-0.399-0.338-0.648-0.447c-0.249-0.11-0.52-0.165-0.813-0.165
		c-0.615,0-1.113,0.201-1.494,0.604s-0.571,0.92-0.571,1.548H220.316z"/>
	<path fill="#FFFFFF" d="M244.64,39.1l8.613,0.176c-0.615,2.608-1.813,4.571-3.592,5.89c-1.78,1.317-4.105,1.977-6.977,1.977
		c-3.404,0-6.074-1.014-8.013-3.04c-1.924-2.056-2.886-4.863-2.886-8.425c0-3.617,1.035-6.565,3.106-8.846
		c2.07-2.295,4.741-3.441,8.012-3.441c3.252,0,5.845,1.11,7.778,3.332c1.934,2.235,2.9,5.2,2.9,8.894l-0.044,1.507h-12.92
		c0.103,2.285,0.791,3.428,2.065,3.428C243.68,40.55,244.332,40.067,244.64,39.1z M244.816,32.134c0-0.313-0.051-0.602-0.154-0.863
		c-0.103-0.263-0.246-0.487-0.429-0.677c-0.183-0.188-0.399-0.338-0.648-0.447c-0.249-0.11-0.52-0.165-0.813-0.165
		c-0.615,0-1.113,0.201-1.494,0.604s-0.571,0.92-0.571,1.548H244.816z"/>
</g>
<g enable-background="new    ">
	<path fill="#FFFFFF" d="M265.589,32.317c0.618,0.421,1.151,0.87,1.6,1.348c0.447,0.478,0.801,0.992,1.062,1.542
		c0.505,0.988,0.757,2.47,0.757,4.444v8.354c0,1.846,0.195,2.963,0.586,3.352c0.406,0.404,1.546,0.607,3.418,0.607l1.025-0.024
		l0.586-0.024v6.8l-4.663,0.194c-3.153-0.049-5.382-0.742-6.687-2.08c-1.32-1.354-1.98-3.572-1.98-6.655l-0.464-10.131
		c0-1.68-0.212-2.879-0.635-3.597c-0.407-0.669-1.229-1.142-2.466-1.42V28.64c1.172-0.244,1.978-0.685,2.417-1.321
		c0.456-0.604,0.684-1.639,0.684-3.107V13.983c0-3.083,0.739-5.285,2.219-6.606c1.462-1.338,3.921-2.007,7.376-2.007l4.663,0.129
		v7.195h-1.709c-1.807-0.016-2.913,0.178-3.32,0.583c-0.391,0.389-0.586,1.497-0.586,3.327v8.402c-0.31,1.83-0.7,3.304-1.172,4.42
		C267.827,30.431,266.923,31.394,265.589,32.317z"/>
</g>
<g enable-background="new    ">
	<path fill="#FBD200" d="M291.147,47.142h-13.545V18.493h7.736v21.783h5.809V47.142z"/>
</g>
<g enable-background="new    ">
	<path fill="#FBD200" d="M302.087,18.493l-5.01,13.786h-6.104l3.506-13.786H302.087z"/>
	<path fill="#FBD200" d="M323.073,47.142h-7.43c0.062-0.668,0.111-1.305,0.148-1.911c0.036-0.605,0.073-1.095,0.11-1.466
		c-1.281,2.252-3,3.377-5.155,3.377c-1.873,0-3.357-0.902-4.455-2.708c-1.084-1.793-1.625-4.274-1.625-7.445
		c0-3.064,0.562-5.475,1.688-7.232c1.126-1.781,2.66-2.672,4.602-2.672c1.992,0,3.6,1.058,4.824,3.173
		c-0.024-0.247-0.043-0.464-0.055-0.649c-0.014-0.186-0.025-0.34-0.037-0.464l-0.074-1.169l-0.057-0.891h7.516V47.142z
		 M315.614,36.898c0-0.688-0.029-1.272-0.085-1.754s-0.147-0.874-0.272-1.178c-0.125-0.305-0.287-0.521-0.486-0.654
		c-0.201-0.131-0.444-0.197-0.732-0.197c-1.275,0-1.912,1.554-1.912,4.661c0,2.224,0.568,3.336,1.706,3.336
		C315.019,41.112,315.614,39.707,315.614,36.898z"/>
</g>
<g enable-background="new    ">
	<path fill="#FBD200" d="M344.317,27.084v20.633c0,1.57-0.217,2.932-0.648,4.082c-0.434,1.063-1.139,1.973-2.115,2.728
		c-1.646,1.273-3.736,1.911-6.271,1.911c-2.734,0-4.831-0.588-6.291-1.763c-1.459-1.176-2.362-3.006-2.709-5.492h7.607
		c0.05,1.088,0.569,1.633,1.559,1.633c0.631,0,1.076-0.22,1.336-0.658c0.26-0.439,0.391-1.167,0.391-2.181v-3.173
		c-1.324,1.732-2.883,2.598-4.676,2.598c-1.943,0-3.514-0.946-4.713-2.839c-1.188-1.893-1.781-4.379-1.781-7.459
		c0-3.067,0.594-5.578,1.781-7.533c1.199-1.941,2.752-2.913,4.656-2.913c0.879,0,1.646,0.223,2.301,0.668
		c0.681,0.458,1.416,1.256,2.209,2.394l-0.148-2.635H344.317z M337.1,37.048c0-2.895-0.533-4.342-1.596-4.342
		c-1.201,0-1.801,1.41-1.801,4.23c0,2.907,0.582,4.36,1.744,4.36C336.55,41.297,337.1,39.881,337.1,37.048z"/>
</g>
<g enable-background="new    ">
	<path fill="#FBD200" d="M358.257,40.351l7.273,0.148c-0.52,2.203-1.531,3.86-3.033,4.974c-1.504,1.112-3.467,1.669-5.892,1.669
		c-2.874,0-5.13-0.855-6.767-2.567c-1.625-1.735-2.437-4.106-2.437-7.114c0-3.054,0.874-5.544,2.623-7.47
		c1.748-1.938,4.003-2.906,6.766-2.906c2.746,0,4.936,0.938,6.568,2.813c1.633,1.889,2.449,4.392,2.449,7.511l-0.037,1.272h-10.91
		c0.087,1.93,0.668,2.895,1.744,2.895C357.446,41.575,357.997,41.167,358.257,40.351z M358.405,34.469
		c0-0.266-0.043-0.509-0.13-0.729c-0.087-0.222-0.208-0.412-0.362-0.571s-0.337-0.285-0.547-0.378
		c-0.211-0.093-0.439-0.14-0.687-0.14c-0.52,0-0.94,0.171-1.262,0.511c-0.321,0.341-0.482,0.776-0.482,1.308H358.405z"/>
	<path fill="#FBD200" d="M387.109,47.142h-7.459V36.529c0-0.915-0.114-1.552-0.343-1.911c-0.229-0.358-0.627-0.538-1.195-0.538
		c-1.324,0-1.987,0.983-1.987,2.95v10.112h-7.459V27.084h7.459c-0.013,0.495-0.024,0.953-0.037,1.373
		c-0.013,0.421-0.031,0.811-0.056,1.169l-0.074,1.28c1.283-2.548,3.17-3.822,5.659-3.822c1.731,0,3.075,0.588,4.034,1.763
		c0.972,1.175,1.458,2.81,1.458,4.905V47.142z"/>
	<path fill="#FBD200" d="M399.93,40.708v6.313c-0.445,0.046-0.835,0.077-1.169,0.095c-0.334,0.017-0.612,0.025-0.835,0.025
		c-2.184,0-4.001-0.641-5.451-1.922c-0.982-0.866-1.779-2.053-2.391-3.56c-0.61-1.507-0.916-3.056-0.916-4.646
		c0-2.823,0.875-5.19,2.624-7.101c1.737-1.887,3.949-2.83,6.635-2.83c0.161,0,0.364,0.007,0.612,0.02
		c0.247,0.013,0.544,0.032,0.891,0.058v6.788c-2.202,0.137-3.303,1.243-3.303,3.319c0,0.936,0.271,1.757,0.816,2.464
		c0.557,0.674,1.219,1.01,1.985,1.01c0.074,0,0.151-0.003,0.231-0.009C399.741,40.729,399.831,40.72,399.93,40.708z"/>
	<path fill="#FBD200" d="M413.03,40.351l7.273,0.148c-0.52,2.203-1.531,3.86-3.033,4.974c-1.504,1.112-3.467,1.669-5.892,1.669
		c-2.874,0-5.13-0.855-6.767-2.567c-1.625-1.735-2.437-4.106-2.437-7.114c0-3.054,0.874-5.544,2.623-7.47
		c1.748-1.938,4.003-2.906,6.766-2.906c2.746,0,4.936,0.938,6.568,2.813c1.633,1.889,2.449,4.392,2.449,7.511l-0.037,1.272h-10.91
		c0.087,1.93,0.668,2.895,1.744,2.895C412.219,41.575,412.77,41.167,413.03,40.351z M413.178,34.469c0-0.266-0.043-0.509-0.13-0.729
		c-0.087-0.222-0.208-0.412-0.362-0.571s-0.337-0.285-0.547-0.378c-0.211-0.093-0.439-0.14-0.687-0.14
		c-0.52,0-0.94,0.171-1.262,0.511c-0.321,0.341-0.482,0.776-0.482,1.308H413.178z"/>
	<path fill="#FBD200" d="M459.305,47.142h-7.487l-1.796-10.038c-0.35-1.941-0.611-3.624-0.787-5.047
		c-0.087-0.705-0.162-1.292-0.225-1.763c-0.062-0.47-0.105-0.828-0.131-1.076c-0.062,0.508-0.156,1.454-0.28,2.839
		c-0.057,0.705-0.124,1.447-0.204,2.227s-0.176,1.603-0.289,2.468l-1.342,10.391h-7.238l-6.383-28.648h7.645l1.262,7.886
		c0.482,3.143,0.816,5.61,1.002,7.403l0.26,2.616l0.241-2.245c0.251-2.622,0.573-5.114,0.968-7.478l1.398-8.183h6.435l1.255,6.884
		c0.598,3.204,1.117,6.995,1.56,11.374c0.136-1.967,0.284-3.711,0.445-5.232s0.34-2.9,0.538-4.138l1.41-8.888h7.552L459.305,47.142z
		"/>
	<path fill="#FBD200" d="M477.526,40.351l7.273,0.148c-0.52,2.203-1.531,3.86-3.033,4.974c-1.504,1.112-3.467,1.669-5.892,1.669
		c-2.874,0-5.13-0.855-6.767-2.567c-1.625-1.735-2.437-4.106-2.437-7.114c0-3.054,0.874-5.544,2.623-7.47
		c1.748-1.938,4.003-2.906,6.766-2.906c2.746,0,4.936,0.938,6.568,2.813c1.633,1.889,2.449,4.392,2.449,7.511l-0.037,1.272h-10.91
		c0.087,1.93,0.668,2.895,1.744,2.895C476.716,41.575,477.266,41.167,477.526,40.351z M477.675,34.469
		c0-0.266-0.043-0.509-0.13-0.729c-0.087-0.222-0.208-0.412-0.362-0.571s-0.337-0.285-0.547-0.378
		c-0.211-0.093-0.439-0.14-0.687-0.14c-0.52,0-0.94,0.171-1.262,0.511c-0.321,0.341-0.482,0.776-0.482,1.308H477.675z"/>
	<path fill="#FBD200" d="M495.561,47.142h-7.626V15.84h7.44l0.019,11.374c0,0.928-0.037,1.992-0.111,3.191
		c0.681-1.212,1.366-2.071,2.06-2.579c0.717-0.494,1.62-0.742,2.709-0.742c2.028,0,3.6,0.896,4.713,2.689
		c1.113,1.781,1.67,4.294,1.67,7.535c0,3.1-0.575,5.511-1.726,7.232c-1.138,1.733-2.716,2.601-4.731,2.601
		c-0.978,0-1.807-0.086-2.486-0.26c-0.334-0.234-0.678-0.55-1.029-0.946c-0.354-0.396-0.709-0.891-1.067-1.484
		c0.013,0.235,0.024,0.437,0.037,0.603c0.013,0.168,0.024,0.307,0.037,0.418L495.561,47.142z M498.957,37.256
		c0-2.761-0.631-4.142-1.893-4.142c-1.113,0-1.67,1.303-1.67,3.909c0,2.726,0.575,4.088,1.726,4.088
		C498.344,41.112,498.957,39.826,498.957,37.256z"/>
	<path fill="#FBD200" d="M518.439,40.295l-5.01,13.768h-6.104l3.507-13.768H518.439z"/>
</g>
<g enable-background="new    ">
	<path fill="#FBD200" d="M77.227,116.088h-7.459V87.087h7.44l-0.148,2.839c0.309-0.594,0.625-1.098,0.946-1.512
		c0.321-0.415,0.668-0.739,1.039-0.975c0.371-0.234,0.77-0.353,1.197-0.353s0.9,0,1.419,0c1.93,0,3.5,0.927,4.713,2.779
		c1.2,1.828,1.8,4.257,1.8,7.285c0,3.076-0.575,5.51-1.726,7.304c-1.126,1.793-2.678,2.689-4.657,2.689
		c-1.806,0-3.383-1.045-4.731-3.136c0.062,0.631,0.099,1.176,0.111,1.633c0.037,0.471,0.056,1.036,0.056,1.697V116.088z
		 M80.697,97.002c0-1.23-0.152-2.186-0.455-2.865c-0.303-0.68-0.733-1.02-1.29-1.02c-1.15,0-1.726,1.318-1.726,3.955
		c0,2.694,0.557,4.042,1.67,4.042c0.557,0,0.996-0.36,1.317-1.08C80.535,99.314,80.697,98.304,80.697,97.002z"/>
	<path fill="#FBD200" d="M108.863,107.145h-7.429c0.062-0.668,0.111-1.305,0.148-1.911c0.037-0.605,0.074-1.095,0.111-1.466
		c-1.281,2.252-3,3.377-5.156,3.377c-1.873,0-3.357-0.902-4.454-2.708c-1.084-1.793-1.626-4.274-1.626-7.445
		c0-3.064,0.562-5.475,1.688-7.232c1.125-1.781,2.659-2.672,4.602-2.672c1.991,0,3.6,1.058,4.824,3.173
		c-0.025-0.247-0.043-0.464-0.056-0.649c-0.013-0.186-0.025-0.34-0.037-0.464l-0.074-1.169l-0.056-0.891h7.515V107.145z
		 M101.404,96.901c0-0.688-0.028-1.272-0.084-1.754s-0.147-0.874-0.272-1.178c-0.125-0.305-0.288-0.521-0.487-0.654
		c-0.2-0.131-0.444-0.197-0.731-0.197c-1.275,0-1.913,1.554-1.913,4.661c0,2.224,0.569,3.336,1.707,3.336
		C100.809,101.115,101.404,99.71,101.404,96.901z"/>
	<path fill="#FBD200" d="M111.646,105.072l2.709-5.59c1.336,1.398,2.579,2.097,3.729,2.097c0.965,0,1.447-0.327,1.447-0.98
		c0-0.56-0.649-1.062-1.948-1.505c-3.501-1.166-5.251-3.016-5.251-5.548c0-1.855,0.783-3.396,2.35-4.62
		c1.579-1.226,3.548-1.838,5.907-1.838c1.93,0,3.921,0.571,5.975,1.713l-2.542,5.616c-1.25-1.175-2.27-1.763-3.062-1.763
		c-0.779,0-1.169,0.293-1.169,0.88c0,0.633,0.756,1.225,2.268,1.777c1.889,0.679,3.174,1.396,3.854,2.156
		c0.718,0.759,1.077,1.806,1.077,3.14c0,1.921-0.766,3.49-2.297,4.71c-1.531,1.219-3.493,1.828-5.886,1.828
		c-1.126,0-2.245-0.144-3.358-0.43c-0.52-0.137-1.089-0.346-1.707-0.626C113.124,105.81,112.425,105.47,111.646,105.072z"/>
	<path fill="#FBD200" d="M148.217,107.145h-7.459V75.843h7.459V107.145z"/>
	<path fill="#FBD200" d="M161.929,100.354l7.273,0.148c-0.52,2.203-1.531,3.86-3.034,4.974c-1.503,1.112-3.467,1.669-5.891,1.669
		c-2.874,0-5.129-0.855-6.767-2.567c-1.625-1.735-2.437-4.106-2.437-7.114c0-3.054,0.874-5.544,2.623-7.47
		c1.748-1.938,4.003-2.906,6.766-2.906c2.746,0,4.936,0.938,6.568,2.813c1.633,1.889,2.449,4.392,2.449,7.511l-0.037,1.272h-10.91
		c0.086,1.93,0.668,2.895,1.744,2.895C161.118,101.578,161.669,101.17,161.929,100.354z M162.077,94.472
		c0-0.266-0.043-0.509-0.13-0.729c-0.087-0.222-0.208-0.412-0.362-0.571c-0.155-0.159-0.337-0.285-0.547-0.378
		c-0.21-0.093-0.439-0.14-0.687-0.14c-0.52,0-0.94,0.171-1.262,0.511c-0.322,0.341-0.482,0.776-0.482,1.308H162.077z"/>
	<path fill="#FBD200" d="M193.954,100.711v6.313c-0.445,0.046-0.835,0.077-1.169,0.095c-0.334,0.017-0.612,0.025-0.835,0.025
		c-2.184,0-4.001-0.641-5.451-1.922c-0.982-0.866-1.779-2.053-2.391-3.56c-0.611-1.507-0.917-3.056-0.917-4.646
		c0-2.823,0.875-5.19,2.624-7.101c1.737-1.887,3.949-2.83,6.635-2.83c0.161,0,0.365,0.007,0.612,0.02
		c0.247,0.013,0.544,0.032,0.891,0.058v6.788c-2.202,0.137-3.303,1.243-3.303,3.319c0,0.936,0.272,1.757,0.816,2.464
		c0.557,0.674,1.218,1.01,1.985,1.01c0.074,0,0.151-0.003,0.232-0.009C193.765,100.732,193.855,100.723,193.954,100.711z"/>
	<path fill="#FBD200" d="M204.234,107.145h-7.459V75.843h7.459V107.145z"/>
	<path fill="#FBD200" d="M207.666,87.087h7.459v11.3c0,1.076,0.105,1.862,0.315,2.356c0.223,0.408,0.643,0.612,1.262,0.612
		c0.606,0,1.014-0.204,1.225-0.612c0.223-0.408,0.334-1.193,0.334-2.356v-11.3h7.459v12.057c0,0.8-0.065,1.524-0.195,2.173
		c-0.13,0.648-0.334,1.236-0.614,1.764c-0.279,0.527-0.638,1.01-1.078,1.446c-0.44,0.437-0.964,0.836-1.571,1.2
		c-1.636,0.945-3.489,1.418-5.559,1.418c-2.095,0-3.948-0.473-5.559-1.418c-0.62-0.364-1.15-0.761-1.59-1.191
		c-0.44-0.431-0.799-0.912-1.078-1.445c-0.279-0.534-0.484-1.125-0.614-1.773c-0.13-0.648-0.195-1.373-0.195-2.173V87.087z"/>
	<path fill="#FBD200" d="M236.76,107.145h-7.626V75.843h7.44l0.019,11.374c0,0.928-0.037,1.992-0.111,3.191
		c0.68-1.212,1.367-2.071,2.06-2.579c0.717-0.494,1.62-0.742,2.709-0.742c2.028,0,3.6,0.896,4.713,2.689
		c1.113,1.781,1.67,4.294,1.67,7.535c0,3.1-0.575,5.511-1.726,7.232c-1.138,1.733-2.715,2.601-4.731,2.601
		c-0.978,0-1.806-0.086-2.486-0.26c-0.334-0.234-0.677-0.55-1.03-0.946c-0.353-0.396-0.708-0.891-1.067-1.484
		c0.012,0.235,0.024,0.437,0.037,0.603c0.012,0.168,0.024,0.307,0.037,0.418L236.76,107.145z M240.156,97.259
		c0-2.761-0.631-4.142-1.893-4.142c-1.113,0-1.67,1.303-1.67,3.909c0,2.726,0.575,4.088,1.726,4.088
		C239.543,101.115,240.156,99.829,240.156,97.259z"/>
	<path fill="#FBD200" d="M272.2,107.145c0.012-0.21,0.023-0.451,0.037-0.724c0.012-0.271,0.03-0.587,0.055-0.946
		c0.025-0.223,0.043-0.562,0.057-1.021c-0.719,1.163-1.417,1.974-2.098,2.431c-0.668,0.174-1.49,0.26-2.467,0.26
		c-2.018,0-3.6-0.867-4.75-2.601c-1.139-1.734-1.707-4.145-1.707-7.232c0-3.241,0.557-5.754,1.67-7.535
		c1.113-1.793,2.684-2.689,4.713-2.689c1.113,0,2.01,0.248,2.689,0.742c0.718,0.495,1.41,1.354,2.078,2.579
		c-0.037-0.643-0.055-1.032-0.055-1.169l-0.074-2.022V75.843h7.459v31.302H272.2z M268.786,97.152c0,2.642,0.611,3.963,1.836,3.963
		c1.15,0,1.727-1.362,1.727-4.088c0-2.606-0.557-3.909-1.67-3.909C269.417,93.117,268.786,94.462,268.786,97.152z"/>
	<path fill="#FBD200" d="M294.057,78.496l-5.01,13.786h-6.105l3.508-13.786H294.057z"/>
	<path fill="#FBD200" d="M316.675,107.145h-7.996l-0.576-3.637h-5.213l-0.631,3.637h-7.998l6.885-28.648h9.463L316.675,107.145z
		 M307.194,97.478l-0.502-3.34c-0.012-0.012-0.037-0.179-0.074-0.501c-0.024-0.271-0.154-1.348-0.389-3.229
		c-0.025-0.21-0.057-0.498-0.094-0.863c-0.037-0.364-0.086-0.825-0.148-1.382l-0.24-2.709c-0.025,0.26-0.06,0.551-0.103,0.872
		c-0.044,0.322-0.09,0.675-0.14,1.058c-0.086,0.768-0.148,1.299-0.186,1.596s-0.062,0.477-0.074,0.538l-0.537,3.47l-0.779,4.49
		H307.194z"/>
	<path fill="#FBD200" d="M328.921,100.354l7.273,0.148c-0.52,2.203-1.53,3.86-3.033,4.974c-1.503,1.112-3.467,1.669-5.891,1.669
		c-2.875,0-5.13-0.855-6.768-2.567c-1.624-1.735-2.436-4.106-2.436-7.114c0-3.054,0.873-5.544,2.623-7.47
		c1.748-1.938,4.003-2.906,6.766-2.906c2.746,0,4.936,0.938,6.568,2.813c1.633,1.889,2.449,4.392,2.449,7.511l-0.037,1.272h-10.91
		c0.086,1.93,0.668,2.895,1.744,2.895C328.11,101.578,328.661,101.17,328.921,100.354z M324.71,84.527l2.021-6.03h6.012l-3.766,6.03
		H324.71z M329.069,94.472c0-0.266-0.043-0.509-0.129-0.729c-0.088-0.222-0.208-0.412-0.362-0.571
		c-0.155-0.159-0.337-0.285-0.548-0.378c-0.21-0.093-0.439-0.14-0.686-0.14c-0.52,0-0.941,0.171-1.262,0.511
		c-0.322,0.341-0.482,0.776-0.482,1.308H329.069z"/>
</g>
<g enable-background="new    ">
	<path fill="#FBD200" d="M348.235,107.145h-7.459V87.087h7.459l-0.389,3.915c1.125-2.932,2.986-4.397,5.584-4.397v8.35
		c-0.816-0.445-1.509-0.668-2.078-0.668c-1.002,0-1.771,0.362-2.31,1.085c-0.538,0.725-0.808,1.779-0.808,3.164V107.145z"/>
</g>
<g enable-background="new    ">
	<path fill="#FBD200" d="M374.032,97.419c0,2.969-0.865,5.332-2.594,7.09c-1.729,1.757-4.047,2.636-6.955,2.636
		c-2.856,0-5.131-0.896-6.822-2.689c-1.679-1.806-2.518-4.228-2.518-7.268c0-3.041,0.857-5.48,2.574-7.321
		c1.704-1.853,3.966-2.779,6.785-2.779c2.969,0,5.3,0.921,6.992,2.761C373.185,91.689,374.032,94.212,374.032,97.419z
		 M366.573,97.167c0-0.684-0.047-1.302-0.141-1.854s-0.227-1.026-0.402-1.42c-0.175-0.393-0.385-0.697-0.629-0.914
		c-0.246-0.217-0.52-0.325-0.822-0.325c-0.596,0-1.073,0.41-1.436,1.231c-0.361,0.718-0.541,1.795-0.541,3.23
		c0,1.414,0.18,2.491,0.541,3.231c0.362,0.821,0.846,1.231,1.453,1.231c0.57,0,1.043-0.404,1.416-1.214
		C366.385,99.464,366.573,98.399,366.573,97.167z"/>
	<path fill="#FBD200" d="M384.292,107.145h-7.625V75.843h7.439l0.02,11.374c0,0.928-0.037,1.992-0.111,3.191
		c0.68-1.212,1.366-2.071,2.059-2.579c0.718-0.494,1.621-0.742,2.709-0.742c2.029,0,3.6,0.896,4.713,2.689
		c1.113,1.781,1.67,4.294,1.67,7.535c0,3.1-0.574,5.511-1.725,7.232c-1.139,1.733-2.716,2.601-4.732,2.601
		c-0.977,0-1.806-0.086-2.486-0.26c-0.334-0.234-0.677-0.55-1.029-0.946c-0.353-0.396-0.709-0.891-1.066-1.484
		c0.012,0.235,0.023,0.437,0.037,0.603c0.012,0.168,0.023,0.307,0.037,0.418L384.292,107.145z M387.688,97.259
		c0-2.761-0.631-4.142-1.893-4.142c-1.113,0-1.67,1.303-1.67,3.909c0,2.726,0.574,4.088,1.725,4.088
		C387.075,101.115,387.688,99.829,387.688,97.259z"/>
	<path fill="#FBD200" d="M406.075,80.871c0,1.176-0.426,2.189-1.279,3.043c-0.879,0.842-1.899,1.262-3.062,1.262
		c-1.199,0-2.227-0.427-3.08-1.28c-0.841-0.878-1.262-1.904-1.262-3.08c0-1.199,0.421-2.22,1.262-3.062
		c0.879-0.841,1.898-1.262,3.062-1.262c1.225,0,2.257,0.427,3.098,1.28C405.655,78.615,406.075,79.647,406.075,80.871z
		 M405.444,107.145h-7.459V87.087h7.459V107.145z"/>
	<path fill="#FBD200" d="M419.083,100.711v6.313c-0.445,0.046-0.836,0.077-1.17,0.095c-0.334,0.017-0.611,0.025-0.834,0.025
		c-2.185,0-4.002-0.641-5.451-1.922c-0.982-0.866-1.779-2.053-2.391-3.56s-0.916-3.056-0.916-4.646c0-2.823,0.874-5.19,2.623-7.101
		c1.738-1.887,3.949-2.83,6.635-2.83c0.161,0,0.365,0.007,0.613,0.02c0.246,0.013,0.543,0.032,0.891,0.058v6.788
		c-2.203,0.137-3.303,1.243-3.303,3.319c0,0.936,0.271,1.757,0.816,2.464c0.557,0.674,1.218,1.01,1.984,1.01
		c0.074,0,0.152-0.003,0.232-0.009C418.893,100.732,418.983,100.723,419.083,100.711z"/>
	<path fill="#FBD200" d="M430.253,102.887c0,1.171-0.428,2.173-1.283,3.007c-0.831,0.834-1.848,1.251-3.05,1.251
		c-1.19,0-2.226-0.423-3.105-1.27c-0.854-0.859-1.282-1.898-1.282-3.119c0-1.195,0.421-2.216,1.264-3.062
		c0.844-0.847,1.859-1.27,3.05-1.27c1.228,0,2.269,0.436,3.124,1.308C429.825,100.59,430.253,101.642,430.253,102.887z"/>
</g>
<g enable-background="new    ">
	<path fill="#FFFFFF" d="M440.214,92.111c-0.618-0.418-1.151-0.864-1.599-1.339c-0.448-0.475-0.802-0.985-1.062-1.532
		c-0.488-1.03-0.732-2.502-0.732-4.416v-8.326c0-1.834-0.204-2.944-0.611-3.33c-0.391-0.402-1.521-0.604-3.393-0.604l-1.051,0.024
		l-0.561,0.024v-6.757l4.662-0.193c3.438,0.049,5.889,0.738,7.351,2.068c1.496,1.347,2.245,3.554,2.245,6.619v10.1
		c0,1.672,0.211,2.864,0.635,3.578c0.406,0.665,1.229,1.135,2.465,1.411v6.352c-1.155,0.243-1.969,0.682-2.441,1.313
		c-0.439,0.634-0.658,1.664-0.658,3.091v10.148c0,3.066-0.749,5.257-2.245,6.571c-1.462,1.33-3.92,1.995-7.374,1.995l-4.639-0.129
		v-7.195h1.709c1.807,0.032,2.904-0.16,3.295-0.579c0.407-0.386,0.611-1.488,0.611-3.307v-8.325c0-2.043,0.227-3.507,0.684-4.392
		C437.975,93.986,438.88,93.028,440.214,92.111z"/>
</g>
</svg>
