<?xml version="1.0" encoding="utf-8"?>
<!-- Generator: Adobe Illustrator 14.0.0, SVG Export Plug-In . SVG Version: 6.00 Build 43363)  -->
<!DOCTYPE svg PUBLIC "-//W3C//DTD SVG 1.1//EN" "http://www.w3.org/Graphics/SVG/1.1/DTD/svg11.dtd">
<svg version="1.1" id="Calque_1" xmlns="http://www.w3.org/2000/svg" xmlns:xlink="http://www.w3.org/1999/xlink" x="0px" y="0px"
	 width="628.914px" height="116.305px" viewBox="0 0 628.914 116.305" enable-background="new 0 0 628.914 116.305"
	 xml:space="preserve">
<g enable-background="new    ">
	<path fill="#FFFFFF" d="M14.546,38.416c0,1.54-0.562,2.859-1.688,3.956c-1.093,1.098-2.431,1.646-4.013,1.646
		c-1.566,0-2.928-0.557-4.086-1.671c-1.125-1.13-1.688-2.498-1.688-4.104c0-1.572,0.554-2.915,1.664-4.029s2.447-1.671,4.013-1.671
		c1.614,0,2.985,0.573,4.11,1.72C13.983,35.395,14.546,36.779,14.546,38.416z"/>
</g>
<g enable-background="new    ">
	<path fill="#FFFFFF" d="M40.058,32.501c0,3.516-1.024,6.314-3.071,8.396c-2.048,2.081-4.793,3.122-8.235,3.122
		c-3.383,0-6.076-1.062-8.079-3.186c-1.988-2.138-2.982-5.006-2.982-8.606c0-3.6,1.016-6.489,3.049-8.67
		c2.018-2.193,4.696-3.29,8.035-3.29c3.516,0,6.276,1.09,8.279,3.27S40.058,28.704,40.058,32.501z M31.225,32.203
		c0-0.81-0.055-1.542-0.166-2.196c-0.11-0.655-0.269-1.215-0.476-1.681c-0.208-0.466-0.456-0.827-0.746-1.083
		c-0.29-0.257-0.615-0.385-0.974-0.385c-0.705,0-1.271,0.485-1.699,1.457c-0.428,0.851-0.642,2.126-0.642,3.827
		c0,1.674,0.214,2.949,0.642,3.826c0.428,0.973,1.001,1.458,1.719,1.458c0.677,0,1.236-0.479,1.678-1.438
		C31.004,34.923,31.225,33.661,31.225,32.203z"/>
	<path fill="#FFFFFF" d="M65.019,44.019h-8.833V31.45c0-1.084-0.136-1.838-0.407-2.264c-0.271-0.424-0.742-0.637-1.415-0.637
		c-1.569,0-2.354,1.164-2.354,3.494v11.975h-8.833V20.267h8.833c-0.015,0.586-0.029,1.128-0.044,1.625
		c-0.015,0.499-0.037,0.96-0.066,1.385l-0.088,1.516c1.519-3.017,3.753-4.525,6.702-4.525c2.05,0,3.642,0.695,4.777,2.087
		c1.151,1.391,1.727,3.327,1.727,5.809V44.019z"/>
	<path fill="#FFFFFF" d="M80.312,35.977l8.613,0.176c-0.615,2.608-1.813,4.571-3.592,5.89c-1.78,1.317-4.105,1.977-6.977,1.977
		c-3.404,0-6.074-1.014-8.013-3.04c-1.924-2.056-2.886-4.863-2.886-8.425c0-3.617,1.035-6.565,3.106-8.846
		c2.07-2.295,4.741-3.441,8.012-3.441c3.252,0,5.845,1.11,7.778,3.332c1.934,2.235,2.9,5.2,2.9,8.894l-0.044,1.507h-12.92
		c0.103,2.285,0.791,3.428,2.065,3.428C79.353,37.427,80.005,36.944,80.312,35.977z M80.488,29.011c0-0.313-0.051-0.602-0.154-0.863
		c-0.103-0.263-0.246-0.487-0.429-0.677c-0.183-0.188-0.399-0.338-0.648-0.447c-0.249-0.11-0.52-0.165-0.813-0.165
		c-0.615,0-1.113,0.201-1.494,0.604s-0.571,0.92-0.571,1.548H80.488z"/>
</g>
<g enable-background="new    ">
	<path fill="#FFFFFF" d="M104.812,44.019H95.65V18.223h-5.054v-8.13h19.468v8.13h-5.251V44.019z"/>
</g>
<g enable-background="new    ">
	<path fill="#FFFFFF" d="M138.309,44.019h-8.723l-1.802-14.238l-2.725,14.238h-8.635l-5.911-23.752h8.657l1.34,7.624
		c0.161,0.967,0.319,1.999,0.472,3.099c0.154,1.098,0.297,2.292,0.429,3.581c0.117-1.333,0.274-2.611,0.473-3.834
		c0.197-1.224,0.421-2.406,0.67-3.549l1.56-6.921h7.515l1.274,7.646c0.161,0.981,0.308,2.024,0.439,3.131
		c0.132,1.105,0.256,2.281,0.374,3.526c0.234-1.685,0.469-3.219,0.703-4.604c0.234-1.384,0.476-2.654,0.725-3.812l1.274-5.889h8.811
		L138.309,44.019z"/>
</g>
<g enable-background="new    ">
	<path fill="#FFFFFF" d="M168.555,32.501c0,3.516-1.024,6.314-3.071,8.396c-2.048,2.081-4.793,3.122-8.235,3.122
		c-3.383,0-6.076-1.062-8.079-3.186c-1.988-2.138-2.982-5.006-2.982-8.606c0-3.6,1.016-6.489,3.049-8.67
		c2.018-2.193,4.696-3.29,8.035-3.29c3.516,0,6.276,1.09,8.279,3.27S168.555,28.704,168.555,32.501z M159.722,32.203
		c0-0.81-0.055-1.542-0.166-2.196c-0.11-0.655-0.269-1.215-0.476-1.681c-0.208-0.466-0.456-0.827-0.746-1.083
		c-0.29-0.257-0.615-0.385-0.974-0.385c-0.705,0-1.271,0.485-1.699,1.457c-0.428,0.851-0.642,2.126-0.642,3.827
		c0,1.674,0.214,2.949,0.642,3.826c0.428,0.973,1.001,1.458,1.719,1.458c0.677,0,1.236-0.479,1.678-1.438
		C159.501,34.923,159.722,33.661,159.722,32.203z"/>
	<path fill="#FFFFFF" d="M181.168,44.019h-9.163V10.093h16.194v8.13h-7.031v4.329h6.548v8.129h-6.548V44.019z"/>
</g>
<g enable-background="new    ">
	<path fill="#FFFFFF" d="M200.262,44.019h-8.833V20.267h8.833l-0.461,4.636c1.333-3.472,3.538-5.208,6.614-5.208v9.889
		c-0.967-0.527-1.787-0.791-2.461-0.791c-1.187,0-2.098,0.428-2.736,1.285c-0.637,0.856-0.956,2.105-0.956,3.746V44.019z"/>
</g>
<g enable-background="new    ">
	<path fill="#FFFFFF" d="M221.429,35.977l8.613,0.176c-0.615,2.608-1.813,4.571-3.592,5.89c-1.78,1.317-4.105,1.977-6.977,1.977
		c-3.404,0-6.074-1.014-8.013-3.04c-1.924-2.056-2.886-4.863-2.886-8.425c0-3.617,1.035-6.565,3.106-8.846
		c2.07-2.295,4.741-3.441,8.012-3.441c3.252,0,5.845,1.11,7.778,3.332c1.934,2.235,2.9,5.2,2.9,8.894l-0.044,1.507h-12.92
		c0.103,2.285,0.791,3.428,2.065,3.428C220.469,37.427,221.121,36.944,221.429,35.977z M221.605,29.011
		c0-0.313-0.051-0.602-0.154-0.863c-0.103-0.263-0.246-0.487-0.429-0.677c-0.183-0.188-0.399-0.338-0.648-0.447
		c-0.249-0.11-0.52-0.165-0.813-0.165c-0.615,0-1.113,0.201-1.494,0.604s-0.571,0.92-0.571,1.548H221.605z"/>
	<path fill="#FFFFFF" d="M245.928,35.977l8.613,0.176c-0.615,2.608-1.813,4.571-3.592,5.89c-1.78,1.317-4.105,1.977-6.977,1.977
		c-3.404,0-6.074-1.014-8.013-3.04c-1.924-2.056-2.886-4.863-2.886-8.425c0-3.617,1.035-6.565,3.106-8.846
		c2.07-2.295,4.741-3.441,8.012-3.441c3.252,0,5.845,1.11,7.778,3.332c1.934,2.235,2.9,5.2,2.9,8.894l-0.044,1.507h-12.92
		c0.103,2.285,0.791,3.428,2.065,3.428C244.969,37.427,245.621,36.944,245.928,35.977z M246.104,29.011
		c0-0.313-0.051-0.602-0.154-0.863c-0.103-0.263-0.246-0.487-0.429-0.677c-0.183-0.188-0.399-0.338-0.648-0.447
		c-0.249-0.11-0.52-0.165-0.813-0.165c-0.615,0-1.113,0.201-1.494,0.604s-0.571,0.92-0.571,1.548H246.104z"/>
</g>
<g enable-background="new    ">
	<path fill="#FFFFFF" d="M266.877,29.194c0.618,0.421,1.151,0.87,1.599,1.348c0.447,0.478,0.801,0.992,1.062,1.542
		c0.504,0.988,0.757,2.47,0.757,4.444v8.354c0,1.846,0.195,2.963,0.586,3.352c0.407,0.404,1.546,0.607,3.418,0.607l1.025-0.024
		l0.586-0.024v6.8l-4.663,0.194c-3.153-0.049-5.382-0.742-6.687-2.08c-1.32-1.354-1.98-3.572-1.98-6.655l-0.464-10.131
		c0-1.68-0.212-2.879-0.635-3.597c-0.407-0.669-1.229-1.142-2.466-1.42v-6.387c1.172-0.244,1.978-0.685,2.417-1.321
		c0.456-0.604,0.684-1.639,0.684-3.107V10.86c0-3.083,0.739-5.285,2.219-6.606c1.462-1.338,3.92-2.007,7.376-2.007l4.663,0.129
		v7.195h-1.709c-1.807-0.016-2.914,0.178-3.32,0.583c-0.391,0.389-0.586,1.497-0.586,3.327v8.402c-0.31,1.83-0.7,3.304-1.172,4.42
		C269.115,27.308,268.212,28.271,266.877,29.194z"/>
</g>
<g enable-background="new    ">
	<path fill="#FBD200" d="M278.891,44.019V15.37h14.38v6.865h-6.643v3.655h5.956v6.865h-5.956v4.397h6.643v6.865H278.891z"/>
	<path fill="#FBD200" d="M314.738,44.019h-7.458V33.406c0-0.915-0.115-1.552-0.343-1.911c-0.229-0.358-0.627-0.538-1.195-0.538
		c-1.325,0-1.987,0.983-1.987,2.95v10.112h-7.459V23.961h7.459c-0.013,0.495-0.025,0.953-0.037,1.373
		c-0.013,0.421-0.031,0.811-0.056,1.169l-0.074,1.28c1.283-2.548,3.169-3.822,5.659-3.822c1.731,0,3.075,0.588,4.035,1.763
		c0.971,1.175,1.457,2.81,1.457,4.905V44.019z"/>
</g>
<g enable-background="new    ">
	<path fill="#FBD200" d="M337.115,44.019h-7.459V29.991h-2.152v-6.03h2.152v-3.692c0-2.585,0.561-4.546,1.684-5.882
		c1.122-1.336,2.768-2.004,4.938-2.004c1.077,0,2.247,0.174,3.509,0.52v6.902c-0.656-0.47-1.163-0.705-1.521-0.705
		c-0.768,0-1.15,0.687-1.15,2.06v2.802h2.672v6.03h-2.672V44.019z"/>
</g>
<g enable-background="new    ">
	<path fill="#FBD200" d="M359.871,44.019h-7.429c0.062-0.668,0.11-1.305,0.147-1.911c0.037-0.605,0.074-1.095,0.111-1.466
		c-1.281,2.252-3,3.377-5.156,3.377c-1.873,0-3.357-0.902-4.453-2.708c-1.084-1.793-1.627-4.274-1.627-7.445
		c0-3.064,0.562-5.475,1.689-7.232c1.125-1.781,2.658-2.672,4.602-2.672c1.99,0,3.6,1.058,4.824,3.173
		c-0.025-0.247-0.044-0.464-0.057-0.649c-0.012-0.186-0.024-0.34-0.037-0.464l-0.074-1.169l-0.055-0.891h7.514V44.019z
		 M352.412,33.775c0-0.688-0.027-1.272-0.084-1.754s-0.146-0.874-0.271-1.178c-0.125-0.305-0.288-0.521-0.488-0.654
		c-0.199-0.131-0.443-0.197-0.73-0.197c-1.275,0-1.914,1.554-1.914,4.661c0,2.224,0.569,3.336,1.707,3.336
		C351.818,37.989,352.412,36.584,352.412,33.775z"/>
	<path fill="#FBD200" d="M371.449,17.745c0,1.176-0.426,2.189-1.279,3.043c-0.879,0.842-1.899,1.262-3.062,1.262
		c-1.199,0-2.227-0.427-3.08-1.28c-0.841-0.878-1.262-1.904-1.262-3.08c0-1.199,0.421-2.22,1.262-3.062
		c0.879-0.841,1.898-1.262,3.062-1.262c1.225,0,2.257,0.427,3.098,1.28C371.029,15.489,371.449,16.521,371.449,17.745z
		 M370.818,44.019h-7.459V23.961h7.459V44.019z"/>
	<path fill="#FBD200" d="M382.73,44.019h-7.459V29.991h-2.115v-6.03h2.115v-5.9h7.459v5.9h2.469v6.03h-2.469V44.019z"/>
	<path fill="#FBD200" d="M416.945,34.293c0,2.969-0.864,5.332-2.594,7.09c-1.729,1.757-4.047,2.636-6.953,2.636
		c-2.857,0-5.131-0.896-6.822-2.689c-1.68-1.806-2.52-4.228-2.52-7.268c0-3.041,0.859-5.48,2.575-7.321
		c1.704-1.853,3.966-2.779,6.785-2.779c2.97,0,5.3,0.921,6.991,2.761C416.099,28.563,416.945,31.086,416.945,34.293z
		 M409.486,34.041c0-0.684-0.047-1.302-0.14-1.854s-0.228-1.026-0.401-1.42c-0.176-0.393-0.386-0.697-0.631-0.914
		c-0.244-0.217-0.519-0.325-0.822-0.325c-0.594,0-1.072,0.41-1.434,1.231c-0.361,0.718-0.543,1.795-0.543,3.23
		c0,1.414,0.182,2.491,0.543,3.231c0.361,0.821,0.846,1.231,1.451,1.231c0.572,0,1.044-0.404,1.417-1.214
		C409.301,36.338,409.486,35.273,409.486,34.041z"/>
	<path fill="#FBD200" d="M438.023,44.019h-7.459V33.406c0-0.915-0.114-1.552-0.343-1.911c-0.229-0.358-0.627-0.538-1.194-0.538
		c-1.325,0-1.988,0.983-1.988,2.95v10.112h-7.459V23.961h7.459c-0.012,0.495-0.024,0.953-0.037,1.373
		c-0.012,0.421-0.031,0.811-0.055,1.169l-0.074,1.28c1.282-2.548,3.169-3.822,5.658-3.822c1.731,0,3.076,0.588,4.035,1.763
		c0.971,1.175,1.457,2.81,1.457,4.905V44.019z"/>
	<path fill="#FBD200" d="M462.367,37.228l7.273,0.148c-0.52,2.203-1.53,3.86-3.033,4.974c-1.503,1.112-3.467,1.669-5.891,1.669
		c-2.875,0-5.13-0.855-6.768-2.567c-1.624-1.735-2.436-4.106-2.436-7.114c0-3.054,0.873-5.544,2.623-7.47
		c1.748-1.938,4.003-2.906,6.766-2.906c2.746,0,4.936,0.938,6.568,2.813c1.633,1.889,2.449,4.392,2.449,7.511l-0.037,1.272h-10.91
		c0.086,1.93,0.668,2.895,1.744,2.895C461.556,38.452,462.107,38.044,462.367,37.228z M462.515,31.346
		c0-0.266-0.043-0.509-0.129-0.729c-0.088-0.222-0.208-0.412-0.362-0.571c-0.155-0.159-0.337-0.285-0.548-0.378
		c-0.21-0.093-0.439-0.14-0.686-0.14c-0.52,0-0.941,0.171-1.262,0.511c-0.322,0.341-0.482,0.776-0.482,1.308H462.515z"/>
</g>
<g enable-background="new    ">
	<path fill="#FBD200" d="M472.052,41.946l2.709-5.59c1.336,1.398,2.58,2.097,3.73,2.097c0.965,0,1.447-0.327,1.447-0.98
		c0-0.56-0.65-1.062-1.949-1.505c-3.5-1.166-5.25-3.016-5.25-5.548c0-1.855,0.783-3.396,2.35-4.62
		c1.578-1.226,3.547-1.838,5.906-1.838c1.93,0,3.922,0.571,5.975,1.713l-2.541,5.616c-1.25-1.175-2.271-1.763-3.062-1.763
		c-0.779,0-1.168,0.293-1.168,0.88c0,0.633,0.756,1.225,2.268,1.777c1.889,0.679,3.174,1.396,3.854,2.156
		c0.719,0.759,1.078,1.806,1.078,3.14c0,1.921-0.766,3.49-2.297,4.71c-1.531,1.219-3.493,1.828-5.887,1.828
		c-1.125,0-2.244-0.144-3.357-0.43c-0.52-0.137-1.09-0.346-1.707-0.626C473.531,42.684,472.832,42.344,472.052,41.946z"/>
</g>
<g enable-background="new    ">
	<path fill="#FBD200" d="M498.463,44.019h-7.459V29.991h-2.115v-6.03h2.115v-5.9h7.459v5.9h2.468v6.03h-2.468V44.019z"/>
</g>
<g enable-background="new    ">
	<path fill="#FBD200" d="M524.736,52.962v-8.749v-0.992c0-0.433,0-0.819,0-1.159c0-0.341,0-0.733,0-1.179
		c-1.348,2.091-2.926,3.136-4.73,3.136c-1.955,0-3.508-0.896-4.658-2.689c-1.15-1.794-1.725-4.228-1.725-7.304
		c0-3.028,0.6-5.457,1.799-7.285c1.2-1.853,2.771-2.779,4.713-2.779c0.52,0,0.993,0,1.42,0s0.826,0.118,1.197,0.353
		c0.371,0.235,0.717,0.56,1.039,0.975c0.32,0.414,0.637,0.918,0.945,1.512v-2.839h7.459v29.001H524.736z M521.267,33.807
		c0,2.788,0.6,4.182,1.799,4.182c1.113,0,1.67-1.342,1.67-4.024c0-2.648-0.574-3.973-1.725-3.973c-0.533,0-0.956,0.337-1.271,1.011
		S521.267,32.611,521.267,33.807z"/>
</g>
<g enable-background="new    ">
	<path fill="#FBD200" d="M536.16,23.961h7.459v11.3c0,1.076,0.104,1.862,0.314,2.356c0.223,0.408,0.644,0.612,1.262,0.612
		c0.606,0,1.015-0.204,1.225-0.612c0.223-0.408,0.334-1.193,0.334-2.356v-11.3h7.459v12.057c0,0.8-0.064,1.524-0.195,2.173
		c-0.13,0.648-0.334,1.236-0.613,1.764s-0.639,1.01-1.078,1.446c-0.44,0.437-0.964,0.836-1.571,1.2
		c-1.636,0.945-3.489,1.418-5.56,1.418c-2.094,0-3.947-0.473-5.559-1.418c-0.62-0.364-1.15-0.761-1.59-1.191
		c-0.44-0.431-0.799-0.912-1.078-1.445c-0.279-0.534-0.484-1.125-0.613-1.773c-0.131-0.648-0.195-1.373-0.195-2.173V23.961z"/>
	<path fill="#FBD200" d="M575.459,44.019h-7.43c0.062-0.668,0.111-1.305,0.148-1.911c0.036-0.605,0.073-1.095,0.11-1.466
		c-1.281,2.252-3,3.377-5.155,3.377c-1.873,0-3.357-0.902-4.455-2.708c-1.084-1.793-1.625-4.274-1.625-7.445
		c0-3.064,0.562-5.475,1.688-7.232c1.126-1.781,2.66-2.672,4.602-2.672c1.992,0,3.6,1.058,4.824,3.173
		c-0.024-0.247-0.043-0.464-0.055-0.649c-0.014-0.186-0.025-0.34-0.037-0.464L568,24.852l-0.057-0.891h7.516V44.019z M568,33.775
		c0-0.688-0.029-1.272-0.085-1.754s-0.147-0.874-0.272-1.178c-0.125-0.305-0.287-0.521-0.486-0.654
		c-0.201-0.131-0.444-0.197-0.732-0.197c-1.275,0-1.912,1.554-1.912,4.661c0,2.224,0.568,3.336,1.706,3.336
		C567.405,37.989,568,36.584,568,33.775z"/>
	<path fill="#FBD200" d="M587.426,44.019h-7.459V29.991h-2.115v-6.03h2.115v-5.9h7.459v5.9h2.469v6.03h-2.469V44.019z"/>
</g>
<g enable-background="new    ">
	<path fill="#FBD200" d="M599.357,44.019h-7.459V23.961h7.459l-0.391,3.915c1.126-2.932,2.988-4.397,5.586-4.397v8.35
		c-0.816-0.445-1.51-0.668-2.078-0.668c-1.002,0-1.772,0.362-2.311,1.085c-0.538,0.725-0.807,1.779-0.807,3.164V44.019z"/>
</g>
<g enable-background="new    ">
	<path fill="#FBD200" d="M617.232,37.228l7.273,0.148c-0.52,2.203-1.531,3.86-3.034,4.974c-1.503,1.112-3.467,1.669-5.892,1.669
		c-2.873,0-5.129-0.855-6.766-2.567c-1.625-1.735-2.438-4.106-2.438-7.114c0-3.054,0.875-5.544,2.623-7.47
		c1.748-1.938,4.004-2.906,6.766-2.906c2.746,0,4.936,0.938,6.568,2.813c1.633,1.889,2.449,4.392,2.449,7.511l-0.037,1.272h-10.91
		c0.087,1.93,0.668,2.895,1.744,2.895C616.422,38.452,616.972,38.044,617.232,37.228z M617.381,31.346
		c0-0.266-0.044-0.509-0.131-0.729c-0.086-0.222-0.207-0.412-0.361-0.571s-0.338-0.285-0.547-0.378
		c-0.211-0.093-0.439-0.14-0.688-0.14c-0.52,0-0.939,0.171-1.262,0.511c-0.321,0.341-0.482,0.776-0.482,1.308H617.381z"/>
</g>
<g enable-background="new    ">
	<path fill="#FBD200" d="M44.231,97.588v6.313c-0.445,0.046-0.835,0.077-1.169,0.095c-0.334,0.017-0.612,0.025-0.835,0.025
		c-2.184,0-4.001-0.641-5.451-1.922c-0.982-0.866-1.779-2.053-2.391-3.56c-0.611-1.507-0.917-3.056-0.917-4.646
		c0-2.823,0.875-5.19,2.624-7.101c1.737-1.887,3.949-2.83,6.635-2.83c0.161,0,0.365,0.007,0.612,0.02
		c0.247,0.013,0.544,0.032,0.891,0.058v6.788c-2.202,0.137-3.303,1.243-3.303,3.319c0,0.936,0.272,1.757,0.816,2.464
		c0.557,0.674,1.218,1.01,1.985,1.01c0.074,0,0.151-0.003,0.232-0.009C44.042,97.609,44.132,97.6,44.231,97.588z"/>
	<path fill="#FBD200" d="M65.365,94.296c0,2.969-0.865,5.332-2.594,7.09c-1.729,1.757-4.047,2.636-6.954,2.636
		c-2.857,0-5.131-0.896-6.822-2.689c-1.679-1.806-2.519-4.228-2.519-7.268c0-3.041,0.858-5.48,2.575-7.321
		c1.704-1.853,3.966-2.779,6.785-2.779c2.969,0,5.3,0.921,6.992,2.761C64.519,88.566,65.365,91.089,65.365,94.296z M57.906,94.044
		c0-0.684-0.047-1.302-0.14-1.854s-0.227-1.026-0.402-1.42c-0.175-0.393-0.385-0.697-0.63-0.914
		c-0.245-0.217-0.519-0.325-0.822-0.325c-0.595,0-1.073,0.41-1.435,1.231c-0.361,0.718-0.542,1.795-0.542,3.23
		c0,1.414,0.181,2.491,0.542,3.231c0.362,0.821,0.846,1.231,1.452,1.231c0.571,0,1.043-0.404,1.417-1.214
		C57.719,96.341,57.906,95.276,57.906,94.044z"/>
	<path fill="#FBD200" d="M96.129,104.022H88.67V92.666c0-1.273-0.377-1.911-1.132-1.911c-1.126,0-1.688,1.039-1.688,3.117v10.149
		H78.39V92.945c0-1.36-0.421-2.041-1.262-2.041c-0.606,0-1.036,0.231-1.29,0.696c-0.254,0.463-0.38,1.277-0.38,2.439v9.982H68
		V83.964h7.459v1.039c0,0.816-0.037,1.584-0.111,2.301c1.326-2.227,3.054-3.34,5.186-3.34c2.392,0,4.164,1.386,5.316,4.156
		c1.004-2.771,2.664-4.156,4.981-4.156c1.747,0,3.11,0.624,4.089,1.871c0.806,1.042,1.208,2.61,1.208,4.706V104.022z"/>
	<path fill="#FBD200" d="M127.653,104.022h-7.459V92.666c0-1.273-0.377-1.911-1.132-1.911c-1.126,0-1.688,1.039-1.688,3.117v10.149
		h-7.459V92.945c0-1.36-0.421-2.041-1.262-2.041c-0.606,0-1.036,0.231-1.29,0.696c-0.254,0.463-0.38,1.277-0.38,2.439v9.982h-7.459
		V83.964h7.459v1.039c0,0.816-0.037,1.584-0.111,2.301c1.326-2.227,3.054-3.34,5.186-3.34c2.392,0,4.164,1.386,5.316,4.156
		c1.004-2.771,2.664-4.156,4.981-4.156c1.747,0,3.11,0.624,4.089,1.871c0.806,1.042,1.208,2.61,1.208,4.706V104.022z"/>
	<path fill="#FBD200" d="M141.328,97.231l7.273,0.148c-0.52,2.203-1.531,3.86-3.034,4.974c-1.503,1.112-3.467,1.669-5.891,1.669
		c-2.874,0-5.129-0.855-6.767-2.567c-1.625-1.735-2.437-4.106-2.437-7.114c0-3.054,0.874-5.544,2.623-7.47
		c1.748-1.938,4.003-2.906,6.766-2.906c2.746,0,4.936,0.938,6.568,2.813c1.633,1.889,2.449,4.392,2.449,7.511l-0.037,1.272h-10.91
		c0.086,1.93,0.668,2.895,1.744,2.895C140.517,98.455,141.068,98.047,141.328,97.231z M141.476,91.349
		c0-0.266-0.043-0.509-0.13-0.729c-0.087-0.222-0.208-0.412-0.362-0.571c-0.155-0.159-0.337-0.285-0.547-0.378
		c-0.21-0.093-0.439-0.14-0.687-0.14c-0.52,0-0.94,0.171-1.262,0.511c-0.322,0.341-0.482,0.776-0.482,1.308H141.476z"/>
	<path fill="#FBD200" d="M170.626,104.022h-7.459V72.72h7.459V104.022z"/>
	<path fill="#FBD200" d="M184.338,97.231l7.273,0.148c-0.52,2.203-1.531,3.86-3.034,4.974c-1.503,1.112-3.467,1.669-5.891,1.669
		c-2.874,0-5.129-0.855-6.767-2.567c-1.625-1.735-2.437-4.106-2.437-7.114c0-3.054,0.874-5.544,2.623-7.47
		c1.748-1.938,4.003-2.906,6.766-2.906c2.746,0,4.936,0.938,6.568,2.813c1.633,1.889,2.449,4.392,2.449,7.511l-0.037,1.272h-10.91
		c0.086,1.93,0.668,2.895,1.744,2.895C183.527,98.455,184.078,98.047,184.338,97.231z M184.486,91.349
		c0-0.266-0.043-0.509-0.13-0.729c-0.087-0.222-0.208-0.412-0.362-0.571c-0.155-0.159-0.337-0.285-0.547-0.378
		c-0.21-0.093-0.439-0.14-0.687-0.14c-0.52,0-0.94,0.171-1.262,0.511c-0.322,0.341-0.482,0.776-0.482,1.308H184.486z"/>
	<path fill="#FBD200" d="M194.023,101.948l2.709-5.59c1.336,1.398,2.579,2.097,3.729,2.097c0.965,0,1.447-0.327,1.447-0.98
		c0-0.56-0.649-1.062-1.948-1.505c-3.501-1.166-5.251-3.016-5.251-5.548c0-1.855,0.783-3.396,2.35-4.62
		c1.579-1.226,3.548-1.838,5.907-1.838c1.93,0,3.921,0.571,5.975,1.713l-2.542,5.616c-1.25-1.175-2.27-1.763-3.062-1.763
		c-0.779,0-1.169,0.293-1.169,0.88c0,0.633,0.756,1.225,2.268,1.777c1.889,0.679,3.174,1.396,3.854,2.156
		c0.718,0.759,1.077,1.806,1.077,3.14c0,1.921-0.766,3.49-2.297,4.71c-1.531,1.219-3.493,1.828-5.886,1.828
		c-1.126,0-2.245-0.144-3.358-0.43c-0.52-0.137-1.089-0.346-1.707-0.626C195.501,102.687,194.802,102.347,194.023,101.948z"/>
	<path fill="#FBD200" d="M231.596,104.022h-7.459V89.994h-2.115v-6.03h2.115v-5.9h7.459v5.9h2.468v6.03h-2.468V104.022z"/>
</g>
<g enable-background="new    ">
	<path fill="#FBD200" d="M243.527,104.022h-7.459V83.964h7.459l-0.39,3.915c1.125-2.932,2.987-4.397,5.585-4.397v8.35
		c-0.816-0.445-1.509-0.668-2.078-0.668c-1.002,0-1.772,0.362-2.31,1.085c-0.538,0.725-0.807,1.779-0.807,3.164V104.022z"/>
</g>
<g enable-background="new    ">
	<path fill="#FBD200" d="M269.436,94.296c0,2.969-0.865,5.332-2.594,7.09c-1.729,1.757-4.047,2.636-6.954,2.636
		c-2.857,0-5.131-0.896-6.822-2.689c-1.679-1.806-2.519-4.228-2.519-7.268c0-3.041,0.858-5.48,2.575-7.321
		c1.704-1.853,3.966-2.779,6.785-2.779c2.969,0,5.3,0.921,6.992,2.761C268.59,88.566,269.436,91.089,269.436,94.296z
		 M261.977,94.044c0-0.684-0.047-1.302-0.14-1.854s-0.227-1.026-0.402-1.42c-0.175-0.393-0.385-0.697-0.63-0.914
		c-0.245-0.217-0.519-0.325-0.822-0.325c-0.595,0-1.073,0.41-1.435,1.231c-0.361,0.718-0.542,1.795-0.542,3.23
		c0,1.414,0.181,2.491,0.542,3.231c0.362,0.821,0.846,1.231,1.452,1.231c0.571,0,1.043-0.404,1.417-1.214
		C261.791,96.341,261.977,95.276,261.977,94.044z"/>
	<path fill="#FBD200" d="M280.142,77.748c0,1.176-0.427,2.189-1.28,3.043c-0.878,0.842-1.899,1.262-3.062,1.262
		c-1.2,0-2.227-0.427-3.08-1.28c-0.841-0.878-1.262-1.904-1.262-3.08c0-1.199,0.42-2.22,1.262-3.062
		c0.878-0.841,1.898-1.262,3.062-1.262c1.225,0,2.257,0.427,3.099,1.28C279.721,75.491,280.142,76.524,280.142,77.748z
		 M279.511,104.022h-7.459V83.964h7.459V104.022z"/>
	<path fill="#FBD200" d="M282.239,101.948l2.709-5.59c1.336,1.398,2.579,2.097,3.729,2.097c0.965,0,1.447-0.327,1.447-0.98
		c0-0.56-0.649-1.062-1.948-1.505c-3.501-1.166-5.251-3.016-5.251-5.548c0-1.855,0.783-3.396,2.35-4.62
		c1.579-1.226,3.548-1.838,5.907-1.838c1.93,0,3.921,0.571,5.975,1.713l-2.542,5.616c-1.25-1.175-2.27-1.763-3.062-1.763
		c-0.779,0-1.169,0.293-1.169,0.88c0,0.633,0.756,1.225,2.268,1.777c1.889,0.679,3.174,1.396,3.854,2.156
		c0.718,0.759,1.077,1.806,1.077,3.14c0,1.921-0.766,3.49-2.297,4.71c-1.531,1.219-3.493,1.828-5.886,1.828
		c-1.126,0-2.245-0.144-3.358-0.43c-0.52-0.137-1.089-0.346-1.707-0.626C283.717,102.687,283.018,102.347,282.239,101.948z"/>
	<path fill="#FBD200" d="M339.48,104.022h-7.459V92.666c0-1.273-0.377-1.911-1.132-1.911c-1.126,0-1.688,1.039-1.688,3.117v10.149
		h-7.459V92.945c0-1.36-0.421-2.041-1.262-2.041c-0.606,0-1.036,0.231-1.289,0.696c-0.254,0.463-0.381,1.277-0.381,2.439v9.982
		h-7.459V83.964h7.459v1.039c0,0.816-0.037,1.584-0.111,2.301c1.326-2.227,3.055-3.34,5.186-3.34c2.392,0,4.164,1.386,5.316,4.156
		c1.004-2.771,2.664-4.156,4.981-4.156c1.747,0,3.11,0.624,4.089,1.871c0.807,1.042,1.209,2.61,1.209,4.706V104.022z"/>
	<path fill="#FBD200" d="M361.189,94.296c0,2.969-0.865,5.332-2.594,7.09c-1.729,1.757-4.047,2.636-6.954,2.636
		c-2.856,0-5.131-0.896-6.822-2.689c-1.679-1.806-2.519-4.228-2.519-7.268c0-3.041,0.858-5.48,2.574-7.321
		c1.705-1.853,3.967-2.779,6.785-2.779c2.97,0,5.301,0.921,6.992,2.761C360.344,88.566,361.189,91.089,361.189,94.296z
		 M353.73,94.044c0-0.684-0.047-1.302-0.141-1.854c-0.093-0.553-0.227-1.026-0.401-1.42c-0.175-0.393-0.386-0.697-0.63-0.914
		c-0.245-0.217-0.52-0.325-0.822-0.325c-0.595,0-1.072,0.41-1.435,1.231c-0.361,0.718-0.542,1.795-0.542,3.23
		c0,1.414,0.181,2.491,0.542,3.231c0.362,0.821,0.846,1.231,1.452,1.231c0.571,0,1.043-0.404,1.416-1.214
		C353.544,96.341,353.73,95.276,353.73,94.044z"/>
	<path fill="#FBD200" d="M363.824,83.964h7.459v11.3c0,1.076,0.105,1.862,0.315,2.356c0.223,0.408,0.644,0.612,1.262,0.612
		c0.606,0,1.015-0.204,1.225-0.612c0.223-0.408,0.334-1.193,0.334-2.356v-11.3h7.459v12.057c0,0.8-0.065,1.524-0.195,2.173
		s-0.335,1.236-0.614,1.764c-0.278,0.527-0.638,1.01-1.078,1.446c-0.439,0.437-0.963,0.836-1.57,1.2
		c-1.637,0.945-3.49,1.418-5.56,1.418c-2.095,0-3.948-0.473-5.56-1.418c-0.619-0.364-1.149-0.761-1.59-1.191
		c-0.439-0.431-0.799-0.912-1.078-1.445c-0.279-0.534-0.483-1.125-0.613-1.773c-0.131-0.648-0.195-1.373-0.195-2.173V83.964z"/>
	<path fill="#FBD200" d="M384.568,101.948l2.709-5.59c1.336,1.398,2.579,2.097,3.729,2.097c0.965,0,1.447-0.327,1.447-0.98
		c0-0.56-0.649-1.062-1.948-1.505c-3.501-1.166-5.251-3.016-5.251-5.548c0-1.855,0.783-3.396,2.35-4.62
		c1.579-1.226,3.548-1.838,5.907-1.838c1.93,0,3.921,0.571,5.975,1.713l-2.542,5.616c-1.249-1.175-2.271-1.763-3.062-1.763
		c-0.779,0-1.169,0.293-1.169,0.88c0,0.633,0.756,1.225,2.268,1.777c1.89,0.679,3.175,1.396,3.854,2.156
		c0.718,0.759,1.077,1.806,1.077,3.14c0,1.921-0.766,3.49-2.297,4.71c-1.53,1.219-3.493,1.828-5.886,1.828
		c-1.126,0-2.245-0.144-3.358-0.43c-0.52-0.137-1.089-0.346-1.707-0.626C386.047,102.687,385.347,102.347,384.568,101.948z"/>
</g>
<g enable-background="new    ">
	<path fill="#FBD200" d="M412.622,112.965v-8.749v-0.992c0-0.433,0-0.819,0-1.159c0-0.341,0-0.733,0-1.179
		c-1.349,2.091-2.926,3.136-4.731,3.136c-1.955,0-3.507-0.896-4.657-2.689c-1.15-1.794-1.726-4.228-1.726-7.304
		c0-3.028,0.6-5.457,1.8-7.285c1.2-1.853,2.771-2.779,4.713-2.779c0.52,0,0.993,0,1.419,0c0.428,0,0.826,0.118,1.197,0.353
		c0.371,0.235,0.717,0.56,1.039,0.975c0.321,0.414,0.637,0.918,0.946,1.512v-2.839h7.459v29.001H412.622z M409.152,93.81
		c0,2.788,0.6,4.182,1.8,4.182c1.113,0,1.67-1.342,1.67-4.024c0-2.648-0.575-3.973-1.726-3.973c-0.532,0-0.955,0.337-1.271,1.011
		C409.31,91.679,409.152,92.614,409.152,93.81z"/>
</g>
<g enable-background="new    ">
	<path fill="#FBD200" d="M424.046,83.964h7.459v11.3c0,1.076,0.104,1.862,0.315,2.356c0.223,0.408,0.643,0.612,1.262,0.612
		c0.605,0,1.014-0.204,1.225-0.612c0.223-0.408,0.334-1.193,0.334-2.356v-11.3h7.459v12.057c0,0.8-0.065,1.524-0.195,2.173
		c-0.131,0.648-0.334,1.236-0.613,1.764s-0.639,1.01-1.078,1.446c-0.441,0.437-0.965,0.836-1.572,1.2
		c-1.636,0.945-3.488,1.418-5.559,1.418c-2.095,0-3.947-0.473-5.559-1.418c-0.621-0.364-1.15-0.761-1.59-1.191
		c-0.441-0.431-0.8-0.912-1.078-1.445c-0.279-0.534-0.484-1.125-0.614-1.773s-0.195-1.373-0.195-2.173V83.964z"/>
</g>
<g enable-background="new    ">
	<path fill="#FBD200" d="M455.792,97.231l7.273,0.148c-0.52,2.203-1.53,3.86-3.034,4.974c-1.502,1.112-3.467,1.669-5.891,1.669
		c-2.874,0-5.129-0.855-6.767-2.567c-1.624-1.735-2.437-4.106-2.437-7.114c0-3.054,0.874-5.544,2.623-7.47
		c1.748-1.938,4.004-2.906,6.766-2.906c2.746,0,4.936,0.938,6.568,2.813c1.633,1.889,2.449,4.392,2.449,7.511l-0.037,1.272h-10.91
		c0.086,1.93,0.668,2.895,1.744,2.895C454.981,98.455,455.532,98.047,455.792,97.231z M455.94,91.349
		c0-0.266-0.044-0.509-0.13-0.729c-0.087-0.222-0.207-0.412-0.361-0.571c-0.155-0.159-0.338-0.285-0.548-0.378
		s-0.439-0.14-0.687-0.14c-0.52,0-0.94,0.171-1.262,0.511c-0.322,0.341-0.482,0.776-0.482,1.308H455.94z"/>
</g>
<g enable-background="new    ">
	<path fill="#FBD200" d="M474.701,104.022h-7.459V89.994h-2.115v-6.03h2.115v-5.9h7.459v5.9h2.467v6.03h-2.467V104.022z"/>
</g>
<g enable-background="new    ">
	<path fill="#FBD200" d="M497.306,104.022h-7.429c0.062-0.668,0.11-1.305,0.147-1.911c0.037-0.605,0.074-1.095,0.111-1.466
		c-1.281,2.252-3,3.377-5.156,3.377c-1.873,0-3.357-0.902-4.453-2.708c-1.084-1.793-1.627-4.274-1.627-7.445
		c0-3.064,0.562-5.475,1.689-7.232c1.125-1.781,2.658-2.672,4.602-2.672c1.99,0,3.6,1.058,4.824,3.173
		c-0.025-0.247-0.044-0.464-0.057-0.649c-0.012-0.186-0.024-0.34-0.037-0.464l-0.074-1.169l-0.055-0.891h7.514V104.022z
		 M489.847,93.778c0-0.688-0.027-1.272-0.084-1.754s-0.146-0.874-0.271-1.178c-0.125-0.305-0.288-0.521-0.488-0.654
		c-0.199-0.131-0.443-0.197-0.73-0.197c-1.275,0-1.914,1.554-1.914,4.661c0,2.224,0.569,3.336,1.707,3.336
		C489.254,97.991,489.847,96.587,489.847,93.778z"/>
	<path fill="#FBD200" d="M508.885,77.748c0,1.176-0.426,2.189-1.279,3.043c-0.879,0.842-1.899,1.262-3.062,1.262
		c-1.199,0-2.227-0.427-3.08-1.28c-0.841-0.878-1.262-1.904-1.262-3.08c0-1.199,0.421-2.22,1.262-3.062
		c0.879-0.841,1.898-1.262,3.062-1.262c1.225,0,2.257,0.427,3.098,1.28C508.465,75.491,508.885,76.524,508.885,77.748z
		 M508.254,104.022h-7.459V83.964h7.459V104.022z"/>
</g>
<g enable-background="new    ">
	<path fill="#FBD200" d="M519.166,104.022h-7.459V83.964h7.459l-0.39,3.915c1.126-2.932,2.987-4.397,5.585-4.397v8.35
		c-0.816-0.445-1.51-0.668-2.078-0.668c-1.002,0-1.771,0.362-2.311,1.085c-0.537,0.725-0.807,1.779-0.807,3.164V104.022z"/>
</g>
<g enable-background="new    ">
	<path fill="#FBD200" d="M537.001,97.231l7.273,0.148c-0.52,2.203-1.53,3.86-3.034,4.974c-1.502,1.112-3.467,1.669-5.891,1.669
		c-2.874,0-5.129-0.855-6.767-2.567c-1.624-1.735-2.437-4.106-2.437-7.114c0-3.054,0.874-5.544,2.623-7.47
		c1.748-1.938,4.004-2.906,6.766-2.906c2.746,0,4.936,0.938,6.568,2.813c1.633,1.889,2.449,4.392,2.449,7.511l-0.037,1.272h-10.91
		c0.086,1.93,0.668,2.895,1.744,2.895C536.19,98.455,536.741,98.047,537.001,97.231z M537.149,91.349
		c0-0.266-0.044-0.509-0.13-0.729c-0.087-0.222-0.207-0.412-0.361-0.571c-0.155-0.159-0.338-0.285-0.548-0.378
		s-0.439-0.14-0.687-0.14c-0.52,0-0.94,0.171-1.262,0.511c-0.322,0.341-0.482,0.776-0.482,1.308H537.149z"/>
	<path fill="#FBD200" d="M546.686,101.948l2.709-5.59c1.336,1.398,2.579,2.097,3.729,2.097c0.965,0,1.447-0.327,1.447-0.98
		c0-0.56-0.649-1.062-1.948-1.505c-3.501-1.166-5.251-3.016-5.251-5.548c0-1.855,0.783-3.396,2.35-4.62
		c1.578-1.226,3.548-1.838,5.907-1.838c1.93,0,3.921,0.571,5.975,1.713l-2.542,5.616c-1.25-1.175-2.27-1.763-3.062-1.763
		c-0.779,0-1.169,0.293-1.169,0.88c0,0.633,0.756,1.225,2.268,1.777c1.889,0.679,3.174,1.396,3.854,2.156
		c0.718,0.759,1.077,1.806,1.077,3.14c0,1.921-0.766,3.49-2.297,4.71c-1.531,1.219-3.492,1.828-5.886,1.828
		c-1.126,0-2.245-0.144-3.358-0.43c-0.52-0.137-1.089-0.346-1.707-0.626C548.164,102.687,547.466,102.347,546.686,101.948z"/>
	<path fill="#FBD200" d="M572.719,99.764c0,1.171-0.428,2.173-1.283,3.007c-0.83,0.834-1.848,1.251-3.049,1.251
		c-1.19,0-2.226-0.423-3.105-1.27c-0.855-0.859-1.283-1.898-1.283-3.119c0-1.195,0.422-2.216,1.264-3.062
		c0.844-0.847,1.86-1.27,3.051-1.27c1.227,0,2.268,0.436,3.123,1.308C572.291,97.467,572.719,98.519,572.719,99.764z"/>
</g>
<g enable-background="new    ">
	<path fill="#FFFFFF" d="M584.236,88.988c-0.619-0.418-1.152-0.864-1.6-1.339s-0.802-0.985-1.062-1.532
		c-0.488-1.03-0.732-2.502-0.732-4.416v-8.326c0-1.834-0.203-2.944-0.609-3.33c-0.391-0.402-1.522-0.604-3.395-0.604l-1.049,0.024
		l-0.562,0.024v-6.757l4.664-0.193c3.438,0.049,5.888,0.738,7.35,2.068c1.496,1.347,2.244,3.554,2.244,6.619v10.1
		c0,1.672,0.212,2.864,0.635,3.578c0.407,0.665,1.229,1.135,2.467,1.411v6.352c-1.156,0.243-1.971,0.682-2.441,1.313
		c-0.439,0.634-0.66,1.664-0.66,3.091v10.148c0,3.066-0.748,5.257-2.244,6.571c-1.462,1.33-3.92,1.995-7.375,1.995l-4.639-0.129
		v-7.195h1.709c1.807,0.032,2.906-0.16,3.297-0.579c0.406-0.386,0.609-1.488,0.609-3.307v-8.325c0-2.043,0.229-3.507,0.684-4.392
		C581.998,90.863,582.9,89.905,584.236,88.988z"/>
</g>
</svg>
