<?xml version="1.0" encoding="utf-8"?>
<!-- Generator: Adobe Illustrator 14.0.0, SVG Export Plug-In . SVG Version: 6.00 Build 43363)  -->
<!DOCTYPE svg PUBLIC "-//W3C//DTD SVG 1.1//EN" "http://www.w3.org/Graphics/SVG/1.1/DTD/svg11.dtd">
<svg version="1.1" id="Calque_1" xmlns="http://www.w3.org/2000/svg" xmlns:xlink="http://www.w3.org/1999/xlink" x="0px" y="0px"
	 width="553.066px" height="116.305px" viewBox="0 0 553.066 116.305" enable-background="new 0 0 553.066 116.305"
	 xml:space="preserve">
<g enable-background="new    ">
	<path fill="#FFFFFF" d="M16.388,38.416c0,1.54-0.562,2.859-1.688,3.956c-1.093,1.098-2.431,1.646-4.013,1.646
		c-1.566,0-2.928-0.557-4.086-1.671c-1.125-1.13-1.688-2.498-1.688-4.104c0-1.572,0.554-2.915,1.664-4.029s2.447-1.671,4.013-1.671
		c1.614,0,2.985,0.573,4.11,1.72C15.825,35.395,16.388,36.779,16.388,38.416z"/>
</g>
<g enable-background="new    ">
	<path fill="#FFFFFF" d="M41.901,32.501c0,3.516-1.024,6.314-3.071,8.396c-2.048,2.081-4.793,3.122-8.235,3.122
		c-3.383,0-6.076-1.062-8.079-3.186c-1.988-2.138-2.982-5.006-2.982-8.606c0-3.6,1.016-6.489,3.049-8.67
		c2.018-2.193,4.696-3.29,8.035-3.29c3.516,0,6.276,1.09,8.279,3.27S41.901,28.704,41.901,32.501z M33.068,32.203
		c0-0.81-0.055-1.542-0.166-2.196c-0.11-0.655-0.269-1.215-0.476-1.681c-0.208-0.466-0.456-0.827-0.746-1.083
		c-0.29-0.257-0.615-0.385-0.974-0.385c-0.705,0-1.271,0.485-1.699,1.457c-0.428,0.851-0.642,2.126-0.642,3.827
		c0,1.674,0.214,2.949,0.642,3.826c0.428,0.973,1.001,1.458,1.719,1.458c0.677,0,1.236-0.479,1.678-1.438
		C32.846,34.923,33.068,33.661,33.068,32.203z"/>
	<path fill="#FFFFFF" d="M66.862,44.019h-8.833V31.45c0-1.084-0.136-1.838-0.407-2.264c-0.271-0.424-0.742-0.637-1.415-0.637
		c-1.569,0-2.354,1.164-2.354,3.494v11.975h-8.833V20.267h8.833c-0.015,0.586-0.029,1.128-0.044,1.625
		c-0.015,0.499-0.037,0.96-0.066,1.385l-0.088,1.516c1.519-3.017,3.753-4.525,6.702-4.525c2.05,0,3.642,0.695,4.777,2.087
		c1.151,1.391,1.727,3.327,1.727,5.809V44.019z"/>
	<path fill="#FFFFFF" d="M82.155,35.977l8.613,0.176c-0.615,2.608-1.813,4.571-3.592,5.89c-1.78,1.317-4.105,1.977-6.977,1.977
		c-3.404,0-6.074-1.014-8.013-3.04c-1.924-2.056-2.886-4.863-2.886-8.425c0-3.617,1.035-6.565,3.106-8.846
		c2.07-2.295,4.741-3.441,8.012-3.441c3.252,0,5.845,1.11,7.778,3.332c1.934,2.235,2.9,5.2,2.9,8.894l-0.044,1.507h-12.92
		c0.103,2.285,0.791,3.428,2.065,3.428C81.195,37.427,81.847,36.944,82.155,35.977z M82.33,29.011c0-0.313-0.051-0.602-0.154-0.863
		c-0.103-0.263-0.246-0.487-0.429-0.677c-0.183-0.188-0.399-0.338-0.648-0.447c-0.249-0.11-0.52-0.165-0.813-0.165
		c-0.615,0-1.113,0.201-1.494,0.604s-0.571,0.92-0.571,1.548H82.33z"/>
</g>
<g enable-background="new    ">
	<path fill="#FFFFFF" d="M106.655,44.019h-9.163V18.223h-5.054v-8.13h19.468v8.13h-5.251V44.019z"/>
</g>
<g enable-background="new    ">
	<path fill="#FFFFFF" d="M140.152,44.019h-8.723l-1.802-14.238l-2.725,14.238h-8.635l-5.911-23.752h8.657l1.34,7.624
		c0.161,0.967,0.319,1.999,0.472,3.099c0.154,1.098,0.297,2.292,0.429,3.581c0.117-1.333,0.274-2.611,0.473-3.834
		c0.197-1.224,0.421-2.406,0.67-3.549l1.56-6.921h7.515l1.274,7.646c0.161,0.981,0.308,2.024,0.439,3.131
		c0.132,1.105,0.256,2.281,0.374,3.526c0.234-1.685,0.469-3.219,0.703-4.604c0.234-1.384,0.476-2.654,0.725-3.812l1.274-5.889h8.811
		L140.152,44.019z"/>
</g>
<g enable-background="new    ">
	<path fill="#FFFFFF" d="M170.398,32.501c0,3.516-1.024,6.314-3.071,8.396c-2.048,2.081-4.793,3.122-8.235,3.122
		c-3.383,0-6.076-1.062-8.079-3.186c-1.988-2.138-2.982-5.006-2.982-8.606c0-3.6,1.016-6.489,3.049-8.67
		c2.018-2.193,4.696-3.29,8.035-3.29c3.516,0,6.276,1.09,8.279,3.27S170.398,28.704,170.398,32.501z M161.565,32.203
		c0-0.81-0.055-1.542-0.166-2.196c-0.11-0.655-0.269-1.215-0.476-1.681c-0.208-0.466-0.456-0.827-0.746-1.083
		c-0.29-0.257-0.615-0.385-0.974-0.385c-0.705,0-1.271,0.485-1.699,1.457c-0.428,0.851-0.642,2.126-0.642,3.827
		c0,1.674,0.214,2.949,0.642,3.826c0.428,0.973,1.001,1.458,1.719,1.458c0.677,0,1.236-0.479,1.678-1.438
		C161.344,34.923,161.565,33.661,161.565,32.203z"/>
	<path fill="#FFFFFF" d="M183.01,44.019h-9.163V10.093h16.194v8.13h-7.031v4.329h6.548v8.129h-6.548V44.019z"/>
</g>
<g enable-background="new    ">
	<path fill="#FFFFFF" d="M202.105,44.019h-8.833V20.267h8.833l-0.461,4.636c1.333-3.472,3.538-5.208,6.614-5.208v9.889
		c-0.967-0.527-1.787-0.791-2.461-0.791c-1.187,0-2.098,0.428-2.736,1.285c-0.637,0.856-0.956,2.105-0.956,3.746V44.019z"/>
</g>
<g enable-background="new    ">
	<path fill="#FFFFFF" d="M223.271,35.977l8.613,0.176c-0.615,2.608-1.813,4.571-3.592,5.89c-1.78,1.317-4.105,1.977-6.977,1.977
		c-3.404,0-6.074-1.014-8.013-3.04c-1.924-2.056-2.886-4.863-2.886-8.425c0-3.617,1.035-6.565,3.106-8.846
		c2.07-2.295,4.741-3.441,8.012-3.441c3.252,0,5.845,1.11,7.778,3.332c1.934,2.235,2.9,5.2,2.9,8.894l-0.044,1.507h-12.92
		c0.103,2.285,0.791,3.428,2.065,3.428C222.312,37.427,222.964,36.944,223.271,35.977z M223.447,29.011
		c0-0.313-0.051-0.602-0.154-0.863c-0.103-0.263-0.246-0.487-0.429-0.677c-0.183-0.188-0.399-0.338-0.648-0.447
		c-0.249-0.11-0.52-0.165-0.813-0.165c-0.615,0-1.113,0.201-1.494,0.604s-0.571,0.92-0.571,1.548H223.447z"/>
	<path fill="#FFFFFF" d="M247.771,35.977l8.613,0.176c-0.615,2.608-1.813,4.571-3.592,5.89c-1.78,1.317-4.105,1.977-6.977,1.977
		c-3.404,0-6.074-1.014-8.013-3.04c-1.924-2.056-2.886-4.863-2.886-8.425c0-3.617,1.035-6.565,3.106-8.846
		c2.07-2.295,4.741-3.441,8.012-3.441c3.252,0,5.845,1.11,7.778,3.332c1.934,2.235,2.9,5.2,2.9,8.894l-0.044,1.507h-12.92
		c0.103,2.285,0.791,3.428,2.065,3.428C246.811,37.427,247.463,36.944,247.771,35.977z M247.947,29.011
		c0-0.313-0.051-0.602-0.154-0.863c-0.103-0.263-0.246-0.487-0.429-0.677c-0.183-0.188-0.399-0.338-0.648-0.447
		c-0.249-0.11-0.52-0.165-0.813-0.165c-0.615,0-1.113,0.201-1.494,0.604s-0.571,0.92-0.571,1.548H247.947z"/>
</g>
<g enable-background="new    ">
	<path fill="#FFFFFF" d="M268.72,29.194c0.618,0.421,1.151,0.87,1.599,1.348c0.447,0.478,0.801,0.992,1.062,1.542
		c0.504,0.988,0.757,2.47,0.757,4.444v8.354c0,1.846,0.195,2.963,0.586,3.352c0.407,0.404,1.546,0.607,3.418,0.607l1.026-0.024
		l0.586-0.024v6.8l-4.664,0.194c-3.153-0.049-5.382-0.742-6.687-2.08c-1.32-1.354-1.98-3.572-1.98-6.655l-0.464-10.131
		c0-1.68-0.212-2.879-0.635-3.597c-0.407-0.669-1.229-1.142-2.466-1.42v-6.387c1.172-0.244,1.978-0.685,2.417-1.321
		c0.456-0.604,0.684-1.639,0.684-3.107V10.86c0-3.083,0.739-5.285,2.219-6.606c1.462-1.338,3.92-2.007,7.376-2.007l4.663,0.129
		v7.195h-1.708c-1.807-0.016-2.914,0.178-3.32,0.583c-0.391,0.389-0.586,1.497-0.586,3.327v8.402c-0.31,1.83-0.7,3.304-1.172,4.42
		C270.958,27.308,270.054,28.271,268.72,29.194z"/>
</g>
<g enable-background="new    ">
	<path fill="#FBD200" d="M280.732,44.019V15.37h7.385l3.879,10.057c0.209,0.594,0.447,1.274,0.714,2.041
		c0.266,0.768,0.56,1.651,0.882,2.653l0.797,2.523c-0.284-2.486-0.5-4.613-0.648-6.383c-0.148-1.769-0.223-3.253-0.223-4.453V15.37
		h7.459v28.648h-7.459l-4.131-10.539c-0.434-1.125-0.823-2.18-1.171-3.164c-0.348-0.982-0.652-1.92-0.915-2.811
		c0.309,2.017,0.535,3.773,0.678,5.27c0.143,1.497,0.213,2.809,0.213,3.934v7.311H280.732z"/>
</g>
<g enable-background="new    ">
	<path fill="#FBD200" d="M323.211,34.293c0,2.969-0.865,5.332-2.594,7.09c-1.729,1.757-4.047,2.636-6.954,2.636
		c-2.856,0-5.131-0.896-6.822-2.689c-1.679-1.806-2.519-4.228-2.519-7.268c0-3.041,0.858-5.48,2.574-7.321
		c1.705-1.853,3.967-2.779,6.785-2.779c2.97,0,5.301,0.921,6.992,2.761C322.365,28.563,323.211,31.086,323.211,34.293z
		 M315.752,34.041c0-0.684-0.047-1.302-0.141-1.854c-0.093-0.553-0.227-1.026-0.401-1.42c-0.175-0.393-0.386-0.697-0.63-0.914
		c-0.245-0.217-0.52-0.325-0.822-0.325c-0.595,0-1.072,0.41-1.435,1.231c-0.361,0.718-0.542,1.795-0.542,3.23
		c0,1.414,0.181,2.491,0.542,3.231c0.362,0.821,0.846,1.231,1.452,1.231c0.571,0,1.043-0.404,1.416-1.214
		C315.565,36.338,315.752,35.273,315.752,34.041z"/>
	<path fill="#FBD200" d="M325.122,41.946l2.709-5.59c1.336,1.398,2.579,2.097,3.729,2.097c0.965,0,1.447-0.327,1.447-0.98
		c0-0.56-0.649-1.062-1.948-1.505c-3.501-1.166-5.251-3.016-5.251-5.548c0-1.855,0.783-3.396,2.35-4.62
		c1.578-1.226,3.548-1.838,5.907-1.838c1.93,0,3.921,0.571,5.975,1.713l-2.542,5.616c-1.25-1.175-2.27-1.763-3.062-1.763
		c-0.779,0-1.169,0.293-1.169,0.88c0,0.633,0.756,1.225,2.268,1.777c1.889,0.679,3.174,1.396,3.854,2.156
		c0.718,0.759,1.077,1.806,1.077,3.14c0,1.921-0.766,3.49-2.297,4.71c-1.531,1.219-3.492,1.828-5.886,1.828
		c-1.126,0-2.245-0.144-3.358-0.43c-0.52-0.137-1.089-0.346-1.707-0.626C326.599,42.684,325.901,42.344,325.122,41.946z"/>
	<path fill="#FBD200" d="M361.693,52.962h-7.459V23.961h7.44l-0.148,2.839c0.31-0.594,0.624-1.098,0.946-1.512
		c0.321-0.415,0.668-0.739,1.039-0.975c0.371-0.234,0.77-0.353,1.197-0.353c0.426,0,0.899,0,1.419,0c1.93,0,3.501,0.927,4.713,2.779
		c1.2,1.828,1.8,4.257,1.8,7.285c0,3.076-0.575,5.51-1.726,7.304c-1.126,1.793-2.679,2.689-4.657,2.689
		c-1.807,0-3.383-1.045-4.731-3.136c0.062,0.631,0.099,1.176,0.111,1.633c0.037,0.471,0.056,1.036,0.056,1.697V52.962z
		 M365.163,33.876c0-1.23-0.151-2.186-0.454-2.865c-0.304-0.68-0.733-1.02-1.29-1.02c-1.15,0-1.726,1.318-1.726,3.955
		c0,2.694,0.557,4.042,1.67,4.042c0.557,0,0.996-0.36,1.317-1.08C365.002,36.188,365.163,35.178,365.163,33.876z"/>
	<path fill="#FBD200" d="M382.957,44.019h-7.459V12.717h7.459V44.019z"/>
	<path fill="#FBD200" d="M386.389,23.961h7.459v11.3c0,1.076,0.104,1.862,0.315,2.356c0.223,0.408,0.643,0.612,1.262,0.612
		c0.605,0,1.014-0.204,1.225-0.612c0.223-0.408,0.334-1.193,0.334-2.356v-11.3h7.459v12.057c0,0.8-0.065,1.524-0.195,2.173
		c-0.131,0.648-0.334,1.236-0.613,1.764s-0.639,1.01-1.078,1.446c-0.441,0.437-0.965,0.836-1.572,1.2
		c-1.636,0.945-3.488,1.418-5.559,1.418c-2.095,0-3.947-0.473-5.559-1.418c-0.621-0.364-1.15-0.761-1.59-1.191
		c-0.441-0.431-0.8-0.912-1.078-1.445c-0.279-0.534-0.484-1.125-0.614-1.773s-0.195-1.373-0.195-2.173V23.961z"/>
	<path fill="#FBD200" d="M407.134,41.946l2.709-5.59c1.336,1.398,2.579,2.097,3.729,2.097c0.965,0,1.447-0.327,1.447-0.98
		c0-0.56-0.649-1.062-1.948-1.505c-3.501-1.166-5.251-3.016-5.251-5.548c0-1.855,0.783-3.396,2.35-4.62
		c1.578-1.226,3.548-1.838,5.907-1.838c1.93,0,3.921,0.571,5.975,1.713l-2.542,5.616c-1.25-1.175-2.27-1.763-3.062-1.763
		c-0.779,0-1.169,0.293-1.169,0.88c0,0.633,0.756,1.225,2.268,1.777c1.889,0.679,3.174,1.396,3.854,2.156
		c0.718,0.759,1.077,1.806,1.077,3.14c0,1.921-0.766,3.49-2.297,4.71c-1.531,1.219-3.492,1.828-5.886,1.828
		c-1.126,0-2.245-0.144-3.358-0.43c-0.52-0.137-1.089-0.346-1.707-0.626C408.611,42.684,407.913,42.344,407.134,41.946z"/>
</g>
<g enable-background="new    ">
	<path fill="#FBD200" d="M453.984,23.961v20.633c0,1.57-0.217,2.932-0.65,4.082c-0.433,1.063-1.138,1.973-2.115,2.728
		c-1.645,1.273-3.735,1.911-6.271,1.911c-2.733,0-4.83-0.588-6.289-1.763c-1.461-1.176-2.363-3.006-2.709-5.492h7.607
		c0.049,1.088,0.568,1.633,1.559,1.633c0.631,0,1.076-0.22,1.336-0.658c0.26-0.439,0.389-1.167,0.389-2.181v-3.173
		c-1.323,1.732-2.882,2.598-4.676,2.598c-1.941,0-3.513-0.946-4.713-2.839c-1.188-1.893-1.781-4.379-1.781-7.459
		c0-3.067,0.594-5.578,1.781-7.533c1.2-1.941,2.752-2.913,4.658-2.913c0.877,0,1.645,0.223,2.301,0.668
		c0.68,0.458,1.416,1.256,2.207,2.394l-0.148-2.635H453.984z M446.765,33.925c0-2.895-0.531-4.342-1.596-4.342
		c-1.199,0-1.799,1.41-1.799,4.23c0,2.907,0.58,4.36,1.744,4.36C446.215,38.174,446.765,36.758,446.765,33.925z"/>
</g>
<g enable-background="new    ">
	<path fill="#FBD200" d="M465.447,44.019h-7.459V23.961h7.459l-0.391,3.915c1.126-2.932,2.988-4.397,5.586-4.397v8.35
		c-0.816-0.445-1.51-0.668-2.078-0.668c-1.002,0-1.772,0.362-2.311,1.085c-0.538,0.725-0.807,1.779-0.807,3.164V44.019z"/>
</g>
<g enable-background="new    ">
	<path fill="#FBD200" d="M490.91,44.019h-7.429c0.062-0.668,0.11-1.305,0.147-1.911c0.037-0.605,0.074-1.095,0.111-1.466
		c-1.281,2.252-3,3.377-5.156,3.377c-1.873,0-3.357-0.902-4.453-2.708c-1.084-1.793-1.627-4.274-1.627-7.445
		c0-3.064,0.562-5.475,1.689-7.232c1.125-1.781,2.658-2.672,4.602-2.672c1.99,0,3.6,1.058,4.824,3.173
		c-0.025-0.247-0.044-0.464-0.057-0.649c-0.012-0.186-0.024-0.34-0.037-0.464l-0.074-1.169l-0.055-0.891h7.514V44.019z
		 M483.451,33.775c0-0.688-0.027-1.272-0.084-1.754s-0.146-0.874-0.271-1.178c-0.125-0.305-0.288-0.521-0.488-0.654
		c-0.199-0.131-0.443-0.197-0.73-0.197c-1.275,0-1.914,1.554-1.914,4.661c0,2.224,0.569,3.336,1.707,3.336
		C482.857,37.989,483.451,36.584,483.451,33.775z"/>
	<path fill="#FBD200" d="M512.861,44.019h-7.459V33.406c0-0.915-0.115-1.552-0.344-1.911c-0.229-0.358-0.627-0.538-1.195-0.538
		c-1.324,0-1.986,0.983-1.986,2.95v10.112h-7.459V23.961h7.459c-0.014,0.495-0.025,0.953-0.037,1.373
		c-0.014,0.421-0.031,0.811-0.057,1.169l-0.074,1.28c1.283-2.548,3.17-3.822,5.66-3.822c1.73,0,3.074,0.588,4.033,1.763
		c0.973,1.175,1.459,2.81,1.459,4.905V44.019z"/>
	<path fill="#FBD200" d="M525.793,44.019c0.013-0.21,0.025-0.451,0.037-0.724c0.013-0.271,0.031-0.587,0.057-0.946
		c0.023-0.223,0.043-0.562,0.055-1.021c-0.717,1.163-1.416,1.974-2.096,2.431c-0.668,0.174-1.491,0.26-2.469,0.26
		c-2.016,0-3.6-0.867-4.75-2.601c-1.138-1.734-1.707-4.145-1.707-7.232c0-3.241,0.557-5.754,1.67-7.535
		c1.113-1.793,2.685-2.689,4.713-2.689c1.113,0,2.01,0.248,2.691,0.742c0.717,0.495,1.41,1.354,2.078,2.579
		c-0.037-0.643-0.057-1.032-0.057-1.169l-0.074-2.022V12.717h7.459v31.302H525.793z M522.379,34.026
		c0,2.642,0.613,3.963,1.838,3.963c1.15,0,1.725-1.362,1.725-4.088c0-2.606-0.557-3.909-1.67-3.909
		C523.01,29.991,522.379,31.336,522.379,34.026z"/>
	<path fill="#FBD200" d="M536.109,41.946l2.709-5.59c1.336,1.398,2.58,2.097,3.73,2.097c0.965,0,1.447-0.327,1.447-0.98
		c0-0.56-0.65-1.062-1.949-1.505c-3.5-1.166-5.25-3.016-5.25-5.548c0-1.855,0.783-3.396,2.35-4.62
		c1.578-1.226,3.547-1.838,5.906-1.838c1.93,0,3.922,0.571,5.975,1.713l-2.541,5.616c-1.25-1.175-2.271-1.763-3.062-1.763
		c-0.779,0-1.168,0.293-1.168,0.88c0,0.633,0.756,1.225,2.268,1.777c1.889,0.679,3.174,1.396,3.854,2.156
		c0.719,0.759,1.078,1.806,1.078,3.14c0,1.921-0.766,3.49-2.297,4.71c-1.531,1.219-3.493,1.828-5.887,1.828
		c-1.125,0-2.244-0.144-3.357-0.43c-0.52-0.137-1.09-0.346-1.707-0.626C537.588,42.684,536.888,42.344,536.109,41.946z"/>
</g>
<g enable-background="new    ">
	<path fill="#FBD200" d="M35.923,101.948l2.709-5.59c1.336,1.398,2.579,2.097,3.729,2.097c0.965,0,1.447-0.327,1.447-0.98
		c0-0.56-0.649-1.062-1.948-1.505c-3.501-1.166-5.251-3.016-5.251-5.548c0-1.855,0.783-3.396,2.35-4.62
		c1.579-1.226,3.548-1.838,5.907-1.838c1.93,0,3.921,0.571,5.975,1.713l-2.542,5.616c-1.25-1.175-2.27-1.763-3.062-1.763
		c-0.779,0-1.169,0.293-1.169,0.88c0,0.633,0.756,1.225,2.268,1.777c1.889,0.679,3.174,1.396,3.854,2.156
		c0.718,0.759,1.077,1.806,1.077,3.14c0,1.921-0.766,3.49-2.297,4.71c-1.531,1.219-3.493,1.828-5.886,1.828
		c-1.126,0-2.245-0.144-3.358-0.43c-0.52-0.137-1.089-0.346-1.707-0.626C37.401,102.687,36.702,102.347,35.923,101.948z"/>
	<path fill="#FBD200" d="M53.606,83.964h7.459v11.3c0,1.076,0.105,1.862,0.315,2.356c0.223,0.408,0.643,0.612,1.262,0.612
		c0.606,0,1.014-0.204,1.225-0.612c0.223-0.408,0.334-1.193,0.334-2.356v-11.3h7.459v12.057c0,0.8-0.065,1.524-0.195,2.173
		c-0.13,0.648-0.334,1.236-0.614,1.764c-0.279,0.527-0.638,1.01-1.078,1.446c-0.44,0.437-0.964,0.836-1.571,1.2
		c-1.636,0.945-3.489,1.418-5.559,1.418c-2.095,0-3.948-0.473-5.559-1.418c-0.62-0.364-1.15-0.761-1.59-1.191
		c-0.44-0.431-0.799-0.912-1.078-1.445c-0.279-0.534-0.484-1.125-0.614-1.773c-0.13-0.648-0.195-1.373-0.195-2.173V83.964z"/>
	<path fill="#FBD200" d="M82.532,112.965h-7.459V83.964h7.44l-0.148,2.839c0.309-0.594,0.625-1.098,0.946-1.512
		c0.321-0.415,0.668-0.739,1.039-0.975c0.371-0.234,0.77-0.353,1.197-0.353s0.9,0,1.419,0c1.93,0,3.5,0.927,4.713,2.779
		c1.2,1.828,1.8,4.257,1.8,7.285c0,3.076-0.575,5.51-1.726,7.304c-1.126,1.793-2.678,2.689-4.657,2.689
		c-1.806,0-3.383-1.045-4.731-3.136c0.062,0.631,0.099,1.176,0.111,1.633c0.037,0.471,0.056,1.036,0.056,1.697V112.965z
		 M86.002,93.879c0-1.23-0.152-2.186-0.455-2.865c-0.303-0.68-0.733-1.02-1.29-1.02c-1.15,0-1.726,1.318-1.726,3.955
		c0,2.694,0.557,4.042,1.67,4.042c0.557,0,0.996-0.36,1.317-1.08C85.841,96.191,86.002,95.181,86.002,93.879z"/>
	<path fill="#FBD200" d="M103.796,112.965h-7.459V83.964h7.44l-0.148,2.839c0.309-0.594,0.625-1.098,0.946-1.512
		c0.321-0.415,0.668-0.739,1.039-0.975c0.371-0.234,0.77-0.353,1.197-0.353s0.9,0,1.419,0c1.93,0,3.5,0.927,4.713,2.779
		c1.2,1.828,1.8,4.257,1.8,7.285c0,3.076-0.575,5.51-1.726,7.304c-1.126,1.793-2.678,2.689-4.657,2.689
		c-1.806,0-3.383-1.045-4.731-3.136c0.062,0.631,0.099,1.176,0.111,1.633c0.037,0.471,0.056,1.036,0.056,1.697V112.965z
		 M107.266,93.879c0-1.23-0.152-2.186-0.455-2.865c-0.303-0.68-0.733-1.02-1.29-1.02c-1.15,0-1.726,1.318-1.726,3.955
		c0,2.694,0.557,4.042,1.67,4.042c0.557,0,0.996-0.36,1.317-1.08C107.105,96.191,107.266,95.181,107.266,93.879z"/>
	<path fill="#FBD200" d="M135.914,94.296c0,2.969-0.865,5.332-2.594,7.09c-1.729,1.757-4.047,2.636-6.954,2.636
		c-2.857,0-5.131-0.896-6.822-2.689c-1.679-1.806-2.519-4.228-2.519-7.268c0-3.041,0.858-5.48,2.575-7.321
		c1.704-1.853,3.966-2.779,6.785-2.779c2.969,0,5.3,0.921,6.992,2.761C135.068,88.566,135.914,91.089,135.914,94.296z
		 M128.455,94.044c0-0.684-0.047-1.302-0.14-1.854s-0.227-1.026-0.402-1.42c-0.175-0.393-0.385-0.697-0.63-0.914
		c-0.245-0.217-0.519-0.325-0.822-0.325c-0.595,0-1.073,0.41-1.435,1.231c-0.361,0.718-0.542,1.795-0.542,3.23
		c0,1.414,0.181,2.491,0.542,3.231c0.362,0.821,0.846,1.231,1.452,1.231c0.571,0,1.043-0.404,1.417-1.214
		C128.269,96.341,128.455,95.276,128.455,94.044z"/>
</g>
<g enable-background="new    ">
	<path fill="#FBD200" d="M146.008,104.022h-7.459V83.964h7.459l-0.39,3.915c1.125-2.932,2.987-4.397,5.585-4.397v8.35
		c-0.816-0.445-1.509-0.668-2.078-0.668c-1.002,0-1.772,0.362-2.31,1.085c-0.538,0.725-0.807,1.779-0.807,3.164V104.022z"/>
</g>
<g enable-background="new    ">
	<path fill="#FBD200" d="M162.367,104.022h-7.459V89.994h-2.115v-6.03h2.115v-5.9h7.459v5.9h2.468v6.03h-2.468V104.022z"/>
</g>
<g enable-background="new    ">
	<path fill="#FBD200" d="M177.309,97.231l7.273,0.148c-0.52,2.203-1.531,3.86-3.034,4.974c-1.503,1.112-3.467,1.669-5.891,1.669
		c-2.874,0-5.129-0.855-6.767-2.567c-1.625-1.735-2.437-4.106-2.437-7.114c0-3.054,0.874-5.544,2.623-7.47
		c1.748-1.938,4.003-2.906,6.766-2.906c2.746,0,4.936,0.938,6.568,2.813c1.633,1.889,2.449,4.392,2.449,7.511l-0.037,1.272h-10.91
		c0.086,1.93,0.668,2.895,1.744,2.895C176.498,98.455,177.049,98.047,177.309,97.231z M177.457,91.349
		c0-0.266-0.043-0.509-0.13-0.729c-0.087-0.222-0.208-0.412-0.362-0.571c-0.155-0.159-0.337-0.285-0.547-0.378
		c-0.21-0.093-0.439-0.14-0.687-0.14c-0.52,0-0.94,0.171-1.262,0.511c-0.322,0.341-0.482,0.776-0.482,1.308H177.457z"/>
</g>
<g enable-background="new    ">
	<path fill="#FBD200" d="M195.177,104.022h-7.459V83.964h7.459l-0.39,3.915c1.125-2.932,2.987-4.397,5.585-4.397v8.35
		c-0.816-0.445-1.509-0.668-2.078-0.668c-1.002,0-1.772,0.362-2.31,1.085c-0.538,0.725-0.807,1.779-0.807,3.164V104.022z"/>
</g>
<g enable-background="new    ">
	<path fill="#FBD200" d="M201.82,101.948l2.709-5.59c1.336,1.398,2.579,2.097,3.729,2.097c0.965,0,1.447-0.327,1.447-0.98
		c0-0.56-0.649-1.062-1.948-1.505c-3.501-1.166-5.251-3.016-5.251-5.548c0-1.855,0.783-3.396,2.35-4.62
		c1.579-1.226,3.548-1.838,5.907-1.838c1.93,0,3.921,0.571,5.975,1.713l-2.542,5.616c-1.25-1.175-2.27-1.763-3.062-1.763
		c-0.779,0-1.169,0.293-1.169,0.88c0,0.633,0.756,1.225,2.268,1.777c1.889,0.679,3.174,1.396,3.854,2.156
		c0.718,0.759,1.077,1.806,1.077,3.14c0,1.921-0.766,3.49-2.297,4.71c-1.531,1.219-3.493,1.828-5.886,1.828
		c-1.126,0-2.245-0.144-3.358-0.43c-0.52-0.137-1.089-0.346-1.707-0.626C203.298,102.687,202.599,102.347,201.82,101.948z"/>
	<path fill="#FBD200" d="M230.209,101.948l2.709-5.59c1.336,1.398,2.579,2.097,3.729,2.097c0.965,0,1.447-0.327,1.447-0.98
		c0-0.56-0.649-1.062-1.948-1.505c-3.501-1.166-5.251-3.016-5.251-5.548c0-1.855,0.783-3.396,2.35-4.62
		c1.579-1.226,3.548-1.838,5.907-1.838c1.93,0,3.921,0.571,5.975,1.713l-2.542,5.616c-1.25-1.175-2.27-1.763-3.062-1.763
		c-0.779,0-1.169,0.293-1.169,0.88c0,0.633,0.756,1.225,2.268,1.777c1.889,0.679,3.174,1.396,3.854,2.156
		c0.718,0.759,1.077,1.806,1.077,3.14c0,1.921-0.766,3.49-2.297,4.71c-1.531,1.219-3.493,1.828-5.886,1.828
		c-1.126,0-2.245-0.144-3.358-0.43c-0.52-0.137-1.089-0.346-1.707-0.626C231.687,102.687,230.988,102.347,230.209,101.948z"/>
	<path fill="#FBD200" d="M266.205,94.296c0,2.969-0.865,5.332-2.594,7.09c-1.729,1.757-4.047,2.636-6.954,2.636
		c-2.857,0-5.131-0.896-6.822-2.689c-1.679-1.806-2.519-4.228-2.519-7.268c0-3.041,0.858-5.48,2.575-7.321
		c1.704-1.853,3.966-2.779,6.785-2.779c2.969,0,5.3,0.921,6.992,2.761C265.359,88.566,266.205,91.089,266.205,94.296z
		 M258.746,94.044c0-0.684-0.047-1.302-0.14-1.854s-0.227-1.026-0.402-1.42c-0.175-0.393-0.385-0.697-0.63-0.914
		c-0.245-0.217-0.519-0.325-0.822-0.325c-0.595,0-1.073,0.41-1.435,1.231c-0.361,0.718-0.542,1.795-0.542,3.23
		c0,1.414,0.181,2.491,0.542,3.231c0.362,0.821,0.846,1.231,1.452,1.231c0.571,0,1.043-0.404,1.417-1.214
		C258.559,96.341,258.746,95.276,258.746,94.044z"/>
	<path fill="#FBD200" d="M287.283,104.022h-7.459V93.408c0-0.915-0.115-1.552-0.344-1.911c-0.229-0.358-0.627-0.538-1.194-0.538
		c-1.325,0-1.987,0.983-1.987,2.95v10.112h-7.459V83.964h7.459c-0.013,0.495-0.025,0.953-0.037,1.373
		c-0.013,0.421-0.031,0.811-0.056,1.169l-0.074,1.28c1.282-2.548,3.169-3.822,5.659-3.822c1.73,0,3.075,0.588,4.034,1.763
		c0.972,1.175,1.458,2.81,1.458,4.905V104.022z"/>
	<path fill="#FBD200" d="M298.379,104.022h-7.459V89.994h-2.115v-6.03h2.115v-5.9h7.459v5.9h2.468v6.03h-2.468V104.022z"/>
	<path fill="#FBD200" d="M324.559,97.231l7.273,0.148c-0.52,2.203-1.53,3.86-3.034,4.974c-1.502,1.112-3.467,1.669-5.891,1.669
		c-2.874,0-5.129-0.855-6.767-2.567c-1.624-1.735-2.437-4.106-2.437-7.114c0-3.054,0.874-5.544,2.623-7.47
		c1.748-1.938,4.004-2.906,6.766-2.906c2.746,0,4.936,0.938,6.568,2.813c1.633,1.889,2.449,4.392,2.449,7.511l-0.037,1.272h-10.91
		c0.086,1.93,0.668,2.895,1.744,2.895C323.749,98.455,324.3,98.047,324.559,97.231z M324.708,91.349c0-0.266-0.044-0.509-0.13-0.729
		c-0.087-0.222-0.207-0.412-0.361-0.571c-0.155-0.159-0.338-0.285-0.548-0.378s-0.439-0.14-0.687-0.14
		c-0.52,0-0.94,0.171-1.262,0.511c-0.322,0.341-0.482,0.776-0.482,1.308H324.708z"/>
	<path fill="#FBD200" d="M353.412,104.022h-7.459V93.408c0-0.915-0.115-1.552-0.344-1.911c-0.229-0.358-0.627-0.538-1.194-0.538
		c-1.325,0-1.987,0.983-1.987,2.95v10.112h-7.459V83.964h7.459c-0.013,0.495-0.025,0.953-0.037,1.373
		c-0.013,0.421-0.031,0.811-0.056,1.169l-0.074,1.28c1.282-2.548,3.169-3.822,5.659-3.822c1.73,0,3.075,0.588,4.034,1.763
		c0.972,1.175,1.458,2.81,1.458,4.905V104.022z"/>
	<path fill="#FBD200" d="M388.387,104.022h-7.997l-0.575-3.637h-5.214l-0.631,3.637h-7.997l6.884-28.648h9.463L388.387,104.022z
		 M378.906,94.355l-0.501-3.34c-0.013-0.012-0.037-0.179-0.074-0.501c-0.024-0.271-0.155-1.348-0.39-3.229
		c-0.025-0.21-0.056-0.498-0.093-0.863c-0.037-0.364-0.087-0.825-0.148-1.382l-0.241-2.709c-0.025,0.26-0.059,0.551-0.102,0.872
		c-0.044,0.322-0.09,0.675-0.14,1.058c-0.087,0.768-0.148,1.299-0.186,1.596s-0.062,0.477-0.074,0.538l-0.538,3.47l-0.779,4.49
		H378.906z"/>
	<path fill="#FBD200" d="M397.813,104.022h-7.459V72.72h7.459V104.022z"/>
</g>
<g enable-background="new    ">
	<path fill="#FBD200" d="M418.986,83.964v20.633c0,1.57-0.217,2.932-0.649,4.082c-0.433,1.063-1.138,1.973-2.115,2.728
		c-1.646,1.273-3.735,1.911-6.271,1.911c-2.733,0-4.831-0.588-6.29-1.763c-1.46-1.176-2.363-3.006-2.709-5.492h7.607
		c0.049,1.088,0.568,1.633,1.559,1.633c0.631,0,1.076-0.22,1.336-0.658c0.26-0.439,0.39-1.167,0.39-2.181v-3.173
		c-1.323,1.732-2.882,2.598-4.676,2.598c-1.942,0-3.513-0.946-4.713-2.839c-1.188-1.893-1.781-4.379-1.781-7.459
		c0-3.067,0.594-5.578,1.781-7.533c1.2-1.941,2.752-2.913,4.657-2.913c0.878,0,1.645,0.223,2.301,0.668
		c0.68,0.458,1.416,1.256,2.208,2.394l-0.148-2.635H418.986z M411.768,93.928c0-2.895-0.532-4.342-1.596-4.342
		c-1.2,0-1.8,1.41-1.8,4.23c0,2.907,0.581,4.36,1.744,4.36C411.218,98.177,411.768,96.761,411.768,93.928z"/>
</g>
<g enable-background="new    ">
	<path fill="#FBD200" d="M432.965,97.231l7.273,0.148c-0.52,2.203-1.531,3.86-3.034,4.974c-1.503,1.112-3.467,1.669-5.892,1.669
		c-2.873,0-5.129-0.855-6.766-2.567c-1.625-1.735-2.438-4.106-2.438-7.114c0-3.054,0.875-5.544,2.623-7.47
		c1.748-1.938,4.004-2.906,6.766-2.906c2.746,0,4.936,0.938,6.568,2.813c1.633,1.889,2.449,4.392,2.449,7.511l-0.037,1.272h-10.91
		c0.087,1.93,0.668,2.895,1.744,2.895C432.154,98.455,432.705,98.047,432.965,97.231z M428.752,81.404l2.023-6.03h6.012l-3.768,6.03
		H428.752z M433.113,91.349c0-0.266-0.044-0.509-0.131-0.729c-0.086-0.222-0.207-0.412-0.361-0.571s-0.338-0.285-0.547-0.378
		c-0.211-0.093-0.439-0.14-0.688-0.14c-0.52,0-0.939,0.171-1.262,0.511c-0.321,0.341-0.482,0.776-0.482,1.308H433.113z"/>
</g>
<g enable-background="new    ">
	<path fill="#FBD200" d="M450.832,104.022h-7.459V83.964h7.459l-0.39,3.915c1.126-2.932,2.987-4.397,5.585-4.397v8.35
		c-0.816-0.445-1.51-0.668-2.078-0.668c-1.002,0-1.771,0.362-2.311,1.085c-0.537,0.725-0.807,1.779-0.807,3.164V104.022z"/>
</g>
<g enable-background="new    ">
	<path fill="#FBD200" d="M466.269,77.748c0,1.176-0.426,2.189-1.279,3.043c-0.879,0.842-1.899,1.262-3.062,1.262
		c-1.199,0-2.227-0.427-3.08-1.28c-0.841-0.878-1.262-1.904-1.262-3.08c0-1.199,0.421-2.22,1.262-3.062
		c0.879-0.841,1.898-1.262,3.062-1.262c1.225,0,2.257,0.427,3.098,1.28C465.849,75.491,466.269,76.524,466.269,77.748z
		 M465.638,104.022h-7.459V83.964h7.459V104.022z"/>
	<path fill="#FBD200" d="M479.369,97.231l7.273,0.148c-0.52,2.203-1.53,3.86-3.033,4.974c-1.503,1.112-3.467,1.669-5.891,1.669
		c-2.875,0-5.13-0.855-6.768-2.567c-1.624-1.735-2.436-4.106-2.436-7.114c0-3.054,0.873-5.544,2.623-7.47
		c1.748-1.938,4.003-2.906,6.766-2.906c2.746,0,4.936,0.938,6.568,2.813c1.633,1.889,2.449,4.392,2.449,7.511l-0.037,1.272h-10.91
		c0.086,1.93,0.668,2.895,1.744,2.895C478.558,98.455,479.109,98.047,479.369,97.231z M479.517,91.349
		c0-0.266-0.043-0.509-0.129-0.729c-0.088-0.222-0.208-0.412-0.362-0.571c-0.155-0.159-0.337-0.285-0.548-0.378
		c-0.21-0.093-0.439-0.14-0.686-0.14c-0.52,0-0.941,0.171-1.262,0.511c-0.322,0.341-0.482,0.776-0.482,1.308H479.517z"/>
	<path fill="#FBD200" d="M498.129,99.764c0,1.171-0.428,2.173-1.283,3.007c-0.831,0.834-1.848,1.251-3.05,1.251
		c-1.19,0-2.226-0.423-3.105-1.27c-0.854-0.859-1.282-1.898-1.282-3.119c0-1.195,0.421-2.216,1.264-3.062
		c0.844-0.847,1.859-1.27,3.05-1.27c1.228,0,2.269,0.436,3.124,1.308C497.701,97.467,498.129,98.519,498.129,99.764z"/>
</g>
<g enable-background="new    ">
	<path fill="#FFFFFF" d="M509.642,88.988c-0.619-0.418-1.152-0.864-1.6-1.339s-0.802-0.985-1.062-1.532
		c-0.488-1.03-0.732-2.502-0.732-4.416v-8.326c0-1.834-0.203-2.944-0.609-3.33c-0.391-0.402-1.522-0.604-3.395-0.604l-1.049,0.024
		l-0.562,0.024v-6.757l4.664-0.193c3.438,0.049,5.888,0.738,7.35,2.068c1.496,1.347,2.244,3.554,2.244,6.619v10.1
		c0,1.672,0.212,2.864,0.635,3.578c0.407,0.665,1.229,1.135,2.467,1.411v6.352c-1.156,0.243-1.971,0.682-2.441,1.313
		c-0.439,0.634-0.66,1.664-0.66,3.091v10.148c0,3.066-0.748,5.257-2.244,6.571c-1.462,1.33-3.92,1.995-7.375,1.995l-4.639-0.129
		v-7.195h1.709c1.807,0.032,2.906-0.16,3.297-0.579c0.406-0.386,0.609-1.488,0.609-3.307v-8.325c0-2.043,0.229-3.507,0.684-4.392
		C507.404,90.863,508.306,89.905,509.642,88.988z"/>
</g>
</svg>
