<?xml version="1.0" encoding="utf-8"?>
<!-- Generator: Adobe Illustrator 14.0.0, SVG Export Plug-In . SVG Version: 6.00 Build 43363)  -->
<!DOCTYPE svg PUBLIC "-//W3C//DTD SVG 1.1//EN" "http://www.w3.org/Graphics/SVG/1.1/DTD/svg11.dtd">
<svg version="1.1" id="Calque_1" xmlns="http://www.w3.org/2000/svg" xmlns:xlink="http://www.w3.org/1999/xlink" x="0px" y="0px"
	 width="613.549px" height="165.781px" viewBox="0 0 613.549 165.781" enable-background="new 0 0 613.549 165.781"
	 xml:space="preserve">
<g enable-background="new    ">
	<path fill="#FFFFFF" d="M70.409,39.416c0,1.54-0.562,2.859-1.688,3.956c-1.093,1.098-2.431,1.646-4.013,1.646
		c-1.566,0-2.928-0.557-4.086-1.671c-1.125-1.13-1.688-2.498-1.688-4.104c0-1.572,0.554-2.915,1.664-4.029s2.447-1.671,4.013-1.671
		c1.614,0,2.985,0.573,4.11,1.72C69.846,36.395,70.409,37.778,70.409,39.416z"/>
</g>
<g enable-background="new    ">
	<path fill="#FFFFFF" d="M95.922,33.501c0,3.516-1.024,6.314-3.071,8.396c-2.048,2.081-4.793,3.122-8.235,3.122
		c-3.383,0-6.076-1.062-8.079-3.186c-1.988-2.138-2.982-5.006-2.982-8.606c0-3.6,1.016-6.489,3.049-8.67
		c2.018-2.193,4.696-3.29,8.035-3.29c3.516,0,6.276,1.09,8.279,3.27S95.922,29.704,95.922,33.501z M87.089,33.203
		c0-0.81-0.055-1.542-0.166-2.196c-0.11-0.655-0.269-1.215-0.476-1.681c-0.208-0.466-0.456-0.827-0.746-1.083
		c-0.29-0.257-0.615-0.385-0.974-0.385c-0.705,0-1.271,0.485-1.699,1.457c-0.428,0.851-0.642,2.126-0.642,3.827
		c0,1.674,0.214,2.949,0.642,3.826c0.428,0.973,1.001,1.458,1.719,1.458c0.677,0,1.236-0.479,1.678-1.438
		C86.867,35.923,87.089,34.661,87.089,33.203z"/>
	<path fill="#FFFFFF" d="M120.883,45.019h-8.833V32.45c0-1.084-0.136-1.838-0.407-2.264c-0.271-0.424-0.742-0.637-1.415-0.637
		c-1.569,0-2.354,1.164-2.354,3.494v11.975h-8.833V21.267h8.833c-0.015,0.586-0.029,1.128-0.044,1.625
		c-0.015,0.499-0.037,0.96-0.066,1.385l-0.088,1.516c1.519-3.017,3.753-4.525,6.702-4.525c2.05,0,3.642,0.695,4.777,2.087
		c1.151,1.391,1.727,3.327,1.727,5.809V45.019z"/>
	<path fill="#FFFFFF" d="M136.176,36.977l8.613,0.176c-0.615,2.608-1.813,4.571-3.592,5.89c-1.78,1.317-4.105,1.977-6.977,1.977
		c-3.404,0-6.074-1.014-8.013-3.04c-1.924-2.056-2.886-4.863-2.886-8.425c0-3.617,1.035-6.565,3.106-8.846
		c2.07-2.295,4.741-3.441,8.012-3.441c3.252,0,5.845,1.11,7.778,3.332c1.934,2.235,2.9,5.2,2.9,8.894l-0.044,1.507h-12.92
		c0.103,2.285,0.791,3.428,2.065,3.428C135.216,38.427,135.868,37.943,136.176,36.977z M136.351,30.011
		c0-0.313-0.051-0.602-0.154-0.863c-0.103-0.263-0.246-0.487-0.429-0.677c-0.183-0.188-0.399-0.338-0.648-0.447
		c-0.249-0.11-0.52-0.165-0.813-0.165c-0.615,0-1.113,0.201-1.494,0.604s-0.571,0.92-0.571,1.548H136.351z"/>
</g>
<g enable-background="new    ">
	<path fill="#FFFFFF" d="M160.676,45.019h-9.163V19.223h-5.054v-8.13h19.468v8.13h-5.251V45.019z"/>
</g>
<g enable-background="new    ">
	<path fill="#FFFFFF" d="M194.173,45.019h-8.723l-1.802-14.238l-2.725,14.238h-8.635l-5.911-23.752h8.657l1.34,7.624
		c0.161,0.967,0.319,1.999,0.472,3.099c0.154,1.098,0.297,2.292,0.429,3.581c0.117-1.333,0.274-2.611,0.473-3.834
		c0.197-1.224,0.421-2.406,0.67-3.549l1.56-6.921h7.515l1.274,7.646c0.161,0.981,0.308,2.024,0.439,3.131
		c0.132,1.105,0.256,2.281,0.374,3.526c0.234-1.685,0.469-3.219,0.703-4.604c0.234-1.384,0.476-2.654,0.725-3.812l1.274-5.889h8.811
		L194.173,45.019z"/>
</g>
<g enable-background="new    ">
	<path fill="#FFFFFF" d="M224.419,33.501c0,3.516-1.024,6.314-3.071,8.396c-2.048,2.081-4.793,3.122-8.235,3.122
		c-3.383,0-6.076-1.062-8.079-3.186c-1.988-2.138-2.982-5.006-2.982-8.606c0-3.6,1.016-6.489,3.049-8.67
		c2.018-2.193,4.696-3.29,8.035-3.29c3.516,0,6.276,1.09,8.279,3.27S224.419,29.704,224.419,33.501z M215.586,33.203
		c0-0.81-0.055-1.542-0.166-2.196c-0.11-0.655-0.269-1.215-0.476-1.681c-0.208-0.466-0.456-0.827-0.746-1.083
		c-0.29-0.257-0.615-0.385-0.974-0.385c-0.705,0-1.271,0.485-1.699,1.457c-0.428,0.851-0.642,2.126-0.642,3.827
		c0,1.674,0.214,2.949,0.642,3.826c0.428,0.973,1.001,1.458,1.719,1.458c0.677,0,1.236-0.479,1.678-1.438
		C215.365,35.923,215.586,34.661,215.586,33.203z"/>
	<path fill="#FFFFFF" d="M237.031,45.019h-9.163V11.093h16.194v8.13h-7.031v4.329h6.548v8.129h-6.548V45.019z"/>
</g>
<g enable-background="new    ">
	<path fill="#FFFFFF" d="M256.125,45.019h-8.833V21.267h8.833l-0.461,4.636c1.333-3.472,3.538-5.208,6.614-5.208v9.889
		c-0.967-0.527-1.787-0.791-2.461-0.791c-1.187,0-2.098,0.428-2.736,1.285c-0.637,0.856-0.956,2.105-0.956,3.746V45.019z"/>
</g>
<g enable-background="new    ">
	<path fill="#FFFFFF" d="M277.292,36.977l8.613,0.176c-0.615,2.608-1.813,4.571-3.592,5.89c-1.78,1.317-4.105,1.977-6.977,1.977
		c-3.404,0-6.074-1.014-8.013-3.04c-1.924-2.056-2.886-4.863-2.886-8.425c0-3.617,1.035-6.565,3.106-8.846
		c2.07-2.295,4.741-3.441,8.012-3.441c3.252,0,5.845,1.11,7.778,3.332c1.934,2.235,2.9,5.2,2.9,8.894l-0.044,1.507h-12.92
		c0.103,2.285,0.791,3.428,2.065,3.428C276.333,38.427,276.985,37.943,277.292,36.977z M277.468,30.011
		c0-0.313-0.051-0.602-0.154-0.863c-0.103-0.263-0.246-0.487-0.429-0.677c-0.183-0.188-0.399-0.338-0.648-0.447
		c-0.249-0.11-0.52-0.165-0.813-0.165c-0.615,0-1.113,0.201-1.494,0.604s-0.571,0.92-0.571,1.548H277.468z"/>
	<path fill="#FFFFFF" d="M301.792,36.977l8.613,0.176c-0.615,2.608-1.812,4.571-3.592,5.89c-1.781,1.317-4.106,1.977-6.977,1.977
		c-3.404,0-6.074-1.014-8.013-3.04c-1.924-2.056-2.886-4.863-2.886-8.425c0-3.617,1.035-6.565,3.106-8.846
		c2.07-2.295,4.741-3.441,8.012-3.441c3.252,0,5.845,1.11,7.779,3.332c1.934,2.235,2.9,5.2,2.9,8.894l-0.045,1.507h-12.919
		c0.103,2.285,0.791,3.428,2.065,3.428C300.832,38.427,301.484,37.943,301.792,36.977z M301.968,30.011
		c0-0.313-0.051-0.602-0.154-0.863c-0.103-0.263-0.246-0.487-0.429-0.677c-0.183-0.188-0.399-0.338-0.648-0.447
		c-0.249-0.11-0.52-0.165-0.813-0.165c-0.615,0-1.113,0.201-1.494,0.604s-0.571,0.92-0.571,1.548H301.968z"/>
</g>
<g enable-background="new    ">
	<path fill="#FFFFFF" d="M322.741,30.193c0.617,0.421,1.15,0.87,1.599,1.348c0.447,0.478,0.802,0.992,1.062,1.542
		c0.505,0.988,0.758,2.47,0.758,4.444v8.354c0,1.846,0.195,2.963,0.586,3.352c0.406,0.404,1.545,0.607,3.418,0.607l1.025-0.024
		l0.586-0.024v6.8l-4.664,0.194c-3.152-0.049-5.381-0.742-6.686-2.08c-1.32-1.354-1.98-3.572-1.98-6.655l-0.465-10.131
		c0-1.68-0.211-2.879-0.635-3.597c-0.406-0.669-1.229-1.142-2.465-1.42v-6.387c1.172-0.244,1.977-0.685,2.416-1.321
		c0.456-0.604,0.684-1.639,0.684-3.107V11.859c0-3.083,0.74-5.285,2.219-6.606c1.463-1.338,3.921-2.007,7.377-2.007l4.662,0.129
		v7.195h-1.709c-1.807-0.016-2.913,0.178-3.32,0.583c-0.391,0.389-0.586,1.497-0.586,3.327v8.402
		c-0.309,1.83-0.699,3.304-1.172,4.42C324.978,28.308,324.075,29.271,322.741,30.193z"/>
</g>
<g enable-background="new    ">
	<path fill="#FBD200" d="M350.86,36.298l-0.445,7.765c-1.721,0.638-3.26,0.956-4.621,0.956c-3.203,0-5.9-1.135-8.09-3.404
		c-2.449-2.544-3.674-6.145-3.674-10.804c0-4.359,1.15-7.859,3.451-10.499c2.301-2.628,5.375-3.941,9.223-3.941
		c1.248,0,2.523,0.226,3.822,0.676v7.915c-1.15-1.15-2.332-1.726-3.545-1.726c-1.583,0-2.82,0.669-3.711,2.005
		c-0.891,1.35-1.336,3.213-1.336,5.592c0,1.153,0.111,2.183,0.334,3.091c0.223,0.907,0.541,1.674,0.956,2.299
		c0.414,0.626,0.925,1.104,1.53,1.435c0.606,0.331,1.299,0.497,2.078,0.497C348.169,38.153,349.51,37.535,350.86,36.298z"/>
	<path fill="#FBD200" d="M364.423,16.37l-5.01,13.786h-6.104l3.506-13.786H364.423z"/>
	<path fill="#FBD200" d="M377.856,38.228l7.273,0.148c-0.52,2.203-1.53,3.86-3.033,4.974c-1.503,1.112-3.467,1.669-5.891,1.669
		c-2.875,0-5.13-0.855-6.768-2.567c-1.624-1.735-2.436-4.106-2.436-7.114c0-3.054,0.873-5.544,2.623-7.47
		c1.748-1.938,4.003-2.906,6.766-2.906c2.746,0,4.936,0.938,6.568,2.813c1.633,1.889,2.449,4.392,2.449,7.511l-0.037,1.272h-10.91
		c0.086,1.93,0.668,2.895,1.744,2.895C377.046,39.452,377.596,39.044,377.856,38.228z M378.005,32.346
		c0-0.266-0.043-0.509-0.129-0.729c-0.088-0.222-0.208-0.412-0.362-0.571c-0.155-0.159-0.337-0.285-0.548-0.378
		c-0.21-0.093-0.439-0.14-0.686-0.14c-0.52,0-0.941,0.171-1.262,0.511c-0.322,0.341-0.482,0.776-0.482,1.308H378.005z"/>
</g>
<g enable-background="new    ">
	<path fill="#FBD200" d="M387.542,42.945l2.709-5.59c1.336,1.398,2.578,2.097,3.729,2.097c0.965,0,1.447-0.327,1.447-0.98
		c0-0.56-0.648-1.062-1.947-1.505c-3.502-1.166-5.252-3.016-5.252-5.548c0-1.855,0.783-3.396,2.35-4.62
		c1.579-1.226,3.549-1.838,5.908-1.838c1.93,0,3.92,0.571,5.975,1.713l-2.543,5.616c-1.249-1.175-2.27-1.763-3.061-1.763
		c-0.779,0-1.17,0.293-1.17,0.88c0,0.633,0.756,1.225,2.268,1.777c1.89,0.679,3.175,1.396,3.855,2.156
		c0.717,0.759,1.076,1.806,1.076,3.14c0,1.921-0.766,3.49-2.297,4.71c-1.53,1.219-3.492,1.828-5.885,1.828
		c-1.127,0-2.246-0.144-3.359-0.43c-0.52-0.137-1.088-0.346-1.707-0.626C389.019,43.684,388.321,43.344,387.542,42.945z"/>
</g>
<g enable-background="new    ">
	<path fill="#FBD200" d="M413.989,45.019h-7.459V30.991h-2.115v-6.03h2.115v-5.9h7.459v5.9h2.469v6.03h-2.469V45.019z"/>
	<path fill="#FBD200" d="M437.35,45.019h-7.459V13.717h7.459V45.019z"/>
	<path fill="#FBD200" d="M451.061,38.228l7.273,0.148c-0.52,2.203-1.53,3.86-3.033,4.974c-1.503,1.112-3.467,1.669-5.891,1.669
		c-2.875,0-5.13-0.855-6.768-2.567c-1.624-1.735-2.436-4.106-2.436-7.114c0-3.054,0.873-5.544,2.623-7.47
		c1.748-1.938,4.003-2.906,6.766-2.906c2.746,0,4.936,0.938,6.568,2.813c1.633,1.889,2.449,4.392,2.449,7.511l-0.037,1.272h-10.91
		c0.086,1.93,0.668,2.895,1.744,2.895C450.251,39.452,450.802,39.044,451.061,38.228z M451.21,32.346
		c0-0.266-0.043-0.509-0.129-0.729c-0.088-0.222-0.208-0.412-0.362-0.571c-0.155-0.159-0.337-0.285-0.548-0.378
		c-0.21-0.093-0.439-0.14-0.686-0.14c-0.52,0-0.941,0.171-1.262,0.511c-0.322,0.341-0.482,0.776-0.482,1.308H451.21z"/>
	<path fill="#FBD200" d="M491.344,45.019h-7.459V34.405c0-0.915-0.115-1.552-0.344-1.911c-0.229-0.358-0.627-0.538-1.195-0.538
		c-1.324,0-1.986,0.983-1.986,2.95v10.112h-7.459V24.961h7.459c-0.014,0.495-0.025,0.953-0.037,1.373
		c-0.014,0.421-0.031,0.811-0.057,1.169l-0.074,1.28c1.283-2.548,3.17-3.822,5.66-3.822c1.73,0,3.074,0.588,4.033,1.763
		c0.973,1.175,1.459,2.81,1.459,4.905V45.019z"/>
	<path fill="#FBD200" d="M512.292,35.293c0,2.969-0.864,5.332-2.594,7.09c-1.729,1.757-4.047,2.636-6.953,2.636
		c-2.857,0-5.131-0.896-6.822-2.689c-1.68-1.806-2.52-4.228-2.52-7.268c0-3.041,0.859-5.48,2.575-7.321
		c1.704-1.853,3.966-2.779,6.785-2.779c2.97,0,5.3,0.921,6.991,2.761C511.446,29.562,512.292,32.086,512.292,35.293z
		 M504.833,35.041c0-0.684-0.047-1.302-0.14-1.854s-0.228-1.026-0.401-1.42c-0.176-0.393-0.386-0.697-0.631-0.914
		c-0.244-0.217-0.519-0.325-0.822-0.325c-0.594,0-1.072,0.41-1.434,1.231c-0.361,0.718-0.543,1.795-0.543,3.23
		c0,1.414,0.182,2.491,0.543,3.231c0.361,0.821,0.846,1.231,1.451,1.231c0.572,0,1.044-0.404,1.417-1.214
		C504.647,37.338,504.833,36.272,504.833,35.041z"/>
	<path fill="#FBD200" d="M543.055,45.019h-7.459V33.663c0-1.273-0.377-1.911-1.131-1.911c-1.127,0-1.689,1.039-1.689,3.117v10.149
		h-7.459V33.941c0-1.36-0.42-2.041-1.262-2.041c-0.605,0-1.035,0.231-1.289,0.696c-0.254,0.463-0.381,1.277-0.381,2.439v9.982
		h-7.459V24.961h7.459V26c0,0.816-0.037,1.584-0.111,2.301c1.326-2.227,3.055-3.34,5.186-3.34c2.393,0,4.164,1.386,5.316,4.156
		c1.004-2.771,2.664-4.156,4.982-4.156c1.746,0,3.109,0.624,4.089,1.871c0.806,1.042,1.208,2.61,1.208,4.706V45.019z"/>
	<path fill="#FBD200" d="M554.802,40.761c0,1.171-0.428,2.173-1.283,3.007c-0.831,0.834-1.848,1.251-3.05,1.251
		c-1.19,0-2.226-0.423-3.105-1.27c-0.854-0.859-1.282-1.898-1.282-3.119c0-1.195,0.421-2.216,1.264-3.062
		c0.844-0.847,1.859-1.27,3.05-1.27c1.228,0,2.269,0.436,3.124,1.308C554.374,38.464,554.802,39.516,554.802,40.761z"/>
</g>
<path fill="#FBD200" d="M20.625,90.619H7.08V61.971h7.737v21.783h5.808V90.619z M31.276,85.053c0.841,0,1.392-0.408,1.65-1.225
	l7.273,0.148c-0.52,2.203-1.531,3.859-3.034,4.973s-3.467,1.67-5.891,1.67c-2.875,0-5.129-0.855-6.768-2.567
	c-1.625-1.735-2.437-4.106-2.437-7.114c0-3.055,0.874-5.544,2.623-7.47c1.749-1.938,4.003-2.906,6.766-2.906
	c2.746,0,4.937,0.938,6.568,2.813c1.633,1.889,2.449,4.392,2.449,7.511l-0.037,1.272H29.53C29.618,84.088,30.2,85.053,31.276,85.053
	L31.276,85.053z M33.076,77.946c0-0.266-0.043-0.509-0.13-0.729c-0.087-0.222-0.208-0.412-0.362-0.571s-0.337-0.285-0.547-0.378
	c-0.21-0.093-0.438-0.14-0.687-0.14c-0.521,0-0.94,0.17-1.263,0.511c-0.321,0.341-0.481,0.776-0.481,1.308h3.47V77.946z
	 M63.219,90.619H55.76V76.592h-2.114v-6.03h2.114v-5.9h7.459v5.9h2.469v6.03h-2.469V90.619z M76.534,85.053
	c0.841,0,1.392-0.408,1.651-1.225l7.272,0.148c-0.52,2.203-1.531,3.859-3.034,4.973s-3.467,1.67-5.891,1.67
	c-2.875,0-5.13-0.855-6.767-2.567c-1.625-1.735-2.438-4.106-2.438-7.114c0-3.055,0.874-5.544,2.623-7.47
	c1.749-1.938,4.003-2.906,6.766-2.906c2.746,0,4.937,0.938,6.568,2.813c1.633,1.889,2.449,4.392,2.449,7.511L85.7,82.158H74.79
	C74.876,84.088,75.458,85.053,76.534,85.053L76.534,85.053z M73.973,68.001l2.021-6.03h6.012l-3.767,6.03H73.973z M78.333,77.946
	c0-0.266-0.043-0.509-0.13-0.729c-0.087-0.222-0.208-0.412-0.362-0.571s-0.337-0.285-0.547-0.378c-0.21-0.093-0.438-0.14-0.687-0.14
	c-0.521,0-0.94,0.17-1.262,0.511c-0.322,0.341-0.482,0.776-0.482,1.308h3.47V77.946z M96.037,90.619h-7.459V59.317h7.459V90.619z
	 M108.112,85.053c0.841,0,1.392-0.408,1.651-1.225l7.272,0.148c-0.52,2.203-1.531,3.859-3.034,4.973s-3.467,1.67-5.891,1.67
	c-2.874,0-5.129-0.855-6.766-2.567c-1.625-1.735-2.438-4.106-2.438-7.114c0-3.055,0.874-5.544,2.623-7.47
	c1.748-1.938,4.003-2.906,6.766-2.906c2.746,0,4.937,0.938,6.568,2.813c1.633,1.889,2.449,4.392,2.449,7.511l-0.037,1.272h-10.91
	C106.454,84.088,107.036,85.053,108.112,85.053L108.112,85.053z M105.551,68.001l2.022-6.03h6.012l-3.767,6.03H105.551z
	 M109.912,77.946c0-0.266-0.043-0.509-0.13-0.729c-0.086-0.222-0.207-0.412-0.362-0.571c-0.154-0.159-0.337-0.285-0.547-0.378
	c-0.21-0.093-0.438-0.14-0.687-0.14c-0.521,0-0.94,0.17-1.263,0.511c-0.321,0.341-0.481,0.776-0.481,1.308h3.47V77.946z
	 M127.615,99.562h-7.459v-29h7.44l-0.148,2.839c0.309-0.594,0.625-1.098,0.946-1.513c0.32-0.414,0.668-0.738,1.039-0.974
	c0.371-0.236,0.77-0.353,1.196-0.353c0.428,0,0.9,0,1.419,0c1.931,0,3.5,0.926,4.714,2.778c1.199,1.829,1.8,4.258,1.8,7.286
	c0,3.075-0.575,5.51-1.727,7.303c-1.126,1.795-2.678,2.69-4.656,2.69c-1.807,0-3.384-1.045-4.731-3.136
	c0.062,0.631,0.099,1.175,0.111,1.633c0.037,0.47,0.056,1.035,0.056,1.697V99.562L127.615,99.562z M131.085,80.477
	c0-1.23-0.151-2.186-0.455-2.865c-0.303-0.68-0.732-1.02-1.29-1.02c-1.149,0-1.726,1.318-1.726,3.955
	c0,2.694,0.557,4.042,1.67,4.042c0.557,0,0.996-0.36,1.317-1.08C130.924,82.788,131.085,81.778,131.085,80.477z M159.119,90.619
	h-7.459V80.006c0-0.915-0.09-1.553-0.269-1.911c-0.18-0.358-0.492-0.538-0.938-0.538c-1.039,0-1.559,0.983-1.559,2.95v10.112h-7.459
	V59.317h7.459v11.597c0,0.606-0.003,1.113-0.01,1.521c-0.006,0.408-0.016,0.718-0.027,0.928c-0.012,0.21-0.031,0.433-0.057,0.668
	c-0.024,0.235-0.049,0.495-0.073,0.779c1.202-2.833,2.961-4.249,5.278-4.249c1.611,0,2.863,0.588,3.756,1.763
	c0.904,1.175,1.356,2.81,1.356,4.905V90.619z M180.839,80.894c0,2.969-0.864,5.333-2.594,7.088
	c-1.729,1.759-4.047,2.638-6.954,2.638c-2.856,0-5.131-0.896-6.822-2.69c-1.679-1.805-2.519-4.228-2.519-7.268
	s0.858-5.479,2.575-7.321c1.704-1.853,3.966-2.778,6.785-2.778c2.97,0,5.3,0.92,6.991,2.761
	C179.994,75.165,180.839,77.687,180.839,80.894z M172.82,83.839c0.374-0.9,0.56-1.967,0.56-3.197c0-0.684-0.047-1.302-0.14-1.854
	c-0.093-0.554-0.227-1.026-0.402-1.42c-0.175-0.393-0.385-0.698-0.63-0.914c-0.245-0.217-0.519-0.325-0.822-0.325
	c-0.595,0-1.072,0.41-1.435,1.23c-0.361,0.719-0.542,1.796-0.542,3.231c0,1.414,0.181,2.491,0.542,3.231
	c0.362,0.821,0.846,1.23,1.452,1.23C171.975,85.053,172.447,84.648,172.82,83.839L172.82,83.839z M201.907,90.619h-7.459V80.006
	c0-0.915-0.114-1.553-0.343-1.911c-0.229-0.358-0.627-0.538-1.195-0.538c-1.325,0-1.988,0.983-1.988,2.95v10.112h-7.459V70.562
	h7.459c-0.012,0.495-0.024,0.952-0.037,1.373c-0.012,0.421-0.03,0.811-0.056,1.169l-0.074,1.28c1.283-2.548,3.169-3.822,5.659-3.822
	c1.731,0,3.076,0.588,4.034,1.763c0.972,1.175,1.458,2.81,1.458,4.905L201.907,90.619L201.907,90.619z M213.181,85.053
	c0.841,0,1.392-0.408,1.65-1.225l7.273,0.148c-0.521,2.203-1.531,3.859-3.034,4.973s-3.467,1.67-5.891,1.67
	c-2.874,0-5.13-0.855-6.767-2.567c-1.625-1.735-2.437-4.106-2.437-7.114c0-3.055,0.874-5.544,2.623-7.47
	c1.748-1.938,4.003-2.906,6.766-2.906c2.746,0,4.936,0.938,6.568,2.813c1.633,1.889,2.448,4.392,2.448,7.511l-0.036,1.272h-10.91
	C211.523,84.088,212.105,85.053,213.181,85.053L213.181,85.053z M214.981,77.946c0-0.266-0.043-0.509-0.13-0.729
	c-0.086-0.222-0.207-0.412-0.362-0.571s-0.337-0.285-0.547-0.378c-0.21-0.093-0.439-0.14-0.688-0.14c-0.52,0-0.939,0.17-1.262,0.511
	c-0.322,0.341-0.481,0.776-0.481,1.308h3.47V77.946z M246.85,84.186v6.313c-0.445,0.046-0.834,0.077-1.168,0.095
	s-0.613,0.025-0.836,0.025c-2.185,0-4-0.641-5.451-1.922c-0.982-0.866-1.778-2.053-2.391-3.561
	c-0.611-1.507-0.917-3.056-0.917-4.646c0-2.824,0.875-5.19,2.625-7.101c1.736-1.887,3.948-2.83,6.636-2.83
	c0.159,0,0.363,0.007,0.61,0.02c0.248,0.013,0.545,0.032,0.892,0.058v6.788c-2.201,0.137-3.304,1.243-3.304,3.319
	c0,0.936,0.272,1.757,0.816,2.464c0.557,0.674,1.219,1.01,1.986,1.01c0.073,0,0.149-0.003,0.23-0.009
	C246.661,84.205,246.751,84.197,246.85,84.186z M260.477,61.971l-5.011,13.786h-6.104l3.507-13.786H260.477z M272.271,85.053
	c0.84,0,1.391-0.408,1.649-1.225l7.273,0.148c-0.521,2.203-1.53,3.859-3.033,4.973s-3.467,1.67-5.891,1.67
	c-2.875,0-5.13-0.855-6.769-2.567c-1.624-1.735-2.436-4.106-2.436-7.114c0-3.055,0.873-5.544,2.623-7.47
	c1.748-1.938,4.003-2.906,6.766-2.906c2.746,0,4.937,0.938,6.568,2.813c1.633,1.889,2.449,4.392,2.449,7.511l-0.037,1.272h-10.91
	C270.613,84.088,271.195,85.053,272.271,85.053L272.271,85.053z M274.07,77.946c0-0.266-0.043-0.509-0.129-0.729
	c-0.088-0.222-0.207-0.412-0.362-0.571s-0.337-0.285-0.548-0.378c-0.21-0.093-0.439-0.14-0.686-0.14
	c-0.521,0-0.941,0.17-1.263,0.511c-0.321,0.341-0.481,0.776-0.481,1.308h3.469V77.946z M283.592,88.546l2.709-5.59
	c1.337,1.397,2.579,2.097,3.729,2.097c0.965,0,1.447-0.326,1.447-0.979c0-0.56-0.649-1.062-1.948-1.505
	c-3.501-1.167-5.251-3.016-5.251-5.548c0-1.855,0.782-3.396,2.349-4.62c1.58-1.226,3.549-1.838,5.908-1.838
	c1.93,0,3.921,0.571,5.975,1.713l-2.542,5.616c-1.248-1.175-2.271-1.763-3.062-1.763c-0.779,0-1.169,0.293-1.169,0.88
	c0,0.633,0.756,1.225,2.267,1.776c1.892,0.679,3.176,1.397,3.855,2.157c0.718,0.759,1.077,1.806,1.077,3.14
	c0,1.921-0.767,3.489-2.297,4.71c-1.53,1.219-3.493,1.828-5.887,1.828c-1.126,0-2.245-0.145-3.357-0.43
	c-0.521-0.138-1.089-0.347-1.707-0.627C285.07,89.283,284.371,88.943,283.592,88.546z M310.027,90.619h-7.459V76.592h-2.115v-6.03
	h2.115v-5.9h7.459v5.9h2.469v6.03h-2.469V90.619z M340.991,90.619h-16.068l4.861-10.382c0.234-0.518,0.511-1.076,0.825-1.675
	c0.315-0.599,0.672-1.255,1.066-1.971h-5.659v-6.03h16.161l-4.73,10.251c-0.558,1.203-1.213,2.462-1.967,3.776h5.511V90.619z
	 M353.248,85.053c0.842,0,1.393-0.408,1.652-1.225l7.272,0.148c-0.52,2.203-1.531,3.859-3.033,4.973
	c-1.504,1.113-3.467,1.67-5.893,1.67c-2.873,0-5.129-0.855-6.766-2.567c-1.625-1.735-2.438-4.106-2.438-7.114
	c0-3.055,0.874-5.544,2.622-7.47c1.748-1.938,4.004-2.906,6.766-2.906c2.746,0,4.937,0.938,6.568,2.813
	c1.633,1.889,2.449,4.392,2.449,7.511l-0.037,1.272h-10.91C351.592,84.088,352.172,85.053,353.248,85.053L353.248,85.053z
	 M355.049,77.946c0-0.266-0.043-0.509-0.131-0.729c-0.086-0.222-0.207-0.412-0.361-0.571c-0.153-0.159-0.336-0.285-0.547-0.378
	c-0.211-0.093-0.438-0.14-0.688-0.14c-0.521,0-0.939,0.17-1.263,0.511c-0.319,0.341-0.481,0.776-0.481,1.308h3.471V77.946z
	 M372.752,90.619h-7.459V70.562h7.459l-0.389,3.915c1.125-2.932,2.985-4.397,5.584-4.397v8.35c-0.816-0.445-1.51-0.668-2.078-0.668
	c-1.002,0-1.771,0.361-2.312,1.085c-0.536,0.724-0.807,1.778-0.807,3.164L372.752,90.619L372.752,90.619z M398.73,80.894
	c0,2.969-0.863,5.333-2.595,7.088c-1.729,1.759-4.047,2.638-6.953,2.638c-2.856,0-5.131-0.896-6.821-2.69
	c-1.681-1.805-2.521-4.228-2.521-7.268s0.859-5.479,2.576-7.321c1.703-1.853,3.965-2.778,6.783-2.778
	c2.971,0,5.301,0.92,6.992,2.761C397.883,75.165,398.73,77.687,398.73,80.894z M390.713,83.839c0.373-0.9,0.559-1.967,0.559-3.197
	c0-0.684-0.047-1.302-0.139-1.854c-0.094-0.554-0.229-1.026-0.402-1.42c-0.176-0.393-0.385-0.698-0.631-0.914
	c-0.244-0.217-0.518-0.325-0.821-0.325c-0.595,0-1.072,0.41-1.435,1.23c-0.36,0.719-0.543,1.796-0.543,3.231
	c0,1.414,0.183,2.491,0.543,3.231c0.361,0.821,0.847,1.23,1.451,1.23C389.867,85.053,390.34,84.648,390.713,83.839L390.713,83.839z
	 M412.07,88.546l2.709-5.59c1.336,1.397,2.578,2.097,3.729,2.097c0.965,0,1.447-0.326,1.447-0.979c0-0.56-0.648-1.062-1.947-1.505
	c-3.502-1.167-5.252-3.016-5.252-5.548c0-1.855,0.783-3.396,2.351-4.62c1.577-1.226,3.549-1.838,5.907-1.838
	c1.931,0,3.92,0.571,5.976,1.713l-2.543,5.616c-1.25-1.175-2.271-1.763-3.062-1.763c-0.778,0-1.17,0.293-1.17,0.88
	c0,0.633,0.756,1.225,2.269,1.776c1.889,0.679,3.174,1.397,3.854,2.157c0.717,0.759,1.076,1.806,1.076,3.14
	c0,1.921-0.766,3.489-2.297,4.71c-1.531,1.219-3.492,1.828-5.885,1.828c-1.127,0-2.246-0.145-3.359-0.43
	c-0.52-0.138-1.088-0.347-1.707-0.627C413.547,89.283,412.849,88.943,412.07,88.546z M436.551,61.247
	c0.842,0.841,1.262,1.874,1.262,3.099c0,1.175-0.428,2.189-1.28,3.043c-0.877,0.841-1.898,1.262-3.062,1.262
	c-1.199,0-2.227-0.427-3.08-1.28c-0.842-0.878-1.262-1.905-1.262-3.08c0-1.2,0.42-2.221,1.262-3.062
	c0.879-0.841,1.898-1.262,3.062-1.262C434.676,59.967,435.709,60.394,436.551,61.247L436.551,61.247z M437.181,90.619h-7.459V70.562
	h7.459V90.619z M459.646,90.619H451l-0.705-1.855c-0.074-0.209-0.148-0.418-0.223-0.621c-0.075-0.205-0.154-0.418-0.24-0.641
	c-0.088-0.223-0.174-0.467-0.26-0.732c-0.088-0.267-0.181-0.565-0.279-0.899c-0.172,0.495-0.355,0.983-0.547,1.466
	c-0.192,0.482-0.393,0.959-0.604,1.43l-0.87,1.854h-8.351l6.104-10.316l-5.771-9.741h8.498l0.779,2.264
	c0.086,0.223,0.196,0.557,0.334,1.002l0.313,1.058c0.187-0.532,0.316-0.903,0.392-1.113l0.407-1.039l0.834-2.171h8.259l-5.938,9.574
	L459.646,90.619z M491.109,80.894c0,2.969-0.865,5.333-2.595,7.088c-1.729,1.759-4.049,2.638-6.954,2.638
	c-2.857,0-5.132-0.896-6.822-2.69c-1.681-1.805-2.519-4.228-2.519-7.268s0.857-5.479,2.574-7.321
	c1.703-1.853,3.965-2.778,6.785-2.778c2.969,0,5.299,0.92,6.99,2.761C490.26,75.165,491.109,77.687,491.109,80.894z M483.09,83.839
	c0.373-0.9,0.562-1.967,0.562-3.197c0-0.684-0.048-1.302-0.142-1.854c-0.094-0.554-0.229-1.026-0.401-1.42
	c-0.177-0.393-0.386-0.698-0.63-0.914c-0.245-0.217-0.52-0.325-0.821-0.325c-0.597,0-1.074,0.41-1.437,1.23
	c-0.36,0.719-0.541,1.796-0.541,3.231c0,1.414,0.181,2.491,0.541,3.231c0.361,0.821,0.847,1.23,1.451,1.23
	C482.244,85.053,482.717,84.648,483.09,83.839L483.09,83.839z M512.176,90.619h-7.459V80.006c0-0.915-0.113-1.553-0.344-1.911
	c-0.229-0.358-0.627-0.538-1.193-0.538c-1.326,0-1.987,0.983-1.987,2.95v10.112h-7.459V70.562h7.459
	c-0.013,0.495-0.025,0.952-0.037,1.373c-0.013,0.421-0.031,0.811-0.056,1.169l-0.073,1.28c1.282-2.548,3.168-3.822,5.657-3.822
	c1.73,0,3.076,0.588,4.035,1.763c0.972,1.175,1.457,2.81,1.457,4.905V90.619L512.176,90.619z M523.451,85.053
	c0.84,0,1.391-0.408,1.649-1.225l7.273,0.148c-0.521,2.203-1.531,3.859-3.033,4.973c-1.504,1.113-3.467,1.67-5.891,1.67
	c-2.875,0-5.131-0.855-6.769-2.567c-1.625-1.735-2.436-4.106-2.436-7.114c0-3.055,0.873-5.544,2.623-7.47
	c1.748-1.938,4.002-2.906,6.766-2.906c2.746,0,4.937,0.938,6.568,2.813c1.633,1.889,2.449,4.392,2.449,7.511l-0.037,1.272h-10.91
	C521.793,84.088,522.375,85.053,523.451,85.053L523.451,85.053z M525.25,77.946c0-0.266-0.043-0.509-0.129-0.729
	c-0.088-0.222-0.209-0.412-0.363-0.571s-0.336-0.285-0.547-0.378c-0.211-0.093-0.439-0.14-0.686-0.14
	c-0.521,0-0.941,0.17-1.263,0.511c-0.321,0.341-0.481,0.776-0.481,1.308h3.469V77.946z M567.008,68.65h-7.459v-1.521
	c0-0.297-0.055-0.578-0.166-0.845c-0.108-0.266-0.262-0.497-0.451-0.695c-0.19-0.198-0.42-0.353-0.686-0.464
	c-0.264-0.111-0.545-0.167-0.84-0.167c-0.592,0-1.103,0.217-1.533,0.649c-0.418,0.421-0.629,0.928-0.629,1.521v3.433h2.672v6.03
	h-2.672v14.027h-7.459V76.592h-2.152v-6.03h2.152v-3.433c0-2.437,1.016-4.472,3.043-6.104c1.881-1.509,4.07-2.264,6.568-2.264
	c2.5,0,4.688,0.755,6.567,2.264c2.029,1.633,3.043,3.668,3.043,6.104L567.008,68.65L567.008,68.65z M567.008,90.619h-7.459V70.562
	h7.459V90.619z M582.033,90.619h-7.775l-5.529-20.058h7.533l1.15,5.863c0.162,0.755,0.311,1.691,0.445,2.811
	c0.137,1.12,0.272,2.459,0.407,4.018c0.175-1.423,0.341-2.659,0.503-3.711c0.159-1.052,0.319-1.954,0.481-2.709l1.279-6.271h7.348
	L582.033,90.619z M597.892,85.053c0.843,0,1.392-0.408,1.65-1.225l7.273,0.148c-0.521,2.203-1.529,3.859-3.033,4.973
	c-1.502,1.113-3.467,1.67-5.892,1.67c-2.875,0-5.129-0.855-6.766-2.567c-1.625-1.735-2.438-4.106-2.438-7.114
	c0-3.055,0.872-5.544,2.622-7.47c1.748-1.938,4.005-2.906,6.767-2.906c2.746,0,4.936,0.938,6.567,2.813
	c1.634,1.889,2.449,4.392,2.449,7.511l-0.037,1.272h-10.909C596.234,84.088,596.816,85.053,597.892,85.053L597.892,85.053z
	 M599.691,77.946c0-0.266-0.043-0.509-0.13-0.729c-0.086-0.222-0.206-0.412-0.36-0.571c-0.156-0.159-0.338-0.285-0.549-0.378
	c-0.209-0.093-0.438-0.14-0.687-0.14c-0.52,0-0.938,0.17-1.262,0.511c-0.323,0.341-0.482,0.776-0.482,1.308h3.47V77.946z"/>
<g enable-background="new    ">
	<path fill="#FBD200" d="M58.935,140.896c0,2.969-0.865,5.332-2.594,7.09c-1.729,1.757-4.047,2.636-6.954,2.636
		c-2.857,0-5.131-0.896-6.822-2.689c-1.679-1.806-2.519-4.228-2.519-7.268c0-3.041,0.858-5.48,2.575-7.321
		c1.704-1.853,3.966-2.779,6.785-2.779c2.969,0,5.3,0.921,6.992,2.761C58.089,135.165,58.935,137.688,58.935,140.896z
		 M51.476,140.644c0-0.684-0.047-1.302-0.14-1.854s-0.227-1.026-0.402-1.42c-0.175-0.393-0.385-0.697-0.63-0.914
		c-0.245-0.217-0.519-0.325-0.822-0.325c-0.595,0-1.073,0.41-1.435,1.231c-0.361,0.718-0.542,1.795-0.542,3.23
		c0,1.414,0.181,2.491,0.542,3.231c0.362,0.821,0.846,1.231,1.452,1.231c0.571,0,1.043-0.404,1.417-1.214
		C51.29,142.94,51.476,141.875,51.476,140.644z"/>
	<path fill="#FBD200" d="M80.013,150.621h-7.459v-10.613c0-0.915-0.115-1.552-0.343-1.911c-0.229-0.358-0.627-0.538-1.195-0.538
		c-1.325,0-1.987,0.983-1.987,2.95v10.112H61.57v-20.058h7.459c-0.013,0.495-0.025,0.953-0.037,1.373
		c-0.013,0.421-0.031,0.811-0.056,1.169l-0.074,1.28c1.283-2.548,3.169-3.822,5.659-3.822c1.731,0,3.075,0.588,4.034,1.763
		c0.972,1.175,1.458,2.81,1.458,4.905V150.621z"/>
	<path fill="#FBD200" d="M92.927,143.83l7.273,0.148c-0.52,2.203-1.531,3.86-3.034,4.974c-1.503,1.112-3.467,1.669-5.891,1.669
		c-2.874,0-5.129-0.855-6.767-2.567c-1.625-1.735-2.437-4.106-2.437-7.114c0-3.054,0.874-5.544,2.623-7.47
		c1.748-1.938,4.003-2.906,6.766-2.906c2.746,0,4.936,0.938,6.568,2.813c1.633,1.889,2.449,4.392,2.449,7.511l-0.037,1.272h-10.91
		c0.086,1.93,0.668,2.895,1.744,2.895C92.117,145.055,92.668,144.646,92.927,143.83z M93.076,137.948
		c0-0.266-0.043-0.509-0.13-0.729c-0.087-0.222-0.208-0.412-0.362-0.571c-0.155-0.159-0.337-0.285-0.547-0.378
		c-0.21-0.093-0.439-0.14-0.687-0.14c-0.52,0-0.94,0.171-1.262,0.511c-0.322,0.341-0.482,0.776-0.482,1.308H93.076z"/>
	<path fill="#FBD200" d="M114.043,148.548l2.709-5.59c1.336,1.398,2.579,2.097,3.729,2.097c0.965,0,1.447-0.327,1.447-0.98
		c0-0.56-0.649-1.062-1.948-1.505c-3.501-1.166-5.251-3.016-5.251-5.548c0-1.855,0.783-3.396,2.35-4.62
		c1.579-1.226,3.548-1.838,5.907-1.838c1.93,0,3.921,0.571,5.975,1.713l-2.542,5.616c-1.25-1.175-2.27-1.763-3.062-1.763
		c-0.779,0-1.169,0.293-1.169,0.88c0,0.633,0.756,1.225,2.268,1.777c1.889,0.679,3.174,1.396,3.854,2.156
		c0.718,0.759,1.077,1.806,1.077,3.14c0,1.921-0.766,3.49-2.297,4.71c-1.531,1.219-3.493,1.828-5.886,1.828
		c-1.126,0-2.245-0.144-3.358-0.43c-0.52-0.137-1.089-0.346-1.707-0.626C115.521,149.286,114.822,148.946,114.043,148.548z"/>
</g>
<g enable-background="new    ">
	<path fill="#FBD200" d="M142.005,143.83l7.273,0.148c-0.52,2.203-1.531,3.86-3.034,4.974c-1.503,1.112-3.467,1.669-5.891,1.669
		c-2.874,0-5.129-0.855-6.767-2.567c-1.625-1.735-2.437-4.106-2.437-7.114c0-3.054,0.874-5.544,2.623-7.47
		c1.748-1.938,4.003-2.906,6.766-2.906c2.746,0,4.936,0.938,6.568,2.813c1.633,1.889,2.449,4.392,2.449,7.511l-0.037,1.272h-10.91
		c0.086,1.93,0.668,2.895,1.744,2.895C141.195,145.055,141.745,144.646,142.005,143.83z M142.154,137.948
		c0-0.266-0.043-0.509-0.13-0.729c-0.087-0.222-0.208-0.412-0.362-0.571c-0.155-0.159-0.337-0.285-0.547-0.378
		c-0.21-0.093-0.439-0.14-0.687-0.14c-0.52,0-0.94,0.171-1.262,0.511c-0.322,0.341-0.482,0.776-0.482,1.308H142.154z"/>
</g>
<g enable-background="new    ">
	<path fill="#FBD200" d="M163.726,150.621h-7.774l-5.529-20.058h7.533l1.15,5.863c0.161,0.755,0.309,1.691,0.445,2.812
		c0.136,1.119,0.272,2.458,0.408,4.017c0.173-1.422,0.34-2.659,0.501-3.711c0.161-1.051,0.321-1.954,0.482-2.709l1.28-6.271h7.348
		L163.726,150.621z"/>
</g>
<g enable-background="new    ">
	<path fill="#FBD200" d="M181.234,143.83l7.273,0.148c-0.52,2.203-1.531,3.86-3.034,4.974c-1.503,1.112-3.467,1.669-5.891,1.669
		c-2.874,0-5.129-0.855-6.767-2.567c-1.625-1.735-2.437-4.106-2.437-7.114c0-3.054,0.874-5.544,2.623-7.47
		c1.748-1.938,4.003-2.906,6.766-2.906c2.746,0,4.936,0.938,6.568,2.813c1.633,1.889,2.449,4.392,2.449,7.511l-0.037,1.272h-10.91
		c0.086,1.93,0.668,2.895,1.744,2.895C180.424,145.055,180.974,144.646,181.234,143.83z M181.383,137.948
		c0-0.266-0.043-0.509-0.13-0.729c-0.087-0.222-0.208-0.412-0.362-0.571c-0.155-0.159-0.337-0.285-0.547-0.378
		c-0.21-0.093-0.439-0.14-0.687-0.14c-0.52,0-0.94,0.171-1.262,0.511c-0.322,0.341-0.482,0.776-0.482,1.308H181.383z"/>
	<path fill="#FBD200" d="M210.087,150.621h-7.459v-10.613c0-0.915-0.115-1.552-0.343-1.911c-0.229-0.358-0.627-0.538-1.195-0.538
		c-1.325,0-1.987,0.983-1.987,2.95v10.112h-7.459v-20.058h7.459c-0.013,0.495-0.025,0.953-0.037,1.373
		c-0.013,0.421-0.031,0.811-0.056,1.169l-0.074,1.28c1.283-2.548,3.169-3.822,5.659-3.822c1.731,0,3.075,0.588,4.034,1.763
		c0.972,1.175,1.458,2.81,1.458,4.905V150.621z"/>
	<path fill="#FBD200" d="M239.218,150.621h-16.068l4.861-10.382c0.235-0.518,0.51-1.076,0.826-1.675s0.671-1.255,1.067-1.971h-5.659
		v-6.03h16.161l-4.731,10.251c-0.557,1.203-1.212,2.462-1.967,3.776h5.511V150.621z"/>
	<path fill="#FBD200" d="M253.134,143.83l7.273,0.148c-0.52,2.203-1.531,3.86-3.034,4.974c-1.503,1.112-3.467,1.669-5.891,1.669
		c-2.874,0-5.129-0.855-6.767-2.567c-1.625-1.735-2.437-4.106-2.437-7.114c0-3.054,0.874-5.544,2.623-7.47
		c1.748-1.938,4.003-2.906,6.766-2.906c2.746,0,4.936,0.938,6.568,2.813c1.633,1.889,2.449,4.392,2.449,7.511l-0.037,1.272h-10.91
		c0.086,1.93,0.668,2.895,1.744,2.895C252.323,145.055,252.874,144.646,253.134,143.83z M253.282,137.948
		c0-0.266-0.043-0.509-0.13-0.729c-0.087-0.222-0.208-0.412-0.362-0.571c-0.155-0.159-0.337-0.285-0.547-0.378
		c-0.21-0.093-0.439-0.14-0.687-0.14c-0.52,0-0.94,0.171-1.262,0.511c-0.322,0.341-0.482,0.776-0.482,1.308H253.282z"/>
</g>
<g enable-background="new    ">
	<path fill="#FBD200" d="M271.001,150.621h-7.459v-20.058h7.459l-0.39,3.915c1.125-2.932,2.987-4.397,5.585-4.397v8.35
		c-0.816-0.445-1.509-0.668-2.078-0.668c-1.002,0-1.772,0.362-2.31,1.085c-0.538,0.725-0.807,1.779-0.807,3.164V150.621z"/>
</g>
<g enable-background="new    ">
	<path fill="#FBD200" d="M296.91,140.896c0,2.969-0.865,5.332-2.594,7.09c-1.729,1.757-4.047,2.636-6.954,2.636
		c-2.857,0-5.131-0.896-6.822-2.689c-1.679-1.806-2.519-4.228-2.519-7.268c0-3.041,0.858-5.48,2.575-7.321
		c1.704-1.853,3.966-2.779,6.785-2.779c2.969,0,5.3,0.921,6.992,2.761C296.064,135.165,296.91,137.688,296.91,140.896z
		 M289.451,140.644c0-0.684-0.047-1.302-0.14-1.854s-0.227-1.026-0.402-1.42c-0.175-0.393-0.385-0.697-0.63-0.914
		c-0.245-0.217-0.519-0.325-0.822-0.325c-0.595,0-1.073,0.41-1.435,1.231c-0.361,0.718-0.542,1.795-0.542,3.23
		c0,1.414,0.181,2.491,0.542,3.231c0.362,0.821,0.846,1.231,1.452,1.231c0.571,0,1.043-0.404,1.417-1.214
		C289.265,142.94,289.451,141.875,289.451,140.644z"/>
</g>
<g enable-background="new    ">
	<path fill="#FBD200" d="M319.286,150.621h-7.459v-14.027h-2.152v-6.03h2.152v-3.692c0-2.585,0.562-4.546,1.684-5.882
		c1.123-1.336,2.769-2.004,4.939-2.004c1.076,0,2.246,0.174,3.508,0.52v6.902c-0.655-0.47-1.162-0.705-1.521-0.705
		c-0.767,0-1.15,0.687-1.15,2.06v2.802h2.672v6.03h-2.672V150.621z"/>
</g>
<g enable-background="new    ">
	<path fill="#FBD200" d="M342.448,140.896c0,2.969-0.864,5.332-2.594,7.09c-1.729,1.757-4.047,2.636-6.953,2.636
		c-2.857,0-5.131-0.896-6.822-2.689c-1.68-1.806-2.52-4.228-2.52-7.268c0-3.041,0.859-5.48,2.575-7.321
		c1.704-1.853,3.966-2.779,6.785-2.779c2.97,0,5.3,0.921,6.991,2.761C341.602,135.165,342.448,137.688,342.448,140.896z
		 M334.989,140.644c0-0.684-0.047-1.302-0.14-1.854s-0.228-1.026-0.401-1.42c-0.176-0.393-0.386-0.697-0.631-0.914
		c-0.244-0.217-0.519-0.325-0.822-0.325c-0.594,0-1.072,0.41-1.434,1.231c-0.361,0.718-0.543,1.795-0.543,3.23
		c0,1.414,0.182,2.491,0.543,3.231c0.361,0.821,0.846,1.231,1.451,1.231c0.572,0,1.044-0.404,1.417-1.214
		C334.803,142.94,334.989,141.875,334.989,140.644z"/>
	<path fill="#FBD200" d="M345.083,130.563h7.459v11.3c0,1.076,0.105,1.862,0.316,2.356c0.223,0.408,0.643,0.612,1.262,0.612
		c0.605,0,1.014-0.204,1.225-0.612c0.223-0.408,0.334-1.193,0.334-2.356v-11.3h7.459v12.057c0,0.8-0.066,1.524-0.195,2.173
		c-0.131,0.648-0.335,1.236-0.614,1.764c-0.278,0.527-0.638,1.01-1.078,1.446s-0.964,0.836-1.571,1.2
		c-1.637,0.945-3.489,1.418-5.559,1.418c-2.096,0-3.948-0.473-5.56-1.418c-0.62-0.364-1.149-0.761-1.59-1.191
		s-0.8-0.912-1.078-1.445c-0.279-0.534-0.483-1.125-0.614-1.773c-0.13-0.648-0.195-1.373-0.195-2.173V130.563z"/>
	<path fill="#FBD200" d="M374.01,150.621h-7.459v-20.058h7.459l-0.391,3.915c1.126-2.932,2.988-4.397,5.586-4.397v8.35
		c-0.816-0.445-1.51-0.668-2.078-0.668c-1.002,0-1.772,0.362-2.311,1.085c-0.538,0.725-0.807,1.779-0.807,3.164V150.621z"/>
</g>
<g enable-background="new    ">
	<path fill="#FBD200" d="M401.229,150.621h-7.459v-14.027h-2.115v-6.03h2.115v-5.9h7.459v5.9h2.469v6.03h-2.469V150.621z"/>
</g>
<g enable-background="new    ">
	<path fill="#FBD200" d="M424.106,150.621h-7.459v-10.613c0-0.915-0.09-1.552-0.27-1.911c-0.18-0.358-0.492-0.538-0.938-0.538
		c-1.039,0-1.559,0.983-1.559,2.95v10.112h-7.459v-31.302h7.459v11.597c0,0.606-0.003,1.113-0.009,1.521
		c-0.007,0.408-0.016,0.718-0.028,0.928c-0.012,0.211-0.031,0.434-0.055,0.668c-0.025,0.235-0.051,0.495-0.074,0.779
		c1.201-2.832,2.961-4.249,5.278-4.249c1.61,0,2.862,0.588,3.755,1.763c0.904,1.175,1.357,2.81,1.357,4.905V150.621z"/>
</g>
<g enable-background="new    ">
	<path fill="#FBD200" d="M434.96,150.621h-7.459v-20.058h7.459l-0.39,3.915c1.126-2.932,2.987-4.397,5.585-4.397v8.35
		c-0.816-0.445-1.51-0.668-2.078-0.668c-1.002,0-1.771,0.362-2.311,1.085c-0.537,0.725-0.807,1.779-0.807,3.164V150.621z"/>
</g>
<g enable-background="new    ">
	<path fill="#FBD200" d="M452.835,143.83l7.273,0.148c-0.52,2.203-1.53,3.86-3.033,4.974c-1.503,1.112-3.467,1.669-5.891,1.669
		c-2.875,0-5.13-0.855-6.768-2.567c-1.624-1.735-2.436-4.106-2.436-7.114c0-3.054,0.873-5.544,2.623-7.47
		c1.748-1.938,4.003-2.906,6.766-2.906c2.746,0,4.936,0.938,6.568,2.813c1.633,1.889,2.449,4.392,2.449,7.511l-0.037,1.272h-10.91
		c0.086,1.93,0.668,2.895,1.744,2.895C452.024,145.055,452.575,144.646,452.835,143.83z M452.983,137.948
		c0-0.266-0.043-0.509-0.129-0.729c-0.088-0.222-0.208-0.412-0.362-0.571c-0.155-0.159-0.337-0.285-0.548-0.378
		c-0.21-0.093-0.439-0.14-0.686-0.14c-0.52,0-0.941,0.171-1.262,0.511c-0.322,0.341-0.482,0.776-0.482,1.308H452.983z"/>
	<path fill="#FBD200" d="M473.524,143.83l7.273,0.148c-0.52,2.203-1.531,3.86-3.034,4.974c-1.503,1.112-3.467,1.669-5.892,1.669
		c-2.873,0-5.129-0.855-6.766-2.567c-1.625-1.735-2.438-4.106-2.438-7.114c0-3.054,0.875-5.544,2.623-7.47
		c1.748-1.938,4.004-2.906,6.766-2.906c2.746,0,4.936,0.938,6.568,2.813c1.633,1.889,2.449,4.392,2.449,7.511l-0.037,1.272h-10.91
		c0.087,1.93,0.668,2.895,1.744,2.895C472.714,145.055,473.264,144.646,473.524,143.83z M473.673,137.948
		c0-0.266-0.044-0.509-0.131-0.729c-0.086-0.222-0.207-0.412-0.361-0.571s-0.338-0.285-0.547-0.378
		c-0.211-0.093-0.439-0.14-0.688-0.14c-0.52,0-0.939,0.171-1.262,0.511c-0.321,0.341-0.482,0.776-0.482,1.308H473.673z"/>
	<path fill="#FBD200" d="M494.639,148.548l2.709-5.59c1.336,1.398,2.578,2.097,3.729,2.097c0.965,0,1.447-0.327,1.447-0.98
		c0-0.56-0.648-1.062-1.947-1.505c-3.502-1.166-5.252-3.016-5.252-5.548c0-1.855,0.783-3.396,2.35-4.62
		c1.579-1.226,3.549-1.838,5.908-1.838c1.93,0,3.92,0.571,5.975,1.713l-2.543,5.616c-1.249-1.175-2.27-1.763-3.061-1.763
		c-0.779,0-1.17,0.293-1.17,0.88c0,0.633,0.756,1.225,2.268,1.777c1.89,0.679,3.175,1.396,3.855,2.156
		c0.717,0.759,1.076,1.806,1.076,3.14c0,1.921-0.766,3.49-2.297,4.71c-1.53,1.219-3.492,1.828-5.885,1.828
		c-1.127,0-2.246-0.144-3.359-0.43c-0.52-0.137-1.088-0.346-1.707-0.626C496.117,149.286,495.419,148.946,494.639,148.548z"/>
	<path fill="#FBD200" d="M520.393,124.348c0,1.176-0.428,2.189-1.281,3.043c-0.878,0.842-1.898,1.262-3.061,1.262
		c-1.201,0-2.227-0.427-3.08-1.28c-0.842-0.878-1.262-1.904-1.262-3.08c0-1.199,0.42-2.22,1.262-3.062
		c0.877-0.841,1.898-1.262,3.061-1.262c1.225,0,2.258,0.427,3.1,1.28C519.971,122.091,520.393,123.123,520.393,124.348z
		 M519.762,150.621h-7.459v-20.058h7.459V150.621z"/>
	<path fill="#FBD200" d="M542.214,150.621h-8.646l-0.705-1.855c-0.074-0.21-0.148-0.418-0.223-0.621
		c-0.074-0.205-0.155-0.418-0.242-0.641c-0.086-0.223-0.173-0.467-0.26-0.732c-0.086-0.267-0.18-0.566-0.277-0.9
		c-0.174,0.495-0.356,0.983-0.548,1.466c-0.192,0.482-0.394,0.959-0.603,1.429l-0.873,1.855h-8.35l6.105-10.316l-5.771-9.741h8.498
		l0.779,2.264c0.087,0.223,0.198,0.557,0.334,1.002l0.316,1.058c0.186-0.531,0.314-0.902,0.389-1.113l0.408-1.039l0.836-2.171h8.256
		l-5.938,9.574L542.214,150.621z"/>
	<path fill="#FBD200" d="M552.288,146.363c0,1.171-0.428,2.173-1.282,3.007c-0.831,0.834-1.848,1.251-3.05,1.251
		c-1.189,0-2.225-0.423-3.105-1.27c-0.855-0.859-1.283-1.898-1.283-3.119c0-1.195,0.422-2.216,1.265-3.062s1.86-1.27,3.05-1.27
		c1.227,0,2.268,0.436,3.124,1.308C551.86,144.066,552.288,145.118,552.288,146.363z"/>
</g>
<g enable-background="new    ">
	<path fill="#FFFFFF" d="M563.663,135.588c-0.618-0.418-1.151-0.864-1.599-1.339c-0.448-0.475-0.802-0.985-1.062-1.532
		c-0.488-1.03-0.732-2.502-0.732-4.416v-8.326c0-1.834-0.204-2.944-0.611-3.33c-0.391-0.402-1.521-0.604-3.393-0.604l-1.051,0.024
		l-0.561,0.024v-6.757l4.662-0.193c3.438,0.049,5.889,0.738,7.351,2.068c1.496,1.347,2.245,3.554,2.245,6.619v10.1
		c0,1.672,0.211,2.864,0.635,3.578c0.406,0.665,1.229,1.135,2.465,1.411v6.352c-1.155,0.243-1.969,0.682-2.441,1.313
		c-0.439,0.634-0.658,1.664-0.658,3.091v10.148c0,3.066-0.749,5.257-2.245,6.571c-1.462,1.33-3.92,1.995-7.374,1.995l-4.639-0.129
		v-7.195h1.709c1.807,0.032,2.904-0.16,3.295-0.579c0.407-0.386,0.611-1.488,0.611-3.307v-8.325c0-2.043,0.227-3.507,0.684-4.392
		C561.425,137.463,562.329,136.505,563.663,135.588z"/>
</g>
</svg>
