<?xml version="1.0" encoding="utf-8"?>
<!-- Generator: Adobe Illustrator 14.0.0, SVG Export Plug-In . SVG Version: 6.00 Build 43363)  -->
<!DOCTYPE svg PUBLIC "-//W3C//DTD SVG 1.1//EN" "http://www.w3.org/Graphics/SVG/1.1/DTD/svg11.dtd">
<svg version="1.1" id="Calque_1" xmlns="http://www.w3.org/2000/svg" xmlns:xlink="http://www.w3.org/1999/xlink" x="0px" y="0px"
	 width="266px" height="245.418px" viewBox="0 0 266 245.418" enable-background="new 0 0 266 245.418" xml:space="preserve">
<g enable-background="new    ">
	<path fill="#FFFFFF" d="M18.257,34.29c0,1.54-0.562,2.859-1.688,3.956c-1.093,1.098-2.431,1.646-4.013,1.646
		c-1.566,0-2.928-0.557-4.086-1.671c-1.125-1.13-1.688-2.498-1.688-4.104c0-1.572,0.554-2.915,1.664-4.029s2.447-1.671,4.013-1.671
		c1.614,0,2.985,0.573,4.11,1.72C17.694,31.268,18.257,32.652,18.257,34.29z"/>
</g>
<g enable-background="new    ">
	<path fill="#FFFFFF" d="M43.769,28.375c0,3.516-1.024,6.314-3.071,8.396c-2.048,2.081-4.793,3.122-8.235,3.122
		c-3.383,0-6.076-1.062-8.079-3.186c-1.988-2.138-2.982-5.006-2.982-8.606c0-3.6,1.016-6.489,3.049-8.67
		c2.018-2.193,4.696-3.29,8.035-3.29c3.516,0,6.276,1.09,8.279,3.27S43.769,24.578,43.769,28.375z M34.936,28.077
		c0-0.81-0.055-1.542-0.166-2.196c-0.11-0.655-0.269-1.215-0.476-1.681c-0.208-0.466-0.456-0.827-0.746-1.083
		c-0.29-0.257-0.615-0.385-0.974-0.385c-0.705,0-1.271,0.485-1.699,1.457c-0.428,0.851-0.642,2.126-0.642,3.827
		c0,1.674,0.214,2.949,0.642,3.826c0.428,0.973,1.001,1.458,1.719,1.458c0.677,0,1.236-0.479,1.678-1.438
		C34.715,30.796,34.936,29.535,34.936,28.077z"/>
	<path fill="#FFFFFF" d="M68.73,39.892h-8.833V27.324c0-1.084-0.136-1.838-0.407-2.264c-0.271-0.424-0.742-0.637-1.415-0.637
		c-1.569,0-2.354,1.164-2.354,3.494v11.975h-8.833V16.14h8.833c-0.015,0.586-0.029,1.128-0.044,1.625
		c-0.015,0.499-0.037,0.96-0.066,1.385l-0.088,1.516c1.519-3.017,3.753-4.525,6.702-4.525c2.05,0,3.642,0.695,4.777,2.087
		c1.151,1.391,1.727,3.327,1.727,5.809V39.892z"/>
	<path fill="#FFFFFF" d="M84.023,31.85l8.613,0.176c-0.615,2.608-1.813,4.571-3.592,5.89c-1.78,1.317-4.105,1.977-6.977,1.977
		c-3.404,0-6.074-1.014-8.013-3.04c-1.924-2.056-2.886-4.863-2.886-8.425c0-3.617,1.035-6.565,3.106-8.846
		c2.07-2.295,4.741-3.441,8.012-3.441c3.252,0,5.845,1.11,7.778,3.332c1.934,2.235,2.9,5.2,2.9,8.894l-0.044,1.507h-12.92
		c0.103,2.285,0.791,3.428,2.065,3.428C83.064,33.3,83.716,32.817,84.023,31.85z M84.199,24.884c0-0.313-0.051-0.602-0.154-0.863
		c-0.103-0.263-0.246-0.487-0.429-0.677c-0.183-0.188-0.399-0.338-0.648-0.447c-0.249-0.11-0.52-0.165-0.813-0.165
		c-0.615,0-1.113,0.201-1.494,0.604s-0.571,0.92-0.571,1.548H84.199z"/>
</g>
<g enable-background="new    ">
	<path fill="#FFFFFF" d="M108.523,39.892h-9.163V14.096h-5.054v-8.13h19.468v8.13h-5.251V39.892z"/>
</g>
<g enable-background="new    ">
	<path fill="#FFFFFF" d="M142.02,39.892h-8.723l-1.802-14.238l-2.725,14.238h-8.635l-5.911-23.752h8.657l1.34,7.624
		c0.161,0.967,0.319,1.999,0.472,3.099c0.154,1.098,0.297,2.292,0.429,3.581c0.117-1.333,0.274-2.611,0.473-3.834
		c0.197-1.224,0.421-2.406,0.67-3.549l1.56-6.921h7.515l1.274,7.646c0.161,0.981,0.308,2.024,0.439,3.131
		c0.132,1.105,0.256,2.281,0.373,3.526c0.234-1.685,0.469-3.219,0.703-4.604c0.234-1.384,0.477-2.654,0.726-3.812l1.274-5.889h8.811
		L142.02,39.892z"/>
</g>
<g enable-background="new    ">
	<path fill="#FFFFFF" d="M172.266,28.375c0,3.516-1.024,6.314-3.071,8.396c-2.048,2.081-4.793,3.122-8.235,3.122
		c-3.384,0-6.076-1.062-8.079-3.186c-1.988-2.138-2.982-5.006-2.982-8.606c0-3.6,1.016-6.489,3.049-8.67
		c2.018-2.193,4.696-3.29,8.035-3.29c3.516,0,6.276,1.09,8.279,3.27S172.266,24.578,172.266,28.375z M163.433,28.077
		c0-0.81-0.055-1.542-0.166-2.196c-0.11-0.655-0.27-1.215-0.477-1.681s-0.455-0.827-0.745-1.083
		c-0.29-0.257-0.614-0.385-0.974-0.385c-0.705,0-1.271,0.485-1.699,1.457c-0.428,0.851-0.642,2.126-0.642,3.827
		c0,1.674,0.214,2.949,0.642,3.826c0.429,0.973,1.002,1.458,1.72,1.458c0.677,0,1.235-0.479,1.678-1.438
		C163.213,30.796,163.433,29.535,163.433,28.077z"/>
	<path fill="#FFFFFF" d="M184.879,39.892h-9.162V5.966h16.193v8.13h-7.031v4.329h6.548v8.129h-6.548V39.892z"/>
</g>
<g enable-background="new    ">
	<path fill="#FFFFFF" d="M203.972,39.892h-8.833V16.14h8.833l-0.461,4.636c1.332-3.472,3.537-5.208,6.613-5.208v9.889
		c-0.967-0.527-1.787-0.791-2.461-0.791c-1.187,0-2.098,0.428-2.736,1.285c-0.637,0.856-0.955,2.105-0.955,3.746V39.892z"/>
</g>
<g enable-background="new    ">
	<path fill="#FFFFFF" d="M225.14,31.85l8.613,0.176c-0.615,2.608-1.812,4.571-3.592,5.89c-1.781,1.317-4.105,1.977-6.977,1.977
		c-3.404,0-6.074-1.014-8.014-3.04c-1.924-2.056-2.885-4.863-2.885-8.425c0-3.617,1.035-6.565,3.105-8.846
		c2.07-2.295,4.741-3.441,8.012-3.441c3.252,0,5.846,1.11,7.779,3.332c1.934,2.235,2.9,5.2,2.9,8.894l-0.045,1.507h-12.92
		c0.104,2.285,0.791,3.428,2.066,3.428C224.181,33.3,224.833,32.817,225.14,31.85z M225.316,24.884c0-0.313-0.051-0.602-0.154-0.863
		c-0.102-0.263-0.245-0.487-0.428-0.677c-0.184-0.188-0.399-0.338-0.648-0.447c-0.249-0.11-0.52-0.165-0.812-0.165
		c-0.615,0-1.113,0.201-1.494,0.604s-0.572,0.92-0.572,1.548H225.316z"/>
	<path fill="#FFFFFF" d="M249.64,31.85l8.613,0.176c-0.615,2.608-1.813,4.571-3.593,5.89c-1.78,1.317-4.105,1.977-6.977,1.977
		c-3.403,0-6.074-1.014-8.013-3.04c-1.924-2.056-2.886-4.863-2.886-8.425c0-3.617,1.035-6.565,3.106-8.846
		c2.07-2.295,4.74-3.441,8.012-3.441c3.252,0,5.845,1.11,7.778,3.332c1.934,2.235,2.9,5.2,2.9,8.894l-0.044,1.507h-12.92
		c0.103,2.285,0.791,3.428,2.065,3.428C248.68,33.3,249.332,32.817,249.64,31.85z M249.816,24.884c0-0.313-0.052-0.602-0.154-0.863
		c-0.103-0.263-0.246-0.487-0.429-0.677c-0.183-0.188-0.399-0.338-0.647-0.447c-0.25-0.11-0.521-0.165-0.813-0.165
		c-0.615,0-1.113,0.201-1.494,0.604s-0.571,0.92-0.571,1.548H249.816z"/>
</g>
<g enable-background="new    ">
	<path fill="#FFFFFF" d="M52.71,77.508c0.618,0.421,1.151,0.87,1.599,1.348c0.447,0.478,0.801,0.992,1.062,1.542
		c0.504,0.988,0.757,2.47,0.757,4.444v8.354c0,1.846,0.195,2.963,0.586,3.352c0.407,0.404,1.546,0.607,3.418,0.607l1.025-0.024
		l0.586-0.024v6.8l-4.663,0.194c-3.153-0.049-5.382-0.742-6.687-2.08c-1.32-1.354-1.98-3.572-1.98-6.655l-0.464-10.131
		c0-1.68-0.212-2.879-0.635-3.597c-0.407-0.669-1.229-1.142-2.466-1.42v-6.387c1.172-0.244,1.978-0.685,2.417-1.321
		c0.456-0.604,0.684-1.639,0.684-3.107V59.174c0-3.083,0.739-5.285,2.219-6.606c1.462-1.338,3.92-2.007,7.376-2.007l4.663,0.129
		v7.195h-1.709c-1.807-0.016-2.914,0.178-3.32,0.583c-0.391,0.389-0.586,1.497-0.586,3.327v8.402c-0.31,1.83-0.7,3.304-1.172,4.42
		C54.948,75.623,54.044,76.585,52.71,77.508z"/>
</g>
<g enable-background="new    ">
	<path fill="#FBD200" d="M78.268,92.333H64.723V63.685h7.737v21.783h5.808V92.333z"/>
</g>
<g enable-background="new    ">
	<path fill="#FBD200" d="M89.208,63.685l-5.01,13.786h-6.104l3.507-13.786H89.208z"/>
	<path fill="#FBD200" d="M110.194,92.333h-7.429c0.062-0.668,0.111-1.305,0.148-1.911c0.037-0.605,0.074-1.095,0.111-1.466
		c-1.281,2.252-3,3.377-5.156,3.377c-1.873,0-3.357-0.902-4.454-2.708c-1.084-1.793-1.626-4.274-1.626-7.445
		c0-3.064,0.562-5.475,1.688-7.232c1.125-1.781,2.659-2.672,4.602-2.672c1.991,0,3.6,1.058,4.824,3.173
		c-0.025-0.247-0.043-0.464-0.056-0.649c-0.013-0.186-0.025-0.34-0.037-0.464l-0.074-1.169l-0.056-0.891h7.515V92.333z
		 M102.735,82.089c0-0.688-0.028-1.272-0.084-1.754s-0.147-0.874-0.272-1.178c-0.125-0.305-0.288-0.521-0.487-0.654
		c-0.2-0.131-0.444-0.197-0.731-0.197c-1.275,0-1.913,1.554-1.913,4.661c0,2.224,0.569,3.336,1.707,3.336
		C102.14,86.303,102.735,84.899,102.735,82.089z"/>
</g>
<g enable-background="new    ">
	<path fill="#FBD200" d="M131.438,72.276v20.633c0,1.57-0.217,2.932-0.649,4.082c-0.433,1.063-1.138,1.973-2.115,2.728
		c-1.646,1.273-3.736,1.911-6.271,1.911c-2.734,0-4.831-0.588-6.29-1.763c-1.46-1.176-2.363-3.006-2.709-5.492h7.607
		c0.049,1.088,0.569,1.633,1.559,1.633c0.631,0,1.076-0.22,1.336-0.658c0.26-0.439,0.39-1.167,0.39-2.181v-3.173
		c-1.324,1.732-2.882,2.598-4.676,2.598c-1.942,0-3.513-0.946-4.713-2.839c-1.188-1.893-1.781-4.379-1.781-7.459
		c0-3.067,0.594-5.578,1.781-7.533c1.2-1.941,2.752-2.913,4.657-2.913c0.878,0,1.645,0.223,2.301,0.668
		c0.68,0.458,1.416,1.256,2.208,2.394l-0.148-2.635H131.438z M124.22,82.24c0-2.895-0.532-4.342-1.596-4.342
		c-1.2,0-1.8,1.41-1.8,4.23c0,2.907,0.581,4.36,1.744,4.36C123.67,86.489,124.22,85.073,124.22,82.24z"/>
</g>
<g enable-background="new    ">
	<path fill="#FBD200" d="M145.379,85.542l7.273,0.148c-0.52,2.203-1.531,3.86-3.034,4.974c-1.503,1.112-3.467,1.669-5.892,1.669
		c-2.873,0-5.129-0.855-6.766-2.567c-1.625-1.735-2.438-4.106-2.438-7.114c0-3.054,0.875-5.544,2.623-7.47
		c1.748-1.938,4.004-2.906,6.766-2.906c2.746,0,4.936,0.938,6.568,2.813c1.633,1.889,2.449,4.392,2.449,7.511l-0.037,1.272h-10.91
		c0.087,1.93,0.668,2.895,1.744,2.895C144.568,86.767,145.119,86.359,145.379,85.542z M145.527,79.661
		c0-0.266-0.044-0.509-0.131-0.729c-0.086-0.222-0.207-0.412-0.361-0.571s-0.338-0.285-0.547-0.378
		c-0.211-0.093-0.439-0.14-0.688-0.14c-0.52,0-0.939,0.171-1.262,0.511c-0.321,0.341-0.482,0.776-0.482,1.308H145.527z"/>
	<path fill="#FBD200" d="M174.23,92.333h-7.459V81.72c0-0.915-0.114-1.552-0.343-1.911c-0.229-0.358-0.627-0.538-1.194-0.538
		c-1.325,0-1.988,0.983-1.988,2.95v10.112h-7.459V72.276h7.459c-0.012,0.495-0.024,0.953-0.037,1.373
		c-0.012,0.421-0.031,0.811-0.055,1.169l-0.074,1.28c1.282-2.548,3.169-3.822,5.658-3.822c1.731,0,3.076,0.588,4.035,1.763
		c0.971,1.175,1.457,2.81,1.457,4.905V92.333z"/>
	<path fill="#FBD200" d="M187.052,85.9v6.313c-0.445,0.046-0.836,0.077-1.17,0.095c-0.334,0.017-0.611,0.025-0.834,0.025
		c-2.185,0-4.002-0.641-5.451-1.922c-0.982-0.866-1.779-2.053-2.391-3.56s-0.916-3.056-0.916-4.646c0-2.823,0.874-5.19,2.623-7.101
		c1.738-1.887,3.949-2.83,6.635-2.83c0.161,0,0.365,0.007,0.613,0.02c0.246,0.013,0.543,0.032,0.891,0.058v6.788
		c-2.203,0.137-3.303,1.243-3.303,3.319c0,0.936,0.271,1.757,0.816,2.464c0.557,0.674,1.218,1.01,1.984,1.01
		c0.074,0,0.152-0.003,0.232-0.009C186.863,85.92,186.953,85.912,187.052,85.9z"/>
	<path fill="#FBD200" d="M200.152,85.542l7.273,0.148c-0.52,2.203-1.531,3.86-3.034,4.974c-1.503,1.112-3.467,1.669-5.892,1.669
		c-2.873,0-5.129-0.855-6.766-2.567c-1.625-1.735-2.438-4.106-2.438-7.114c0-3.054,0.875-5.544,2.623-7.47
		c1.748-1.938,4.004-2.906,6.766-2.906c2.746,0,4.936,0.938,6.568,2.813c1.633,1.889,2.449,4.392,2.449,7.511l-0.037,1.272h-10.91
		c0.087,1.93,0.668,2.895,1.744,2.895C199.342,86.767,199.892,86.359,200.152,85.542z M200.301,79.661
		c0-0.266-0.044-0.509-0.131-0.729c-0.086-0.222-0.207-0.412-0.361-0.571s-0.338-0.285-0.547-0.378
		c-0.211-0.093-0.439-0.14-0.688-0.14c-0.52,0-0.939,0.171-1.262,0.511c-0.321,0.341-0.482,0.776-0.482,1.308H200.301z"/>
</g>
<g enable-background="new    ">
	<path fill="#FBD200" d="M65.481,137.933h-7.366l-1.521-12.023l-2.301,12.023h-7.292l-4.991-20.058h7.311l1.132,6.438
		c0.136,0.816,0.269,1.688,0.399,2.616s0.25,1.937,0.362,3.024c0.099-1.125,0.232-2.205,0.399-3.238
		c0.167-1.032,0.355-2.031,0.566-2.996l1.317-5.845h6.346l1.076,6.457c0.136,0.829,0.26,1.71,0.371,2.644
		c0.111,0.935,0.216,1.928,0.315,2.979c0.198-1.422,0.396-2.719,0.594-3.887c0.198-1.17,0.402-2.242,0.612-3.22l1.076-4.973h7.44
		L65.481,137.933z"/>
</g>
<g enable-background="new    ">
	<path fill="#FBD200" d="M82.99,131.142l7.273,0.148c-0.52,2.203-1.531,3.86-3.034,4.974c-1.503,1.112-3.467,1.669-5.891,1.669
		c-2.874,0-5.129-0.855-6.767-2.567c-1.625-1.735-2.437-4.106-2.437-7.114c0-3.054,0.874-5.544,2.623-7.47
		c1.748-1.938,4.003-2.906,6.766-2.906c2.746,0,4.936,0.938,6.568,2.813c1.633,1.889,2.449,4.392,2.449,7.511l-0.037,1.272h-10.91
		c0.086,1.93,0.668,2.895,1.744,2.895C82.179,132.367,82.73,131.958,82.99,131.142z M83.138,125.26c0-0.266-0.043-0.509-0.13-0.729
		c-0.087-0.222-0.208-0.412-0.362-0.571c-0.155-0.159-0.337-0.285-0.547-0.378c-0.21-0.093-0.439-0.14-0.687-0.14
		c-0.52,0-0.94,0.171-1.262,0.511c-0.322,0.341-0.482,0.776-0.482,1.308H83.138z"/>
	<path fill="#FBD200" d="M101.025,137.933h-7.626v-31.302h7.44l0.019,11.374c0,0.928-0.037,1.992-0.111,3.191
		c0.68-1.212,1.367-2.071,2.06-2.579c0.717-0.494,1.62-0.742,2.709-0.742c2.028,0,3.6,0.896,4.713,2.689
		c1.113,1.781,1.67,4.294,1.67,7.535c0,3.1-0.575,5.511-1.726,7.232c-1.138,1.733-2.715,2.601-4.731,2.601
		c-0.978,0-1.806-0.086-2.486-0.26c-0.334-0.234-0.677-0.55-1.03-0.946c-0.353-0.396-0.708-0.891-1.067-1.484
		c0.012,0.235,0.024,0.437,0.037,0.603c0.012,0.168,0.024,0.307,0.037,0.418L101.025,137.933z M104.42,128.047
		c0-2.761-0.631-4.142-1.893-4.142c-1.113,0-1.67,1.303-1.67,3.909c0,2.726,0.575,4.088,1.726,4.088
		C103.808,131.903,104.42,130.618,104.42,128.047z"/>
	<path fill="#FBD200" d="M123.903,131.086l-5.01,13.768h-6.104l3.507-13.768H123.903z"/>
	<path fill="#FBD200" d="M145.054,146.876h-7.459v-29.001h7.441l-0.148,2.839c0.309-0.594,0.624-1.098,0.945-1.512
		c0.322-0.415,0.668-0.739,1.039-0.975c0.371-0.234,0.771-0.353,1.197-0.353s0.9,0,1.42,0c1.93,0,3.5,0.927,4.713,2.779
		c1.199,1.828,1.799,4.257,1.799,7.285c0,3.076-0.574,5.51-1.725,7.304c-1.127,1.793-2.679,2.689-4.658,2.689
		c-1.806,0-3.383-1.045-4.73-3.136c0.061,0.631,0.098,1.176,0.111,1.633c0.037,0.471,0.055,1.036,0.055,1.697V146.876z
		 M148.525,127.791c0-1.23-0.152-2.186-0.455-2.865s-0.732-1.02-1.289-1.02c-1.15,0-1.727,1.318-1.727,3.955
		c0,2.694,0.557,4.042,1.67,4.042c0.557,0,0.996-0.36,1.318-1.08C148.363,130.102,148.525,129.092,148.525,127.791z"/>
	<path fill="#FBD200" d="M176.691,137.933h-7.43c0.062-0.668,0.111-1.305,0.148-1.911c0.036-0.605,0.073-1.095,0.11-1.466
		c-1.281,2.252-3,3.377-5.155,3.377c-1.873,0-3.357-0.902-4.455-2.708c-1.084-1.793-1.625-4.274-1.625-7.445
		c0-3.064,0.562-5.475,1.688-7.232c1.126-1.781,2.66-2.672,4.602-2.672c1.992,0,3.6,1.058,4.824,3.173
		c-0.024-0.247-0.043-0.464-0.055-0.649c-0.014-0.186-0.025-0.34-0.037-0.464l-0.074-1.169l-0.057-0.891h7.516V137.933z
		 M169.232,127.689c0-0.688-0.029-1.272-0.085-1.754s-0.147-0.874-0.272-1.178c-0.125-0.305-0.287-0.521-0.486-0.654
		c-0.201-0.131-0.444-0.197-0.732-0.197c-1.275,0-1.912,1.554-1.912,4.661c0,2.224,0.568,3.336,1.706,3.336
		C168.637,131.903,169.232,130.499,169.232,127.689z"/>
	<path fill="#FBD200" d="M179.474,135.86l2.709-5.59c1.336,1.398,2.578,2.097,3.729,2.097c0.965,0,1.447-0.327,1.447-0.98
		c0-0.56-0.648-1.062-1.947-1.505c-3.502-1.166-5.252-3.016-5.252-5.548c0-1.855,0.783-3.396,2.35-4.62
		c1.579-1.226,3.549-1.838,5.908-1.838c1.93,0,3.92,0.571,5.975,1.713l-2.543,5.616c-1.249-1.175-2.27-1.763-3.061-1.763
		c-0.779,0-1.17,0.293-1.17,0.88c0,0.633,0.756,1.225,2.268,1.777c1.89,0.679,3.175,1.396,3.855,2.156
		c0.717,0.759,1.076,1.806,1.076,3.14c0,1.921-0.766,3.49-2.297,4.71c-1.53,1.219-3.492,1.828-5.885,1.828
		c-1.127,0-2.246-0.144-3.359-0.43c-0.52-0.137-1.088-0.346-1.707-0.626C180.952,136.598,180.254,136.258,179.474,135.86z"/>
</g>
<g enable-background="new    ">
	<path fill="#FBD200" d="M51.194,183.533h-7.459v-31.302h7.459V183.533z"/>
	<path fill="#FBD200" d="M64.906,176.742l7.273,0.148c-0.52,2.203-1.531,3.86-3.034,4.974c-1.503,1.112-3.467,1.669-5.891,1.669
		c-2.874,0-5.129-0.855-6.767-2.567c-1.625-1.735-2.437-4.106-2.437-7.114c0-3.054,0.874-5.544,2.623-7.47
		c1.748-1.938,4.003-2.906,6.766-2.906c2.746,0,4.936,0.938,6.568,2.813c1.633,1.889,2.449,4.392,2.449,7.511l-0.037,1.272H61.51
		c0.086,1.93,0.668,2.895,1.744,2.895C64.095,177.966,64.646,177.558,64.906,176.742z M65.054,170.86
		c0-0.266-0.043-0.509-0.13-0.729c-0.087-0.222-0.208-0.412-0.362-0.571c-0.155-0.159-0.337-0.285-0.547-0.378
		c-0.21-0.093-0.439-0.14-0.687-0.14c-0.52,0-0.94,0.171-1.262,0.511c-0.322,0.341-0.482,0.776-0.482,1.308H65.054z"/>
	<path fill="#FBD200" d="M96.931,177.099v6.313c-0.445,0.046-0.835,0.077-1.169,0.095c-0.334,0.017-0.612,0.025-0.835,0.025
		c-2.184,0-4.001-0.641-5.451-1.922c-0.982-0.866-1.779-2.053-2.391-3.56c-0.611-1.507-0.917-3.056-0.917-4.646
		c0-2.823,0.875-5.19,2.624-7.101c1.737-1.887,3.949-2.83,6.635-2.83c0.161,0,0.365,0.007,0.612,0.02
		c0.247,0.013,0.544,0.032,0.891,0.058v6.788c-2.202,0.137-3.303,1.243-3.303,3.319c0,0.936,0.272,1.757,0.816,2.464
		c0.557,0.674,1.218,1.01,1.985,1.01c0.074,0,0.151-0.003,0.232-0.009C96.742,177.12,96.832,177.111,96.931,177.099z"/>
	<path fill="#FBD200" d="M107.211,183.533h-7.459v-31.302h7.459V183.533z"/>
	<path fill="#FBD200" d="M110.643,163.475h7.459v11.3c0,1.076,0.105,1.862,0.315,2.356c0.223,0.408,0.643,0.612,1.262,0.612
		c0.606,0,1.014-0.204,1.225-0.612c0.223-0.408,0.334-1.193,0.334-2.356v-11.3h7.459v12.057c0,0.8-0.065,1.524-0.195,2.173
		c-0.13,0.648-0.334,1.236-0.614,1.764c-0.279,0.527-0.638,1.01-1.078,1.446c-0.44,0.437-0.964,0.836-1.571,1.2
		c-1.636,0.945-3.489,1.418-5.559,1.418c-2.095,0-3.948-0.473-5.559-1.418c-0.62-0.364-1.15-0.761-1.59-1.191
		c-0.44-0.431-0.799-0.912-1.078-1.445c-0.279-0.534-0.484-1.125-0.614-1.773c-0.13-0.648-0.195-1.373-0.195-2.173V163.475z"/>
	<path fill="#FBD200" d="M139.737,183.533h-7.626v-31.302h7.44l0.019,11.374c0,0.928-0.037,1.992-0.111,3.191
		c0.68-1.212,1.367-2.071,2.06-2.579c0.718-0.494,1.62-0.742,2.709-0.742c2.028,0,3.6,0.896,4.713,2.689
		c1.113,1.781,1.67,4.294,1.67,7.535c0,3.1-0.575,5.511-1.726,7.232c-1.139,1.733-2.715,2.601-4.731,2.601
		c-0.978,0-1.806-0.086-2.486-0.26c-0.334-0.234-0.677-0.55-1.03-0.946c-0.352-0.396-0.708-0.891-1.066-1.484
		c0.012,0.235,0.024,0.437,0.037,0.603c0.012,0.168,0.024,0.307,0.037,0.418L139.737,183.533z M143.133,173.647
		c0-2.761-0.631-4.142-1.893-4.142c-1.113,0-1.67,1.303-1.67,3.909c0,2.726,0.575,4.088,1.726,4.088
		C142.52,177.502,143.133,176.217,143.133,173.647z"/>
</g>
<g enable-background="new    ">
	<path fill="#FBD200" d="M54.033,229.551c0.012-0.21,0.024-0.451,0.037-0.724c0.012-0.271,0.031-0.587,0.056-0.946
		c0.024-0.223,0.043-0.562,0.056-1.021c-0.718,1.163-1.417,1.974-2.097,2.431c-0.668,0.174-1.491,0.26-2.468,0.26
		c-2.017,0-3.6-0.867-4.75-2.601c-1.138-1.734-1.707-4.145-1.707-7.232c0-3.241,0.557-5.754,1.67-7.535
		c1.113-1.793,2.684-2.689,4.713-2.689c1.113,0,2.01,0.248,2.69,0.742c0.717,0.495,1.41,1.354,2.078,2.579
		c-0.037-0.643-0.056-1.032-0.056-1.169l-0.074-2.022V198.25h7.459v31.302H54.033z M50.619,219.558c0,2.642,0.612,3.963,1.837,3.963
		c1.15,0,1.726-1.362,1.726-4.088c0-2.606-0.557-3.909-1.67-3.909C51.25,215.524,50.619,216.869,50.619,219.558z"/>
	<path fill="#FBD200" d="M75.89,200.903l-5.01,13.786h-6.104l3.507-13.786H75.89z"/>
	<path fill="#FBD200" d="M96.876,229.551h-7.429c0.062-0.668,0.111-1.305,0.148-1.911c0.037-0.605,0.074-1.095,0.111-1.466
		c-1.281,2.252-3,3.377-5.156,3.377c-1.873,0-3.357-0.902-4.454-2.708c-1.084-1.793-1.626-4.274-1.626-7.445
		c0-3.064,0.562-5.475,1.688-7.232c1.125-1.781,2.659-2.672,4.602-2.672c1.991,0,3.6,1.058,4.824,3.173
		c-0.025-0.247-0.043-0.464-0.056-0.649c-0.013-0.186-0.025-0.34-0.037-0.464l-0.074-1.169l-0.056-0.891h7.515V229.551z
		 M89.417,219.307c0-0.688-0.028-1.272-0.084-1.754s-0.147-0.874-0.272-1.178c-0.125-0.305-0.288-0.521-0.487-0.654
		c-0.2-0.131-0.444-0.197-0.731-0.197c-1.275,0-1.913,1.554-1.913,4.661c0,2.224,0.569,3.336,1.707,3.336
		C88.823,223.521,89.417,222.117,89.417,219.307z"/>
	<path fill="#FBD200" d="M110.662,222.76l7.273,0.148c-0.52,2.203-1.531,3.86-3.034,4.974c-1.503,1.112-3.467,1.669-5.891,1.669
		c-2.874,0-5.129-0.855-6.767-2.567c-1.625-1.735-2.437-4.106-2.437-7.114c0-3.054,0.874-5.544,2.623-7.47
		c1.748-1.938,4.003-2.906,6.766-2.906c2.746,0,4.936,0.938,6.568,2.813c1.633,1.889,2.449,4.392,2.449,7.511l-0.037,1.272h-10.91
		c0.086,1.93,0.668,2.895,1.744,2.895C109.851,223.985,110.402,223.577,110.662,222.76z M106.45,206.933l2.022-6.03h6.012
		l-3.767,6.03H106.45z M110.81,216.878c0-0.266-0.043-0.509-0.13-0.729c-0.087-0.222-0.208-0.412-0.362-0.571
		c-0.155-0.159-0.337-0.285-0.547-0.378c-0.21-0.093-0.439-0.14-0.687-0.14c-0.52,0-0.94,0.171-1.262,0.511
		c-0.322,0.341-0.482,0.776-0.482,1.308H110.81z"/>
</g>
<g enable-background="new    ">
	<path fill="#FBD200" d="M128.53,229.551h-7.459v-20.058h7.459l-0.39,3.915c1.125-2.932,2.987-4.397,5.585-4.397v8.35
		c-0.816-0.445-1.509-0.668-2.078-0.668c-1.002,0-1.772,0.362-2.31,1.085c-0.538,0.725-0.807,1.779-0.807,3.164V229.551z"/>
</g>
<g enable-background="new    ">
	<path fill="#FBD200" d="M154.4,219.826c0,2.969-0.864,5.332-2.594,7.09c-1.729,1.757-4.047,2.636-6.953,2.636
		c-2.857,0-5.131-0.896-6.822-2.689c-1.68-1.806-2.52-4.228-2.52-7.268c0-3.041,0.859-5.48,2.575-7.321
		c1.704-1.853,3.966-2.779,6.785-2.779c2.97,0,5.3,0.921,6.991,2.761C153.554,214.095,154.4,216.619,154.4,219.826z
		 M146.941,219.574c0-0.684-0.047-1.302-0.14-1.854s-0.228-1.026-0.401-1.42c-0.176-0.393-0.386-0.697-0.631-0.914
		c-0.244-0.217-0.519-0.325-0.822-0.325c-0.594,0-1.072,0.41-1.434,1.231c-0.361,0.718-0.543,1.795-0.543,3.23
		c0,1.414,0.182,2.491,0.543,3.231c0.361,0.821,0.846,1.231,1.451,1.231c0.572,0,1.044-0.404,1.417-1.214
		C146.756,221.871,146.941,220.805,146.941,219.574z"/>
	<path fill="#FBD200" d="M164.662,229.551h-7.627V198.25h7.441l0.018,11.374c0,0.928-0.037,1.992-0.111,3.191
		c0.681-1.212,1.367-2.071,2.061-2.579c0.717-0.494,1.619-0.742,2.709-0.742c2.027,0,3.6,0.896,4.713,2.689
		c1.113,1.781,1.67,4.294,1.67,7.535c0,3.1-0.576,5.511-1.727,7.232c-1.138,1.733-2.715,2.601-4.73,2.601
		c-0.979,0-1.807-0.086-2.486-0.26c-0.334-0.234-0.678-0.55-1.03-0.946c-0.353-0.396-0.708-0.891-1.067-1.484
		c0.013,0.235,0.025,0.437,0.037,0.603c0.013,0.168,0.025,0.307,0.037,0.418L164.662,229.551z M168.056,219.666
		c0-2.761-0.631-4.142-1.893-4.142c-1.113,0-1.67,1.303-1.67,3.909c0,2.726,0.576,4.088,1.727,4.088
		C167.445,223.521,168.056,222.236,168.056,219.666z"/>
	<path fill="#FBD200" d="M186.445,203.278c0,1.176-0.428,2.189-1.281,3.043c-0.878,0.842-1.898,1.262-3.061,1.262
		c-1.201,0-2.227-0.427-3.08-1.28c-0.842-0.878-1.262-1.904-1.262-3.08c0-1.199,0.42-2.22,1.262-3.062
		c0.877-0.841,1.898-1.262,3.061-1.262c1.225,0,2.258,0.427,3.1,1.28C186.023,201.021,186.445,202.053,186.445,203.278z
		 M185.814,229.551h-7.459v-20.058h7.459V229.551z"/>
	<path fill="#FBD200" d="M199.451,223.118v6.313c-0.445,0.046-0.834,0.077-1.168,0.095c-0.334,0.017-0.613,0.025-0.836,0.025
		c-2.184,0-4-0.641-5.45-1.922c-0.982-0.866-1.779-2.053-2.391-3.56c-0.61-1.507-0.917-3.056-0.917-4.646
		c0-2.823,0.875-5.19,2.625-7.101c1.736-1.887,3.949-2.83,6.635-2.83c0.16,0,0.364,0.007,0.611,0.02
		c0.248,0.013,0.545,0.032,0.891,0.058v6.788c-2.201,0.137-3.303,1.243-3.303,3.319c0,0.936,0.272,1.757,0.816,2.464
		c0.557,0.674,1.219,1.01,1.986,1.01c0.074,0,0.15-0.003,0.231-0.009C199.262,223.138,199.352,223.129,199.451,223.118z"/>
	<path fill="#FBD200" d="M210.621,225.293c0,1.171-0.428,2.173-1.282,3.007c-0.831,0.834-1.848,1.251-3.05,1.251
		c-1.189,0-2.225-0.423-3.105-1.27c-0.855-0.859-1.283-1.898-1.283-3.119c0-1.195,0.422-2.216,1.265-3.062s1.86-1.27,3.05-1.27
		c1.227,0,2.268,0.436,3.124,1.308C210.193,222.997,210.621,224.048,210.621,225.293z"/>
</g>
<g enable-background="new    ">
	<path fill="#FFFFFF" d="M222.013,214.501c-0.619-0.418-1.152-0.864-1.6-1.339s-0.802-0.985-1.062-1.532
		c-0.488-1.03-0.732-2.502-0.732-4.416v-8.326c0-1.834-0.203-2.944-0.609-3.33c-0.391-0.402-1.522-0.604-3.395-0.604l-1.049,0.024
		l-0.562,0.024v-6.757l4.664-0.193c3.438,0.049,5.888,0.738,7.35,2.068c1.496,1.347,2.244,3.554,2.244,6.619v10.1
		c0,1.672,0.212,2.864,0.635,3.578c0.407,0.665,1.229,1.135,2.467,1.411v6.352c-1.156,0.243-1.971,0.682-2.441,1.313
		c-0.439,0.634-0.66,1.664-0.66,3.091v10.148c0,3.066-0.748,5.257-2.244,6.571c-1.462,1.33-3.92,1.995-7.375,1.995l-4.639-0.129
		v-7.195h1.709c1.807,0.032,2.906-0.16,3.297-0.579c0.406-0.386,0.609-1.488,0.609-3.307v-8.325c0-2.043,0.229-3.507,0.684-4.392
		C219.775,216.376,220.677,215.418,222.013,214.501z"/>
</g>
</svg>
